<svg width="32" height="32" viewBox="0 0 32 32" fill="none" xmlns="http://www.w3.org/2000/svg">
<path d="M14.7595 18.8549C14.736 18.7321 14.6019 18.555 14.3553 18.3237C14.0779 18.0699 13.8855 17.943 13.778 17.943C13.7084 17.943 13.5744 18.0546 13.3738 18.2777C13.1578 18.4936 13.0237 18.6052 12.9695 18.6123H10.418V16.4539H13.8353C13.951 16.4539 14.0083 16.3884 14.0083 16.2574C13.9848 16.1346 13.8507 15.9575 13.604 15.7262C13.3267 15.4724 13.1343 15.3455 13.0268 15.3455C12.9572 15.3455 12.8231 15.4571 12.6225 15.6802C12.4219 15.9033 12.2919 16.0189 12.2305 16.0261H10.418V14.1327H14.1925C14.3082 14.1327 14.3655 14.0672 14.3655 13.9362C14.3573 13.8288 14.2232 13.6517 13.9612 13.4051C13.6839 13.1512 13.4915 13.0243 13.384 13.0243C13.3226 13.0243 13.1875 13.1359 12.9797 13.359C12.7791 13.5749 12.6491 13.6865 12.5877 13.6937H10.0362C10.1519 13.6394 10.2634 13.5709 10.3709 13.4859C10.6022 13.3017 10.7168 13.1205 10.7168 12.9435C10.7168 12.79 10.4937 12.6201 10.0475 12.4359C9.57769 12.2434 9.27372 12.1472 9.13555 12.1472C9.01989 12.1472 8.96258 12.2046 8.96258 12.3202C9.16216 12.4666 9.30851 12.6968 9.40165 13.0131L9.53982 13.6251C9.53982 13.6558 9.54698 13.6793 9.56336 13.6947H5.17674C5.10715 13.6947 5.07337 13.7213 5.07337 13.7755C5.11943 13.9526 5.20438 14.0723 5.32719 14.1337H9.14783V16.0271H5.85735C5.78776 16.0271 5.75296 16.0507 5.75296 16.0967C5.8072 16.2738 5.89522 16.3935 6.01804 16.4549H9.14681V18.6134H4.79499C4.73358 18.6134 4.70287 18.64 4.70287 18.6942C4.74177 18.8559 4.82569 18.9716 4.9567 19.0401H14.5733C14.6961 19.0401 14.7575 18.9787 14.7575 18.8559L14.7595 18.8549Z" fill="black"/>
<path d="M26.683 17.9082C26.2061 17.854 25.633 17.7086 24.9626 17.4692C24.5082 17.3003 24.154 17.1498 23.9002 17.0188H26.9133C27.0668 17.0035 27.1446 16.9533 27.1446 16.8684C27.1446 16.7456 26.987 16.5573 26.6718 16.3024C26.3791 16.0558 26.1826 15.933 26.0833 15.933C25.9676 15.933 25.8182 16.0292 25.633 16.2216C25.4405 16.4447 25.3054 16.5644 25.2287 16.5798H22.8849C22.9085 16.5184 22.9463 16.46 23.0006 16.4068C23.1162 16.3147 23.1735 16.2257 23.1735 16.1417C23.1735 16.0261 22.9197 15.9575 22.4121 15.934C22.4653 15.9033 22.5543 15.8419 22.6772 15.7498C22.9392 15.5267 23.0691 15.323 23.0691 15.1377C23.0691 15.0456 22.8962 14.9412 22.5492 14.8266C22.6874 14.8031 22.8337 14.7918 22.9883 14.7918C24.0118 14.7151 24.7118 14.6721 25.0895 14.6649C25.0741 14.6803 25.0547 14.7048 25.0322 14.7396C25.0086 14.7744 24.9749 14.8246 24.9278 14.8901C24.8817 14.9556 24.8387 15.0149 24.8009 15.0692C24.6392 15.2534 24.4662 15.4274 24.2809 15.5891C24.0425 15.758 23.8808 15.8705 23.7958 15.9238C23.6648 15.9933 23.5921 16.0619 23.5768 16.1315C23.5768 16.2543 23.6423 16.3157 23.7733 16.3157C24.0578 16.2922 24.4887 16.1888 25.066 16.0046C25.6667 15.804 26.0045 15.6894 26.0823 15.6587C26.2286 15.6126 26.3013 15.5512 26.3013 15.4745C26.3013 15.3895 26.1785 15.2554 25.9318 15.0702C25.7476 14.9167 25.5859 14.7775 25.4467 14.6547H25.4927C25.6616 14.6311 25.7507 14.5503 25.7578 14.4121C25.7578 14.2893 25.6115 14.1348 25.3187 13.9506C25.157 13.8431 25.0455 13.7735 24.9841 13.7428C25.1376 13.6579 25.2185 13.5893 25.2266 13.535V13.3508H26.9584C27.1579 13.3273 27.2777 13.2812 27.3166 13.2127C27.3166 13.0591 27.205 12.878 26.9819 12.6702C26.7588 12.4236 26.5705 12.3008 26.4159 12.3008C26.331 12.3008 26.2041 12.4011 26.0352 12.6006C25.8581 12.7849 25.7271 12.8933 25.6432 12.924H25.2277V12.485C25.2041 12.3161 24.8357 12.1964 24.1192 12.1268C23.9657 12.1268 23.8879 12.1882 23.8879 12.311V12.923H20.6445V12.4727C20.621 12.3038 20.2556 12.1841 19.5484 12.1145C19.3867 12.1145 19.3058 12.1759 19.3058 12.2987V12.922H17.2282C17.1668 12.922 17.1361 12.9527 17.1361 13.0141C17.1432 13.1451 17.2057 13.2567 17.3203 13.3488H19.3058V13.972C19.3058 14.0949 19.4327 14.1563 19.6866 14.1563C19.794 14.1563 19.9823 14.0949 20.2525 13.972C20.4992 13.8564 20.6292 13.7602 20.6445 13.6834V13.3488H23.8879V13.7878L23.6454 13.8339C23.0139 13.972 22.0754 14.146 20.8288 14.3538C20.4982 14.408 20.1359 14.4674 19.7439 14.5329C19.3519 14.5984 19.0285 14.6526 18.7746 14.6946C18.5208 14.7366 18.3202 14.7693 18.1739 14.7928C18.0582 14.8236 18.0009 14.8891 18.0009 14.9893C18.0009 15.0896 18.0777 15.1398 18.2322 15.1398L18.6825 15.105C18.7982 15.2206 18.8903 15.4131 18.9599 15.6822C19.0213 15.9442 19.0602 16.1397 19.0755 16.2707C19.0755 16.3556 19.1175 16.4171 19.2025 16.4549C19.4338 16.4314 19.6876 16.3127 19.9639 16.0967C20.2259 15.8736 20.3559 15.674 20.3559 15.496C20.3559 15.3578 20.1369 15.2186 19.6978 15.0804C19.6589 15.0569 19.617 15.0415 19.5709 15.0344C20.2403 14.9883 20.8758 14.9423 21.4756 14.8962C21.5605 15.0037 21.6332 15.1654 21.6946 15.3813L21.798 15.9125H21.7171C21.6015 15.9125 21.5442 15.9862 21.5442 16.1315V16.5818H17.4574C17.3807 16.5818 17.3418 16.6125 17.3418 16.6739C17.3653 16.8121 17.4421 16.9278 17.5731 17.0199H20.5749C20.3979 17.2123 20.1789 17.4118 19.9168 17.6206C19.4317 17.9747 18.9742 18.2705 18.5433 18.509C18.0817 18.7403 17.7123 18.9009 17.4349 18.9941C17.1657 19.0708 17.0194 19.1445 16.9958 19.2131C16.9958 19.3441 17.0572 19.4096 17.1801 19.4096C18.2117 19.2254 19.3038 18.8324 20.4583 18.2326C20.8124 18.0331 21.1737 17.8253 21.5431 17.6094V19.2366C21.5431 19.4526 21.6629 19.56 21.9014 19.56C22.0856 19.56 22.2974 19.5068 22.5359 19.3983C22.7508 19.2755 22.8593 19.164 22.8593 19.0637V17.0209H23.1828C23.3445 17.3903 23.6095 17.7598 23.979 18.1293C24.371 18.5059 24.7794 18.8027 25.2031 19.0176C25.5879 19.2182 25.8725 19.3287 26.0577 19.3523C26.1652 19.3523 26.2767 19.2366 26.3924 19.0064C26.5152 18.7679 26.7158 18.5755 26.9921 18.4291C27.2695 18.2674 27.4077 18.1446 27.4077 18.0597C27.4077 18.029 27.1651 17.9788 26.68 17.9092L26.683 17.9082Z" fill="black"/>
<path d="M30.0247 10.479C29.9142 10.3358 29.8435 10.1648 29.82 9.98574C29.5457 7.88358 28.6788 6.0506 27.3135 4.68635C25.9482 3.32107 24.1151 2.45422 22.0139 2.17993C21.8348 2.15639 21.6639 2.08578 21.5206 1.97525C19.8401 0.68366 17.9313 0 16 0C14.0687 0 12.1599 0.682637 10.4794 1.97525C10.3361 2.08578 10.1652 2.15639 9.98606 2.17993C7.88384 2.45422 6.05079 3.32107 4.6865 4.68635C3.32118 6.05162 2.4543 7.88461 2.18001 9.98574C2.15647 10.1648 2.08585 10.3358 1.97531 10.479C0.683684 12.1595 0 14.0683 0 15.9995C0 17.9307 0.68266 19.8394 1.97531 21.5199C2.08585 21.6632 2.15647 21.8341 2.18001 22.0132C2.4543 24.1154 3.32118 25.9484 4.6865 27.3137C6.05181 28.6789 7.88486 29.5458 9.98606 29.8201C10.1652 29.8436 10.3361 29.9142 10.4794 30.0248C12.1599 31.3163 14.0687 32 16 32C17.9313 32 19.8401 31.3174 21.5206 30.0248C21.6639 29.9142 21.8348 29.8436 22.0139 29.8201C24.1162 29.5458 25.9492 28.6789 27.3135 27.3137C28.6778 25.9484 29.5457 24.1154 29.82 22.0132C29.8435 21.8341 29.9142 21.6632 30.0247 21.5199C31.3163 19.8394 32 17.9307 32 15.9995C32 14.0683 31.3173 12.1595 30.0247 10.479ZM29.7811 21.3316C29.6378 21.5179 29.5457 21.74 29.516 21.9723C29.2499 24.0069 28.4137 25.7775 27.0965 27.0946C25.7793 28.4118 24.0077 29.248 21.974 29.5141C21.7407 29.5448 21.5196 29.6369 21.3333 29.7791C19.707 31.0298 17.8627 31.6909 16 31.6909C14.1373 31.6909 12.293 31.0298 10.6667 29.7791C10.4804 29.6358 10.2583 29.5437 10.026 29.5141C7.9913 29.248 6.21966 28.4118 4.90347 27.0946C3.58728 25.7775 2.75008 24.0059 2.48398 21.9723C2.45327 21.739 2.36218 21.5179 2.2189 21.3316C0.968211 19.7054 0.307043 17.8611 0.307043 15.9985C0.307043 14.1358 0.968211 12.2916 2.2189 10.6653C2.36218 10.479 2.4543 10.2569 2.48398 10.0246C2.75008 7.99002 3.58626 6.21946 4.90347 4.90229C6.22069 3.58512 7.99233 2.74897 10.026 2.48287C10.2593 2.45217 10.4804 2.36108 10.6667 2.2178C12.293 0.967154 14.1373 0.30601 16 0.30601C17.8627 0.30601 19.707 0.967154 21.3333 2.2178C21.5196 2.36108 21.7417 2.45319 21.974 2.48287C24.0087 2.74897 25.7793 3.58512 27.0965 4.90229C28.4137 6.21946 29.2499 7.99002 29.516 10.0246C29.5467 10.258 29.6378 10.479 29.7811 10.6653C31.0318 12.2916 31.693 14.1358 31.693 15.9985C31.693 17.8611 31.0318 19.7054 29.7811 21.3316Z" fill="black"/>
<path d="M29.3257 10.7973C29.2049 10.6397 29.1271 10.4514 29.1005 10.2549C28.8395 8.27454 28.0218 6.54901 26.7363 5.26357C25.4508 3.97812 23.7252 3.16039 21.7448 2.89941C21.5472 2.87383 21.3599 2.79604 21.2013 2.67426C19.6159 1.45943 17.8177 0.816706 16 0.816706C14.1823 0.816706 12.383 1.45943 10.7987 2.67426C10.6411 2.79502 10.4528 2.8728 10.2552 2.89941C8.2748 3.16039 6.54922 3.97812 5.26374 5.26357C3.97825 6.54901 3.1605 8.27556 2.89951 10.2549C2.87392 10.4524 2.79614 10.6397 2.67434 10.7973C1.45948 12.3826 0.816735 14.1808 0.816735 15.9995C0.816735 17.8181 1.45948 19.6163 2.67434 21.2006C2.79511 21.3582 2.8729 21.5465 2.89951 21.7431C3.1605 23.7234 3.97825 25.4489 5.26374 26.7344C6.54922 28.0198 8.2748 28.8376 10.2552 29.0985C10.4528 29.1241 10.6401 29.2019 10.7987 29.3237C12.3841 30.5385 14.1823 31.1812 16 31.1812C17.8177 31.1812 19.617 30.5385 21.2013 29.3237C21.3589 29.2029 21.5472 29.1251 21.7448 29.0985C23.7252 28.8376 25.4508 28.0198 26.7363 26.7344C28.0218 25.4489 28.8395 23.7224 29.1005 21.7431C29.1261 21.5455 29.2039 21.3582 29.3257 21.2006C30.5405 19.6153 31.1833 17.8171 31.1833 15.9995C31.1833 14.1819 30.5405 12.3826 29.3257 10.7973ZM29.2448 21.1382C29.1128 21.3101 29.0278 21.5148 28.9992 21.7297C28.7402 23.6876 27.9327 25.3926 26.6636 26.6627C25.3945 27.9318 23.6884 28.7393 21.7315 28.9982C21.5165 29.0269 21.3118 29.1118 21.1399 29.2439C19.573 30.4454 17.7962 31.0799 16 31.0799C14.2038 31.0799 12.427 30.4454 10.8601 29.2439C10.6882 29.1118 10.4835 29.0269 10.2685 28.9982C8.31063 28.7393 6.60551 27.9318 5.3364 26.6627C4.06729 25.3937 3.25977 23.6876 3.00083 21.7297C2.97217 21.5148 2.88723 21.3101 2.7552 21.1382C1.55364 19.5713 0.919082 17.7946 0.919082 15.9995C0.919082 14.2044 1.55364 12.4266 2.7552 10.8598C2.88723 10.6878 2.97217 10.4831 3.00083 10.2682C3.25977 8.31036 4.06729 6.6053 5.3364 5.33521C6.60551 4.06511 8.31165 3.25864 10.2685 2.99971C10.4835 2.97105 10.6882 2.88611 10.8601 2.75408C12.427 1.55256 14.2038 0.918027 16 0.918027C17.7962 0.918027 19.5719 1.55256 21.1399 2.75408C21.3118 2.88611 21.5165 2.97105 21.7315 2.99971C23.6894 3.25864 25.3945 4.06614 26.6636 5.33521C27.9327 6.60428 28.7402 8.31036 28.9992 10.2682C29.0278 10.4831 29.1128 10.6878 29.2448 10.8598C30.4464 12.4266 31.0809 14.2033 31.0809 15.9995C31.0809 17.7956 30.4464 19.5713 29.2448 21.1382Z" fill="black"/>
<path d="M10.7445 23.4409C10.7117 23.4798 10.6759 23.5197 10.636 23.5525C10.593 23.5852 10.5479 23.6119 10.4947 23.6313C10.4395 23.6507 10.374 23.661 10.3013 23.661H9.98401C9.93181 23.661 9.8919 23.6477 9.86938 23.6252C9.84277 23.5986 9.83356 23.5597 9.83356 23.5044V23.0981H10.1774C10.2327 23.0981 10.2726 23.1114 10.2982 23.137C10.3207 23.1595 10.334 23.1963 10.334 23.2485V23.3171H10.4814V22.7307H10.334V22.7992C10.334 22.8484 10.3207 22.8873 10.2982 22.9139C10.2716 22.9364 10.2296 22.9497 10.1734 22.9497H9.83253V22.5505C9.83253 22.4912 9.84584 22.4523 9.87859 22.4298C9.90827 22.4032 9.95023 22.394 10.0035 22.394H10.288C10.3596 22.394 10.4251 22.4001 10.4814 22.4206C10.5336 22.4369 10.5797 22.4595 10.6186 22.4891C10.6575 22.5188 10.6943 22.5546 10.7271 22.5935C10.7567 22.6324 10.7864 22.6723 10.812 22.7184L10.9399 22.6529L10.7823 22.2466H9.26246V22.394H9.32489C9.37709 22.394 9.41291 22.4042 9.43952 22.4298C9.46613 22.4523 9.47841 22.4922 9.47841 22.5505V23.5034C9.47841 23.5586 9.46511 23.5986 9.43952 23.6241C9.41291 23.6467 9.37709 23.66 9.32489 23.66H9.26246V23.8073H10.7946L10.9553 23.3785L10.8274 23.313C10.8007 23.356 10.7721 23.398 10.7424 23.4409H10.7445Z" fill="black"/>
<path d="M12.4506 22.3929H12.5099C12.5621 22.3929 12.598 22.4032 12.6246 22.4288C12.6512 22.4482 12.6635 22.4881 12.6635 22.5465V23.2731L11.7106 22.2445H11.1866V22.3919H11.246C11.2982 22.3919 11.334 22.4021 11.3606 22.4277C11.3872 22.4472 11.3995 22.4871 11.3995 22.5454V23.5054C11.3995 23.5607 11.3862 23.6006 11.3606 23.6262C11.334 23.6456 11.2982 23.6589 11.246 23.6589H11.1866V23.8063H11.7628V23.6589H11.6973C11.6451 23.6589 11.6052 23.6456 11.5827 23.6262C11.5561 23.5996 11.5469 23.5607 11.5469 23.5054V22.5884L12.6737 23.8063H12.8108V22.5454C12.8108 22.4861 12.8211 22.4472 12.8467 22.4277C12.8692 22.4011 12.9091 22.3919 12.9613 22.3919H13.0268V22.2445H12.4506V22.3929Z" fill="black"/>
<path d="M13.9807 23.6241C13.9541 23.6467 13.9182 23.66 13.8661 23.66H13.7678V23.8073H14.6193V23.66H14.5211C14.4689 23.66 14.429 23.6467 14.4064 23.6241C14.3798 23.5975 14.3706 23.5586 14.3706 23.5034V22.5505C14.3706 22.5045 14.3768 22.4687 14.3972 22.439C14.4167 22.4062 14.4525 22.3929 14.5088 22.3929C14.561 22.3929 14.6101 22.4032 14.6592 22.4288C14.7053 22.4482 14.7514 22.4779 14.7964 22.5137C14.8394 22.5465 14.8813 22.5823 14.9213 22.6253C14.9612 22.6682 14.997 22.7102 15.0359 22.7501L15.1311 22.6979L15.0001 22.2456H13.3891L13.2581 22.6979L13.3533 22.7501C13.386 22.7112 13.4249 22.6682 13.4679 22.6253C13.5068 22.5823 13.5467 22.5465 13.5928 22.5137C13.6388 22.4779 13.6849 22.4482 13.7299 22.4288C13.776 22.4021 13.8282 22.3929 13.8804 22.3929C13.9326 22.3929 13.9725 22.4062 13.9919 22.439C14.0083 22.4687 14.0185 22.5045 14.0185 22.5505V23.5034C14.0185 23.5586 14.0052 23.5986 13.9827 23.6241H13.9807Z" fill="black"/>
<path d="M16.8259 22.9661C16.872 22.9302 16.9078 22.8873 16.9375 22.8412C16.9641 22.789 16.9764 22.7327 16.9764 22.6672C16.9764 22.572 16.9467 22.4973 16.8945 22.441C16.8392 22.3817 16.7697 22.3397 16.6919 22.3131C16.61 22.2834 16.525 22.264 16.4329 22.2578C16.3377 22.2476 16.2528 22.2445 16.1771 22.2445H15.3583V22.3919H15.4207C15.4729 22.3919 15.5087 22.4021 15.5353 22.4277C15.5579 22.4502 15.5712 22.4902 15.5712 22.5485V23.5013C15.5712 23.5566 15.5579 23.5965 15.5353 23.6221C15.5087 23.6446 15.4729 23.6579 15.4207 23.6579H15.3583V23.8053H16.1412V23.6579H16.0788C16.0266 23.6579 15.9867 23.6446 15.9611 23.6221C15.9345 23.5955 15.9253 23.5566 15.9253 23.5013V23.095H16.0297L16.5998 23.8053H17.1535V23.6548C17.088 23.6548 17.0286 23.6446 16.9703 23.6252C16.9109 23.6026 16.8618 23.5627 16.8198 23.5105L16.4759 23.0848C16.5414 23.0746 16.6038 23.0623 16.6622 23.0418C16.7215 23.0224 16.7768 22.9957 16.8259 22.963V22.9661ZM16.5609 22.7992C16.5383 22.8351 16.5087 22.8647 16.4759 22.8873C16.4401 22.9067 16.4002 22.9231 16.3551 22.9333C16.306 22.9435 16.2569 22.9497 16.2108 22.9497H15.9263V22.5505C15.9263 22.4912 15.9396 22.4523 15.9693 22.4298C15.9959 22.4032 16.0348 22.394 16.087 22.394H16.1259C16.1914 22.394 16.2508 22.397 16.3091 22.4042C16.3685 22.4103 16.4176 22.4267 16.4595 22.4472C16.4984 22.4666 16.5312 22.4932 16.5578 22.5291C16.5803 22.5618 16.5936 22.6048 16.5936 22.6601C16.5936 22.7153 16.5803 22.7614 16.5609 22.8013V22.7992Z" fill="black"/>
<path d="M18.8637 23.4409C18.8309 23.4798 18.7951 23.5197 18.7552 23.5525C18.7122 23.5852 18.6672 23.6119 18.614 23.6313C18.5587 23.6507 18.4932 23.661 18.4205 23.661H18.1032C18.051 23.661 18.0111 23.6477 17.9886 23.6252C17.962 23.5986 17.9528 23.5597 17.9528 23.5044V23.0981H18.2967C18.3519 23.0981 18.3919 23.1114 18.4175 23.137C18.44 23.1595 18.4533 23.1963 18.4533 23.2485V23.3171H18.6007V22.7307H18.4533V22.7992C18.4533 22.8484 18.44 22.8873 18.4175 22.9139C18.3908 22.9364 18.3489 22.9497 18.2926 22.9497H17.9518V22.5505C17.9518 22.4912 17.9651 22.4523 17.9978 22.4298C18.0275 22.4032 18.0695 22.394 18.1227 22.394H18.4072C18.4789 22.394 18.5444 22.4001 18.6007 22.4206C18.6528 22.4369 18.6989 22.4595 18.7378 22.4891C18.7767 22.5188 18.8135 22.5546 18.8463 22.5935C18.876 22.6324 18.9057 22.6723 18.9312 22.7184L19.0592 22.6529L18.9016 22.2466H17.3817V22.394H17.4441C17.4963 22.394 17.5321 22.4042 17.5588 22.4298C17.5854 22.4523 17.5976 22.4922 17.5976 22.5505V23.5034C17.5976 23.5586 17.5843 23.5986 17.5588 23.6241C17.5321 23.6467 17.4963 23.66 17.4441 23.66H17.3817V23.8073H18.9138L19.0745 23.3785L18.9466 23.313C18.92 23.356 18.8913 23.398 18.8616 23.4409H18.8637Z" fill="black"/>
<path d="M20.7858 23.4409C20.753 23.4798 20.7172 23.5197 20.6773 23.5525C20.6343 23.5852 20.5893 23.6119 20.536 23.6313C20.4808 23.6507 20.4153 23.661 20.3426 23.661H20.0253C19.9731 23.661 19.9332 23.6477 19.9107 23.6252C19.8841 23.5986 19.8749 23.5597 19.8749 23.5044V23.0981H20.2188C20.274 23.0981 20.314 23.1114 20.3395 23.137C20.3621 23.1595 20.3754 23.1963 20.3754 23.2485V23.3171H20.5227V22.7307H20.3754V22.7992C20.3754 22.8484 20.3621 22.8873 20.3395 22.9139C20.3129 22.9364 20.271 22.9497 20.2147 22.9497H19.8739V22.5505C19.8739 22.4912 19.8872 22.4523 19.9199 22.4298C19.9496 22.4032 19.9916 22.394 20.0448 22.394H20.3293C20.4009 22.394 20.4664 22.4001 20.5227 22.4206C20.5749 22.4369 20.621 22.4595 20.6599 22.4891C20.6988 22.5188 20.7356 22.5546 20.7684 22.5935C20.7981 22.6324 20.8277 22.6723 20.8533 22.7184L20.9813 22.6529L20.8236 22.2466H19.3038V22.394H19.3662C19.4184 22.394 19.4542 22.4042 19.4808 22.4298C19.5075 22.4523 19.5197 22.4922 19.5197 22.5505V23.5034C19.5197 23.5586 19.5064 23.5986 19.4808 23.6241C19.4542 23.6467 19.4184 23.66 19.3662 23.66H19.3038V23.8073H20.8359L20.9966 23.3785L20.8687 23.313C20.8421 23.356 20.8134 23.398 20.7837 23.4409H20.7858Z" fill="black"/>
<path d="M22.5902 23.0377C22.5472 23.0019 22.5021 22.9722 22.4489 22.9456C22.3967 22.919 22.3404 22.8995 22.2882 22.8832C22.2033 22.8535 22.1245 22.8279 22.0528 22.8074C21.9771 22.7808 21.9055 22.7583 21.8338 22.7358C21.7745 22.7163 21.7223 22.6897 21.6731 22.657C21.624 22.6242 21.6015 22.5812 21.6015 22.5321C21.6015 22.4799 21.6312 22.44 21.6936 22.4073C21.753 22.3714 21.8277 22.3551 21.9167 22.3551C22.0477 22.3551 22.1654 22.3776 22.2667 22.4236C22.365 22.4697 22.4499 22.5516 22.5154 22.6754L22.6434 22.616L22.5185 22.1903L22.4008 22.2425L22.3292 22.2722L22.2831 22.2558C22.2565 22.2497 22.2279 22.2425 22.191 22.2363C22.1521 22.2261 22.1091 22.22 22.06 22.2169C22.0109 22.2108 21.9587 22.2067 21.9024 22.2067C21.8369 22.2067 21.7714 22.2128 21.7028 22.2292C21.6312 22.2425 21.5687 22.265 21.5094 22.3008C21.45 22.3336 21.4009 22.3766 21.3651 22.4318C21.3262 22.4871 21.3057 22.5567 21.3057 22.6386C21.3057 22.701 21.3159 22.7563 21.3384 22.8054C21.3579 22.8514 21.3845 22.8903 21.4234 22.9261C21.4561 22.9589 21.4991 22.9886 21.5442 23.0142C21.5902 23.0336 21.6394 23.0531 21.6915 23.0694C21.7734 23.0919 21.8553 23.1186 21.9341 23.1452C22.0098 23.1718 22.0876 23.1943 22.1695 23.2209C22.2289 23.2373 22.2811 23.267 22.3333 23.3089C22.3855 23.3478 22.4121 23.3969 22.4121 23.4594C22.4121 23.4983 22.3988 23.531 22.3793 23.5638C22.3599 23.5904 22.3333 23.6159 22.3005 23.6354C22.2647 23.6518 22.2248 23.6651 22.1828 23.6743C22.1368 23.6845 22.0948 23.6907 22.0487 23.6907C21.885 23.6907 21.7407 23.6518 21.623 23.576C21.5022 23.4972 21.4132 23.3959 21.361 23.2782L21.2269 23.3468L21.4173 23.8483C21.4306 23.835 21.45 23.8258 21.4766 23.8155C21.4961 23.8022 21.5196 23.793 21.5391 23.7828L21.6107 23.75C21.6434 23.7664 21.6823 23.7828 21.7315 23.7961C21.7704 23.8063 21.8236 23.8155 21.8819 23.8258C21.9413 23.8319 22.0099 23.8391 22.0917 23.8391C22.1603 23.8391 22.233 23.8258 22.3077 23.8063C22.3834 23.7869 22.452 23.7541 22.5175 23.7142C22.5799 23.6712 22.6321 23.619 22.6751 23.5607C22.714 23.4983 22.7345 23.4266 22.7345 23.3447C22.7345 23.2731 22.7212 23.2137 22.6956 23.1646C22.669 23.1124 22.6332 23.0694 22.5912 23.0336L22.5902 23.0377Z" fill="black"/>
<path d="M7.84495 8.63172C7.99233 8.65424 8.05169 8.69108 8.05169 8.78421C8.05169 8.83129 8.04964 8.87018 8.04657 8.90907C8.02405 9.29696 7.99233 9.92842 7.99233 10.086C7.99233 10.3562 8.18372 10.5159 8.49076 10.5159C8.87866 10.5159 9.3382 10.2232 9.60328 9.90898C9.61351 9.89874 9.61556 9.88646 9.61556 9.8793C9.61556 9.86702 9.60839 9.85985 9.59611 9.85985C9.58588 9.85985 9.5736 9.86497 9.55927 9.87418C9.26962 10.0901 8.87865 10.2529 8.5276 10.2529C8.34133 10.2529 8.25536 10.1914 8.25536 9.9929C8.25536 9.84757 8.28708 9.31743 8.3096 8.9756C8.31677 8.87223 8.33621 8.80161 8.36385 8.75249C8.37613 8.72997 8.38636 8.71053 8.38636 8.68596C8.38636 8.60716 8.19497 8.50891 8.06192 8.50891C8.00563 8.50891 7.92682 8.53347 7.83369 8.57543C7.81424 8.58567 7.804 8.59488 7.804 8.60511C7.804 8.61739 7.81833 8.62763 7.84597 8.63172H7.84495Z" fill="black"/>
<path d="M10.4886 9.4648C10.4886 9.51597 10.4865 9.5651 10.4835 9.59478C10.4732 9.69303 10.464 9.85473 10.464 9.93354C10.464 10.1618 10.5449 10.3214 10.6626 10.3214C10.7189 10.3214 10.7414 10.2846 10.7414 10.1914V10.1423C10.7414 9.97243 10.8151 9.78411 10.9399 9.6439C11.0239 9.55077 11.1016 9.49653 11.2224 9.4474C11.2224 9.69507 11.2101 9.87929 11.1835 10.0492C11.0658 10.0267 10.9747 9.96526 10.9277 9.87725C10.9205 9.86292 10.9133 9.8578 10.9051 9.8578C10.8969 9.8578 10.8908 9.86497 10.8908 9.88032C10.8908 9.88509 10.8915 9.89396 10.8929 9.90693C10.9174 10.0369 11.0034 10.1382 11.1508 10.1914C11.0873 10.3613 10.9491 10.4964 10.7649 10.5619C10.7301 10.5742 10.723 10.5814 10.723 10.5937C10.723 10.6039 10.7332 10.6131 10.7475 10.6131C10.7649 10.6131 10.7844 10.6111 10.8161 10.6029C11.0842 10.5363 11.2439 10.4207 11.3319 10.2293C11.3442 10.2314 11.3637 10.2344 11.3811 10.2344C11.6779 10.2344 11.9071 10.0256 11.9071 9.74829C11.9071 9.4955 11.7208 9.32356 11.4599 9.32356C11.4483 9.32356 11.4326 9.32425 11.4128 9.32561C11.4148 9.26932 11.4179 9.21713 11.423 9.20075C11.4302 9.17107 11.4333 9.15163 11.4333 9.1373C11.4333 9.07384 11.333 9.01448 11.2224 9.01448C11.161 9.01448 11.0802 9.04416 11.0402 9.06873C11.0259 9.07896 11.0157 9.09124 11.0157 9.09841C11.0157 9.10864 11.0259 9.1158 11.0505 9.11785C11.1805 9.12502 11.2204 9.16493 11.2224 9.26523V9.35631C11.075 9.4126 10.9645 9.48117 10.8765 9.57533C10.7762 9.67358 10.7045 9.80151 10.6431 9.96322C10.636 9.92125 10.6329 9.89157 10.6329 9.86292C10.6329 9.79946 10.638 9.73294 10.6554 9.65414C10.6697 9.57328 10.6779 9.52109 10.6779 9.47196C10.6779 9.34403 10.5623 9.25806 10.4302 9.22634C10.4221 9.22497 10.4156 9.22429 10.4108 9.22429C10.3985 9.22429 10.3914 9.22941 10.3914 9.23862C10.3914 9.24783 10.3965 9.26113 10.4108 9.27546C10.4548 9.32254 10.4896 9.38804 10.4896 9.4648H10.4886ZM11.4148 9.41772H11.4394C11.6011 9.41772 11.7075 9.52621 11.7075 9.70224C11.7075 9.89362 11.5796 10.0359 11.378 10.0533C11.3974 9.91818 11.4097 9.74829 11.4148 9.4167V9.41772Z" fill="black"/>
<path d="M20.2392 9.34404C20.271 9.34404 20.3109 9.3338 20.3477 9.32152C20.3948 9.30719 20.4531 9.28468 20.5268 9.26523C20.6056 9.24272 20.7039 9.21099 20.8042 9.17722C20.883 9.31947 20.9587 9.45764 21.0846 9.62651C20.9055 9.59478 20.8267 9.59171 20.7111 9.59171C20.3917 9.59171 20.0458 9.7616 20.0458 10.0533C20.0458 10.2109 20.1543 10.3184 20.318 10.39C20.5268 10.4811 20.8267 10.5128 21.1215 10.5128C21.3037 10.5128 21.3988 10.478 21.3988 10.3951C21.3988 10.3583 21.3866 10.3194 21.3395 10.2774C21.2955 10.2385 21.2484 10.2109 21.1972 10.2109C21.1726 10.2109 21.1379 10.216 21.0867 10.2232C21.0396 10.2303 21.0079 10.2334 20.9761 10.2334C20.6548 10.2334 20.4429 10.1945 20.3201 10.1403C20.229 10.1014 20.187 10.0471 20.187 9.98267C20.187 9.83017 20.3815 9.70736 20.5872 9.70736C20.7929 9.70736 21.015 9.78309 21.1911 9.8967C21.233 9.92331 21.2668 9.93354 21.2996 9.93354C21.3784 9.93354 21.4367 9.83324 21.4367 9.76365C21.4367 9.70736 21.4224 9.6828 21.3528 9.61423C21.2525 9.51597 21.1297 9.31947 21.0212 9.10557C21.1952 9.04929 21.3896 8.97764 21.5391 8.91112C21.5831 8.89168 21.6025 8.86916 21.6025 8.82515C21.6025 8.7443 21.5217 8.68494 21.448 8.68494C21.4183 8.68494 21.3814 8.69006 21.3395 8.71155C21.2146 8.775 21.0672 8.83948 20.927 8.8886C20.9127 8.85688 20.9004 8.82924 20.8881 8.7924C20.8615 8.7136 20.8513 8.6747 20.8513 8.6307C20.8513 8.60818 20.8584 8.58669 20.8584 8.56417C20.8584 8.50993 20.7848 8.45569 20.6374 8.45569C20.5657 8.45569 20.5023 8.4782 20.4061 8.53654C20.3938 8.5437 20.3887 8.55394 20.3887 8.5611C20.3887 8.57338 20.4009 8.58362 20.4235 8.58362C20.5074 8.58362 20.5463 8.61535 20.5903 8.68699C20.6292 8.75556 20.6445 8.79035 20.708 8.96229C20.6046 8.99709 20.5258 9.02165 20.4695 9.03803C20.3365 9.07692 20.2679 9.09432 20.1891 9.09432C20.1297 9.09432 20.0765 9.05236 20.0294 8.94182C20.0243 8.9275 20.0151 8.91931 20.0049 8.91931C19.9926 8.91931 19.9823 8.92954 19.9823 8.94899C19.9823 9.05747 19.9946 9.12093 20.0264 9.17722C20.0929 9.29286 20.1635 9.34199 20.2351 9.34199L20.2392 9.34404Z" fill="black"/>
<path d="M22.5288 9.2724C22.5288 9.5037 22.541 9.69713 22.5636 9.82301C22.6004 10.0267 22.7457 10.3736 23.018 10.3736C23.1183 10.3736 23.1551 10.3265 23.1582 10.2314C23.1602 10.1403 23.1684 10.042 23.1848 9.93457C23.2042 9.82199 23.2636 9.68382 23.3711 9.48527C23.499 9.24988 23.6536 9.05338 23.7692 9.05338C23.9391 9.05338 24.1254 9.27956 24.1254 9.5303C24.1254 9.64288 24.0936 9.66028 23.9954 9.6828C23.8992 9.70531 23.7846 9.73192 23.6566 9.75853C23.6392 9.76058 23.63 9.77286 23.63 9.7831C23.63 9.79333 23.6423 9.80254 23.6648 9.80254C23.8245 9.80254 23.9156 9.80766 24.0107 9.8271C24.0947 9.8445 24.1632 9.87418 24.2124 9.92331C24.2472 9.9581 24.2666 9.9622 24.3035 9.9622C24.3966 9.9622 24.4775 9.84143 24.4775 9.72169C24.4775 9.64288 24.4508 9.54463 24.3546 9.37986C24.2124 9.13935 24.0005 8.97458 23.8071 8.97458C23.6136 8.97458 23.5 9.12707 23.3138 9.40647C23.1367 9.67461 23.063 9.78514 23.0313 9.83427C22.9965 9.88544 22.9699 9.92024 22.9259 9.92024C22.887 9.92024 22.8501 9.88851 22.8174 9.79947C22.7856 9.71555 22.7457 9.46583 22.7457 9.26421C22.7457 9.09227 22.7334 9.02575 22.6915 8.94694C22.6618 8.89065 22.583 8.80468 22.4725 8.72588C22.4602 8.71871 22.4499 8.7136 22.4428 8.7136C22.4325 8.7136 22.4254 8.72076 22.4254 8.731C22.4254 8.73816 22.4274 8.74839 22.4325 8.75761C22.496 8.87018 22.5257 9.02984 22.5288 9.27342V9.2724Z" fill="black"/>
<path d="M16.5066 27.4283C16.4155 27.5194 16.3644 27.6033 16.2989 27.6637C16.2047 27.7507 16.0675 27.6135 16.1545 27.5194C16.2149 27.4539 16.2989 27.4027 16.3899 27.3116C16.6049 27.0967 16.6049 26.7477 16.3899 26.5317C16.175 26.3168 15.826 26.3168 15.6101 26.5317C15.3951 26.7467 15.3951 27.0957 15.6101 27.3116C15.7011 27.4027 15.7851 27.4539 15.8455 27.5194C15.9324 27.6135 15.7953 27.7507 15.7011 27.6637C15.6356 27.6033 15.5845 27.5194 15.4934 27.4283C15.2784 27.2134 14.9294 27.2134 14.7135 27.4283C14.4986 27.6432 14.4986 27.9922 14.7135 28.2081C14.9284 28.4231 15.2774 28.4231 15.4934 28.2081C15.5845 28.1171 15.6356 28.0331 15.7011 27.9728C15.7953 27.8858 15.9324 28.0229 15.8455 28.1171C15.7851 28.1826 15.7011 28.2337 15.6101 28.3248C15.3951 28.5397 15.3951 28.8887 15.6101 29.1047C15.825 29.3196 16.174 29.3196 16.3899 29.1047C16.6049 28.8898 16.6049 28.5408 16.3899 28.3248C16.2989 28.2337 16.2149 28.1826 16.1545 28.1171C16.0675 28.0229 16.2047 27.8858 16.2989 27.9728C16.3644 28.0331 16.4155 28.1171 16.5066 28.2081C16.7216 28.4231 17.0706 28.4231 17.2865 28.2081C17.5014 27.9932 17.5014 27.6442 17.2865 27.4283C17.0716 27.2134 16.7226 27.2134 16.5066 27.4283Z" fill="black"/>
<path d="M15.4924 4.56967C15.5834 4.47858 15.6346 4.39466 15.7001 4.33428C15.7943 4.24728 15.9314 4.38443 15.8444 4.47858C15.784 4.54408 15.7001 4.59525 15.609 4.68634C15.3941 4.90126 15.3941 5.25026 15.609 5.4662C15.824 5.68113 16.173 5.68113 16.3889 5.4662C16.6038 5.25128 16.6038 4.90229 16.3889 4.68634C16.2978 4.59525 16.2139 4.54408 16.1535 4.47858C16.0665 4.38443 16.2037 4.24728 16.2978 4.33428C16.3633 4.39466 16.4145 4.47858 16.5056 4.56967C16.7205 4.78459 17.0695 4.78459 17.2855 4.56967C17.5004 4.35475 17.5004 4.00575 17.2855 3.7898C17.0706 3.57488 16.7215 3.57488 16.5056 3.7898C16.4145 3.88089 16.3633 3.96481 16.2978 4.0252C16.2037 4.11219 16.0665 3.97505 16.1535 3.88089C16.2139 3.81539 16.2978 3.76422 16.3889 3.67313C16.6038 3.45821 16.6038 3.10922 16.3889 2.89327C16.174 2.67835 15.825 2.67835 15.609 2.89327C15.3941 3.10819 15.3941 3.45719 15.609 3.67313C15.7001 3.76422 15.784 3.81539 15.8444 3.88089C15.9314 3.97505 15.7943 4.11219 15.7001 4.0252C15.6346 3.96481 15.5834 3.88089 15.4924 3.7898C15.2774 3.57488 14.9284 3.57488 14.7125 3.7898C14.4975 4.00473 14.4975 4.35372 14.7125 4.56967C14.9274 4.78459 15.2764 4.78459 15.4924 4.56967Z" fill="black"/>
</svg>
