<svg width="32" height="32" viewBox="0 0 32 32" fill="none" xmlns="http://www.w3.org/2000/svg">
<path d="M6.5746 16.6499C6.7056 16.0184 6.92052 15.169 7.22141 14.0985C7.22141 13.991 7.1641 13.9296 7.04845 13.9143C6.94099 13.9143 6.87549 13.9562 6.85195 14.0412L6.09051 16.1996C5.92062 16.6847 5.75176 16.9385 5.58289 16.961C5.49794 16.961 5.26766 16.9344 4.89001 16.8801C4.78255 16.8801 4.7283 16.9374 4.7283 17.0531C4.75184 17.1227 4.84396 17.226 5.00566 17.3652C5.16737 17.4962 5.25538 17.6538 5.27073 17.838C5.25538 18.0079 5.21649 18.1573 5.15508 18.2883C5.08549 18.4193 5.05171 18.5462 5.05171 18.6691C5.07525 18.9075 5.23286 19.0539 5.52454 19.1081C5.95541 19.0385 6.21742 18.8195 6.30953 18.45C6.30953 17.9117 6.39754 17.311 6.5746 16.6499Z" fill="black"/>
<path d="M7.9716 15.0564C8.0719 15.1332 8.164 15.1721 8.24895 15.1721C8.34925 15.1721 8.4956 15.1066 8.68801 14.9756C8.80366 14.8835 8.88451 14.8026 8.93057 14.733H12.44V14.7903C12.44 14.9592 12.5321 15.0441 12.7173 15.0441C12.9025 15.0441 13.0868 15.0216 13.2945 14.9745C13.4787 14.905 13.5872 14.8435 13.6179 14.7903V13.0935C13.6333 13.0475 13.6753 12.982 13.7448 12.897C13.7909 12.8203 13.8257 12.7394 13.8492 12.6545C13.8492 12.5777 13.6947 12.4549 13.3877 12.285C13.1031 12.1315 12.8913 12.0537 12.7531 12.0537C12.6835 12.0537 12.5843 12.1039 12.4533 12.2042C12.3069 12.3045 12.2066 12.3618 12.1534 12.3771H9.03701C8.99095 12.3536 8.84869 12.2809 8.61023 12.1581C8.31752 12.02 8.12511 11.9504 8.033 11.9504C7.902 11.9504 7.83241 12.0005 7.82524 12.1008V14.7791C7.82524 14.8865 7.8754 14.9797 7.9757 15.0564H7.9716ZM8.96433 12.8059H12.2772C12.3847 12.8059 12.4389 12.8632 12.4389 12.9789V13.3136H8.96433V12.8059ZM8.96433 13.7403H12.4389V14.3063H8.96433V13.7403Z" fill="black"/>
<path d="M5.95132 13.1058C6.01273 13.244 6.04753 13.4098 6.05469 13.6022C6.05469 13.8641 6.20513 13.9941 6.505 13.9941C6.71276 13.9706 6.88573 13.8713 7.02492 13.6943C7.14773 13.51 7.20913 13.3289 7.20913 13.1519C7.20913 12.9287 7.04333 12.7599 6.71276 12.6442C6.374 12.5061 6.12735 12.4365 5.97384 12.4365C5.82032 12.4365 5.74254 12.4938 5.74254 12.6094C5.74254 12.6637 5.76199 12.7169 5.79986 12.7711C5.83056 12.8254 5.88071 12.9369 5.9503 13.1058H5.95132Z" fill="black"/>
<path d="M12.5658 16.6151H12.9005C13.0387 16.6304 13.1195 16.7154 13.1431 16.8689C13.0356 17.2844 12.9588 17.5965 12.9118 17.8043C12.8422 18.0734 12.6999 18.2392 12.485 18.3006C12.3693 18.3242 12.1575 18.362 11.8505 18.4163C11.658 18.4398 11.5618 18.49 11.5618 18.5667C11.5618 18.6824 11.6498 18.7632 11.8269 18.8093C11.9804 18.8553 12.0582 18.9935 12.0582 19.2248C12.0582 19.4561 12.1462 19.583 12.3233 19.6055C12.5229 19.6055 12.8115 19.5134 13.1891 19.3281C13.5504 19.1357 13.797 18.9208 13.928 18.6813C14.059 18.4429 14.1859 17.9578 14.3088 17.2271C14.3323 17.1043 14.3896 16.9845 14.4817 16.8689C14.5585 16.7921 14.6127 16.6959 14.6434 16.5803C14.6434 16.48 14.5165 16.3265 14.2627 16.1187C13.9935 15.9038 13.7929 15.7953 13.663 15.7953C13.5555 15.7953 13.4439 15.8649 13.3283 16.0031C13.2434 16.1105 13.1359 16.1719 13.0049 16.1873H9.0104C9.23351 15.9949 9.40237 15.8219 9.51802 15.6674H14.9085C15.0395 15.6674 15.105 15.6142 15.105 15.5057C15.105 15.3972 15.0313 15.2365 14.886 15.0206C14.7478 14.7893 14.6281 14.6747 14.5278 14.6747C14.4428 14.6747 14.3313 14.7709 14.1931 14.9633C14.0314 15.1475 13.9352 15.2406 13.9045 15.2406H7.03617C6.95941 15.2406 6.92052 15.2713 6.92052 15.3327C6.94406 15.4709 7.01673 15.5825 7.13954 15.6674H8.08623C8.03198 15.7595 7.94806 15.8946 7.83241 16.0716C7.67071 16.2876 7.48239 16.4984 7.26645 16.7062C7.07404 16.8832 6.92052 17.0029 6.80487 17.0643C6.68922 17.1186 6.63192 17.1718 6.63192 17.226C6.63192 17.357 6.69332 17.4225 6.81613 17.4225C7.33911 17.2915 7.88972 17.0224 8.46694 16.614H9.04417C8.92852 16.7757 8.76272 16.9641 8.5478 17.18C8.20188 17.4952 7.86618 17.7613 7.5438 17.9762C7.22857 18.1686 6.95531 18.315 6.72402 18.4153C6.52342 18.4848 6.42006 18.5462 6.4129 18.5995C6.4129 18.7223 6.4702 18.7837 6.58585 18.7837C7.32478 18.6302 8.14456 18.2802 9.04417 17.7337C9.70633 17.311 10.1751 16.9374 10.4524 16.614H11.2487C11.1023 16.9528 10.7595 17.3448 10.2211 17.791C9.55896 18.3068 8.82821 18.6987 8.02788 18.9679C7.22755 19.2217 6.71993 19.3721 6.50399 19.4182C6.29623 19.4417 6.17648 19.4796 6.14578 19.5338C6.14578 19.6566 6.22663 19.7181 6.38834 19.7181C7.8273 19.5103 8.94694 19.2493 9.74727 18.9331C10.5558 18.6025 11.1668 18.271 11.5823 17.9404C11.9743 17.6323 12.3018 17.1902 12.5638 16.613L12.5658 16.6151Z" fill="black"/>
<path d="M5.01692 14.5949C5.07116 14.733 5.10494 14.907 5.12131 15.1147C5.12131 15.3767 5.27175 15.5067 5.57162 15.5067C5.77938 15.4832 5.95235 15.3839 6.09154 15.2069C6.21435 15.0226 6.27575 14.8374 6.27575 14.6532C6.27575 14.4301 6.10995 14.253 5.77938 14.122C5.45597 13.9757 5.20933 13.903 5.04046 13.903C4.88694 13.903 4.80916 13.9603 4.80916 14.076C4.80916 14.122 4.82861 14.1794 4.86648 14.2489C4.90537 14.3032 4.95449 14.4188 5.01692 14.5949Z" fill="black"/>
<path d="M18.5908 18.0233C18.4905 18.1154 18.4404 18.185 18.4404 18.231C18.4404 18.3231 18.5131 18.3692 18.6594 18.3692C18.9593 18.2771 19.3287 18.1266 19.7678 17.9189C20.1833 17.6958 20.3911 17.5576 20.3911 17.5034C20.3911 17.3806 20.2683 17.2148 20.0216 17.007C19.7596 16.7921 19.5713 16.6529 19.4557 16.5915C19.34 16.5915 19.2827 16.6222 19.2827 16.6836C19.3062 16.7297 19.3175 16.7727 19.3175 16.8105C19.2868 16.9108 19.1906 17.1145 19.0289 17.4225C18.8365 17.7224 18.6901 17.923 18.5898 18.0233H18.5908Z" fill="black"/>
<path d="M26.8551 18.0233C26.4785 17.9997 25.932 17.8964 25.2156 17.7122C25.1767 17.6968 25.104 17.6753 24.9966 17.6487C24.8891 17.6221 24.8083 17.6006 24.754 17.5853L25.1347 17.5617C25.8041 17.5228 26.2237 17.5044 26.3926 17.5044C26.4775 17.443 26.5235 17.3581 26.5307 17.2506C26.5307 17.1585 26.3885 17.004 26.1039 16.789C25.8112 16.5813 25.6229 16.4656 25.538 16.4431C25.4377 16.4431 25.3538 16.4779 25.2842 16.5465C25.1839 16.6314 25.0652 16.7235 24.926 16.8238C24.7724 16.9467 24.5954 17.051 24.3948 17.136C24.2106 17.2127 24.0673 17.267 23.968 17.2977L23.5985 17.1135C23.2362 16.9293 22.964 16.7399 22.7788 16.5475H22.7675C22.6672 16.4626 22.5485 16.3858 22.4093 16.3162C22.132 16.1627 21.9129 16.0737 21.7512 16.0512C21.6131 16.0512 21.5435 16.0931 21.5435 16.1781C21.5435 16.2016 21.5128 16.3664 21.4514 16.6744C21.3818 16.9589 21.2897 17.2209 21.174 17.4594C21.0666 17.6825 20.8547 17.9209 20.5395 18.1747C20.2243 18.4214 19.7504 18.621 19.12 18.7745C18.5192 18.9055 18.0699 18.9904 17.769 19.0283C17.4999 19.0518 17.3648 19.0856 17.3648 19.1327C17.3648 19.279 17.4651 19.3517 17.6646 19.3517C18.6963 19.2821 19.558 19.1593 20.2498 18.9822C20.9806 18.798 21.5118 18.5626 21.8434 18.2781C22.1975 17.9701 22.4932 17.6006 22.7327 17.1698L22.744 17.1462C22.9435 17.4389 23.2168 17.7234 23.5638 18.0008C24.1328 18.4316 24.6721 18.7816 25.1798 19.0508C25.6956 19.3199 26.0917 19.455 26.369 19.455C26.5225 19.455 26.6464 19.3169 26.7385 19.0395C26.8234 18.755 26.9616 18.5667 27.154 18.4736C27.3382 18.3579 27.4313 18.2617 27.4313 18.185C27.4313 18.0775 27.2389 18.0233 26.8541 18.0233H26.8551Z" fill="black"/>
<path d="M21.4186 12.2287C21.1259 12.0824 20.9223 12.0097 20.8066 12.0097C20.6603 12.0097 20.5835 12.064 20.5753 12.1714V13.7301C20.5753 13.8457 20.6295 13.946 20.737 14.0299C20.8445 14.1149 20.9448 14.1568 21.0369 14.1568C21.1372 14.1568 21.2907 14.0842 21.4984 13.9378C21.5138 13.9225 21.5353 13.903 21.5619 13.8805C21.5885 13.857 21.61 13.8416 21.6254 13.8345H22.6989C22.6836 13.8426 22.6754 13.8734 22.6754 13.9266V14.25H19.8128C19.7432 14.25 19.7095 14.2848 19.7095 14.3544C19.733 14.4925 19.8098 14.601 19.9408 14.6778H21.7072C21.6458 14.7473 21.5189 14.8783 21.3265 15.0697C21.042 15.3082 20.7534 15.52 20.4607 15.7042C20.1762 15.8731 19.9408 15.9928 19.7565 16.0624C19.5867 16.1085 19.4945 16.1586 19.4792 16.2129C19.4792 16.3592 19.5447 16.4319 19.6757 16.4319C20.43 16.2937 21.219 16.001 22.0419 15.5548C22.1115 15.5159 22.2169 15.4545 22.3592 15.3706C22.5014 15.2857 22.6068 15.2243 22.6764 15.1864V16.2487C22.6764 16.3561 22.7921 16.4104 23.0223 16.4104C23.1452 16.4104 23.3222 16.3531 23.5535 16.2374C23.7848 16.1371 23.9035 16.0532 23.9117 15.9836V14.6788H24.143C24.2044 14.8947 24.3313 15.1444 24.5237 15.4289C24.7387 15.737 24.9782 15.9672 25.2391 16.1218C25.5236 16.2988 25.6853 16.3868 25.7242 16.3868C25.8317 16.3868 25.9934 16.2988 26.2094 16.1218C26.3864 15.9529 26.6013 15.8332 26.8562 15.7636C27.11 15.7022 27.2369 15.6408 27.2369 15.5794C27.2369 15.5405 27.067 15.4985 26.7293 15.4525C26.4212 15.3982 26.0323 15.2867 25.5636 15.1178C25.279 15.0022 24.9935 14.8568 24.709 14.6788H27.2369C27.3218 14.6552 27.3638 14.602 27.3638 14.5171C27.3638 14.4403 27.2481 14.294 27.0179 14.078C26.7712 13.8467 26.6136 13.7321 26.545 13.7321C26.4683 13.7321 26.3445 13.8212 26.1756 13.9972C25.9678 14.1671 25.8409 14.251 25.7949 14.251H23.9128V14.0893C23.9046 13.989 23.7623 13.9051 23.486 13.8355H24.929C24.929 13.9972 25.0252 14.078 25.2176 14.078C25.364 14.078 25.5636 14.0514 25.8184 13.9972C26.0108 13.9358 26.1224 13.8744 26.1531 13.813V13.2122C26.192 13.1426 26.238 13.0741 26.2912 13.0045C26.3219 12.9431 26.3526 12.8581 26.3833 12.7507C26.3833 12.6739 26.2257 12.547 25.9105 12.37C25.6025 12.2083 25.3834 12.1274 25.2524 12.1274C25.1675 12.1274 25.06 12.1776 24.929 12.2779C24.7827 12.4007 24.6824 12.4662 24.6292 12.4743H21.8699C21.7164 12.3822 21.566 12.3014 21.4196 12.2318L21.4186 12.2287ZM24.755 12.898C24.8707 12.898 24.928 12.9554 24.928 13.071V13.4057H21.7768V12.898H24.755Z" fill="black"/>
<path d="M17.0209 14.8947C17.0209 15.0175 17.1058 15.0789 17.2747 15.0789C17.4518 15.0554 17.7475 14.906 18.163 14.6286C18.1937 14.5979 18.2326 14.5713 18.2787 14.5478V16.4759C18.2787 16.5915 18.3831 16.6488 18.5908 16.6488C18.7372 16.6488 18.9102 16.5721 19.1108 16.4176C19.3103 16.2559 19.4106 16.1136 19.4106 15.9908V13.6011C19.8333 13.1785 20.084 12.9206 20.1608 12.8274C20.2069 12.766 20.2304 12.72 20.2304 12.6893C20.2304 12.5972 20.1076 12.4969 19.8609 12.3894C19.7913 12.3587 19.6798 12.3086 19.5263 12.239C19.3728 12.1694 19.2612 12.1203 19.1916 12.0885C19.1148 12.0885 19.0719 12.1274 19.0647 12.2042C19.0493 12.2738 18.9531 12.504 18.7761 12.897C18.6062 13.2429 18.3411 13.6124 17.9799 14.0054C17.6032 14.382 17.3484 14.6092 17.2184 14.6859C17.0874 14.7555 17.0219 14.8241 17.0219 14.8937L17.0209 14.8947Z" fill="black"/>
<path d="M30.0248 10.4787C29.9142 10.3354 29.8436 10.1645 29.8201 9.98542C29.5458 7.88333 28.6789 6.05143 27.3137 4.6862C25.9484 3.32097 24.1154 2.45414 22.0143 2.17986C21.8352 2.15633 21.6642 2.08571 21.521 1.97518C19.8405 0.683638 17.9317 0 16.0005 0C14.0693 0 12.1606 0.682615 10.4801 1.97518C10.3368 2.08571 10.1659 2.15633 9.98675 2.17986C7.8846 2.45414 6.05162 3.32097 4.68635 4.6862C3.32108 6.05143 2.45422 7.88435 2.17994 9.98644C2.1564 10.1655 2.08578 10.3364 1.97525 10.4797C0.683665 12.1602 0 14.0688 0 16C0 17.9312 0.682642 19.8398 1.97525 21.5203C2.08578 21.6636 2.1564 21.8345 2.17994 22.0136C2.45422 24.1156 3.32108 25.9475 4.68635 27.3138C6.05162 28.679 7.8846 29.5459 9.98675 29.8201C10.1659 29.8437 10.3368 29.9143 10.4801 30.0248C12.1606 31.3164 14.0693 32 16.0005 32C17.9317 32 19.8405 31.3174 21.521 30.0248C21.6642 29.9143 21.8352 29.8437 22.0143 29.8201C24.1164 29.5459 25.9494 28.679 27.3137 27.3138C28.6789 25.9486 29.5458 24.1156 29.8201 22.0136C29.8436 21.8345 29.9142 21.6636 30.0248 21.5203C31.3163 19.8398 32 17.9312 32 16C32 14.0688 31.3174 12.1602 30.0248 10.4797V10.4787ZM29.7812 21.3309C29.6379 21.5172 29.5458 21.7393 29.5161 21.9716C29.25 24.0061 28.4139 25.7766 27.0967 27.0938C25.7795 28.4109 24.0089 29.247 21.9743 29.5131C21.741 29.5438 21.5199 29.6359 21.3337 29.7782C19.7074 31.0288 17.8632 31.6899 16.0005 31.6899C14.1378 31.6899 12.2936 31.0288 10.6673 29.7782C10.4811 29.6349 10.259 29.5428 10.0267 29.5131C7.99206 29.247 6.22049 28.4109 4.90434 27.0938C3.58717 25.7766 2.75102 24.0051 2.48492 21.9716C2.45422 21.7383 2.36312 21.5172 2.21984 21.3309C0.969195 19.7047 0.308057 17.8606 0.308057 15.998C0.308057 14.1353 0.969195 12.2912 2.21984 10.665C2.36312 10.4787 2.45524 10.2566 2.48492 10.0243C2.75102 7.98977 3.58717 6.21927 4.90434 4.90214C6.22152 3.58501 7.99309 2.74888 10.0267 2.48279C10.26 2.45209 10.4811 2.36101 10.6673 2.21773C12.2936 0.967123 14.1378 0.306 16.0005 0.306C17.8632 0.306 19.7074 0.967123 21.3337 2.21773C21.5199 2.36101 21.742 2.45312 21.9743 2.48279C24.0089 2.74888 25.7795 3.58501 27.0967 4.90214C28.4139 6.21927 29.25 7.99079 29.5161 10.0243C29.5468 10.2576 29.6379 10.4787 29.7812 10.665C31.0318 12.2912 31.693 14.1353 31.693 15.998C31.693 17.8606 31.0318 19.7047 29.7812 21.3309Z" fill="black"/>
<path d="M29.3247 10.797C29.204 10.6394 29.1262 10.4511 29.0996 10.2546C28.8376 8.27427 28.0198 6.5488 26.7344 5.2634C25.4489 3.97799 23.7224 3.16029 21.743 2.89932C21.5455 2.87373 21.3582 2.79596 21.2006 2.67417C19.6153 1.45938 17.8171 0.81668 15.9995 0.81668C14.1818 0.81668 12.3826 1.45938 10.7983 2.67417C10.6407 2.79493 10.4524 2.87271 10.2559 2.89932C8.27556 3.16029 6.55003 3.97799 5.26459 5.2634C3.97914 6.5488 3.16141 8.2753 2.89941 10.2546C2.87382 10.4521 2.79605 10.6394 2.67426 10.797C1.45943 12.3822 0.816706 14.1804 0.816706 15.999C0.816706 17.8176 1.45943 19.6157 2.67426 21.1999C2.79502 21.3576 2.8728 21.5459 2.89941 21.7424C3.16141 23.7227 3.97914 25.4481 5.26459 26.7335C6.55003 28.0189 8.27556 28.8366 10.2559 29.0976C10.4534 29.1232 10.6407 29.201 10.7983 29.3228C12.3837 30.5375 14.1818 31.1802 15.9995 31.1802C17.8171 31.1802 19.6163 30.5375 21.2006 29.3228C21.3582 29.202 21.5465 29.1242 21.7441 29.0976C23.7244 28.8366 25.45 28.0189 26.7354 26.7335C28.0208 25.4481 28.8386 23.7227 29.1006 21.7424C29.1262 21.5448 29.204 21.3576 29.3257 21.1999C30.5406 19.6147 31.1833 17.8166 31.1833 15.999C31.1833 14.1814 30.5406 12.3822 29.3257 10.797H29.3247ZM29.2439 21.1375C29.1118 21.3095 29.0269 21.5141 28.9982 21.7291C28.7393 23.6858 27.9318 25.3918 26.6627 26.6619C25.3937 27.9319 23.6876 28.7384 21.7297 28.9973C21.5148 29.026 21.3101 29.1109 21.1382 29.2429C19.5713 30.4444 17.7946 31.0789 15.9995 31.0789C14.2044 31.0789 12.4266 30.4444 10.8608 29.2429C10.6888 29.1109 10.4841 29.026 10.2692 28.9973C8.31138 28.7384 6.60633 27.9309 5.33623 26.6619C4.06614 25.3929 3.25966 23.6868 3.00073 21.7291C2.97207 21.5141 2.88714 21.3095 2.75511 21.1375C1.55359 19.5707 0.91905 17.794 0.91905 15.999C0.91905 14.2039 1.55359 12.4262 2.75511 10.8594C2.88714 10.6875 2.97207 10.4828 3.00073 10.2679C3.25966 8.31009 4.06716 6.60509 5.33623 5.33504C6.6053 4.06498 8.31138 3.25854 10.2692 2.99961C10.4841 2.97096 10.6888 2.88602 10.8608 2.754C12.4277 1.55251 14.2044 0.917997 15.9995 0.917997C17.7946 0.917997 19.5723 1.55251 21.1392 2.754C21.3112 2.88602 21.5158 2.97096 21.7308 2.99961C23.6886 3.25854 25.3937 4.06601 26.6638 5.33504C27.9328 6.60407 28.7403 8.31009 28.9993 10.2679C29.0279 10.4828 29.1129 10.6875 29.2449 10.8594C30.4464 12.4262 31.0809 14.2029 31.0809 15.999C31.0809 17.7951 30.4464 19.5707 29.2449 21.1375H29.2439Z" fill="black"/>
<path d="M12.7337 23.037C12.6907 23.0011 12.6457 22.9715 12.5924 22.9449C12.5403 22.9183 12.484 22.8988 12.4318 22.8824C12.3468 22.8528 12.268 22.8272 12.1964 22.8067C12.1206 22.7801 12.049 22.7576 11.9774 22.7351C11.918 22.7156 11.8658 22.689 11.8167 22.6563C11.7675 22.6235 11.745 22.5805 11.745 22.5314C11.745 22.4792 11.7747 22.4393 11.8371 22.4065C11.8965 22.3707 11.9712 22.3544 12.0603 22.3544C12.1913 22.3544 12.309 22.3769 12.4103 22.4229C12.5085 22.469 12.5935 22.5508 12.659 22.6747L12.7869 22.6153L12.662 22.1896L12.5443 22.2418L12.4727 22.2715L12.4267 22.2551C12.4 22.2489 12.3714 22.2418 12.3345 22.2356C12.2956 22.2254 12.2527 22.2193 12.2035 22.2162C12.1544 22.21 12.1022 22.206 12.0459 22.206C11.9804 22.206 11.9149 22.2121 11.8464 22.2285C11.7747 22.2418 11.7123 22.2643 11.6529 22.3001C11.5936 22.3329 11.5444 22.3758 11.5086 22.4311C11.4697 22.4864 11.4493 22.556 11.4493 22.6378C11.4493 22.7003 11.4595 22.7555 11.482 22.8047C11.5014 22.8507 11.5281 22.8896 11.567 22.9254C11.5997 22.9582 11.6427 22.9878 11.6877 23.0134C11.7338 23.0329 11.7829 23.0523 11.8351 23.0687C11.917 23.0912 11.9988 23.1178 12.0777 23.1444C12.1534 23.171 12.2312 23.1935 12.313 23.2202C12.3724 23.2365 12.4246 23.2662 12.4768 23.3082C12.529 23.3471 12.5556 23.3962 12.5556 23.4586C12.5556 23.4975 12.5423 23.5302 12.5228 23.563C12.5034 23.5896 12.4768 23.6152 12.444 23.6346C12.4082 23.651 12.3683 23.6643 12.3263 23.6735C12.2803 23.6838 12.2383 23.6899 12.1923 23.6899C12.0285 23.6899 11.8842 23.651 11.7665 23.5753C11.6458 23.4965 11.5567 23.3952 11.5045 23.2775L11.3705 23.346L11.5608 23.8475C11.5741 23.8342 11.5936 23.825 11.6202 23.8148C11.6396 23.8015 11.6632 23.7922 11.6826 23.782L11.7542 23.7493C11.787 23.7656 11.8259 23.782 11.875 23.7953C11.9139 23.8055 11.9671 23.8148 12.0255 23.825C12.0848 23.8311 12.1534 23.8383 12.2353 23.8383C12.3038 23.8383 12.3765 23.825 12.4512 23.8055C12.5269 23.7861 12.5955 23.7534 12.661 23.7134C12.7234 23.6705 12.7756 23.6183 12.8186 23.5599C12.8575 23.4975 12.878 23.4259 12.878 23.344C12.878 23.2724 12.8647 23.213 12.8391 23.1639C12.8125 23.1117 12.7767 23.0687 12.7347 23.0329L12.7337 23.037Z" fill="black"/>
<path d="M14.7877 23.3686C14.8338 23.2672 14.8563 23.1526 14.8563 23.0247C14.8563 22.8968 14.8338 22.7821 14.7877 22.6839C14.7417 22.5795 14.6762 22.4935 14.5974 22.425C14.5186 22.3533 14.4275 22.3001 14.3221 22.2643C14.2136 22.2254 14.099 22.209 13.9813 22.209C13.8636 22.209 13.7459 22.2254 13.6405 22.2643C13.5361 22.3001 13.4439 22.3523 13.3651 22.425C13.2833 22.4935 13.2208 22.5785 13.1748 22.6839C13.1287 22.7821 13.1062 22.8968 13.1062 23.0247C13.1062 23.1526 13.1287 23.2672 13.1748 23.3686C13.2208 23.4668 13.2833 23.5548 13.3651 23.6275C13.4439 23.696 13.535 23.7482 13.6405 23.7882C13.7448 23.824 13.8595 23.8434 13.9813 23.8434C14.103 23.8434 14.2136 23.824 14.3221 23.7882C14.4264 23.7493 14.5186 23.696 14.5974 23.6275C14.6762 23.5558 14.7417 23.4668 14.7877 23.3686ZM14.4531 23.2928C14.4398 23.3716 14.4172 23.4433 14.3814 23.5026C14.3456 23.562 14.2965 23.6111 14.234 23.6469C14.1685 23.6797 14.0867 23.696 13.9823 23.696C13.8779 23.696 13.7919 23.6797 13.7305 23.6469C13.665 23.6111 13.6159 23.562 13.5831 23.5026C13.5442 23.4433 13.5207 23.3716 13.5115 23.2928C13.4982 23.2079 13.492 23.1188 13.492 23.0278C13.492 22.9367 13.4982 22.8446 13.5115 22.7627C13.5217 22.6808 13.5442 22.6123 13.5831 22.5529C13.6159 22.4905 13.665 22.4413 13.7305 22.4086C13.7929 22.3728 13.8779 22.3564 13.9823 22.3564C14.0867 22.3564 14.1685 22.3728 14.234 22.4086C14.2965 22.4413 14.3456 22.4905 14.3814 22.5529C14.4172 22.6123 14.4408 22.6808 14.4531 22.7627C14.4664 22.8446 14.4725 22.9326 14.4725 23.0278C14.4725 23.1229 14.4664 23.2079 14.4531 23.2928Z" fill="black"/>
<path d="M15.5082 23.6858C15.6454 23.7902 15.8357 23.8434 16.0783 23.8434C16.3208 23.8434 16.4907 23.7841 16.6156 23.6735C16.7405 23.563 16.8019 23.4054 16.8019 23.2017V22.5468C16.8019 22.4874 16.8121 22.4485 16.8377 22.4291C16.8602 22.4025 16.9001 22.3932 16.9523 22.3932H17.0178V22.2459H16.4385V22.3932H16.4979C16.5501 22.3932 16.59 22.4035 16.6156 22.4291C16.6381 22.4485 16.6514 22.4884 16.6514 22.5468V23.1526C16.6514 23.2283 16.6412 23.2969 16.6217 23.3593C16.6023 23.4187 16.5726 23.4709 16.5296 23.517C16.4866 23.563 16.4314 23.5958 16.3597 23.6213C16.2881 23.6439 16.2021 23.6572 16.0977 23.6572C16.0128 23.6572 15.9442 23.6439 15.8879 23.6244C15.8327 23.6019 15.7866 23.5722 15.7508 23.5364C15.715 23.4975 15.6884 23.4515 15.6751 23.3993C15.6587 23.3471 15.6525 23.2949 15.6525 23.2355V22.5478C15.6525 22.4884 15.6658 22.4495 15.6914 22.4301C15.7139 22.4035 15.7539 22.3943 15.806 22.3943H15.8685V22.2469H15.0856V22.3943H15.148C15.2002 22.3943 15.236 22.4045 15.2626 22.4301C15.2851 22.4495 15.2984 22.4894 15.2984 22.5478V23.2089C15.2984 23.4218 15.367 23.5824 15.5082 23.6868V23.6858Z" fill="black"/>
<path d="M18.6523 22.3329C18.5806 22.297 18.5018 22.2735 18.4169 22.2643C18.3319 22.251 18.247 22.2449 18.161 22.2449H17.2471V22.3922H17.3064C17.3586 22.3922 17.3944 22.4025 17.421 22.428C17.4477 22.4506 17.4599 22.4905 17.4599 22.5488V23.5016C17.4599 23.5569 17.4466 23.5968 17.421 23.6224C17.3944 23.6449 17.3586 23.6582 17.3064 23.6582H17.2471V23.8056H18.03V23.6582H17.9645C17.9123 23.6582 17.8724 23.6449 17.8499 23.6224C17.8233 23.5958 17.814 23.5569 17.814 23.5016V23.1936H18.161C18.2459 23.1936 18.3309 23.1874 18.4169 23.1741C18.5028 23.1608 18.5806 23.1414 18.6523 23.1086C18.7208 23.0728 18.7771 23.0237 18.8221 22.9643C18.8682 22.8988 18.8907 22.8169 18.8907 22.7187C18.8907 22.6204 18.8682 22.5355 18.8221 22.4761C18.7761 22.4137 18.7208 22.3646 18.6523 22.3318V22.3329ZM18.3902 22.9684C18.3114 23.0206 18.1999 23.0472 18.0597 23.0472H17.814V22.5498C17.814 22.4905 17.8273 22.4516 17.8529 22.4291C17.8795 22.4025 17.9184 22.3932 17.9706 22.3932H18.0586C18.1999 22.3932 18.3104 22.4199 18.3892 22.472C18.468 22.5242 18.5069 22.6061 18.5069 22.7207C18.5069 22.8354 18.468 22.9172 18.3892 22.9694L18.3902 22.9684Z" fill="black"/>
<path d="M20.4832 23.037C20.4402 23.0011 20.3952 22.9715 20.342 22.9449C20.2898 22.9183 20.2335 22.8988 20.1813 22.8824C20.0963 22.8528 20.0175 22.8272 19.9459 22.8067C19.8701 22.7801 19.7985 22.7576 19.7269 22.7351C19.6675 22.7156 19.6153 22.689 19.5662 22.6563C19.5171 22.6235 19.4945 22.5805 19.4945 22.5314C19.4945 22.4792 19.5242 22.4393 19.5867 22.4065C19.646 22.3707 19.7207 22.3544 19.8098 22.3544C19.9408 22.3544 20.0585 22.3769 20.1598 22.4229C20.258 22.469 20.343 22.5508 20.4085 22.6747L20.5364 22.6153L20.4115 22.1896L20.2939 22.2418L20.2222 22.2715L20.1762 22.2551C20.1495 22.2489 20.1209 22.2418 20.084 22.2356C20.0452 22.2254 20.0022 22.2193 19.953 22.2162C19.9039 22.21 19.8517 22.206 19.7954 22.206C19.7299 22.206 19.6644 22.2121 19.5959 22.2285C19.5242 22.2418 19.4618 22.2643 19.4024 22.3001C19.3431 22.3329 19.294 22.3758 19.2581 22.4311C19.2192 22.4864 19.1988 22.556 19.1988 22.6378C19.1988 22.7003 19.209 22.7555 19.2315 22.8047C19.251 22.8507 19.2776 22.8896 19.3165 22.9254C19.3492 22.9582 19.3922 22.9878 19.4372 23.0134C19.4833 23.0329 19.5324 23.0523 19.5846 23.0687C19.6665 23.0912 19.7484 23.1178 19.8272 23.1444C19.9029 23.171 19.9807 23.1935 20.0626 23.2202C20.1219 23.2365 20.1741 23.2662 20.2263 23.3082C20.2785 23.3471 20.3051 23.3962 20.3051 23.4586C20.3051 23.4975 20.2918 23.5302 20.2724 23.563C20.2529 23.5896 20.2263 23.6152 20.1935 23.6346C20.1577 23.651 20.1178 23.6643 20.0759 23.6735C20.0298 23.6838 19.9878 23.6899 19.9418 23.6899C19.778 23.6899 19.6337 23.651 19.516 23.5753C19.3953 23.4965 19.3062 23.3952 19.254 23.2775L19.12 23.346L19.3103 23.8475C19.3236 23.8342 19.3431 23.825 19.3697 23.8148C19.3891 23.8015 19.4127 23.7922 19.4321 23.782L19.5037 23.7493C19.5365 23.7656 19.5754 23.782 19.6245 23.7953C19.6634 23.8055 19.7166 23.8148 19.775 23.825C19.8343 23.8311 19.9029 23.8383 19.9848 23.8383C20.0533 23.8383 20.126 23.825 20.2007 23.8055C20.2765 23.7861 20.345 23.7534 20.4105 23.7134C20.473 23.6705 20.5251 23.6183 20.5681 23.5599C20.607 23.4975 20.6275 23.4259 20.6275 23.344C20.6275 23.2724 20.6142 23.213 20.5886 23.1639C20.562 23.1117 20.5262 23.0687 20.4842 23.0329L20.4832 23.037Z" fill="black"/>
<path d="M8.63786 10.5104C8.84869 10.5104 9.17312 10.493 9.34097 10.4511C9.46378 10.4214 9.5129 10.3825 9.5129 10.3231C9.5129 10.2147 9.38293 10.1267 9.23555 10.1267C9.20587 10.1267 9.1813 10.1318 9.11785 10.1512C8.92135 10.2106 8.67061 10.2546 8.43215 10.2546C8.26021 10.2546 8.02175 10.2126 8.02175 10.053C8.02175 9.91788 8.18856 9.81758 8.2991 9.76846C8.44443 9.70501 8.76784 9.61085 9.14651 9.52284C9.28161 9.49111 9.34813 9.42971 9.34813 9.33351C9.34813 9.20046 9.22327 9.08789 9.10455 9.03877C9.09431 9.03365 9.09022 9.03365 9.08203 9.03365C9.06771 9.03365 9.05542 9.04081 9.05542 9.05616C9.05542 9.06333 9.05747 9.06844 9.06054 9.07561C9.07283 9.1145 9.07794 9.12985 9.07794 9.15134C9.07794 9.21479 9.04621 9.23526 8.97969 9.26392C8.89884 9.29871 8.77295 9.34784 8.65525 9.39184C8.62864 9.21275 8.62046 9.11143 8.62046 8.96201C8.62046 8.85148 8.63479 8.74095 8.66242 8.69183C8.69006 8.64271 8.69414 8.62326 8.69414 8.60075C8.69414 8.51273 8.47308 8.42165 8.22234 8.42165C8.19573 8.42165 8.1855 8.43188 8.1855 8.44109C8.1855 8.45337 8.19266 8.46566 8.21006 8.47589C8.31854 8.54446 8.34311 8.63349 8.34516 8.74812C8.35028 9.02341 8.36767 9.2588 8.40656 9.49009C8.01151 9.6917 7.82934 9.90559 7.82934 10.1021C7.82934 10.4357 8.27659 10.5094 8.63786 10.5094V10.5104Z" fill="black"/>
<path d="M10.6131 9.70705C10.6725 9.70705 10.7011 9.66816 10.7287 9.61392C10.8147 9.43994 11.0378 9.33657 11.218 9.33657C11.3756 9.33657 11.5056 9.44199 11.5056 9.65076C11.5056 9.82065 11.4298 10.0049 11.3213 10.1471C11.174 10.3385 10.9038 10.4889 10.5527 10.5452C10.5384 10.5473 10.5302 10.5575 10.5302 10.5677C10.5302 10.58 10.5404 10.5903 10.5599 10.5903C10.9775 10.5903 11.2702 10.5022 11.5127 10.3098C11.6969 10.1645 11.8269 9.94857 11.8269 9.69579C11.8269 9.36625 11.6079 9.18716 11.2865 9.18716C11.1044 9.18716 10.9498 9.23423 10.783 9.31713C10.7707 9.32429 10.7584 9.32736 10.7482 9.32736C10.7288 9.32736 10.7216 9.3028 10.7216 9.27108C10.7216 9.18511 10.7584 9.10938 10.825 9.03978C10.9601 8.90469 11.1934 8.82589 11.3705 8.81873C11.4707 8.81361 11.525 8.80645 11.5567 8.77677C11.5864 8.75016 11.5956 8.72969 11.5956 8.69592C11.5956 8.64884 11.5639 8.59051 11.5168 8.54343C11.4728 8.50147 11.4042 8.47691 11.2763 8.47691H11.2006C11.0849 8.47691 10.9938 8.45951 10.9324 8.42779C10.9079 8.4155 10.8659 8.37661 10.8587 8.34182C10.8567 8.32442 10.8485 8.31521 10.8413 8.31521C10.8311 8.31521 10.8219 8.32237 10.8117 8.33977C10.7943 8.36638 10.782 8.39913 10.782 8.41857C10.782 8.49226 10.8117 8.55162 10.8454 8.59255C10.8945 8.65191 10.9508 8.68364 11.1299 8.74197C10.8618 8.85455 10.6366 9.05411 10.5108 9.27517C10.4667 9.3509 10.4422 9.42049 10.4422 9.50134C10.4422 9.60675 10.5261 9.70807 10.6121 9.70807L10.6131 9.70705Z" fill="black"/>
<path d="M19.9766 9.9803C19.9766 10.2239 20.0186 10.403 20.0769 10.4889C20.1209 10.5524 20.1557 10.5647 20.1997 10.5647C20.2928 10.5647 20.3399 10.4736 20.3399 10.2945C20.3399 10.1246 20.3501 9.98541 20.3696 9.81553C20.4064 9.49622 20.5098 9.09095 20.5733 8.96303C20.6275 8.85762 20.7206 8.78086 20.866 8.72969C20.9253 8.71025 21.0236 8.69489 21.1014 8.69489C21.0031 8.74606 20.9151 8.81054 20.8414 8.89855C20.7431 9.0142 20.6991 9.12473 20.6991 9.22809C20.6991 9.38058 20.8291 9.51055 21.0082 9.51055C21.0471 9.51055 21.0891 9.50544 21.1259 9.50339C21.1802 9.49827 21.2538 9.49111 21.3153 9.48394V9.89945C21.2518 9.88921 21.1904 9.88717 21.129 9.88717C20.8393 9.88717 20.6602 10.0468 20.6602 10.2239C20.6602 10.4009 20.822 10.5309 21.0461 10.5309C21.2324 10.5309 21.3388 10.5043 21.4248 10.4347C21.5005 10.3733 21.5353 10.3068 21.5425 10.187C21.655 10.2341 21.7901 10.317 21.9088 10.4152C21.9528 10.4521 21.9825 10.4715 22.0143 10.4715C22.0757 10.4715 22.1125 10.405 22.1125 10.3293C22.1125 10.229 22.0736 10.1594 21.9549 10.1062C21.8249 10.0468 21.6919 9.99565 21.5547 9.95369C21.5425 9.7838 21.5373 9.64155 21.5281 9.45529C21.6489 9.43584 21.7912 9.40617 21.8945 9.37956C21.9631 9.36216 21.9856 9.3376 21.9856 9.29564C21.9856 9.23218 21.9099 9.15031 21.8485 9.15031C21.8188 9.15031 21.7748 9.16259 21.7205 9.18204C21.6591 9.20455 21.5732 9.22604 21.5169 9.2414C21.5169 9.18511 21.5148 9.13598 21.5148 9.09607C21.5148 9.07151 21.5169 9.04899 21.5169 9.01727C21.5169 8.98759 21.5118 8.97326 21.4555 8.94358C21.4012 8.9139 21.3327 8.89446 21.303 8.89446C21.2559 8.89446 21.1924 8.91697 21.1382 8.94563C21.1239 8.95279 21.1157 8.96507 21.1157 8.97531C21.1157 8.98554 21.1228 8.99475 21.1402 8.99475C21.2559 8.99987 21.2825 9.02136 21.2978 9.11552C21.305 9.16976 21.3101 9.22809 21.3122 9.28745C21.2313 9.29973 21.1546 9.30996 21.0911 9.31713C21.0594 9.31918 21.0297 9.32224 20.9929 9.32224C20.8598 9.32224 20.8035 9.26289 20.8035 9.16464C20.8035 9.09095 20.8404 8.99987 20.9089 8.92619C20.997 8.82794 21.1177 8.76142 21.2508 8.74914C21.3347 8.74197 21.4156 8.73685 21.5107 8.73685C21.5865 8.73685 21.6213 8.70718 21.6213 8.66522C21.6213 8.61814 21.6018 8.59153 21.5281 8.53729C21.481 8.50249 21.393 8.47384 21.3193 8.47384C21.174 8.47384 21.0021 8.50556 20.8475 8.56492C20.6807 8.62837 20.5773 8.7737 20.5139 8.93847C20.3982 9.23321 20.2683 9.75617 20.214 10.1297C20.1915 10.0437 20.1843 9.98439 20.1843 9.89843C20.1843 9.61085 20.2314 9.24242 20.2969 8.97019C20.3164 8.88934 20.3287 8.82487 20.3287 8.78086C20.3287 8.6775 20.2478 8.57209 20.0482 8.47179C20.0431 8.46974 20.0359 8.46667 20.0308 8.46667C20.0165 8.46667 20.0012 8.481 20.0012 8.49635C20.0012 8.50352 20.0032 8.51068 20.0114 8.51887C20.0533 8.56799 20.083 8.64168 20.083 8.69592C20.083 8.78188 20.0707 8.89446 20.0533 9.0275C20.0114 9.33657 19.9776 9.73263 19.9776 9.9803H19.9766ZM21.2436 10.275C21.1996 10.319 21.1259 10.3344 21.0103 10.3344C20.8455 10.3344 20.7749 10.275 20.7749 10.1973C20.7749 10.1195 20.8588 10.0519 21.0307 10.0519C21.1341 10.0519 21.2098 10.0622 21.303 10.0867C21.3009 10.1778 21.2804 10.2362 21.2436 10.2761V10.275Z" fill="black"/>
<path d="M21.9017 8.32647C21.9928 8.37764 22.0736 8.46361 22.1176 8.55265C22.1442 8.60382 22.1688 8.6161 22.2087 8.6161C22.2507 8.6161 22.2844 8.5813 22.2844 8.52501C22.2844 8.40732 22.1391 8.28963 21.9334 8.28144H21.9283C21.8966 8.28144 21.8843 8.29168 21.8843 8.30396C21.8843 8.31112 21.8894 8.31829 21.9017 8.32647Z" fill="black"/>
<path d="M21.6192 8.46872C21.7001 8.51989 21.7738 8.60586 21.8229 8.71639C21.8474 8.77063 21.8771 8.78803 21.9211 8.78803C21.9723 8.78803 22.0091 8.74914 22.0091 8.68773C22.0091 8.57209 21.8515 8.44007 21.6387 8.41755H21.6264C21.6069 8.41755 21.5946 8.42472 21.5946 8.437C21.5946 8.44723 21.6018 8.45951 21.6192 8.46872Z" fill="black"/>
<path d="M23.2332 9.70705C23.2925 9.70705 23.3212 9.66816 23.3488 9.61392C23.4348 9.43994 23.6579 9.33657 23.838 9.33657C23.9957 9.33657 24.1256 9.44199 24.1256 9.65076C24.1256 9.82065 24.0499 10.0049 23.9414 10.1471C23.794 10.3385 23.5238 10.4889 23.1728 10.5452C23.1585 10.5473 23.1503 10.5575 23.1503 10.5677C23.1503 10.58 23.1605 10.5903 23.18 10.5903C23.5975 10.5903 23.8902 10.5022 24.1328 10.3098C24.317 10.1645 24.447 9.94857 24.447 9.69579C24.447 9.36625 24.228 9.18716 23.9066 9.18716C23.7244 9.18716 23.5699 9.23423 23.4031 9.31713C23.3908 9.32429 23.3785 9.32736 23.3683 9.32736C23.3488 9.32736 23.3417 9.3028 23.3417 9.27108C23.3417 9.18511 23.3785 9.10938 23.445 9.03978C23.5801 8.90469 23.8135 8.82589 23.9905 8.81873C24.0908 8.81361 24.1451 8.80645 24.1768 8.77677C24.2065 8.75016 24.2157 8.72969 24.2157 8.69592C24.2157 8.64884 24.184 8.59051 24.1369 8.54343C24.0929 8.50147 24.0243 8.47691 23.8964 8.47691H23.8206C23.705 8.47691 23.6139 8.45951 23.5525 8.42779C23.5279 8.4155 23.486 8.37661 23.4788 8.34182C23.4768 8.32442 23.4686 8.31521 23.4614 8.31521C23.4512 8.31521 23.442 8.32237 23.4317 8.33977C23.4143 8.36638 23.4021 8.39913 23.4021 8.41857C23.4021 8.49226 23.4317 8.55162 23.4655 8.59255C23.5146 8.65191 23.5709 8.68364 23.75 8.74197C23.4819 8.85455 23.2567 9.05411 23.1308 9.27517C23.0868 9.3509 23.0623 9.42049 23.0623 9.50134C23.0623 9.60675 23.1462 9.70807 23.2322 9.70807L23.2332 9.70705Z" fill="black"/>
<path d="M16.5061 27.4274C16.415 27.5185 16.3638 27.6024 16.2983 27.6628C16.2042 27.7498 16.067 27.6126 16.154 27.5185C16.2144 27.453 16.2983 27.4018 16.3894 27.3107C16.6043 27.0958 16.6043 26.7468 16.3894 26.5309C16.1745 26.316 15.8255 26.316 15.6096 26.5309C15.3946 26.7458 15.3946 27.0948 15.6096 27.3107C15.7006 27.4018 15.7846 27.453 15.8449 27.5185C15.9319 27.6126 15.7948 27.7498 15.7006 27.6628C15.6351 27.6024 15.584 27.5185 15.4929 27.4274C15.278 27.2125 14.929 27.2125 14.713 27.4274C14.4981 27.6423 14.4981 27.9913 14.713 28.2072C14.9279 28.4222 15.2769 28.4222 15.4929 28.2072C15.584 28.1162 15.6351 28.0322 15.7006 27.9719C15.7948 27.8849 15.9319 28.022 15.8449 28.1162C15.7846 28.1817 15.7006 28.2328 15.6096 28.3239C15.3946 28.5388 15.3946 28.8878 15.6096 29.1038C15.8245 29.3187 16.1735 29.3187 16.3894 29.1038C16.6043 28.8888 16.6043 28.5399 16.3894 28.3239C16.2983 28.2328 16.2144 28.1817 16.154 28.1162C16.067 28.022 16.2042 27.8849 16.2983 27.9719C16.3638 28.0322 16.415 28.1162 16.5061 28.2072C16.721 28.4222 17.07 28.4222 17.286 28.2072C17.5009 27.9923 17.5009 27.6433 17.286 27.4274C17.071 27.2125 16.722 27.2125 16.5061 27.4274Z" fill="black"/>
<path d="M15.4929 4.56952C15.584 4.47844 15.6351 4.39452 15.7006 4.33414C15.7948 4.24715 15.9319 4.38429 15.8449 4.47844C15.7846 4.54394 15.7006 4.59511 15.6096 4.68619C15.3946 4.90111 15.3946 5.25009 15.6096 5.46603C15.8245 5.68095 16.1735 5.68095 16.3894 5.46603C16.6043 5.25111 16.6043 4.90213 16.3894 4.68619C16.2983 4.59511 16.2144 4.54394 16.154 4.47844C16.067 4.38429 16.2042 4.24715 16.2983 4.33414C16.3638 4.39452 16.415 4.47844 16.5061 4.56952C16.721 4.78444 17.07 4.78444 17.286 4.56952C17.5009 4.35461 17.5009 4.00562 17.286 3.78968C17.071 3.57477 16.722 3.57477 16.5061 3.78968C16.415 3.88077 16.3638 3.96469 16.2983 4.02507C16.2042 4.11206 16.067 3.97492 16.154 3.88077C16.2144 3.81527 16.2983 3.7641 16.3894 3.67301C16.6043 3.4581 16.6043 3.10912 16.3894 2.89318C16.1745 2.67826 15.8255 2.67826 15.6096 2.89318C15.3946 3.10809 15.3946 3.45708 15.6096 3.67301C15.7006 3.7641 15.7846 3.81527 15.8449 3.88077C15.9319 3.97492 15.7948 4.11206 15.7006 4.02507C15.6351 3.96469 15.584 3.88077 15.4929 3.78968C15.278 3.57477 14.929 3.57477 14.713 3.78968C14.4981 4.0046 14.4981 4.35358 14.713 4.56952C14.9279 4.78444 15.2769 4.78444 15.4929 4.56952Z" fill="black"/>
</svg>
