<svg width="96" height="64" viewBox="0 0 96 64" fill="none" xmlns="http://www.w3.org/2000/svg">
<path d="M9.20858 33.7745C9.02674 33.9452 8.81692 34.0761 8.55582 34.1673C8.29472 34.2468 8.02429 34.3076 7.73288 34.338C7.44147 34.359 7.18036 34.3684 6.94956 34.3684H4.22662V33.9148H4.41779C4.57865 33.9148 4.69987 33.8751 4.77914 33.8049C4.84908 33.7254 4.88871 33.6039 4.88871 33.4332V30.492C4.88871 30.3096 4.84908 30.1904 4.77914 30.1296C4.69987 30.0501 4.57865 30.0197 4.41779 30.0197H4.22662V29.5662H7.2503C7.46245 29.5662 7.68159 29.5872 7.91239 29.627C8.13386 29.6573 8.34367 29.7181 8.53484 29.8093C8.71668 29.9005 8.85656 30.0221 8.97778 30.1717C9.09901 30.3237 9.15962 30.513 9.15962 30.7562C9.15962 31.0391 9.08036 31.2589 8.93815 31.4202C8.77729 31.5815 8.58613 31.7031 8.346 31.7919C8.6584 31.8831 8.9195 32.0327 9.13864 32.2361C9.36011 32.4372 9.46968 32.6991 9.46968 33.0311C9.46968 33.3443 9.37876 33.5945 9.20858 33.7769V33.7745ZM6.71877 31.5979C7.1011 31.5979 7.40183 31.5371 7.64196 31.4155C7.87275 31.2846 7.99398 31.0625 7.99398 30.7398C7.99398 30.6089 7.96367 30.499 7.91472 30.4078C7.8541 30.3167 7.77484 30.2465 7.67459 30.1857C7.57435 30.1249 7.45312 30.0758 7.32257 30.0548C7.18269 30.0244 7.04049 30.0151 6.90061 30.0151H6.47865C6.31779 30.0151 6.18723 30.0455 6.10797 30.1249C6.01705 30.1857 5.97742 30.3073 5.97742 30.4873V31.5955H6.7211L6.71877 31.5979ZM8.17582 32.5448C8.09656 32.4232 7.98466 32.3343 7.8541 32.2619C7.71423 32.1824 7.54171 32.1309 7.3622 32.1005C7.17104 32.0608 6.97055 32.0491 6.7584 32.0491H5.97509V33.4285C5.97509 33.5992 6.01472 33.7208 6.10564 33.8003C6.1849 33.8704 6.31779 33.9101 6.47631 33.9101H6.9892C7.37153 33.9101 7.68159 33.84 7.93337 33.7091C8.17349 33.5688 8.29472 33.3163 8.29472 32.9726C8.29472 32.8019 8.25509 32.6593 8.17349 32.5401L8.17582 32.5448Z" fill="#2C2B29"/>
<path d="M12.2532 32.9679L12.1926 33.0778C12.1134 33.2087 12.0527 33.3303 12.0108 33.4496C11.9595 33.5711 11.9408 33.6413 11.9408 33.6717C11.9408 33.7418 12.0015 33.8026 12.132 33.854C12.2532 33.8938 12.4024 33.9148 12.6053 33.9148V34.3684H10.6656V33.9148C10.8475 33.9148 11.006 33.8751 11.1669 33.7932C11.3067 33.7137 11.4489 33.5314 11.5888 33.2695L13.4562 29.6223L14.3794 29.4516L16.3283 33.2695C16.4589 33.522 16.6104 33.6927 16.7713 33.7839C16.9321 33.8634 17.093 33.9148 17.2538 33.9148V34.3684H14.6218V33.9148C15.0228 33.9148 15.235 33.8353 15.235 33.674C15.235 33.6343 15.2046 33.5641 15.165 33.4519C15.1161 33.3303 15.0554 33.2087 14.9832 33.0685L14.9319 32.9679H12.2509H12.2532ZM14.6941 32.505L13.5984 30.3587L12.4934 32.505H14.6941Z" fill="#2C2B29"/>
<path d="M23.4527 31.3968C23.3618 31.5371 23.2522 31.668 23.1124 31.7802C22.9608 31.8808 22.7906 31.9626 22.6111 32.0211C22.4293 32.0818 22.2405 32.1216 22.0376 32.152L23.0914 33.4612C23.2219 33.6226 23.3735 33.7441 23.553 33.8143C23.7348 33.8751 23.9143 33.9055 24.1148 33.9055V34.3684H22.4176L20.6692 32.1824H20.3475V33.4309C20.3475 33.6015 20.3778 33.7231 20.457 33.8026C20.5363 33.8727 20.6575 33.9125 20.8184 33.9125H21.0095V34.3661H18.6083V33.9125H18.7995C18.9603 33.9125 19.0699 33.8727 19.1515 33.8026C19.2215 33.7231 19.2611 33.6015 19.2611 33.4309V30.499C19.2611 30.3167 19.2215 30.1974 19.1515 30.1273C19.0722 30.0478 18.9603 30.0174 18.7995 30.0174H18.6083V29.5638H21.1191C21.3499 29.5638 21.611 29.5732 21.9024 29.6036C22.1845 29.6246 22.4456 29.6831 22.6951 29.7742C22.9352 29.8537 23.1473 29.9847 23.3175 30.167C23.4784 30.3377 23.5693 30.5692 23.5693 30.8614C23.5693 31.0625 23.5297 31.2331 23.4481 31.3945L23.4527 31.3968ZM21.224 31.7288C21.3639 31.7288 21.5154 31.7078 21.667 31.6797C21.8068 31.6493 21.9281 31.5979 22.0376 31.5394C22.1379 31.4693 22.2288 31.3781 22.2987 31.2682C22.3594 31.1466 22.399 31.0064 22.399 30.8357C22.399 30.665 22.3594 30.5341 22.2894 30.4336C22.2102 30.3237 22.1076 30.2418 21.9887 30.1811C21.8581 30.1203 21.7066 30.0712 21.5271 30.0501C21.3453 30.0291 21.1657 30.0197 20.9653 30.0197H20.844C20.6832 30.0197 20.5619 30.0501 20.4827 30.1296C20.3918 30.1998 20.3521 30.3213 20.3521 30.5014V31.7311H21.2264L21.224 31.7288Z" fill="#2C2B29"/>
<path d="M30.7077 31.1139C30.5865 30.9923 30.4769 30.8614 30.3557 30.7305C30.2344 30.5996 30.1039 30.4897 29.9733 30.3891C29.8335 30.2793 29.6913 30.1881 29.5514 30.1273C29.3998 30.0478 29.2506 30.0174 29.0898 30.0174C28.9196 30.0174 28.8077 30.0571 28.7494 30.1577C28.6888 30.2489 28.6702 30.3587 28.6702 30.499V33.4309C28.6702 33.6015 28.7005 33.7231 28.7797 33.8026C28.8497 33.8727 28.9709 33.9125 29.1317 33.9125H29.4325V34.3661H26.8214V33.9125H27.1222C27.283 33.9125 27.3926 33.8727 27.4742 33.8026C27.5441 33.7231 27.5838 33.6015 27.5838 33.4309V30.499C27.5838 30.3587 27.5535 30.2465 27.5045 30.1577C27.4439 30.0571 27.3227 30.0174 27.1618 30.0174C27.001 30.0174 26.8401 30.0478 26.7002 30.1273C26.5603 30.1881 26.4181 30.2793 26.2783 30.3891C26.1384 30.4897 26.0171 30.5996 25.8959 30.7305C25.7654 30.8614 25.6441 30.9923 25.5439 31.1139L25.2525 30.9526L25.6535 29.5615H30.5958L30.9968 30.9526L30.7054 31.1139H30.7077Z" fill="#2C2B29"/>
<path d="M32.3303 34.3684V33.9148H32.5214C32.6823 33.9148 32.7919 33.8751 32.8735 33.8143C32.9434 33.7348 32.983 33.6132 32.983 33.4425V30.492C32.983 30.3096 32.9434 30.1904 32.8735 30.1296C32.7942 30.0501 32.6823 30.0197 32.5214 30.0197H32.3303V29.5662H34.7315V30.0197H34.5403C34.3795 30.0197 34.2582 30.0501 34.1883 30.1296C34.109 30.1904 34.0671 30.312 34.0671 30.492V31.7311H36.5079V30.492C36.5079 30.3096 36.4683 30.1904 36.3984 30.1296C36.3191 30.0501 36.2072 30.0197 36.0463 30.0197H35.8552V29.5662H38.2564V30.0197H38.0652C37.9044 30.0197 37.7831 30.0501 37.7039 30.1296C37.6246 30.1904 37.5943 30.312 37.5943 30.492V33.4425C37.5943 33.6132 37.6246 33.7348 37.7039 33.8143C37.7831 33.8751 37.9044 33.9148 38.0652 33.9148H38.2564V34.3684H35.8552V33.9148H36.0463C36.2072 33.9148 36.3168 33.8751 36.3984 33.8143C36.4683 33.7348 36.5079 33.6132 36.5079 33.4425V32.1824H34.0671V33.4425C34.0671 33.6132 34.1067 33.7348 34.1883 33.8143C34.2582 33.8751 34.3795 33.9148 34.5403 33.9148H34.7315V34.3684H32.3303Z" fill="#2C2B29"/>
<path d="M61.0167 33.7722C60.8349 33.9429 60.6251 34.0738 60.364 34.165C60.1029 34.2445 59.8324 34.3053 59.541 34.3357C59.2496 34.3567 58.9885 34.3661 58.7577 34.3661H56.0348V33.9125H56.2259C56.3868 33.9125 56.508 33.8727 56.5873 33.8026C56.6572 33.7231 56.6969 33.6015 56.6969 33.4309V30.4897C56.6969 30.3073 56.6572 30.1881 56.5873 30.1273C56.508 30.0478 56.3868 30.0174 56.2259 30.0174H56.0348V29.5638H59.0585C59.2683 29.5638 59.4897 29.5849 59.7205 29.6246C59.942 29.655 60.1518 29.7158 60.343 29.807C60.5248 29.8982 60.6647 30.0197 60.7859 30.1694C60.9072 30.3213 60.9678 30.5107 60.9678 30.7539C60.9678 31.0368 60.8885 31.2565 60.7463 31.4179C60.5854 31.5792 60.3943 31.7007 60.1542 31.7896C60.4665 31.8808 60.7277 32.0304 60.9468 32.2338C61.1659 32.4372 61.2778 32.6967 61.2778 33.0287C61.2778 33.342 61.1869 33.5922 61.0167 33.7745V33.7722ZM58.5246 31.5979C58.9069 31.5979 59.2077 31.5371 59.4478 31.4155C59.6786 31.2846 59.7998 31.0625 59.7998 30.7398C59.7998 30.6089 59.7695 30.499 59.7205 30.4078C59.6599 30.3167 59.5807 30.2465 59.4804 30.1857C59.3802 30.1249 59.2589 30.0758 59.1284 30.0548C58.9885 30.0244 58.8463 30.0151 58.7064 30.0151H58.2845C58.1236 30.0151 57.9931 30.0455 57.9138 30.1249C57.8229 30.1857 57.7832 30.3073 57.7832 30.4873V31.5955H58.5269L58.5246 31.5979ZM59.9816 32.5448C59.9024 32.4232 59.7905 32.3343 59.6599 32.2619C59.52 32.1824 59.3475 32.1309 59.168 32.1005C58.9769 32.0608 58.7764 32.0491 58.5666 32.0491H57.7832V33.4285C57.7832 33.5992 57.8229 33.7208 57.9138 33.8003C57.9931 33.8704 58.1259 33.9101 58.2845 33.9101H58.7973C59.1797 33.9101 59.4897 33.84 59.7415 33.7091C59.9816 33.5688 60.1029 33.3163 60.1029 32.9726C60.1029 32.8019 60.0632 32.6593 59.9816 32.5401V32.5448Z" fill="#2C2B29"/>
<path d="M62.8002 34.3684V33.9148H63.1009C63.2618 33.9148 63.3713 33.8751 63.4529 33.8143C63.5229 33.7348 63.5625 33.6132 63.5625 33.4425V30.4897C63.5625 30.3073 63.5229 30.1881 63.4529 30.1273C63.3737 30.0478 63.2618 30.0174 63.1009 30.0174H62.8002V29.5638H65.4112V30.0174H65.1105C64.9496 30.0174 64.8284 30.0478 64.7584 30.1273C64.6792 30.1881 64.6489 30.3096 64.6489 30.4897V33.4425C64.6489 33.6132 64.6792 33.7348 64.7584 33.8143C64.8284 33.8751 64.9496 33.9148 65.1105 33.9148H65.4112V34.3684H62.8002Z" fill="#2C2B29"/>
<path d="M71.37 33.6226C71.2394 33.8049 71.0786 33.9663 70.8874 34.0972C70.6869 34.2188 70.4747 34.3193 70.244 34.3801C70.0132 34.4409 69.7917 34.4806 69.5819 34.4806C69.3301 34.4806 69.1203 34.4596 68.9384 34.4409C68.7566 34.4105 68.5981 34.3801 68.4768 34.3497C68.3253 34.3099 68.2064 34.2585 68.1062 34.2094L67.8847 34.3099C67.8241 34.3403 67.7541 34.3707 67.6935 34.4105C67.6143 34.4409 67.5536 34.4713 67.5117 34.511L66.9289 32.9703L67.3415 32.7599C67.5024 33.1222 67.7728 33.4355 68.1458 33.6763C68.5071 33.9078 68.9501 34.0294 69.4513 34.0294C69.5912 34.0294 69.7217 34.0083 69.864 33.9779C69.9945 33.9476 70.1157 33.9078 70.2253 33.8564C70.3255 33.7956 70.4071 33.7161 70.4654 33.6343C70.526 33.5337 70.5657 33.4332 70.5657 33.3116C70.5657 33.1199 70.4864 32.9679 70.3255 32.8487C70.1647 32.7178 70.0038 32.6266 69.822 32.5775C69.5702 32.498 69.3301 32.4255 69.0993 32.346C68.8592 32.2665 68.6074 32.1847 68.3556 32.1146C68.1948 32.0631 68.0432 32.0047 67.9033 31.9439C67.7635 31.8644 67.6329 31.7732 67.5327 31.6727C67.4114 31.5628 67.3322 31.4412 67.2716 31.301C67.2016 31.149 67.1713 30.9783 67.1713 30.7866C67.1713 30.5341 67.2319 30.3237 67.3532 30.153C67.4627 29.9823 67.6143 29.8514 67.7961 29.7509C67.9779 29.641 68.1668 29.5685 68.3883 29.5288C68.5981 29.4773 68.8009 29.4586 69.0014 29.4586C69.1716 29.4586 69.3324 29.468 69.484 29.489C69.6355 29.4984 69.766 29.5194 69.8849 29.5498C69.9945 29.5708 70.0854 29.5895 70.167 29.6106L70.3069 29.662L70.5284 29.5708L70.8897 29.4095L71.272 30.7188L70.8804 30.9012C70.6799 30.5177 70.4188 30.2676 70.1181 30.1249C69.8057 29.9847 69.4443 29.9145 69.0433 29.9145C68.7729 29.9145 68.5398 29.966 68.3603 30.0758C68.1691 30.1764 68.0782 30.298 68.0782 30.4593C68.0782 30.6112 68.1481 30.7422 68.2997 30.8427C68.4512 30.9432 68.612 31.0251 68.7916 31.0835C69.013 31.1537 69.2345 31.2238 69.4653 31.3056C69.6868 31.3664 69.9269 31.4459 70.188 31.5371C70.3489 31.5885 70.519 31.647 70.6799 31.7288C70.8408 31.8106 70.9806 31.8995 71.1112 32.0117C71.2417 32.1216 71.3513 32.2525 71.4329 32.4138C71.5122 32.5658 71.5541 32.7458 71.5541 32.9679C71.5541 33.2204 71.4935 33.4402 71.3723 33.6319L71.37 33.6226Z" fill="#2C2B29"/>
<path d="M78.2729 31.1139C78.1517 30.9923 78.0421 30.8614 77.9209 30.7305C77.7996 30.5996 77.6691 30.4897 77.5385 30.3868C77.3987 30.2769 77.2565 30.1857 77.1166 30.1249C76.9651 30.0455 76.8158 30.0151 76.655 30.0151C76.4848 30.0151 76.3729 30.0548 76.3146 30.1553C76.254 30.2465 76.2354 30.3564 76.2354 30.499V33.4309C76.2354 33.6015 76.2657 33.7231 76.3449 33.8026C76.4149 33.8727 76.5361 33.9125 76.697 33.9125H76.9977V34.3661H74.3866V33.9125H74.6874C74.8482 33.9125 74.9578 33.8727 75.0394 33.8026C75.1093 33.7231 75.149 33.6015 75.149 33.4309V30.499C75.149 30.3587 75.1187 30.2465 75.0697 30.1553C75.0091 30.0548 74.8879 30.0151 74.7293 30.0151C74.5708 30.0151 74.4076 30.0455 74.2678 30.1249C74.1279 30.1857 73.9857 30.2769 73.8458 30.3868C73.7059 30.4873 73.5847 30.5972 73.4635 30.7305C73.3329 30.8614 73.2117 30.9923 73.1114 31.1139L72.82 30.9526L73.221 29.5615H78.1633L78.5643 30.9526L78.2729 31.1139Z" fill="#2C2B29"/>
<path d="M84.7166 31.3968C84.6257 31.5371 84.5161 31.668 84.3739 31.7802C84.2224 31.8808 84.0522 31.9626 83.8727 32.0211C83.6908 32.0818 83.502 32.1216 83.2992 32.152L84.3529 33.4612C84.4835 33.6226 84.635 33.7441 84.8145 33.8143C84.9963 33.8751 85.1758 33.9055 85.3763 33.9055V34.3684H83.6792L81.9307 32.1824H81.609V33.4309C81.609 33.6015 81.6393 33.7231 81.7185 33.8026C81.7978 33.8727 81.919 33.9125 82.0799 33.9125H82.2711V34.3661H79.8698V33.9125H80.061C80.2219 33.9125 80.3314 33.8727 80.413 33.8026C80.483 33.7231 80.5226 33.6015 80.5226 33.4309V30.499C80.5226 30.3167 80.483 30.1974 80.413 30.1273C80.3338 30.0478 80.2219 30.0174 80.061 30.0174H79.8698V29.5638H82.3806C82.6114 29.5638 82.8725 29.5732 83.1639 29.6036C83.446 29.6246 83.7071 29.6831 83.9566 29.7742C84.1967 29.8537 84.4089 29.9847 84.579 30.167C84.7399 30.3377 84.8308 30.5692 84.8308 30.8614C84.8308 31.0625 84.7912 31.2331 84.7096 31.3945L84.7166 31.3968ZM82.4855 31.7288C82.6254 31.7288 82.777 31.7078 82.9285 31.6774C83.0684 31.647 83.1896 31.5979 83.2992 31.5371C83.3994 31.4669 83.4903 31.3758 83.5603 31.2659C83.6209 31.1443 83.6605 31.004 83.6605 30.8334C83.6605 30.6627 83.6209 30.5318 83.5509 30.4312C83.4717 30.3213 83.3691 30.2395 83.2502 30.1787C83.1197 30.1179 82.9681 30.0688 82.7886 30.0478C82.6068 30.0268 82.4273 30.0174 82.2268 30.0174H82.1055C81.9447 30.0174 81.8235 30.0478 81.7442 30.1273C81.6533 30.1974 81.6136 30.319 81.6136 30.499V31.7288H82.4879H82.4855Z" fill="#2C2B29"/>
<path d="M91.8923 33.017C91.7524 33.3186 91.5496 33.5922 91.3094 33.8119C91.0693 34.0224 90.7872 34.1837 90.4655 34.3053C90.1345 34.4151 89.7825 34.4759 89.4211 34.4759C89.0598 34.4759 88.6984 34.4151 88.3767 34.3053C88.055 34.1837 87.7729 34.0224 87.5328 33.8119C87.281 33.5898 87.0898 33.3186 86.9499 33.017C86.8101 32.7037 86.7378 32.353 86.7378 31.9603C86.7378 31.5675 86.8077 31.2144 86.9499 30.9128C87.0898 30.5902 87.281 30.3283 87.5328 30.1179C87.7729 29.8958 88.055 29.7345 88.3767 29.6246C88.6984 29.503 89.0504 29.4539 89.4211 29.4539C89.7918 29.4539 90.1345 29.5054 90.4655 29.6246C90.7872 29.7345 91.067 29.8958 91.3094 30.1179C91.5496 30.3307 91.7524 30.5925 91.8923 30.9128C92.0321 31.2144 92.1021 31.5675 92.1021 31.9603C92.1021 32.353 92.0321 32.7061 91.8923 33.017ZM90.8665 31.1537C90.8269 30.9012 90.7569 30.6907 90.645 30.5084C90.5355 30.3167 90.3839 30.167 90.1928 30.0642C89.9923 29.9543 89.7405 29.9028 89.4188 29.9028C89.0971 29.9028 88.8359 29.9543 88.6448 30.0642C88.4443 30.1647 88.2928 30.3167 88.1925 30.5084C88.0713 30.6907 88.0014 30.9012 87.971 31.1537C87.9314 31.4062 87.9104 31.6774 87.9104 31.9696C87.9104 32.2619 87.9314 32.5237 87.971 32.7856C88.0014 33.0264 88.0713 33.2485 88.1925 33.4309C88.2928 33.6132 88.4443 33.7628 88.6448 33.8751C88.8359 33.9756 89.0971 34.027 89.4188 34.027C89.7405 34.027 89.9923 33.9756 90.1928 33.8751C90.3839 33.7652 90.5355 33.6132 90.645 33.4309C90.7546 33.2485 90.8269 33.0287 90.8665 32.7856C90.9061 32.5237 90.9271 32.2525 90.9271 31.9696C90.9271 31.6867 90.9061 31.4062 90.8665 31.1537Z" fill="#2C2B29"/>
<path d="M51.7266 30.6066C50.9596 29.8374 49.717 29.8374 48.95 30.6066C48.6259 30.9315 48.4441 31.2308 48.211 31.4459C47.8753 31.7569 47.388 31.2659 47.6958 30.9292C47.9126 30.6954 48.2086 30.513 48.5327 30.1881C49.2997 29.4189 49.2997 28.1727 48.5327 27.4035C47.7657 26.6343 46.5231 26.6343 45.7561 27.4035C44.9891 28.1727 44.9891 29.4189 45.7561 30.1881C46.0802 30.513 46.3786 30.6954 46.5931 30.9292C46.9031 31.2659 46.4136 31.7545 46.0778 31.4459C45.8447 31.2285 45.6629 30.9315 45.3388 30.6066C44.5718 29.8374 43.3293 29.8374 42.5623 30.6066C41.7953 31.3758 41.7953 32.6219 42.5623 33.3911C43.3293 34.1603 44.5718 34.1603 45.3388 33.3911C45.6629 33.0661 45.8447 32.7669 46.0778 32.5518C46.4136 32.2408 46.9008 32.7318 46.5931 33.0685C46.3763 33.3023 46.0802 33.4846 45.7561 33.8096C44.9891 34.5788 44.9891 35.825 45.7561 36.5941C46.5231 37.3633 47.7657 37.3633 48.5327 36.5941C49.2997 35.825 49.2997 34.5788 48.5327 33.8096C48.2086 33.4846 47.9102 33.3023 47.6958 33.0685C47.3857 32.7318 47.8753 32.2432 48.211 32.5518C48.4441 32.7692 48.6259 33.0661 48.95 33.3911C49.717 34.1603 50.9596 34.1603 51.7266 33.3911C52.4935 32.6219 52.4935 31.3758 51.7266 30.6066Z" fill="#2C2B29"/>
<path d="M25.1592 48.9364C25.2105 48.9504 25.2991 49.0696 25.4273 49.2941C25.5486 49.5139 25.5975 49.6635 25.5742 49.7406C25.5439 49.8459 25.481 49.895 25.3807 49.8879L23.11 49.2427C22.9958 49.2917 22.8489 49.3455 22.6694 49.397C22.7067 49.6565 22.737 49.93 22.765 50.2176C22.779 50.7507 22.6531 51.6274 22.3897 52.8478C22.1029 53.7316 21.7556 54.3114 21.3499 54.5896C20.928 54.8842 20.3731 55.104 19.683 55.2513C19.4336 55.1601 19.3427 54.9988 19.408 54.7696C19.4522 54.5125 19.4546 54.3161 19.4103 54.1805C19.3637 54.0215 19.2681 53.8906 19.1235 53.7877C19.1748 53.6053 19.2891 53.5399 19.4662 53.589C19.6434 53.6077 19.8765 53.6381 20.1656 53.6801C20.4011 53.6848 20.5922 53.5726 20.7391 53.3458C20.8557 53.1915 20.9886 52.9039 21.1354 52.4784C20.5992 52.6257 19.9908 52.759 19.31 52.8759C18.0045 53.0653 16.692 53.1564 15.3678 53.1541C15.1813 53.1003 15.1137 52.9834 15.165 52.8011C15.1907 52.7146 15.3072 52.6701 15.517 52.6678C15.7129 52.6514 16.3516 52.5579 17.431 52.3896C18.5221 52.1815 19.4033 51.9758 20.0724 51.7724C20.6202 51.576 21.0702 51.3772 21.4199 51.1762C21.4245 51.0943 21.4292 51.0452 21.4362 51.0242C20.9233 51.1575 20.3195 51.2767 19.6224 51.3796C18.4265 51.5362 17.2445 51.5993 16.0742 51.5666C15.8877 51.5128 15.8178 51.4053 15.8644 51.2416C15.8831 51.1738 15.995 51.1388 16.1954 51.1341C16.3983 51.099 16.9694 51.0125 17.9136 50.8769C18.8927 50.7109 19.6784 50.5332 20.2682 50.3485C20.6925 50.2012 21.0865 50.0376 21.4478 49.8599C21.4455 49.8388 21.4408 49.8084 21.4385 49.771C21.4362 49.7336 21.4362 49.7102 21.4385 49.7009C21.2637 49.7336 20.9862 49.7804 20.6062 49.8365C19.0513 50.068 17.6688 50.0984 16.4542 49.93C16.277 49.8809 16.2164 49.7477 16.277 49.5372C16.319 49.4881 16.5078 49.4624 16.8459 49.4648C17.1373 49.4648 17.6035 49.432 18.2446 49.3642C18.8135 49.2871 19.4219 49.1538 20.07 48.9668C20.3731 48.8662 20.6692 48.754 20.9606 48.6278L19.4126 48.1882C19.303 48.0222 19.2588 47.8586 19.2774 47.6996C19.2984 47.6224 19.352 47.5967 19.4359 47.6201L24.5834 49.086C24.6277 49.0883 24.7186 49.058 24.8562 48.9925C24.9984 48.9387 25.0963 48.92 25.1452 48.934L25.1592 48.9364ZM23.9679 47.3372L26.6303 48.0947C26.7818 48.0129 26.8844 47.9544 26.9403 47.9194C27.1921 47.7113 27.4043 47.6318 27.5838 47.6832C27.7283 47.723 27.8845 47.9918 28.0547 48.4851C28.2202 48.9668 28.2785 49.2894 28.2319 49.4531C28.1409 49.6448 27.8868 49.7032 27.4695 49.6261C27.0336 49.5536 26.4648 49.5466 25.763 49.6074C25.6115 49.563 25.5556 49.4648 25.5998 49.3128C25.7724 49.1538 26.0475 48.9223 26.4275 48.6161L19.6294 46.6826C19.5152 46.8579 19.3007 47.1034 18.9837 47.4167C18.5967 47.7837 18.2749 47.931 18.0232 47.8586C17.6945 47.765 17.5779 47.5453 17.6758 47.1993C17.7248 47.0262 17.8157 46.8977 17.9509 46.8111C18.1001 46.6989 18.2423 46.568 18.3775 46.4184C18.4894 46.2851 18.6013 46.0981 18.7132 45.8619C18.8018 45.544 18.8554 45.3102 18.8718 45.1605C18.9137 45.0156 19.0093 44.9665 19.1608 45.0086C19.2121 45.1161 19.345 45.378 19.5572 45.7894C19.6061 45.876 19.6481 45.9858 19.683 46.1214L22.448 46.907L22.7091 45.9858C22.7347 45.8993 22.8093 45.8736 22.9352 45.911C23.7814 46.3085 24.1894 46.5633 24.1568 46.6779L23.9703 47.3395L23.9679 47.3372ZM26.3738 50.5098C26.537 50.8044 26.6583 51.0219 26.7375 51.1575C26.896 51.4006 26.9683 51.5549 26.9497 51.6227C26.9217 51.6882 26.8401 51.7326 26.7072 51.756C26.6676 51.7653 26.6 51.777 26.5044 51.7911C26.4088 51.8051 26.2666 51.8238 26.0778 51.8495C25.8889 51.8729 25.7048 51.8963 25.5252 51.9173C25.3644 51.9337 25.094 51.9547 24.7116 51.9804C24.8259 52.2212 24.9214 52.4036 24.996 52.5275C25.4646 53.3248 26.1151 53.9303 26.9497 54.3441C27.0522 54.4049 27.0802 54.5148 27.0336 54.6785C26.9706 54.8047 26.8028 54.8632 26.5347 54.8468C26.2526 54.8071 25.9495 54.8819 25.6232 55.0689C25.2641 55.2372 25.01 55.298 24.8585 55.2559C24.63 55.1601 24.3783 54.8234 24.1032 54.2483C23.8141 53.6895 23.6439 53.0442 23.5949 52.3148C23.553 51.5876 23.6206 50.8699 23.7931 50.1615C23.8514 49.9604 23.9726 49.8856 24.1568 49.9394C24.292 49.9768 24.3526 50.2129 24.341 50.6454C24.334 50.8605 24.3829 51.1247 24.4878 51.4333C24.6673 51.3819 24.8072 51.3375 24.9075 51.3048C25.1662 51.2019 25.425 51.0733 25.6884 50.9213L26.1733 50.5613C26.227 50.5028 26.2946 50.4865 26.3785 50.5122L26.3738 50.5098Z" fill="#2C2B29"/>
<path d="M40.1098 51.2533L40.9117 51.3281C41.1122 51.0569 41.4339 50.601 41.8722 49.9604C41.9375 49.8365 42.0307 49.7804 42.152 49.7897C42.3245 49.8365 42.5693 49.9487 42.8887 50.1287C43.1824 50.2971 43.3246 50.4303 43.3153 50.5285C43.306 50.6267 43.2453 50.7132 43.1334 50.781C43.0425 50.8138 42.6998 51.0312 42.1077 51.438L43.4458 51.5619C43.595 51.4754 43.7186 51.3819 43.8165 51.2814C44.0123 51.0686 44.1942 50.9657 44.362 50.9704C44.4926 50.9821 44.6628 51.1995 44.8726 51.618C45.0801 52.0389 45.1803 52.3124 45.1686 52.441C45.1453 52.6 44.9542 52.7075 44.5952 52.7637C44.2105 52.8081 43.7442 52.9367 43.1964 53.1447C43.0309 53.1284 42.9423 53.0372 42.9306 52.8642L43.4761 52.1184L36.4007 51.4637C36.5685 51.5502 36.6991 51.6274 36.79 51.6952C36.9812 51.8238 37.1467 51.9477 37.2842 52.0716L40.8022 52.3966C40.8837 52.3849 41.005 52.3148 41.1658 52.1885C41.3267 52.074 41.4502 52.0202 41.5388 52.0272C41.6787 52.0389 41.9095 52.1675 42.2312 52.4059C42.5529 52.6468 42.7091 52.8151 42.6998 52.9156C42.6602 53.0512 42.6206 53.1588 42.5786 53.2359C42.49 53.3388 42.434 53.4136 42.4131 53.4604L42.3175 54.4891C42.2662 54.5639 42.138 54.627 41.9305 54.6785C41.688 54.7159 41.4619 54.7252 41.2521 54.7065C41.0423 54.6878 40.9444 54.592 40.9607 54.4236L39.5829 54.2974L39.5176 55.0128L42.2475 55.2653C42.3641 55.2372 42.4737 55.1905 42.5786 55.1297C42.6998 55.0619 42.8141 55.0221 42.9213 55.0105C43.0798 55.0245 43.278 55.1227 43.5158 55.305C43.7466 55.4874 43.8818 55.6394 43.9237 55.7633C43.9144 55.8638 43.8561 55.9784 43.7466 56.107C43.6486 56.2075 43.595 56.3034 43.588 56.3922L43.4505 57.8979C43.4225 58.1971 43.1614 58.4473 42.6672 58.653C42.1356 58.8541 41.7976 58.9476 41.6484 58.9336C41.5878 58.9289 41.5622 58.7699 41.5715 58.4613C41.5715 58.1597 41.5202 57.9657 41.4129 57.8745C41.2987 57.7833 41.2451 57.6898 41.2544 57.5893C41.2614 57.5191 41.3477 57.477 41.5179 57.463L41.9258 57.3508C42.0704 57.304 42.1496 57.2315 42.1566 57.131L42.2639 55.955C42.2639 55.8638 42.2149 55.8147 42.1193 55.8054L39.4687 55.5599L39.2099 58.3748C39.1446 58.5198 39.0001 58.6414 38.7786 58.7419C38.5315 58.8401 38.324 58.8962 38.1538 58.9102C37.9253 58.8892 37.8251 58.7442 37.8484 58.4754L38.1282 55.436L35.4379 55.1881L35.263 57.0796C35.2071 57.2152 35.0695 57.3578 34.8527 57.5074C34.6289 57.636 34.4494 57.7108 34.3165 57.7295C34.0717 57.7062 33.9552 57.6313 33.9668 57.5028L34.2676 54.2389C34.2839 54.0706 34.3655 53.9934 34.5147 54.0051C34.8317 54.2039 35.1348 54.4143 35.4239 54.6294L38.1795 54.8842L38.2447 54.1688L36.839 54.0402L36.6548 54.1735C36.4193 54.3418 36.2398 54.4213 36.1163 54.4096C36.002 54.4002 35.8948 54.3348 35.7899 54.2132C35.6757 54.1033 35.6267 53.9724 35.6407 53.8228L35.8505 51.5432C35.8575 51.4731 35.8831 51.431 35.9274 51.4146L35.4029 51.3655C35.3003 51.6064 35.1371 51.8565 34.911 52.116C34.5776 52.4854 34.2792 52.6584 34.0158 52.6351C33.7523 52.6117 33.6358 52.4597 33.6614 52.1815C33.6964 52.0856 33.792 51.9126 33.9458 51.6671C34.095 51.3796 34.1836 51.0943 34.2093 50.8044C34.2442 50.4374 34.2303 50.1404 34.172 49.9137C34.186 49.764 34.2722 49.6986 34.4284 49.7126C34.7408 49.9511 34.9949 50.1802 35.1861 50.3976C35.3283 50.5917 35.4146 50.7296 35.4519 50.8138L36.7107 50.9307C36.6455 50.8652 36.6198 50.781 36.6268 50.6829C36.6478 50.4537 36.6198 50.2153 36.5476 49.9698C36.452 49.75 36.3191 49.5279 36.1466 49.3011C36.1582 49.1725 36.2258 49.1141 36.3494 49.1234C36.5849 49.1445 36.9229 49.2567 37.3635 49.4577C37.8041 49.6588 38.0209 49.9487 38.0116 50.3298C37.986 50.5169 37.8671 50.7016 37.6572 50.8839C37.5803 50.947 37.5197 50.9868 37.4731 51.0032L38.655 51.113L38.8229 49.2941C38.8369 49.1351 38.9022 49.0603 39.0164 49.072C39.9792 49.252 40.4641 49.4601 40.4664 49.7009C40.3732 49.8435 40.2893 50.0002 40.2123 50.1732L40.1144 51.2463L40.1098 51.2533ZM37.0418 53.5095L40.9933 53.8742L41.0539 53.2032C41.0679 53.0536 41.012 52.9741 40.8907 52.9624L37.1234 52.614L37.0418 53.5071V53.5095Z" fill="#2C2B29"/>
<path d="M57.9534 51.2206L57.9021 50.6548L54.214 50.9961L54.2537 51.4287C54.2443 51.5292 54.1091 51.6671 53.841 51.8425C53.5496 52.0295 53.3421 52.1301 53.2186 52.1394C52.9295 52.1651 52.778 52.0997 52.764 51.9407L52.6894 51.1364L50.4304 51.3445C50.2882 51.2369 50.2042 51.099 50.1809 50.9307C50.1739 50.8512 50.2042 50.8091 50.2742 50.8021L52.6358 50.5823L52.5612 49.778C52.5472 49.6191 52.6311 49.5302 52.8153 49.5139C53.6289 49.5279 54.0578 49.6448 54.1045 49.8599L54.1581 50.442L57.8462 50.1007L57.7739 49.3105C57.7599 49.1515 57.8392 49.065 58.014 49.0486C58.837 49.0626 59.2706 49.1772 59.3172 49.3946L59.3685 49.9604L59.8418 49.916C59.935 49.8669 60.0702 49.7149 60.2497 49.4577C60.4176 49.1819 60.5505 49.0392 60.6484 49.0299C60.8232 49.0135 61.0517 49.1538 61.3361 49.4484C61.6135 49.6939 61.7627 49.9136 61.7814 50.1124C61.7464 50.2059 61.6159 50.2784 61.3921 50.3298L59.4221 50.5122L59.4454 50.7507C59.4431 50.8208 59.3592 50.919 59.1937 51.0452C59.2659 51.078 59.4011 51.1551 59.5993 51.279C59.9537 51.4871 60.1378 51.6695 60.1542 51.8285C60.1611 52.0085 60.0702 52.1207 59.8814 52.1698L59.8278 52.1745C60.0003 52.3194 60.2008 52.4808 60.4292 52.6608C60.73 52.8735 60.8862 53.0349 60.8978 53.1424C60.9072 53.2406 60.8302 53.3294 60.6694 53.4043C60.5854 53.4534 60.2148 53.6357 59.555 53.9584C58.9209 54.2576 58.443 54.4377 58.1213 54.4961C57.9721 54.5101 57.8905 54.4377 57.8765 54.2787C57.8858 54.1875 57.9604 54.0916 58.1003 53.9864C58.1889 53.9093 58.3614 53.7479 58.6108 53.5025C58.802 53.2757 58.9792 53.0325 59.14 52.7777C59.1773 52.7052 59.2193 52.6234 59.2636 52.5345C59.3079 52.4457 59.3429 52.3779 59.3638 52.3288C59.3872 52.282 59.4058 52.247 59.4198 52.2259C58.9908 52.275 58.2005 52.4036 57.0465 52.6117C56.8717 52.6281 56.7062 52.6584 56.5523 52.7029C56.9603 52.8151 57.1701 52.932 57.1794 53.0512C57.2004 53.2897 57.0769 53.5679 56.8064 53.8812C56.6782 54.0145 56.5826 54.1033 56.5267 54.1477C57.1072 54.1244 57.4032 54.1875 57.4172 54.3348C57.4265 54.4447 57.3729 54.5639 57.2517 54.6948C57.1958 54.7696 57.1608 54.8491 57.1421 54.931L59.8068 54.6855C59.8931 54.6574 60.0306 54.4891 60.2241 54.1805C60.4106 53.9116 60.5715 53.7737 60.702 53.7596C60.8162 53.7503 61.054 53.8882 61.4154 54.1735C61.8047 54.468 62.0052 54.6948 62.0215 54.8538C62.0308 54.9637 61.9492 55.0362 61.7767 55.0712L58.3521 55.3892C58.6575 55.5318 59.0771 55.6885 59.6133 55.8591C60.4036 56.0976 61.0727 56.2239 61.6205 56.2449C62.18 56.2847 62.4621 56.3221 62.4645 56.3618C62.4738 56.4717 62.3316 56.6447 62.0355 56.8832C61.7371 57.1006 61.5319 57.3695 61.4224 57.6921C61.3175 58.0031 61.2056 58.1621 61.082 58.1738C60.8699 58.1644 60.5318 58.0498 60.0702 57.8324C59.5643 57.5986 59.0654 57.2596 58.5735 56.813C58.1096 56.3758 57.7646 55.9269 57.5361 55.4664L57.1678 55.4991L57.4102 58.1363C57.4219 58.2649 57.3123 58.4216 57.0815 58.6016C56.8227 58.7653 56.5896 58.8564 56.3798 58.8775C56.107 58.9032 55.9602 58.777 55.9345 58.4987L55.741 56.3969C55.347 56.7148 54.96 57.0211 54.58 57.3157C53.3398 58.2112 52.1415 58.8331 50.9922 59.1814C50.8523 59.1955 50.7754 59.116 50.7591 58.9476C50.7777 58.8564 50.9339 58.7466 51.2323 58.618C51.5354 58.4707 51.9364 58.2228 52.4353 57.8745C52.8969 57.5215 53.3818 57.0913 53.8923 56.5839C54.1651 56.287 54.3912 56.0064 54.5684 55.7399L51.1554 56.0555C50.9945 55.9503 50.8943 55.81 50.8523 55.6324C50.8453 55.5529 50.885 55.5084 50.9735 55.5014L55.6198 55.0712L55.5662 54.4891C55.5475 54.2997 55.6058 54.1992 55.7364 54.1875L55.8273 54.1781L55.6454 53.5025C55.5499 53.2312 55.4473 53.0302 55.3377 52.8993C54.6593 53.0208 53.9436 53.1494 53.1883 53.278C53.2419 53.2827 53.2908 53.2991 53.3375 53.3248C53.8527 53.458 54.1185 53.6123 54.1348 53.7924C54.1558 54.0215 54.0299 54.2927 53.7594 54.6083C53.4704 54.9169 53.1953 55.097 52.9365 55.1507C52.8362 55.1087 52.7803 55.0338 52.771 54.9263C52.7383 54.758 52.6707 54.5101 52.5705 54.1781C52.4609 53.8368 52.3327 53.5983 52.1882 53.4627L51.6799 53.5539C51.5051 53.5703 51.4118 53.5141 51.4002 53.3856C51.3885 53.257 51.4468 53.1658 51.5727 53.1143C51.7359 53.0699 51.9597 53.0068 52.2441 52.925C52.5285 52.8431 52.8899 52.7403 53.3281 52.614C53.7664 52.4878 54.1697 52.3732 54.5404 52.268C55.9345 51.8682 56.9813 51.5456 57.6807 51.3024L57.9511 51.2159L57.9534 51.2206Z" fill="#2C2B29"/>
<path d="M68.7659 47.0777C69.1086 47.1876 69.421 47.2483 69.7078 47.26C69.9549 47.26 70.0948 47.3208 70.1274 47.4354C70.6496 47.4424 71.0179 47.4517 71.2324 47.4634C71.7127 47.5125 71.9924 47.6832 72.074 47.9708C72.109 48.1882 72.0647 48.436 71.9411 48.7096C71.8246 48.9714 71.6614 49.1421 71.4562 49.2216C71.3024 49.2567 71.1485 49.1234 71.0016 48.8218C70.8804 48.6184 70.6869 48.4197 70.4211 48.2256C70.2836 48.1298 70.1297 48.0386 69.9595 47.9521C69.787 48.3121 69.5073 48.775 69.1203 49.3432C68.8941 49.6775 68.647 49.9955 68.3766 50.3017C68.5165 50.3134 68.7543 50.3438 69.0876 50.3953L69.6961 50.2223L69.4303 49.2871C69.4094 49.2099 69.4537 49.1561 69.5632 49.1257C70.3815 49.0182 70.8058 49.0112 70.8314 49.107L71.0389 49.8412L71.1415 49.8131C71.1905 49.7897 71.2697 49.6892 71.384 49.5115C71.4609 49.3642 71.5495 49.2777 71.6521 49.2497C71.736 49.2263 71.9108 49.2754 72.1743 49.397C72.4144 49.5045 72.5706 49.591 72.6429 49.6518C72.6802 49.7874 72.6732 49.923 72.6219 50.0633C72.5496 50.1661 72.5193 50.2784 72.5263 50.4023L72.9413 51.8705C72.9622 52.0412 72.9296 52.1698 72.8457 52.2563L70.0551 53.0512L70.5074 54.6481C70.7382 54.5312 71.2721 54.281 72.1043 53.8976C71.9155 53.6194 71.7103 53.423 71.4865 53.3107C71.4306 53.1097 71.4935 52.9811 71.68 52.9296C71.8246 52.8899 72.1999 52.9437 72.8084 53.091C73.3772 53.2289 73.6966 53.4183 73.7642 53.6591C73.8248 53.8695 73.7502 54.1454 73.5451 54.4844C73.3399 54.8234 73.1184 55.0408 72.8806 55.139C72.7571 55.1227 72.6732 55.0525 72.6289 54.931C72.6102 54.8959 72.5706 54.8141 72.5123 54.6925C72.454 54.5686 72.4051 54.4657 72.3631 54.3839C71.7663 54.8538 70.92 55.5669 69.829 56.5208C69.7614 56.5395 69.7101 56.5208 69.6728 56.4553C69.4187 56.1023 69.1926 55.7937 68.9991 55.5271C68.9664 55.4126 68.9944 55.3378 69.0853 55.3004C69.1646 55.2559 69.2905 55.1998 69.463 55.1297L68.1645 50.5379C67.8964 50.8208 67.6003 51.1084 67.2716 51.3983C67.0944 51.4497 66.9848 51.4029 66.9452 51.258C66.9242 51.1808 66.9545 51.099 67.0408 51.0125C67.1084 50.9307 67.3555 50.5589 67.7798 49.8996C68.1971 49.2099 68.4512 48.6605 68.5468 48.2513C68.6237 47.8469 68.6587 47.5149 68.6494 47.2577C68.6494 47.1642 68.689 47.1057 68.7659 47.0847V47.0777ZM69.4397 50.8675L69.5959 51.4146L71.6381 50.8325L71.5402 50.4865C71.5029 50.3532 71.4189 50.3018 71.293 50.3392L69.442 50.8652L69.4397 50.8675ZM69.7451 51.9477L69.9036 52.5088L71.8176 51.9641C71.8852 51.9454 71.9108 51.8705 71.8922 51.7396L71.7873 51.3655L69.7451 51.9477ZM75.3285 46.5937L76.7482 46.1892L76.8438 45.9905C76.9394 45.745 77.063 45.6024 77.2145 45.558C77.3241 45.5276 77.5572 45.6538 77.9116 45.9344C78.2379 46.215 78.4175 46.4137 78.4501 46.5282C78.4897 46.7667 78.3732 46.9538 78.1027 47.094C77.9069 47.1805 77.6924 47.3348 77.4523 47.5593C77.4616 47.5593 77.4756 47.564 77.4989 47.578C77.8276 47.744 78.0071 47.8749 78.0351 47.9708C78.0561 48.0479 78.0538 48.1368 78.0281 48.2373C78.0048 48.3472 77.9955 48.4594 78.0001 48.5716L78.2356 49.4063C78.0817 49.8342 77.809 50.1147 77.4173 50.2456C77.2821 50.2527 77.1842 50.1965 77.1236 50.0796L77.0746 49.9066L74.7037 50.5823L75.0184 51.6905L77.2378 51.0593C77.3054 51.0406 77.422 50.919 77.5875 50.6945C77.7414 50.4958 77.8812 50.3766 78.0071 50.3415C78.133 50.3064 78.3662 50.3696 78.7042 50.5309C79.0586 50.6899 79.252 50.8208 79.2824 50.926C79.3033 51.0031 79.3033 51.0967 79.28 51.2066C79.2474 51.3188 79.2311 51.4333 79.2264 51.5479L79.6997 53.2172C79.5341 53.6684 79.252 53.9607 78.8534 54.0963C78.7089 54.1057 78.6063 54.0425 78.5387 53.9069L78.3755 53.3318L75.6992 54.094L75.8204 54.5265C75.8274 54.6481 75.7598 54.8141 75.6176 55.0198C75.4521 55.2115 75.3005 55.3331 75.1583 55.3845C74.9298 55.45 74.7946 55.4102 74.755 55.2653L73.0112 49.1047C72.911 49.2684 72.806 49.3666 72.6965 49.397C72.3748 49.4881 72.1649 49.3619 72.067 49.0159C72.0227 48.8616 72.0274 48.7119 72.0764 48.5623C72.1137 48.4384 72.1463 48.263 72.1743 48.0362C72.1789 47.8586 72.1626 47.6552 72.1253 47.4284C72.0717 47.2367 72.0087 47.0987 71.9388 47.0145C71.9015 46.8813 71.9528 46.7924 72.0973 46.7527C72.3491 46.8673 72.5822 46.9678 72.799 47.052C72.9133 47.1034 73.0135 47.1618 73.0975 47.232L73.8714 47.0122L73.5404 45.8456C73.5218 45.7777 73.5707 45.7287 73.6896 45.6936C74.5755 45.565 75.0301 45.5393 75.0511 45.6164L75.3285 46.596V46.5937ZM74.1675 48.6348L76.0815 48.09C76.1584 48.069 76.2727 47.9568 76.4265 47.758C76.5641 47.564 76.6876 47.4494 76.7972 47.419C76.8019 47.2717 76.8182 47.0449 76.8508 46.734L73.3003 47.744C73.2956 47.9217 73.2653 48.1531 73.2094 48.4384C73.5544 48.4968 73.8738 48.56 74.1675 48.6324V48.6348ZM74.5522 50.0493L76.9231 49.3736L76.7436 48.74C76.697 48.5763 76.62 48.5109 76.5105 48.5412L74.3027 49.1702L74.5522 50.0469V50.0493ZM75.5476 53.5609L78.224 52.7987L77.9139 51.7045C77.8673 51.5409 77.7927 51.4754 77.6924 51.5035L75.1676 52.2212L75.5476 53.5609Z" fill="#2C2B29"/>
<path d="M24.7419 13.4037L18.5244 15.2507L19.0886 17.1585C19.2308 17.6378 19.4616 17.8295 19.781 17.7336L26.0335 15.9544C26.4018 15.8352 26.5813 15.5944 26.5767 15.232C26.5836 14.9491 26.579 14.561 26.5627 14.0653C26.5347 13.8759 26.5697 13.7661 26.6722 13.7357C26.7725 13.7053 26.8657 13.7871 26.952 13.9812C27.1921 14.4511 27.4975 14.9584 27.8682 15.5032C28.2435 16.0573 28.4394 16.3682 28.4603 16.436C28.5419 16.8078 28.4044 17.0556 28.0477 17.1819L19.4033 19.424C18.6946 19.5713 18.2027 19.1785 17.9253 18.241L16.0812 12.0009C16.0276 11.8185 16.0859 11.704 16.2537 11.6525C16.3726 11.6175 16.6594 11.6408 17.114 11.725C17.2678 11.7531 17.4194 11.7858 17.5686 11.8232L23.6089 10.0276C23.6765 9.97619 23.7814 9.8663 23.9237 9.70031C24.0379 9.49924 24.1498 9.38234 24.2594 9.34961C24.4785 9.31454 24.7513 9.35429 25.0776 9.46651C25.4297 9.56938 25.6208 9.67926 25.6558 9.79383C25.6861 9.89904 25.6651 10.0089 25.5882 10.1258C25.5113 10.2427 25.4623 10.3503 25.4367 10.4508L26.0987 12.6883C26.1057 12.8636 26.0032 13.0506 25.7957 13.247C25.5625 13.4528 25.3457 13.5837 25.1429 13.6445C24.9541 13.6585 24.8235 13.5884 24.7513 13.4341L24.7419 13.406V13.4037ZM17.6711 12.3679L18.3659 14.72L20.83 13.9882L20.1353 11.6362L17.6711 12.3679ZM22.1705 13.5884L24.5834 12.8706L23.9563 10.7477C23.912 10.5958 23.7954 10.5467 23.6113 10.6004L21.4758 11.234L22.1705 13.586V13.5884Z" fill="#2C2B29"/>
<path d="M39.5806 6.96252L43.0052 6.63287C43.0542 6.57909 43.1125 6.50194 43.1824 6.40608C43.3199 6.17229 43.4645 6.04837 43.623 6.03201C43.7536 6.02032 43.968 6.18398 44.2665 6.52532C44.5555 6.869 44.7071 7.10514 44.7187 7.23373C44.7047 7.36466 44.5509 7.46052 44.2571 7.51896C44.0217 7.56105 43.7745 7.63586 43.5111 7.74107C43.665 7.88603 43.7466 7.99358 43.7536 8.06372C43.7652 8.18295 43.7186 8.25309 43.6137 8.2718L41.4083 8.48455L41.4526 8.94747L42.1613 8.87967C42.2033 8.86564 42.2849 8.79317 42.4061 8.6599C42.4993 8.54066 42.5903 8.47754 42.6788 8.46819C42.7395 8.46117 42.877 8.54534 43.0868 8.71368C43.3153 8.88201 43.4342 9.01995 43.4458 9.12984C43.4552 9.23972 43.4109 9.30285 43.306 9.32389L41.5085 9.4969L41.5505 9.92943L43.5438 9.73771C43.602 9.712 43.6883 9.62315 43.7955 9.47352C43.9051 9.33324 44.0077 9.25843 44.1056 9.24907C44.1755 9.24206 44.3247 9.33324 44.5555 9.52262C44.7956 9.71901 44.9192 9.86864 44.9285 9.96684C44.9402 10.0861 44.8936 10.1562 44.7887 10.1749L42.5833 10.3877C42.8164 10.5256 43.1381 10.6542 43.5484 10.7758C44.1196 10.9301 44.5555 11.0096 44.8563 11.0096C45.1453 10.9909 45.2945 11.0119 45.2992 11.0727C45.3085 11.1732 45.1943 11.3229 44.9588 11.5263C44.7117 11.711 44.5485 11.9471 44.4716 12.2347C44.3737 12.5059 44.2548 12.6462 44.1149 12.6602C44.0426 12.6462 43.8305 12.5129 43.4808 12.2557C43.1731 12.0056 42.9633 11.8209 42.8444 11.7016L43.0752 14.1004C43.0635 14.1612 43.0215 14.222 42.9469 14.2781C43.7606 14.2898 44.1825 14.4488 44.2105 14.7574C44.2175 15.0075 44.1476 15.26 44.0053 15.5149C43.8515 15.7604 43.651 15.9193 43.4015 15.9942C43.236 16.0105 43.0752 15.9053 42.9213 15.6809C42.5996 15.3512 42.2312 15.1151 41.8209 14.9748C41.3803 14.7971 41.0656 14.7013 40.8791 14.6896C40.6926 14.6779 40.5947 14.6218 40.5853 14.5236C40.5737 14.4043 40.639 14.3389 40.7788 14.3248C41.1099 14.2921 41.3826 14.2757 41.5948 14.2757L41.5808 14.2617L41.5692 14.1284L37.5663 14.5142C37.6782 14.5844 37.7692 14.6451 37.8344 14.6989C38.1561 14.9187 38.3217 15.087 38.3333 15.2063C38.3287 15.3372 38.289 15.4354 38.2168 15.5032C37.8671 15.5476 37.2143 15.7393 36.2585 16.083C35.326 16.394 34.6079 16.588 34.102 16.6675C33.9785 16.6792 33.9132 16.6207 33.8992 16.4922C33.8899 16.4033 34.0578 16.3075 34.4004 16.2022C34.6825 16.0947 35.0206 15.938 35.4146 15.7276C35.7503 15.5453 36.065 15.3255 36.3564 15.066C36.3564 15.0566 36.3634 15.0496 36.382 15.0473C36.2725 15.0192 36.1909 14.9865 36.1349 14.9514C36.0114 14.8743 35.9368 14.7714 35.9065 14.6428L35.7013 12.5129C34.918 13.1792 34.193 13.6305 33.5262 13.8643C33.3957 13.8759 33.3211 13.8035 33.3071 13.6445C33.3164 13.5627 33.4097 13.4691 33.5845 13.3616C33.8013 13.24 34.0484 13.0413 34.3212 12.7654C34.5939 12.4778 34.8807 12.1201 35.1838 11.6899C35.3609 11.4117 35.4822 11.206 35.5474 11.068L33.5915 11.2574C33.44 11.1522 33.342 11.0119 33.3001 10.8342C33.2931 10.7641 33.3281 10.7267 33.4073 10.7197L36.4776 10.4227L36.4357 9.99021L35.2537 10.1048C35.0952 10.0089 34.9926 9.87332 34.9506 9.69797C34.9436 9.61848 34.9833 9.57405 35.0695 9.56704L36.382 9.44079L36.3377 8.97787L34.9087 9.11581C34.7944 9.03632 34.7105 8.93345 34.6546 8.80953L34.5939 9.0106C34.3841 9.59276 34.144 9.8967 33.8736 9.92241C33.5402 9.95514 33.3584 9.79616 33.3257 9.45014C33.3047 9.22102 33.342 9.03164 33.4423 8.88201C33.5169 8.74407 33.5985 8.53599 33.6871 8.25777C33.736 8.04267 33.7687 7.77848 33.7827 7.46753C33.764 7.2688 33.7174 7.12385 33.6474 7.03033C33.6358 6.90174 33.7081 6.82926 33.8643 6.81289C33.9202 6.84796 34.0204 6.91343 34.1673 7.00928C34.3142 7.10514 34.4284 7.17996 34.5124 7.23139C34.6243 7.30153 34.7058 7.367 34.7571 7.43246L37.972 7.12151L37.8811 6.18398C37.8717 6.08578 37.9323 6.02967 38.0629 6.01564C39.0141 6.07409 39.4943 6.17229 39.5083 6.31256L39.5712 6.9672L39.5806 6.96252ZM34.7408 8.57106L36.2888 8.42143L36.2468 7.97487C36.2398 7.89538 36.2445 7.85096 36.2608 7.83927L34.897 7.9702C34.8551 8.18529 34.8038 8.38402 34.7431 8.57106H34.7408ZM36.839 11.3907L40.998 10.9885C41.0236 10.9862 41.1309 10.9114 41.3197 10.7617C41.4642 10.6074 41.5831 10.5256 41.6787 10.5163C41.7393 10.5092 41.8419 10.5209 41.9865 10.5467C41.9561 10.5092 41.9398 10.4765 41.9375 10.4461L37.1747 10.9067C37.0255 11.1124 36.9043 11.2691 36.8087 11.379L36.8366 11.3907H36.839ZM36.9299 7.77381C37.4638 7.81355 37.7412 7.91175 37.7668 8.06839L37.6946 8.28582L40.0305 8.06138L39.9862 7.60079C39.9792 7.54234 39.9862 7.50026 40.0002 7.47922L36.9299 7.77614V7.77381ZM37.0954 12.2534L41.3477 11.8442L41.336 11.711C41.3244 11.5824 41.2568 11.5239 41.1332 11.5356L37.0651 11.9284L37.0954 12.2557V12.2534ZM37.177 13.1161L41.4293 12.707L41.399 12.3937L37.1467 12.8028L37.177 13.1161ZM37.2609 13.9812L41.5132 13.572L41.4829 13.2587L37.2306 13.6679L37.2609 13.9812ZM37.6689 8.8446L37.7132 9.30519L40.1284 9.07139L40.0841 8.6108L37.6689 8.8446ZM40.1797 9.62549L37.7645 9.85929L37.8065 10.2918L40.2217 10.058L40.1797 9.62549ZM40.7625 7.4044C41.2265 7.44883 41.4736 7.54702 41.5062 7.69431C41.4852 7.74575 41.4619 7.8229 41.4363 7.92577L42.4737 7.82524C42.5063 7.81121 42.5879 7.73406 42.7161 7.59144C42.8187 7.47221 42.898 7.40908 42.9493 7.4044L43.0215 7.18697L40.7649 7.4044H40.7625Z" fill="#2C2B29"/>
<path d="M53.0507 5.76548C53.1743 5.77717 53.3515 5.86368 53.5823 6.02733C53.6405 6.05305 53.7198 6.09981 53.82 6.16995L60.6554 6.82693C60.6903 6.82926 60.7906 6.78952 60.9584 6.70535C61.1263 6.60248 61.2522 6.55338 61.3291 6.56039C61.5203 6.60014 61.7487 6.70067 62.0145 6.86667C62.2919 7.01396 62.4271 7.12151 62.4202 7.19165C62.4178 7.22204 62.3759 7.27348 62.2989 7.34596C62.2243 7.37869 62.1777 7.41844 62.1544 7.46753L61.9889 9.1953C61.9562 9.27246 61.8606 9.33325 61.7068 9.37767C61.5273 9.4104 61.3804 9.42209 61.2662 9.4104C60.9025 9.34494 60.6997 9.23505 60.6624 9.08074L60.674 8.94748L60.0446 8.88669C60.0959 8.90072 60.1518 8.93111 60.2078 8.97787C60.4502 9.11114 60.5691 9.22336 60.5598 9.3122C60.5528 9.3917 60.5062 9.45716 60.4222 9.50859C60.3756 9.53431 60.2591 9.68394 60.0749 9.95515L61.0843 10.0533C61.2009 10.0346 61.3454 9.94814 61.5203 9.79383C61.7045 9.62082 61.8537 9.54133 61.9679 9.55068C62.0471 9.55769 62.1754 9.69563 62.3525 9.9645C62.5321 10.2123 62.6276 10.4064 62.6416 10.549C62.6276 10.6986 62.5554 10.7664 62.4225 10.7547L60.3103 10.5513L60.2264 11.4304L60.6857 11.4748C60.7579 11.4608 60.8605 11.3907 60.9981 11.2644C61.1426 11.1382 61.2615 11.0797 61.3594 11.0891C61.42 11.0937 61.5552 11.213 61.7627 11.4444C61.9679 11.6946 62.0658 11.8746 62.0565 11.9845C62.0471 12.0827 61.9889 12.1388 61.8816 12.1482L60.1751 11.9845L60.0819 12.9524L60.5155 12.9945C60.5784 12.9805 60.6834 12.9057 60.8279 12.7701C60.9724 12.6438 61.0913 12.5854 61.1892 12.5947C61.2592 12.6017 61.3944 12.7257 61.5902 12.9641C61.7977 13.1956 61.8956 13.3686 61.884 13.4878C61.8746 13.5977 61.814 13.6562 61.7091 13.6655L60.0283 13.5042L59.9234 14.6054L60.6064 14.6709C60.66 14.6662 60.7836 14.5773 60.9771 14.4067C61.1519 14.243 61.2871 14.1659 61.3827 14.1752C61.4527 14.1822 61.6065 14.3178 61.8467 14.5797C62.0938 14.8649 62.2103 15.066 62.1987 15.1852C62.187 15.3045 62.1148 15.3629 61.9842 15.3606L57.627 14.9421L57.5757 15.4938C57.5618 15.6435 57.4359 15.8048 57.1981 15.9825C56.9603 16.1602 56.7621 16.242 56.6059 16.2256C56.3868 16.2046 56.2842 16.1204 56.2982 15.9708L56.7528 11.234C56.6572 11.3042 56.5733 11.3579 56.4987 11.3907C56.5173 11.4725 56.5243 11.5426 56.5173 11.6034C56.4707 11.7998 56.3705 11.9892 56.2119 12.1762C56.0348 12.3609 55.8622 12.4638 55.6921 12.4872C55.4822 12.4661 55.3913 12.3189 55.417 12.0406C55.4216 12.0009 55.424 11.9518 55.424 11.891C55.424 11.8302 55.4263 11.7858 55.431 11.7554C55.1279 11.7858 54.8342 11.8185 54.5474 11.8513L54.2583 14.8743C54.1954 14.9888 54.0648 15.0964 53.869 15.1969C53.5962 15.2811 53.4144 15.3278 53.3258 15.3395C53.116 15.3185 53.0227 15.1852 53.0461 14.9374L53.2092 13.2237L53.0927 13.3335C53.0647 13.3522 53.0064 13.3967 52.9202 13.4668C52.8339 13.5393 52.708 13.6375 52.5402 13.7614C52.3746 13.8853 52.2045 14.0139 52.0319 14.1495C51.4421 14.5937 50.9106 14.8789 50.4397 15.0029C50.3091 14.9912 50.2485 14.9234 50.2602 14.8041C50.3767 14.7059 50.5353 14.5703 50.7358 14.3997C50.9502 14.1892 51.1997 13.8876 51.4841 13.4949C51.7685 13.1021 51.9807 12.742 52.1159 12.4147C52.1322 12.2464 52.2021 12.1669 52.3234 12.1786C52.3956 12.2464 52.5075 12.3399 52.6544 12.4591C52.8013 12.5784 52.8992 12.6602 52.9481 12.7046C53.088 12.8075 53.1813 12.9033 53.2256 12.9875L53.3235 11.9588C52.8969 11.9985 52.2721 12.0593 51.4515 12.1388C51.3372 12.1271 51.2883 12.043 51.3046 11.884C51.3209 11.7157 51.2883 11.4912 51.209 11.213C51.2207 11.0937 51.2953 11.04 51.4351 11.054C52.1182 11.1008 52.6241 11.1288 52.9505 11.1405C53.0647 11.061 53.2139 10.9581 53.3981 10.8296C53.5823 10.7033 53.6942 10.6238 53.7315 10.5981L53.5892 10.5537C53.3025 10.4952 52.9854 10.4508 52.6358 10.4181C52.5472 10.3292 52.5169 10.1352 52.5448 9.83825C52.8059 9.6933 53.1789 9.4291 53.6662 9.04334C54.0415 8.71836 54.298 8.48689 54.4332 8.35129L53.8294 8.29284L53.7921 8.69498C53.7571 8.79083 53.6452 8.89604 53.4564 9.00827C53.2885 9.09243 53.1277 9.1275 52.9691 9.11114C52.8829 9.09243 52.7826 9.03866 52.6684 8.94748C52.5635 8.84694 52.5122 8.73706 52.5145 8.61782L52.7616 6.04136C52.7803 5.84263 52.8735 5.75145 53.0391 5.76782L53.0507 5.76548ZM53.8946 7.74108L55.2211 7.86967L55.3167 6.87135L53.9926 6.7451L53.897 7.74342L53.8946 7.74108ZM56.2749 10.9768C56.3448 10.8927 56.4684 10.7056 56.6479 10.4111C56.8717 10.0113 57.0535 9.63718 57.1911 9.29116C57.289 8.99891 57.3543 8.78148 57.3869 8.63419L55.1559 8.41909L55.1908 8.46819C55.3564 8.66458 55.4333 8.82824 55.4216 8.95683C55.4146 9.02697 55.1978 9.16491 54.7712 9.37533C54.3376 9.57406 54.1184 9.70265 54.1115 9.76343C54.1068 9.82188 54.2257 9.89904 54.4728 9.9949C54.4821 9.9949 54.4915 9.99957 54.5054 10.0042C54.5171 10.0113 54.5288 10.0136 54.5381 10.0159L54.58 9.99022C54.8085 9.81253 55.1232 9.56237 55.5265 9.23973C55.5988 9.11581 55.6897 9.0597 55.7946 9.06905C55.8996 9.07841 56.0534 9.18829 56.2539 9.39871C56.4661 9.56938 56.5686 9.70966 56.557 9.81955C56.5476 9.92943 56.4684 10.0066 56.3238 10.0533L55.6967 10.383C55.8016 10.4742 55.9485 10.6168 56.1327 10.8155C56.2119 10.9044 56.2609 10.9581 56.2749 10.9792V10.9768ZM55.4426 11.227C55.445 11.1966 55.4473 11.1639 55.4449 11.1288C55.4449 11.0937 55.4449 11.0704 55.4449 11.061C55.4403 10.8412 55.4076 10.6706 55.347 10.556C55.0416 10.7173 54.6663 10.9324 54.2257 11.199L55.4403 11.2247L55.4426 11.227ZM54.96 12.1131C55.1512 12.2323 55.3913 12.4404 55.6804 12.7397C55.9508 13.0553 56.0861 13.3359 56.0907 13.5767C56.0744 13.745 55.9765 13.9414 55.797 14.1635C55.6175 14.388 55.4193 14.5025 55.2072 14.5119C54.9647 14.4698 54.8481 14.3319 54.8621 14.1027C54.8784 13.9344 54.8901 13.6305 54.8971 13.1886C54.8971 12.8285 54.8505 12.5176 54.7619 12.2581C54.7712 12.1482 54.8388 12.0991 54.9624 12.1131H54.96ZM56.7062 7.00461L56.6106 8.00293L58.0024 8.1362L58.098 7.13788L56.7062 7.00461ZM58.5875 14.4768L58.6924 13.3756L57.7879 13.2891L57.683 14.3903L58.5875 14.4768ZM58.7461 12.8239L58.8393 11.8559L57.9348 11.7694L57.8415 12.7374L58.7461 12.8239ZM58.2821 9.78681L59.0165 9.85695C59.0491 9.7798 59.1121 9.62549 59.2007 9.39403C59.2892 9.16257 59.3568 8.9732 59.4058 8.82824L57.9091 8.68329C57.9744 8.73004 58.091 8.80018 58.2588 8.89838C58.5199 9.04334 58.6435 9.1766 58.6318 9.29584C58.6272 9.34493 58.5945 9.40806 58.5339 9.48288L58.2798 9.78915L58.2821 9.78681ZM58.8906 11.3042L58.9745 10.4251L58.07 10.3386L57.986 11.2177L58.8906 11.3042ZM59.4897 7.27114L59.3941 8.26946L60.7323 8.39805L60.8116 7.57976C60.8232 7.46052 60.7813 7.39739 60.6833 7.38804L59.4897 7.27348V7.27114Z" fill="#2C2B29"/>
<path d="M72.4936 8.94748C72.5869 9.00593 72.6895 9.15089 72.8037 9.38235C72.9226 9.60445 72.9599 9.78214 72.9203 9.91541C72.8923 10.0113 72.6055 10.1749 72.06 10.4087C71.4889 10.6355 71.1905 10.7945 71.1601 10.8903C71.1415 10.9581 71.2581 11.075 71.5098 11.2434C71.5401 11.2621 71.6054 11.3088 71.7033 11.379C72.1626 11.068 72.5006 10.8202 72.7198 10.6355C72.8293 10.5443 72.9296 10.5116 73.0229 10.5373C73.1324 10.57 73.2746 10.7056 73.4518 10.9465C73.6197 11.1826 73.6896 11.3556 73.657 11.4608C73.629 11.5567 73.5357 11.6221 73.3795 11.6595C73.0578 11.8138 72.7291 11.9705 72.3887 12.1295C71.8409 12.403 71.3233 12.6766 70.8408 12.9501C71.3793 13.0483 71.7849 13.1161 72.0577 13.1559C72.0857 12.9034 72.0833 12.7257 72.0507 12.6228C72.0857 12.5082 72.1556 12.4661 72.2652 12.4989C72.4284 12.6298 72.6149 12.8636 72.8294 13.1979C73.0322 13.5066 73.1044 13.7591 73.0485 13.9484C72.9646 14.1425 72.8224 14.3132 72.6219 14.4628C72.3911 14.6241 72.1859 14.6966 72.0064 14.6849C71.7966 14.6218 71.7313 14.4534 71.8129 14.1752C71.8292 14.1168 71.8525 14.0326 71.8805 13.9227C71.9085 13.8105 71.9295 13.731 71.9435 13.6842H71.5308L70.3325 17.7477C70.237 17.8552 70.0878 17.9394 69.8849 18.0048C69.6565 18.0306 69.4723 18.0376 69.3278 18.0259C69.1249 17.9651 69.0573 17.8201 69.1249 17.591L69.7381 15.5102C69.7381 15.5102 69.6098 15.557 69.3767 15.6598C69.1436 15.7627 68.9175 15.8656 68.696 15.9638C68.1062 16.1952 67.6842 16.3028 67.4301 16.2911C67.3368 16.263 67.3042 16.2022 67.3345 16.1064C67.3858 15.9965 67.4767 15.9053 67.6096 15.8282C67.8544 15.6505 68.0246 15.5242 68.1202 15.4494C68.316 15.2787 68.5328 15.0566 68.7706 14.7831C68.9664 14.5493 69.1086 14.3693 69.1925 14.2383C69.2578 14.1752 69.3324 14.1542 69.4164 14.1799C69.5166 14.3973 69.6378 14.6264 69.7777 14.8649C69.829 14.9421 69.8616 14.9982 69.8779 15.0356L70.2836 13.6585C70.1484 13.6492 69.9689 13.6445 69.7451 13.6398C69.5213 13.6351 69.3184 13.6328 69.1366 13.6305C68.9524 13.6305 68.7799 13.6235 68.619 13.6164C68.5002 13.5814 68.4652 13.4832 68.5141 13.3195C68.5561 13.1769 68.5748 12.9431 68.5701 12.6181C68.6004 12.5129 68.6843 12.4802 68.8195 12.5199L69.5912 12.7023C70.2206 12.3072 70.6589 12.036 70.9037 11.891C70.7545 11.7741 70.6193 11.6923 70.4957 11.6455C70.2183 11.5006 69.8966 11.3743 69.5352 11.2668C69.4606 11.1499 69.4653 10.9488 69.5492 10.6612C69.9013 10.4952 70.3908 10.2357 71.0179 9.88034C71.6031 9.51327 72.0087 9.22804 72.2325 9.02463C72.3188 8.94748 72.4051 8.91942 72.489 8.94514L72.4936 8.94748ZM71.5075 14.8509C71.673 15.0052 71.8432 15.2156 72.0204 15.4868C72.1929 15.7674 72.2698 15.9918 72.2465 16.1625C72.3491 16.0994 72.482 16.062 72.6522 16.0479C72.9622 15.9942 73.3003 15.917 73.6686 15.8188C74.1419 15.6785 74.5405 15.5219 74.8669 15.3465C74.9415 15.3068 75.0417 15.2483 75.1676 15.1712C75.1397 15.1712 75.0977 15.1782 75.0394 15.1876C74.9811 15.1969 74.9392 15.2016 74.9112 15.2039C73.8551 15.3068 73.0695 15.3115 72.5543 15.2226C72.461 15.1946 72.4307 15.1291 72.461 15.0239C72.524 14.907 72.7011 14.8462 72.9972 14.8392C73.4075 14.7831 73.7922 14.7223 74.1535 14.6522C74.5988 14.5446 75.0371 14.395 75.4684 14.2009C75.839 14.0303 76.1095 13.8923 76.2773 13.7871C76.3333 13.7216 76.3986 13.6983 76.4755 13.7216C76.5711 13.9274 76.6876 14.1495 76.8275 14.388C76.9954 14.6241 77.0676 14.7878 77.042 14.8719L77.021 14.8977C77.1749 15.1198 77.5572 15.4214 78.1703 15.8001C78.7228 16.1321 79.2054 16.3776 79.6157 16.5413C79.9677 16.6558 80.1356 16.7376 80.1216 16.7844C80.0983 16.8616 79.9421 16.9551 79.653 17.0673C79.3826 17.1445 79.1611 17.2917 78.9863 17.5092C78.7974 17.7126 78.6436 17.7991 78.527 17.7617C78.4454 17.7266 78.2146 17.5185 77.8323 17.1351C77.5059 16.7797 77.1889 16.3776 76.8811 15.931C76.6783 15.6224 76.5454 15.3278 76.4825 15.0473C76.4732 15.0449 76.4009 15.0473 76.2657 15.0613C76.1305 15.0753 76.0186 15.087 75.93 15.1011C76.0605 15.3372 76.1304 15.4611 76.1351 15.4751C76.2773 15.7043 76.3379 15.8586 76.3146 15.9334C76.3006 15.9825 76.2284 16.0222 76.1001 16.0573L74.3936 16.3472C73.4238 16.4968 72.7198 16.5366 72.2815 16.4688C72.2139 16.4477 72.1766 16.4173 72.1719 16.3729C72.0903 16.4945 71.9878 16.6091 71.8642 16.7189C71.6427 16.8826 71.4376 16.9504 71.2534 16.927C71.0226 16.8382 70.934 16.6862 70.9876 16.4735C71.0109 16.3963 71.0436 16.2747 71.0902 16.1064C71.1345 15.9381 71.1718 15.8048 71.1998 15.7089C71.2581 15.4143 71.293 15.1595 71.3024 14.9444C71.3303 14.8486 71.4003 14.8182 71.5098 14.8509H71.5075ZM77.5059 17.1632C77.7973 17.5092 78.0631 17.7593 78.3009 17.9137C78.5363 18.0773 78.6366 18.2223 78.5993 18.3462C78.5666 18.3976 78.4897 18.4701 78.3708 18.5589C77.9162 18.7039 77.063 18.8301 75.8111 18.9377C74.5848 19.0523 73.1744 19.0499 71.5798 18.9307C71.377 18.8699 71.3 18.76 71.349 18.5963C71.3676 18.5285 71.4842 18.4958 71.694 18.4958C71.8968 18.4958 72.6032 18.4374 73.8178 18.3298C75.0301 18.2012 75.8717 18.0306 76.3473 17.8178C76.8089 17.6214 77.1259 17.4297 77.3008 17.2427C77.352 17.1632 77.4197 17.1374 77.5036 17.1632H77.5059ZM76.3636 16.1368C76.4358 16.2934 76.5571 16.5179 76.7296 16.8078C76.9044 17.058 76.9767 17.2239 76.9534 17.3105C76.9138 17.3829 76.8275 17.4297 76.6923 17.4507C75.6665 17.5723 74.9555 17.6541 74.5592 17.6915C73.3259 17.8038 72.4377 17.8108 71.8992 17.7126C71.7896 17.6799 71.7546 17.6027 71.7896 17.4764C71.8479 17.3689 72.0554 17.3058 72.4097 17.2871C72.7781 17.2497 73.2093 17.1865 73.7036 17.093C74.2374 16.9925 74.7457 16.8358 75.2306 16.6254C75.6106 16.4571 75.916 16.3098 76.1468 16.1789C76.2167 16.1274 76.2913 16.1134 76.3659 16.1344L76.3636 16.1368ZM76.6806 10.2217C76.8159 10.2614 76.9884 10.39 77.1982 10.6098C77.3917 10.8225 77.4943 10.9885 77.5059 11.1054C77.4756 11.2106 77.38 11.2972 77.2238 11.365C77.0653 11.4328 76.9767 11.5006 76.9581 11.566L76.4405 13.3172C76.3216 13.6258 76.0116 13.8549 75.508 14.0069C75.0044 14.1588 74.6827 14.2243 74.5428 14.2033C74.4916 14.1892 74.4986 14.07 74.5638 13.8502C74.6081 13.6351 74.5941 13.4691 74.5172 13.3522C74.4356 13.2237 74.403 13.1371 74.417 13.0881C74.4333 13.0296 74.5102 13.0062 74.6454 13.0156C74.8646 13.0179 75.0254 13.0156 75.1303 13.0039C75.2749 12.9852 75.3658 12.908 75.4054 12.7724L75.4264 12.6999C75.0581 12.7374 74.3633 12.8519 73.3446 13.0483C73.2863 13.0319 73.263 12.9992 73.277 12.9501L73.235 12.1575C73.2606 12.071 73.3026 12.0383 73.3609 12.0547C73.6803 12.0874 74.4146 12.1482 75.5616 12.2394L75.8227 11.3509C75.8857 11.1405 75.832 11.0096 75.6642 10.9605L74.1092 10.5467C74.0649 10.4812 74.0253 10.3924 73.995 10.2801C73.9787 10.1492 73.981 10.051 73.9997 9.98555C74.03 9.88034 74.0882 9.84059 74.1722 9.86631C74.4356 9.99724 75.0114 10.1936 75.895 10.4555C76.0046 10.4555 76.1398 10.4181 76.3006 10.3409C76.4615 10.2638 76.5874 10.224 76.6806 10.2193V10.2217ZM74.5359 10.694C74.6711 10.7337 74.8739 10.8412 75.142 11.0143C75.4031 11.1849 75.5127 11.3439 75.4707 11.4865C75.4147 11.6782 75.3122 11.8349 75.1676 11.9588C75.0091 12.0897 74.8343 12.1412 74.6408 12.1154C74.389 12.0406 74.2957 11.884 74.368 11.6432C74.3983 11.5076 74.403 11.3673 74.382 11.2247C74.375 11.1826 74.368 11.1265 74.354 11.061C74.3424 10.9956 74.333 10.9558 74.326 10.9441C74.3074 10.8857 74.3027 10.8389 74.3144 10.7992C74.3447 10.694 74.4193 10.6589 74.5382 10.694H74.5359ZM80.2242 11.213C80.3664 11.2551 80.5389 11.3907 80.7371 11.6151C80.9236 11.8162 81.0285 11.9775 81.0471 12.0967C81.0168 12.202 80.9259 12.2908 80.7767 12.3609C80.6135 12.417 80.5203 12.4825 80.497 12.5597L79.9677 14.3529C79.8302 14.727 79.4758 15.0122 78.9047 15.2086C78.3545 15.398 77.9978 15.4845 77.837 15.4681C77.7693 15.4471 77.7717 15.3138 77.8463 15.066C77.9116 14.8158 77.9022 14.6148 77.8183 14.4651C77.7181 14.3108 77.6761 14.2033 77.6924 14.1472C77.7181 14.0607 77.8113 14.0256 77.9698 14.0419C78.189 14.0443 78.3965 14.0419 78.59 14.0396C78.7811 14.0139 78.9 13.9227 78.9443 13.7707L78.956 13.7287C78.59 13.7544 77.8673 13.8572 76.7879 14.0373C76.7296 14.0186 76.7063 13.9882 76.7203 13.9391C76.7016 13.6936 76.683 13.4294 76.6666 13.1418C76.69 13.0647 76.7296 13.0366 76.7902 13.053C77.8906 13.1722 78.6552 13.254 79.0819 13.2961L79.3569 12.3633C79.4199 12.1529 79.3663 12.0219 79.1984 11.9728L77.7437 11.5871C77.6901 11.5193 77.6574 11.4304 77.6435 11.3229C77.6248 11.1709 77.6201 11.0727 77.6341 11.0236C77.6644 10.9184 77.7227 10.8787 77.8066 10.9044C78.0631 11.033 78.6039 11.2177 79.4292 11.4632C79.5295 11.4632 79.6693 11.4257 79.8465 11.3533C79.9934 11.2621 80.1169 11.2153 80.2172 11.213H80.2242ZM77.8346 11.6736C77.9792 11.7157 78.189 11.8255 78.4664 12.0009C78.7275 12.1716 78.8371 12.3235 78.7998 12.4591C78.7485 12.6321 78.6436 12.7865 78.4827 12.9267C78.3405 13.0623 78.1703 13.1138 77.9675 13.0857C77.7157 13.0109 77.6248 12.8543 77.6947 12.6134C77.7274 12.4685 77.7297 12.3259 77.6947 12.1926C77.6854 12.1271 77.6621 12.0383 77.6248 11.9214C77.5968 11.8606 77.5875 11.8115 77.5992 11.7741C77.6295 11.6689 77.7087 11.6362 77.8346 11.6736Z" fill="#2C2B29"/>
</svg>
