<svg width="45" height="45" viewBox="0 0 45 45" fill="none" xmlns="http://www.w3.org/2000/svg">
<g clip-path="url(#clip0_790_73)">
<path d="M41.78 16.17C38.49 12.88 33.16 12.88 29.87 16.17C28.48 17.56 27.7 18.84 26.7 19.76C25.26 21.09 23.17 18.99 24.49 17.55C25.42 16.55 26.69 15.77 28.08 14.38C31.37 11.09 31.37 5.76 28.08 2.47C24.79 -0.819998 19.46 -0.819998 16.17 2.47C12.88 5.76 12.88 11.09 16.17 14.38C17.56 15.77 18.84 16.55 19.76 17.55C21.09 18.99 18.99 21.08 17.55 19.76C16.55 18.83 15.77 17.56 14.38 16.17C11.09 12.88 5.76 12.88 2.47 16.17C-0.819998 19.46 -0.819998 24.79 2.47 28.08C5.76 31.37 11.09 31.37 14.38 28.08C15.77 26.69 16.55 25.41 17.55 24.49C18.99 23.16 21.08 25.26 19.76 26.7C18.83 27.7 17.56 28.48 16.17 29.87C12.88 33.16 12.88 38.49 16.17 41.78C19.46 45.07 24.79 45.07 28.08 41.78C31.37 38.49 31.37 33.16 28.08 29.87C26.69 28.48 25.41 27.7 24.49 26.7C23.16 25.26 25.26 23.17 26.7 24.49C27.7 25.42 28.48 26.69 29.87 28.08C33.16 31.37 38.49 31.37 41.78 28.08C45.07 24.79 45.07 19.46 41.78 16.17Z" fill="#2C2B29"/>
</g>
<defs>
<clipPath id="clip0_790_73">
<rect width="44.24" height="44.24" fill="white"/>
</clipPath>
</defs>
</svg>
