<svg width="32" height="32" viewBox="0 0 32 32" fill="none" xmlns="http://www.w3.org/2000/svg">
<g clip-path="url(#clip0_790_73)">
<path d="M30.2206 11.6962C27.8409 9.31646 23.9855 9.31646 21.6058 11.6962C20.6004 12.7016 20.0362 13.6275 19.3128 14.2929C18.2713 15.255 16.7595 13.736 17.7143 12.6944C18.387 11.9711 19.3056 11.4069 20.311 10.4014C22.6908 8.0217 22.6908 4.16637 20.311 1.78662C17.9313 -0.593129 14.076 -0.593129 11.6962 1.78662C9.31646 4.16637 9.31646 8.0217 11.6962 10.4014C12.7016 11.4069 13.6275 11.9711 14.293 12.6944C15.255 13.736 13.736 15.2477 12.6944 14.2929C11.9711 13.6203 11.4069 12.7016 10.4015 11.6962C8.02171 9.31646 4.16637 9.31646 1.78663 11.6962C-0.593121 14.0759 -0.593121 17.9313 1.78663 20.311C4.16637 22.6908 8.02171 22.6908 10.4015 20.311C11.4069 19.3056 11.9711 18.3797 12.6944 17.7143C13.736 16.7523 15.2477 18.2712 14.293 19.3128C13.6203 20.0362 12.7016 20.6004 11.6962 21.6058C9.31646 23.9855 9.31646 27.8409 11.6962 30.2206C14.076 32.6004 17.9313 32.6004 20.311 30.2206C22.6908 27.8409 22.6908 23.9855 20.311 21.6058C19.3056 20.6004 18.3798 20.0362 17.7143 19.3128C16.7523 18.2712 18.2713 16.7595 19.3128 17.7143C20.0362 18.387 20.6004 19.3056 21.6058 20.311C23.9855 22.6908 27.8409 22.6908 30.2206 20.311C32.6004 17.9313 32.6004 14.0759 30.2206 11.6962Z" fill="#2C2B29"/>
</g>
<defs>
<clipPath id="clip0_790_73">
<rect width="32" height="32" fill="white"/>
</clipPath>
</defs>
</svg>
