<svg width="65" height="14" viewBox="0 0 65 14" fill="none" xmlns="http://www.w3.org/2000/svg">
<path d="M8.68003 7.6382L2.46249 9.48521L3.02666 11.393C3.16887 11.8723 3.39966 12.064 3.71905 11.9682L9.97156 10.1889C10.3399 10.0697 10.5194 9.82889 10.5147 9.46651C10.5217 9.18361 10.5171 8.79551 10.5008 8.29985C10.4728 8.11048 10.5078 8.00059 10.6103 7.9702C10.7106 7.9398 10.8038 8.02163 10.8901 8.21568C11.1302 8.68562 11.4356 9.19296 11.8063 9.73771C12.1816 10.2918 12.3774 10.6028 12.3984 10.6706C12.48 11.0423 12.3425 11.2901 11.9858 11.4164L3.34138 13.6585C2.63267 13.8058 2.14077 13.413 1.86335 12.4755L0.0193018 6.23541C-0.0343178 6.05305 0.0239639 5.93849 0.191816 5.88705C0.310712 5.85198 0.597461 5.87536 1.05206 5.95953C1.20593 5.98759 1.35746 6.02032 1.50666 6.05772L7.54702 4.26215C7.61463 4.21072 7.71954 4.10083 7.86175 3.93483C7.97598 3.73377 8.08788 3.61687 8.19745 3.58414C8.41659 3.54907 8.68935 3.58881 9.01573 3.70104C9.36776 3.80391 9.55892 3.91379 9.59389 4.02835C9.6242 4.13356 9.60322 4.24345 9.52628 4.36035C9.44935 4.47725 9.40039 4.58479 9.37475 4.68533L10.0368 6.92278C10.0438 7.09813 9.94125 7.28517 9.73377 7.48156C9.50064 7.6873 9.28383 7.81823 9.08101 7.87902C8.89217 7.89304 8.76162 7.8229 8.68935 7.6686L8.68003 7.64054V7.6382ZM1.60924 6.60248L2.30396 8.95449L4.76813 8.2227L4.07341 5.87069L1.60924 6.60248ZM6.10862 7.8229L8.5215 7.10514L7.89438 4.98225C7.85009 4.83028 7.73352 4.78118 7.54935 4.83496L5.4139 5.46855L6.10862 7.82057V7.8229Z" fill="#2C2B29"/>
<path d="M23.5187 1.19704L26.9433 0.867381C26.9923 0.813607 27.0506 0.736453 27.1205 0.640596C27.258 0.406798 27.4026 0.282884 27.5611 0.266518C27.6917 0.254828 27.9061 0.418488 28.2045 0.759833C28.4936 1.10352 28.6452 1.33965 28.6568 1.46824C28.6428 1.59917 28.489 1.69503 28.1952 1.75348C27.9598 1.79556 27.7126 1.87038 27.4492 1.97559C27.6031 2.12054 27.6847 2.22809 27.6917 2.29823C27.7033 2.41747 27.6567 2.4876 27.5518 2.50631L25.3464 2.71907L25.3907 3.18199L26.0994 3.11418C26.1414 3.10016 26.223 3.02768 26.3442 2.89441C26.4374 2.77518 26.5284 2.71205 26.6169 2.7027C26.6776 2.69569 26.8151 2.77985 27.0249 2.94819C27.2534 3.11652 27.3723 3.25446 27.3839 3.36435C27.3933 3.47423 27.349 3.53736 27.2441 3.5584L25.4466 3.73141L25.4886 4.16394L27.4818 3.97223C27.5401 3.94651 27.6264 3.85766 27.7336 3.70803C27.8432 3.56775 27.9458 3.49294 28.0437 3.48359C28.1136 3.47657 28.2628 3.56775 28.4936 3.75713C28.7337 3.95352 28.8573 4.10315 28.8666 4.20135C28.8783 4.32058 28.8317 4.39072 28.7268 4.40943L26.5214 4.62218C26.7545 4.76013 27.0762 4.88872 27.4865 5.01029C28.0577 5.1646 28.4936 5.24409 28.7944 5.24409C29.0834 5.22538 29.2326 5.24643 29.2373 5.30721C29.2466 5.40775 29.1324 5.55738 28.8969 5.76078C28.6498 5.94548 28.4866 6.18162 28.4097 6.46919C28.3118 6.7404 28.1929 6.88068 28.053 6.89471C27.9807 6.88068 27.7686 6.74741 27.4189 6.49023C27.1112 6.24007 26.9014 6.05537 26.7825 5.93613L27.0133 8.33491C27.0016 8.39569 26.9596 8.45648 26.885 8.51259C27.6987 8.52428 28.1206 8.68326 28.1486 8.99188C28.1556 9.24204 28.0856 9.49455 27.9434 9.74939C27.7896 9.99487 27.5891 10.1539 27.3396 10.2287C27.1741 10.245 27.0133 10.1398 26.8594 9.91538C26.5377 9.58573 26.1693 9.34959 25.759 9.20931C25.3184 9.03163 25.0037 8.93577 24.8172 8.92408C24.6307 8.91239 24.5328 8.85628 24.5234 8.75808C24.5118 8.63884 24.5771 8.57338 24.7169 8.55935C25.048 8.52662 25.3207 8.51025 25.5329 8.51025L25.5189 8.49623L25.5072 8.36296L21.5044 8.74873C21.6163 8.81887 21.7073 8.87966 21.7725 8.93343C22.0942 9.1532 22.2598 9.32153 22.2714 9.44077C22.2668 9.5717 22.2271 9.66989 22.1549 9.7377C21.8052 9.78212 21.1524 9.97383 20.1966 10.3175C19.2641 10.6285 18.546 10.8225 18.0401 10.902C17.9166 10.9137 17.8513 10.8553 17.8373 10.7267C17.828 10.6378 17.9958 10.542 18.3385 10.4368C18.6206 10.3292 18.9587 10.1726 19.3527 9.96214C19.6884 9.77978 20.0031 9.56001 20.2945 9.30049C20.2945 9.29114 20.3015 9.28413 20.3201 9.28179C20.2106 9.25373 20.129 9.221 20.073 9.18593C19.9495 9.10878 19.8749 9.00591 19.8446 8.87732L19.6394 6.74741C18.8561 7.41374 18.1311 7.86497 17.4643 8.09877C17.3338 8.11046 17.2592 8.03798 17.2452 7.879C17.2545 7.79717 17.3477 7.70365 17.5226 7.5961C17.7394 7.47453 17.9865 7.2758 18.2593 6.99992C18.532 6.71234 18.8188 6.35463 19.1219 5.92444C19.299 5.64622 19.4203 5.44048 19.4855 5.30254L17.5296 5.49192C17.3781 5.38671 17.2801 5.24643 17.2382 5.06874C17.2312 4.9986 17.2662 4.96119 17.3454 4.95418L20.4157 4.65725L20.3738 4.22473L19.1918 4.33929C19.0333 4.24343 18.9307 4.10783 18.8887 3.93248C18.8817 3.85299 18.9214 3.80857 19.0076 3.80155L20.3201 3.6753L20.2758 3.21238L18.8468 3.35032C18.7325 3.27083 18.6486 3.16796 18.5927 3.04404L18.532 3.24511C18.3222 3.82727 18.0821 4.13121 17.8117 4.15693C17.4783 4.18966 17.2965 4.03067 17.2638 3.68465C17.2428 3.45553 17.2801 3.26615 17.3804 3.11652C17.455 2.97858 17.5366 2.7705 17.6252 2.49228C17.6741 2.27719 17.7068 2.01299 17.7208 1.70204C17.7021 1.50331 17.6555 1.35836 17.5855 1.26484C17.5739 1.13625 17.6462 1.06377 17.8023 1.04741C17.8583 1.08248 17.9585 1.14794 18.1054 1.2438C18.2523 1.33965 18.3665 1.41447 18.4504 1.4659C18.5623 1.53604 18.6439 1.60151 18.6952 1.66697L21.9101 1.35602L21.8192 0.418488C21.8098 0.320292 21.8704 0.26418 22.001 0.250153C22.9522 0.308602 23.4324 0.406798 23.4464 0.547077L23.5093 1.20171L23.5187 1.19704ZM18.6789 2.80557L20.2269 2.65594L20.1849 2.20938C20.1779 2.12989 20.1826 2.08547 20.1989 2.07378L18.8351 2.20471C18.7931 2.4198 18.7419 2.61853 18.6812 2.80557H18.6789ZM20.7771 5.62518L24.9361 5.22305C24.9617 5.22071 25.069 5.14589 25.2578 4.99626C25.4023 4.84196 25.5212 4.76013 25.6168 4.75077C25.6774 4.74376 25.78 4.75545 25.9245 4.78117C25.8942 4.74376 25.8779 4.71103 25.8756 4.68063L21.1128 5.14122C20.9636 5.34696 20.8423 5.5036 20.7468 5.61349L20.7747 5.62518H20.7771ZM20.868 2.00832C21.4019 2.04806 21.6793 2.14626 21.7049 2.3029L21.6327 2.52034L23.9686 2.29589L23.9243 1.83531C23.9173 1.77686 23.9243 1.73477 23.9383 1.71373L20.868 2.01066V2.00832ZM21.0335 6.4879L25.2858 6.07875L25.2741 5.94548C25.2625 5.8169 25.1949 5.75845 25.0713 5.77014L21.0032 6.16292L21.0335 6.49023V6.4879ZM21.1151 7.35061L25.3674 6.94147L25.3371 6.62818L21.0848 7.03732L21.1151 7.35061ZM21.199 8.21567L25.4513 7.80652L25.421 7.49323L21.1687 7.90238L21.199 8.21567ZM21.607 3.07912L21.6513 3.5397L24.0665 3.3059L24.0222 2.84532L21.607 3.07912ZM24.1178 3.86L21.7026 4.0938L21.7446 4.52633L24.1598 4.29253L24.1178 3.86ZM24.7006 1.63892C25.1645 1.68334 25.4117 1.78153 25.4443 1.92883C25.4233 1.98026 25.4 2.05742 25.3744 2.16029L26.4118 2.05975C26.4444 2.04573 26.526 1.96857 26.6542 1.82595C26.7568 1.70672 26.8361 1.64359 26.8874 1.63892L26.9596 1.42148L24.703 1.63892H24.7006Z" fill="#2C2B29"/>
<path d="M36.9888 0C37.1124 0.0116899 37.2895 0.0981956 37.5203 0.261855C37.5786 0.287572 37.6579 0.334332 37.7581 0.404471L44.5935 1.06145C44.6284 1.06378 44.7287 1.02404 44.8965 0.93987C45.0644 0.836999 45.1903 0.787901 45.2672 0.794915C45.4584 0.834661 45.6868 0.935194 45.9526 1.10119C46.23 1.24848 46.3652 1.35603 46.3582 1.42617C46.3559 1.45656 46.3139 1.508 46.237 1.58048C46.1624 1.61321 46.1158 1.65296 46.0925 1.70205L45.9269 3.42982C45.8943 3.50698 45.7987 3.56777 45.6449 3.61219C45.4654 3.64492 45.3185 3.65661 45.2042 3.64492C44.8406 3.57946 44.6377 3.46957 44.6004 3.31526L44.6121 3.182L43.9827 3.12121C44.0339 3.13524 44.0899 3.16563 44.1458 3.21239C44.3883 3.34566 44.5072 3.45788 44.4979 3.54672C44.4909 3.62622 44.4442 3.69168 44.3603 3.74311C44.3137 3.76883 44.1971 3.91846 44.013 4.18967L45.0224 4.28786C45.139 4.26916 45.2835 4.18266 45.4584 4.02835C45.6425 3.85534 45.7917 3.77585 45.906 3.7852C45.9852 3.79221 46.1134 3.93015 46.2906 4.19902C46.4701 4.44685 46.5657 4.6409 46.5797 4.78352C46.5657 4.93315 46.4935 5.00095 46.3606 4.98926L44.2484 4.78586L44.1645 5.66494L44.6238 5.70936C44.696 5.69533 44.7986 5.62519 44.9361 5.49894C45.0807 5.37269 45.1996 5.31424 45.2975 5.32359C45.3581 5.32827 45.4933 5.44751 45.7008 5.67897C45.906 5.92913 46.0039 6.10915 45.9946 6.21904C45.9852 6.31724 45.9269 6.37335 45.8197 6.3827L44.1132 6.21904L44.02 7.18697L44.4536 7.22905C44.5165 7.21502 44.6214 7.14021 44.766 7.0046C44.9105 6.87835 45.0294 6.8199 45.1273 6.82925C45.1973 6.83627 45.3325 6.96018 45.5283 7.19866C45.7358 7.43012 45.8337 7.60313 45.822 7.72236C45.8127 7.83225 45.7521 7.8907 45.6472 7.90005L43.9663 7.73873L43.8614 8.83992L44.5445 8.90539C44.5981 8.90071 44.7217 8.81187 44.9152 8.64119C45.09 8.47753 45.2252 8.40038 45.3208 8.40973C45.3907 8.41675 45.5446 8.55235 45.7847 8.8142C46.0319 9.09944 46.1484 9.3005 46.1368 9.41974C46.1251 9.53898 46.0528 9.59743 45.9223 9.59509L41.5651 9.17659L41.5138 9.72835C41.4998 9.87799 41.3739 10.0393 41.1362 10.217C40.8984 10.3947 40.7002 10.4765 40.544 10.4601C40.3249 10.4391 40.2223 10.3549 40.2363 10.2053L40.6909 5.46855C40.5953 5.53869 40.5114 5.59246 40.4368 5.62519C40.4554 5.70702 40.4624 5.77716 40.4554 5.83795C40.4088 6.03434 40.3085 6.22372 40.15 6.41076C39.9728 6.59546 39.8003 6.69833 39.6301 6.72171C39.4203 6.70067 39.3294 6.55337 39.3551 6.27515C39.3597 6.23541 39.362 6.18631 39.362 6.12552C39.362 6.06473 39.3644 6.02031 39.369 5.98992C39.066 6.02031 38.7722 6.05304 38.4855 6.08577L38.1964 9.10879C38.1335 9.22335 38.0029 9.3309 37.8071 9.43143C37.5343 9.5156 37.3525 9.56236 37.2639 9.57405C37.0541 9.55301 36.9608 9.41974 36.9841 9.17192L37.1473 7.45817L37.0308 7.56806C37.0028 7.58676 36.9445 7.63118 36.8582 7.70132C36.772 7.7738 36.6461 7.872 36.4782 7.99591C36.3127 8.11982 36.1425 8.24841 35.97 8.38401C35.3802 8.82823 34.8487 9.11347 34.3778 9.23738C34.2472 9.22569 34.1866 9.15789 34.1982 9.03865C34.3148 8.94045 34.4733 8.80485 34.6738 8.63418C34.8883 8.42376 35.1378 8.12216 35.4222 7.72938C35.7066 7.3366 35.9187 6.97655 36.054 6.64923C36.0703 6.48089 36.1402 6.4014 36.2614 6.41309C36.3337 6.48089 36.4456 6.57441 36.5925 6.69365C36.7394 6.81289 36.8373 6.89472 36.8862 6.93914C37.0261 7.04201 37.1194 7.13787 37.1636 7.22204L37.2616 6.19332C36.8349 6.23307 36.2101 6.29386 35.3895 6.37335C35.2753 6.36166 35.2263 6.27749 35.2427 6.11851C35.259 5.95017 35.2263 5.72573 35.1471 5.4475C35.1587 5.32827 35.2333 5.27449 35.3732 5.28852C36.0563 5.33528 36.5622 5.36334 36.8886 5.37503C37.0028 5.29554 37.152 5.19266 37.3362 5.06408C37.5203 4.93782 37.6322 4.85833 37.6695 4.83262L37.5273 4.78819C37.2406 4.72974 36.9235 4.68532 36.5738 4.65259C36.4852 4.56375 36.4549 4.36969 36.4829 4.07277C36.744 3.92782 37.117 3.66362 37.6043 3.27786C37.9796 2.95288 38.236 2.72141 38.3713 2.58581L37.7674 2.52736L37.7301 2.92949C37.6952 3.02535 37.5833 3.13056 37.3944 3.24278C37.2266 3.32695 37.0657 3.36202 36.9072 3.34566C36.8209 3.32695 36.7207 3.27318 36.6065 3.182C36.5016 3.08146 36.4503 2.97158 36.4526 2.85234L36.6997 0.275882C36.7184 0.0771536 36.8116 -0.0140279 36.9771 0.00233804L36.9888 0ZM37.8327 1.9756L39.1592 2.10419L39.2548 1.10587L37.9306 0.979616L37.8351 1.97794L37.8327 1.9756ZM40.213 5.21137C40.2829 5.1272 40.4065 4.94016 40.586 4.64558C40.8098 4.24578 40.9916 3.8717 41.1292 3.52568C41.2271 3.23343 41.2924 3.016 41.325 2.86871L39.0939 2.65361L39.1289 2.70271C39.2944 2.8991 39.3714 3.06276 39.3597 3.19135C39.3527 3.26149 39.1359 3.39943 38.7093 3.60985C38.2757 3.80858 38.0565 3.93717 38.0495 3.99795C38.0449 4.0564 38.1638 4.13356 38.4109 4.22941C38.4202 4.22941 38.4295 4.23409 38.4435 4.23877C38.4552 4.24578 38.4668 4.24812 38.4762 4.25046L38.5181 4.22474C38.7466 4.04705 39.0613 3.79689 39.4646 3.47425C39.5369 3.35033 39.6278 3.29422 39.7327 3.30357C39.8376 3.31293 39.9915 3.42281 40.192 3.63323C40.4041 3.8039 40.5067 3.94418 40.4951 4.05407C40.4857 4.16395 40.4065 4.2411 40.2619 4.28786L39.6348 4.61752C39.7397 4.7087 39.8866 4.85132 40.0708 5.05005C40.15 5.13889 40.199 5.19266 40.213 5.21371V5.21137ZM39.3807 5.46153C39.383 5.43114 39.3854 5.39841 39.383 5.36334C39.383 5.32827 39.383 5.30489 39.383 5.29554C39.3784 5.07577 39.3457 4.90509 39.2851 4.79053C38.9797 4.95185 38.6044 5.16695 38.1638 5.43348L39.3784 5.45919L39.3807 5.46153ZM38.8981 6.34763C39.0893 6.46687 39.3294 6.67495 39.6185 6.97421C39.8889 7.28984 40.0241 7.5704 40.0288 7.81121C40.0125 7.97954 39.9146 8.17593 39.7351 8.39804C39.5555 8.62249 39.3574 8.73705 39.1452 8.7464C38.9028 8.70432 38.7862 8.56638 38.8002 8.33725C38.8165 8.16892 38.8282 7.86498 38.8352 7.4231C38.8352 7.06305 38.7885 6.7521 38.7 6.49258C38.7093 6.3827 38.7769 6.3336 38.9005 6.34763H38.8981ZM40.6443 1.23913L40.5487 2.23745L41.9404 2.37072L42.036 1.3724L40.6443 1.23913ZM42.5256 8.71133L42.6305 7.61014L41.726 7.52364L41.6211 8.62483L42.5256 8.71133ZM42.6841 7.05838L42.7774 6.09045L41.8728 6.00395L41.7796 6.97187L42.6841 7.05838ZM42.2202 4.02133L42.9546 4.09147C42.9872 4.01432 43.0501 3.86001 43.1387 3.62855C43.2273 3.39709 43.2949 3.20772 43.3439 3.06276L41.8472 2.91781C41.9125 2.96456 42.029 3.0347 42.1969 3.1329C42.458 3.27786 42.5816 3.41112 42.5699 3.53036C42.5652 3.57945 42.5326 3.64258 42.472 3.7174L42.2179 4.02367L42.2202 4.02133ZM42.8287 5.53869L42.9126 4.6596L42.0081 4.5731L41.9241 5.45218L42.8287 5.53869ZM43.4278 1.50566L43.3322 2.50398L44.6704 2.63257L44.7496 1.81428C44.7613 1.69504 44.7193 1.63191 44.6214 1.62256L43.4278 1.508V1.50566Z" fill="#2C2B29"/>
<path d="M56.4317 3.18201C56.525 3.24046 56.6276 3.38541 56.7418 3.61687C56.8607 3.83898 56.898 4.01667 56.8584 4.14993C56.8304 4.24579 56.5436 4.40945 55.9981 4.64325C55.427 4.87003 55.1286 5.02902 55.0982 5.12487C55.0796 5.19268 55.1962 5.30957 55.4479 5.47791C55.4782 5.49661 55.5435 5.54337 55.6414 5.61351C56.1007 5.30256 56.4387 5.05473 56.6579 4.87003C56.7674 4.77885 56.8677 4.74612 56.9609 4.77184C57.0705 4.80457 57.2127 4.94017 57.3899 5.18098C57.5578 5.41712 57.6277 5.59013 57.5951 5.69534C57.5671 5.7912 57.4738 5.85666 57.3176 5.89407C56.9959 6.04838 56.6672 6.20502 56.3268 6.36401C55.779 6.63755 55.2614 6.91109 54.7789 7.18464C55.3174 7.28283 55.723 7.35064 55.9958 7.39038C56.0238 7.13788 56.0214 6.96019 55.9888 6.85732C56.0238 6.74276 56.0937 6.70068 56.2033 6.73341C56.3665 6.86433 56.553 7.09813 56.7674 7.43246C56.9703 7.74108 57.0425 7.99358 56.9866 8.18296C56.9027 8.37701 56.7605 8.54768 56.56 8.69731C56.3292 8.85864 56.124 8.93111 55.9445 8.91942C55.7347 8.8563 55.6694 8.68796 55.751 8.40974C55.7673 8.35129 55.7906 8.26713 55.8186 8.15724C55.8466 8.04502 55.8676 7.96552 55.8816 7.91877H55.4689L54.2706 11.9822C54.1751 12.0897 54.0259 12.1739 53.823 12.2394C53.5946 12.2651 53.4104 12.2721 53.2659 12.2604C53.063 12.1996 52.9954 12.0547 53.063 11.8255L53.6762 9.74473C53.6762 9.74473 53.5479 9.79149 53.3148 9.89436C53.0817 9.99723 52.8556 10.1001 52.6341 10.1983C52.0443 10.4298 51.6223 10.5373 51.3682 10.5256C51.2749 10.4976 51.2423 10.4368 51.2726 10.3409C51.3239 10.231 51.4148 10.1399 51.5477 10.0627C51.7925 9.88501 51.9627 9.75876 52.0583 9.68394C52.2541 9.51327 52.4709 9.29116 52.7087 9.01762C52.9045 8.78382 53.0467 8.6038 53.1306 8.47287C53.1959 8.40974 53.2705 8.3887 53.3544 8.41442C53.4547 8.63185 53.5759 8.86097 53.7158 9.09945C53.7671 9.1766 53.7997 9.23271 53.816 9.27012L54.2217 7.89305C54.0865 7.8837 53.907 7.87902 53.6832 7.87434C53.4594 7.86967 53.2565 7.86733 53.0747 7.86499C52.8905 7.86499 52.718 7.85798 52.5571 7.85096C52.4382 7.81589 52.4033 7.7177 52.4522 7.55404C52.4942 7.41142 52.5129 7.17762 52.5082 6.85264C52.5385 6.74744 52.6224 6.7147 52.7576 6.75445L53.5293 6.93681C54.1587 6.54169 54.597 6.27049 54.8418 6.12553C54.6926 6.00863 54.5574 5.9268 54.4338 5.88004C54.1564 5.73509 53.8347 5.60884 53.4733 5.50129C53.3987 5.38439 53.4034 5.18332 53.4873 4.89575C53.8393 4.72975 54.3289 4.47024 54.956 4.11486C55.5412 3.7478 55.9468 3.46257 56.1706 3.25916C56.2569 3.18201 56.3432 3.15395 56.4271 3.17967L56.4317 3.18201ZM55.4456 9.08542C55.6111 9.23973 55.7813 9.45015 55.9585 9.72135C56.131 10.0019 56.2079 10.2264 56.1846 10.397C56.2872 10.3339 56.4201 10.2965 56.5903 10.2825C56.9003 10.2287 57.2384 10.1515 57.6067 10.0533C58.08 9.91307 58.4786 9.75642 58.805 9.58107C58.8796 9.54133 58.9798 9.48288 59.1057 9.40572C59.0777 9.40572 59.0358 9.41274 58.9775 9.42209C58.9192 9.43144 58.8773 9.43612 58.8493 9.43846C57.7932 9.54133 57.0076 9.546 56.4924 9.45716C56.3991 9.4291 56.3688 9.36364 56.3991 9.25843C56.462 9.14153 56.6392 9.08074 56.9353 9.07373C57.3456 9.01762 57.7303 8.95683 58.0916 8.88669C58.5369 8.77914 58.9752 8.62951 59.4065 8.43546C59.7771 8.26479 60.0476 8.12685 60.2154 8.02164C60.2714 7.95617 60.3366 7.93279 60.4136 7.95617C60.5092 8.16192 60.6257 8.38402 60.7656 8.6225C60.9335 8.85864 61.0057 9.02229 60.9801 9.10646L60.9591 9.13218C61.113 9.35429 61.4953 9.65589 62.1084 10.0346C62.6609 10.3666 63.1435 10.6121 63.5538 10.7758C63.9058 10.8903 64.0737 10.9722 64.0597 11.0189C64.0364 11.0961 63.8802 11.1896 63.5911 11.3018C63.3207 11.379 63.0992 11.5263 62.9244 11.7437C62.7355 11.9471 62.5817 12.0336 62.4651 11.9962C62.3835 11.9611 62.1527 11.7531 61.7704 11.3696C61.444 11.0143 61.1269 10.6121 60.8192 10.1656C60.6164 9.85695 60.4835 9.56237 60.4206 9.28181C60.4112 9.27947 60.339 9.28181 60.2038 9.29584C60.0686 9.30987 59.9566 9.32156 59.8681 9.33558C59.9986 9.57172 60.0685 9.69563 60.0732 9.70966C60.2154 9.93879 60.276 10.0931 60.2527 10.1679C60.2387 10.217 60.1665 10.2568 60.0382 10.2918L58.3317 10.5817C57.3619 10.7314 56.6579 10.7711 56.2196 10.7033C56.152 10.6823 56.1147 10.6519 56.11 10.6074C56.0284 10.729 55.9259 10.8436 55.8023 10.9535C55.5808 11.1171 55.3757 11.1849 55.1915 11.1616C54.9607 11.0727 54.8721 10.9207 54.9257 10.708C54.949 10.6308 54.9817 10.5093 55.0283 10.3409C55.0726 10.1726 55.1099 10.0393 55.1379 9.94346C55.1962 9.64887 55.2311 9.39403 55.2405 9.17894C55.2684 9.08308 55.3384 9.05269 55.4479 9.08542H55.4456ZM61.444 11.3977C61.7354 11.7437 62.0012 11.9939 62.239 12.1482C62.4744 12.3118 62.5747 12.4568 62.5374 12.5807C62.5047 12.6321 62.4278 12.7046 62.3089 12.7935C61.8543 12.9384 61.0011 13.0647 59.7492 13.1722C58.5229 13.2868 57.1125 13.2844 55.5179 13.1652C55.3151 13.1044 55.2381 12.9945 55.2871 12.8309C55.3057 12.7631 55.4223 12.7303 55.6321 12.7303C55.8349 12.7303 56.5413 12.6719 57.7559 12.5643C58.9682 12.4358 59.8098 12.2651 60.2854 12.0523C60.7469 11.8559 61.064 11.6642 61.2388 11.4772C61.2901 11.3977 61.3578 11.372 61.4417 11.3977H61.444ZM60.3017 10.3713C60.3739 10.528 60.4952 10.7524 60.6677 11.0423C60.8425 11.2925 60.9148 11.4585 60.8915 11.545C60.8519 11.6175 60.7656 11.6642 60.6304 11.6853C59.6046 11.8068 58.8936 11.8887 58.4973 11.9261C57.264 12.0383 56.3758 12.0453 55.8373 11.9471C55.7277 11.9144 55.6927 11.8372 55.7277 11.711C55.786 11.6034 55.9935 11.5403 56.3478 11.5216C56.7162 11.4842 57.1474 11.4211 57.6417 11.3275C58.1755 11.227 58.6838 11.0704 59.1687 10.86C59.5487 10.6916 59.8541 10.5443 60.0849 10.4134C60.1548 10.362 60.2294 10.3479 60.304 10.369L60.3017 10.3713ZM60.6187 4.45621C60.7539 4.49596 60.9265 4.62454 61.1363 4.84432C61.3298 5.05707 61.4323 5.22307 61.444 5.33997C61.4137 5.44518 61.3181 5.53168 61.1619 5.59948C61.0034 5.66729 60.9148 5.73509 60.8961 5.80055L60.3786 7.5517C60.2597 7.86032 59.9497 8.08944 59.4461 8.24141C58.9425 8.39338 58.6208 8.45884 58.4809 8.4378C58.4297 8.42377 58.4366 8.30453 58.5019 8.08476C58.5462 7.86967 58.5322 7.70367 58.4553 7.58677C58.3737 7.45818 58.3411 7.37168 58.355 7.32258C58.3714 7.26413 58.4483 7.24075 58.5835 7.2501C58.8027 7.25244 58.9635 7.2501 59.0684 7.23841C59.213 7.21971 59.3039 7.14255 59.3435 7.00695L59.3645 6.93447C58.9962 6.97188 58.3014 7.08644 57.2827 7.28283C57.2244 7.26647 57.2011 7.23374 57.2151 7.18464L57.1731 6.39206C57.1987 6.30556 57.2407 6.27282 57.299 6.28919C57.6184 6.32192 58.3527 6.38271 59.4997 6.47389L59.7608 5.58546C59.8238 5.37504 59.7701 5.24411 59.6023 5.19501L58.0473 4.78119C58.003 4.71573 57.9634 4.62688 57.9331 4.51466C57.9168 4.38373 57.9191 4.28554 57.9378 4.22007C57.9681 4.11486 58.0263 4.07512 58.1103 4.10084C58.3737 4.23176 58.9495 4.42815 59.8331 4.69001C59.9427 4.69001 60.0779 4.6526 60.2387 4.57545C60.3996 4.49829 60.5255 4.45855 60.6187 4.45387V4.45621ZM58.4739 4.92848C58.6092 4.96823 58.812 5.07578 59.0801 5.24879C59.3412 5.41946 59.4508 5.57844 59.4088 5.72106C59.3528 5.91277 59.2503 6.06942 59.1057 6.19333C58.9472 6.32426 58.7724 6.3757 58.5789 6.34998C58.3271 6.27516 58.2338 6.11852 58.3061 5.8777C58.3364 5.7421 58.3411 5.60182 58.3201 5.4592C58.3131 5.41712 58.3061 5.36101 58.2921 5.29555C58.2805 5.23008 58.2711 5.19034 58.2641 5.17865C58.2455 5.1202 58.2408 5.07344 58.2525 5.03369C58.2828 4.92848 58.3574 4.89341 58.4763 4.92848H58.4739ZM64.1623 5.44752C64.3045 5.4896 64.477 5.6252 64.6752 5.84965C64.8617 6.05072 64.9666 6.21204 64.9852 6.33127C64.9549 6.43648 64.864 6.52533 64.7148 6.59547C64.5516 6.65158 64.4584 6.71704 64.435 6.79419L63.9058 8.58743C63.7683 8.96151 63.4139 9.24674 62.8428 9.44313C62.2926 9.63251 61.9359 9.71901 61.775 9.70265C61.7074 9.68161 61.7098 9.54834 61.7844 9.30052C61.8497 9.05035 61.8403 8.84928 61.7564 8.69965C61.6561 8.54535 61.6142 8.4378 61.6305 8.38169C61.6562 8.29518 61.7494 8.26011 61.9079 8.27648C62.1271 8.27882 62.3346 8.27648 62.528 8.27414C62.7192 8.24842 62.8381 8.15724 62.8824 8.00527L62.8941 7.96319C62.5281 7.98891 61.8054 8.09178 60.726 8.2718C60.6677 8.2531 60.6444 8.2227 60.6584 8.17361C60.6397 7.92812 60.6211 7.66392 60.6047 7.37635C60.6281 7.2992 60.6677 7.27114 60.7283 7.28751C61.8287 7.40675 62.5933 7.48858 63.02 7.53066L63.295 6.5978C63.358 6.38739 63.3044 6.25646 63.1365 6.20736L61.6818 5.82159C61.6282 5.75379 61.5955 5.66495 61.5815 5.5574C61.5629 5.40543 61.5582 5.30724 61.5722 5.25814C61.6025 5.15293 61.6608 5.11318 61.7447 5.1389C62.0012 5.26749 62.542 5.45219 63.3673 5.69768C63.4676 5.69768 63.6074 5.66027 63.7846 5.58779C63.9315 5.49661 64.055 5.44985 64.1553 5.44752H64.1623ZM61.7727 5.9081C61.9173 5.95018 62.1271 6.06007 62.4045 6.23542C62.6656 6.40609 62.7752 6.55806 62.7379 6.69366C62.6866 6.86667 62.5817 7.02098 62.4208 7.16126C62.2786 7.29686 62.1084 7.3483 61.9056 7.32024C61.6538 7.24543 61.5629 7.08878 61.6328 6.84797C61.6655 6.70301 61.6678 6.5604 61.6328 6.42713C61.6235 6.36167 61.6002 6.27282 61.5629 6.15593C61.5349 6.09514 61.5256 6.04604 61.5373 6.00863C61.5676 5.90342 61.6468 5.87069 61.7727 5.9081Z" fill="#2C2B29"/>
</svg>
