<svg width="32" height="32" viewBox="0 0 32 32" fill="none" xmlns="http://www.w3.org/2000/svg">
<path d="M14.7596 18.8543C14.7361 18.7315 14.602 18.5544 14.3554 18.3231C14.078 18.0693 13.8856 17.9424 13.7782 17.9424C13.7086 17.9424 13.5745 18.054 13.3739 18.2771C13.158 18.493 13.0239 18.6046 12.9697 18.6117H10.4183V16.4534H13.8355C13.9511 16.4534 14.0084 16.3879 14.0084 16.2569C13.9849 16.1341 13.8508 15.957 13.6042 15.7257C13.3268 15.4719 13.1344 15.345 13.027 15.345C12.9574 15.345 12.8233 15.4566 12.6227 15.6797C12.4222 15.9028 12.2922 16.0184 12.2308 16.0256H10.4183V14.1323H14.1927C14.3083 14.1323 14.3656 14.0668 14.3656 13.9358C14.3574 13.8283 14.2234 13.6513 13.9614 13.4046C13.684 13.1508 13.4916 13.0239 13.3842 13.0239C13.3228 13.0239 13.1877 13.1355 12.9799 13.3586C12.7793 13.5745 12.6494 13.6861 12.588 13.6932H10.0366C10.1522 13.639 10.2638 13.5704 10.3712 13.4855C10.6025 13.3013 10.7172 13.1201 10.7172 12.9431C10.7172 12.7896 10.494 12.6197 10.0478 12.4355C9.57809 12.2431 9.27415 12.1469 9.13599 12.1469C9.02034 12.1469 8.96303 12.2042 8.96303 12.3198C9.16259 12.4662 9.30894 12.6964 9.40207 13.0127L9.54023 13.6247C9.54023 13.6554 9.54739 13.6789 9.56377 13.6943H5.17743C5.10784 13.6943 5.07407 13.7209 5.07407 13.7751C5.12012 13.9522 5.20506 14.0719 5.32787 14.1333H9.14827V16.0266H5.858C5.78841 16.0266 5.75361 16.0501 5.75361 16.0962C5.80785 16.2732 5.89586 16.393 6.01867 16.4544H9.14725V18.6128H4.7957C4.7343 18.6128 4.70359 18.6394 4.70359 18.6936C4.74248 18.8553 4.8264 18.971 4.9574 19.0395H14.5734C14.6962 19.0395 14.7576 18.9781 14.7576 18.8553L14.7596 18.8543Z" fill="black"/>
<path d="M26.9024 13.9368C26.4562 13.9133 25.7592 13.771 24.8126 13.51C23.8813 13.2409 23.2816 12.983 23.0124 12.7363C22.9889 12.7128 22.9551 12.6862 22.908 12.6555C22.9316 12.632 22.9428 12.6054 22.9428 12.5746C22.9428 12.4437 22.8047 12.3434 22.5273 12.2748C22.2428 12.2052 21.9153 12.0558 21.5459 11.8245C21.4537 11.8245 21.3954 11.8675 21.3729 11.9514C21.2808 12.1745 21.073 12.4784 20.7497 12.8633C20.4109 13.2409 19.7764 13.683 18.8451 14.1906C17.968 14.6604 17.4133 14.9449 17.1831 15.0452C17.0132 15.0994 16.9293 15.168 16.9293 15.2529C16.9293 15.3911 17.0214 15.4607 17.2066 15.4607C17.6456 15.3297 18.0335 15.211 18.3723 15.1025V18.3231L17.4492 18.3805C17.357 18.3886 17.311 18.4378 17.311 18.5309L17.6917 19.454C17.7071 19.5001 17.749 19.5236 17.8186 19.5236C20.2738 18.9003 21.7853 18.5422 22.3554 18.45C22.4782 18.3733 22.5396 18.2924 22.5396 18.2075C22.5161 18.1 22.4393 18.0458 22.3083 18.0458L19.5727 18.2423V17.007H21.5469C21.7475 17.3765 22.163 17.7807 22.7934 18.2188C23.4555 18.6732 24.1208 19.0539 24.7901 19.3619C25.4522 19.6464 25.9486 19.7887 26.2791 19.7887C26.4326 19.7887 26.5565 19.6464 26.6486 19.3619C26.7407 19.0692 26.887 18.8696 27.0876 18.7612C27.28 18.6384 27.3762 18.5422 27.3762 18.4726C27.3762 18.3498 27.1449 18.2884 26.6834 18.2884C26.2443 18.2812 25.6334 18.1881 24.8484 18.011C24.8638 18.0038 25.0603 17.9414 25.4369 17.8268C26.2761 17.5341 26.7141 17.3806 26.753 17.3652C26.8686 17.3192 26.9341 17.2578 26.9495 17.181C26.9495 17.1043 26.8379 16.9845 26.6148 16.8228C26.3835 16.6386 26.1993 16.4769 26.0612 16.3377C25.9762 16.3377 25.9107 16.3725 25.8647 16.4421C25.7951 16.5271 25.6456 16.6765 25.4144 16.8924C25.1759 17.1237 24.9098 17.3161 24.6181 17.4696C24.2947 17.6467 24.0829 17.7582 23.9836 17.8043C23.4453 17.6579 23.0104 17.5085 22.6788 17.354C22.425 17.2383 22.206 17.1227 22.0207 17.0081H24.2139V17.0429C24.2211 17.1432 24.2988 17.2117 24.4452 17.2506C24.6376 17.2506 24.8372 17.2046 25.0459 17.1125C25.2465 17.0203 25.3652 16.916 25.4041 16.8003V15.4494C25.443 15.388 25.5044 15.3225 25.5883 15.2529C25.6733 15.1833 25.7152 15.1148 25.7152 15.0452L25.704 15.0226C26.0734 15.1762 26.3006 15.257 26.3845 15.2652C26.5074 15.2652 26.6312 15.1577 26.754 14.9418C26.8461 14.7187 27.0191 14.5376 27.2739 14.3994C27.5124 14.253 27.6321 14.1415 27.6321 14.0647C27.6321 14.0033 27.3895 13.9614 26.9044 13.9378L26.9024 13.9368ZM24.2129 16.569H19.5727V16.0727H24.2129V16.569ZM24.2129 15.6336H19.5727V15.126H23.9591C24.1279 15.126 24.2129 15.1833 24.2129 15.299V15.6336ZM24.4083 14.5836C24.2773 14.6378 24.1699 14.6726 24.0849 14.687H19.849L19.6874 14.5836C19.9186 14.4915 20.1909 14.3646 20.5071 14.2029C20.5378 14.2571 20.5798 14.3073 20.634 14.3533H23.3808C23.4811 14.3298 23.5425 14.2807 23.5651 14.2029C23.5651 14.118 23.5077 14.0187 23.3921 13.903C23.2693 13.7649 23.169 13.6953 23.0922 13.6953C23.0462 13.6953 22.9807 13.7301 22.8957 13.7997C22.7801 13.8764 22.7074 13.9194 22.6767 13.9266H21.0372C21.6994 13.5653 22.1957 13.2644 22.5263 13.026C22.734 13.2951 23.0185 13.553 23.3808 13.7997C23.7114 14.0228 24.1156 14.2571 24.5926 14.5038C24.523 14.5191 24.4616 14.5457 24.4083 14.5846V14.5836Z" fill="black"/>
<path d="M30.0248 10.4787C29.9143 10.3354 29.8437 10.1645 29.8201 9.98542C29.5459 7.88333 28.679 6.05143 27.3138 4.6862C25.9486 3.32097 24.1156 2.45414 22.0136 2.17986C21.8345 2.15633 21.6635 2.08571 21.5203 1.97518C19.8398 0.683638 17.9312 0 16 0C14.0688 0 12.1602 0.682615 10.4797 1.97518C10.3365 2.08571 10.1655 2.15633 9.98644 2.17986C7.88435 2.45414 6.05142 3.32097 4.68619 4.6862C3.32096 6.05143 2.45413 7.88435 2.17986 9.98644C2.15632 10.1655 2.0857 10.3364 1.97518 10.4797C0.683631 12.1602 0 14.0688 0 16C0 17.9312 0.682607 19.8398 1.97518 21.5203C2.0857 21.6636 2.15632 21.8345 2.17986 22.0136C2.45413 24.1156 3.32096 25.9475 4.68619 27.3138C6.05142 28.679 7.88435 29.5459 9.98644 29.8201C10.1655 29.8437 10.3365 29.9143 10.4797 30.0248C12.1602 31.3164 14.0688 32 16 32C17.9312 32 19.8398 31.3174 21.5203 30.0248C21.6635 29.9143 21.8345 29.8437 22.0136 29.8201C24.1156 29.5459 25.9486 28.679 27.3138 27.3138C28.679 25.9486 29.5459 24.1156 29.8201 22.0136C29.8437 21.8345 29.9143 21.6636 30.0248 21.5203C31.3164 19.8398 32 17.9312 32 16C32 14.0688 31.3174 12.1602 30.0248 10.4797V10.4787ZM29.7813 21.3309C29.638 21.5172 29.5459 21.7393 29.5162 21.9716C29.2501 24.0061 28.414 25.7766 27.0968 27.0938C25.7797 28.4109 24.0092 29.247 21.9747 29.5131C21.7413 29.5438 21.5203 29.6359 21.334 29.7782C19.7078 31.0288 17.8636 31.6899 16.001 31.6899C14.1384 31.6899 12.2942 31.0288 10.668 29.7782C10.4818 29.6349 10.2597 29.5428 10.0274 29.5131C7.99284 29.247 6.22131 28.4109 4.9052 27.0938C3.58807 25.7766 2.75194 24.0051 2.48586 21.9716C2.45515 21.7383 2.36407 21.5172 2.2208 21.3309C0.970188 19.7047 0.309072 17.8606 0.309072 15.998C0.309072 14.1353 0.970188 12.2912 2.2208 10.665C2.36407 10.4787 2.45618 10.2566 2.48586 10.0243C2.75194 7.98977 3.58807 6.21927 4.9052 4.90214C6.22233 3.58501 7.99386 2.74888 10.0274 2.48279C10.2607 2.45209 10.4818 2.36101 10.668 2.21773C12.2942 0.967123 14.1384 0.306 16.001 0.306C17.8636 0.306 19.7078 0.967123 21.334 2.21773C21.5203 2.36101 21.7424 2.45312 21.9747 2.48279C24.0092 2.74888 25.7807 3.58501 27.0968 4.90214C28.414 6.21927 29.2501 7.99079 29.5162 10.0243C29.5469 10.2576 29.638 10.4787 29.7813 10.665C31.0319 12.2912 31.693 14.1353 31.693 15.998C31.693 17.8606 31.0319 19.7047 29.7813 21.3309Z" fill="black"/>
<path d="M29.3248 10.797C29.204 10.6394 29.1263 10.4511 29.0997 10.2546C28.8377 8.27427 28.02 6.5488 26.7346 5.2634C25.4492 3.97799 23.7227 3.16029 21.7434 2.89932C21.5459 2.87373 21.3586 2.79596 21.201 2.67417C19.6157 1.45938 17.8176 0.81668 16 0.81668C14.1824 0.81668 12.3833 1.45938 10.799 2.67417C10.6414 2.79493 10.4531 2.87271 10.2556 2.89932C8.27529 3.16029 6.54982 3.97799 5.26442 5.2634C3.97901 6.5488 3.16131 8.2753 2.89932 10.2546C2.87373 10.4521 2.79596 10.6394 2.67417 10.797C1.45938 12.3822 0.81668 14.1804 0.81668 15.999C0.81668 17.8176 1.45938 19.6157 2.67417 21.1999C2.79494 21.3576 2.87271 21.5459 2.89932 21.7424C3.16131 23.7227 3.97901 25.4481 5.26442 26.7335C6.54982 28.0189 8.27529 28.8366 10.2556 29.0976C10.4531 29.1232 10.6404 29.201 10.798 29.3228C12.3833 30.5375 14.1814 31.1802 15.999 31.1802C17.8166 31.1802 19.6157 30.5375 21.2 29.3228C21.3576 29.202 21.5459 29.1242 21.7434 29.0976C23.7237 28.8366 25.4492 28.0189 26.7346 26.7335C28.02 25.4481 28.8377 23.7227 29.0997 21.7424C29.1252 21.5448 29.203 21.3576 29.3248 21.1999C30.5396 19.6147 31.1823 17.8166 31.1823 15.999C31.1823 14.1814 30.5396 12.3822 29.3248 10.797ZM29.244 21.1375C29.1119 21.3095 29.027 21.5141 28.9983 21.7291C28.7394 23.6858 27.9319 25.3918 26.6629 26.6619C25.3939 27.9319 23.6879 28.7384 21.7301 28.9973C21.5152 29.026 21.3105 29.1109 21.1385 29.2429C19.5717 30.4444 17.7951 31.0789 16 31.0789C14.2049 31.0789 12.4273 30.4444 10.8604 29.2429C10.6885 29.1109 10.4838 29.026 10.2689 28.9973C8.31111 28.7384 6.60612 27.9309 5.33606 26.6619C4.06601 25.3929 3.25956 23.6868 3.00063 21.7291C2.97198 21.5141 2.88703 21.3095 2.75501 21.1375C1.55353 19.5707 0.919021 17.794 0.919021 15.999C0.919021 14.2039 1.55353 12.4262 2.75501 10.8594C2.88703 10.6875 2.97198 10.4828 3.00063 10.2679C3.25956 8.31009 4.06704 6.60509 5.33606 5.33504C6.60509 4.06498 8.31111 3.25854 10.2689 2.99961C10.4838 2.97096 10.6885 2.88602 10.8604 2.754C12.4273 1.55251 14.2039 0.917997 15.999 0.917997C17.794 0.917997 19.5717 1.55251 21.1385 2.754C21.3105 2.88602 21.5152 2.97096 21.7301 2.99961C23.6879 3.25854 25.3929 4.06601 26.6629 5.33504C27.9319 6.60407 28.7394 8.31009 28.9983 10.2679C29.027 10.4828 29.1119 10.6875 29.244 10.8594C30.4454 12.4262 31.08 14.2029 31.08 15.999C31.08 17.7951 30.4454 19.5707 29.244 21.1375Z" fill="black"/>
<path d="M10.1533 23.037C10.1103 23.0011 10.0652 22.9715 10.012 22.9449C9.95983 22.9183 9.90355 22.8988 9.85135 22.8824C9.76641 22.8528 9.6876 22.8272 9.61596 22.8067C9.54023 22.7801 9.46859 22.7576 9.39695 22.7351C9.33759 22.7156 9.28541 22.689 9.23628 22.6563C9.18716 22.6235 9.16464 22.5805 9.16464 22.5314C9.16464 22.4792 9.19432 22.4393 9.25674 22.4065C9.3161 22.3707 9.39082 22.3544 9.47985 22.3544C9.61085 22.3544 9.72853 22.3769 9.82985 22.4229C9.9281 22.469 10.013 22.5508 10.0785 22.6747L10.2065 22.6153L10.0816 22.1896L9.96393 22.2418L9.89228 22.2715L9.84623 22.2551C9.81962 22.2489 9.79096 22.2418 9.75412 22.2356C9.71523 22.2254 9.67225 22.2193 9.62312 22.2162C9.574 22.21 9.52181 22.206 9.46552 22.206C9.40003 22.206 9.33452 22.2121 9.26595 22.2285C9.19431 22.2418 9.1319 22.2643 9.07254 22.3001C9.01318 22.3329 8.96405 22.3758 8.92823 22.4311C8.88934 22.4864 8.86887 22.556 8.86887 22.6378C8.86887 22.7003 8.87911 22.7555 8.90162 22.8047C8.92107 22.8507 8.94767 22.8896 8.98656 22.9254C9.01931 22.9582 9.0623 22.9878 9.10733 23.0134C9.15338 23.0329 9.2025 23.0523 9.2547 23.0687C9.33657 23.0912 9.41844 23.1178 9.49724 23.1444C9.57298 23.171 9.65076 23.1935 9.73263 23.2202C9.79199 23.2365 9.84418 23.2662 9.89638 23.3082C9.94857 23.3471 9.97518 23.3962 9.97518 23.4586C9.97518 23.4975 9.96188 23.5302 9.94244 23.563C9.92299 23.5896 9.89638 23.6152 9.86363 23.6346C9.82781 23.651 9.7879 23.6643 9.74594 23.6735C9.69988 23.6838 9.65792 23.6899 9.61187 23.6899C9.44812 23.6899 9.30383 23.651 9.18614 23.5753C9.06537 23.4965 8.97633 23.3952 8.92414 23.2775L8.79008 23.346L8.98043 23.8475C8.99373 23.8342 9.01317 23.825 9.03978 23.8148C9.05923 23.8015 9.08276 23.7922 9.10221 23.782L9.17386 23.7493C9.2066 23.7656 9.24549 23.782 9.29461 23.7953C9.3335 23.8055 9.38671 23.8148 9.44505 23.825C9.50441 23.8311 9.57298 23.8383 9.65485 23.8383C9.72342 23.8383 9.79608 23.825 9.87079 23.8055C9.94652 23.7861 10.0151 23.7534 10.0806 23.7134C10.143 23.6705 10.1952 23.6183 10.2382 23.5599C10.2771 23.4975 10.2976 23.4259 10.2976 23.344C10.2976 23.2724 10.2843 23.213 10.2587 23.1639C10.2321 23.1117 10.1962 23.0687 10.1543 23.0329L10.1533 23.037Z" fill="black"/>
<path d="M11.9309 22.3329C11.8593 22.297 11.7805 22.2735 11.6955 22.2643C11.6106 22.251 11.5256 22.2449 11.4397 22.2449H10.5258V22.3922H10.5851C10.6373 22.3922 10.6731 22.4025 10.6998 22.428C10.7264 22.4506 10.7386 22.4905 10.7386 22.5488V23.5016C10.7386 23.5569 10.7253 23.5968 10.6998 23.6224C10.6731 23.6449 10.6373 23.6582 10.5851 23.6582H10.5258V23.8056H11.3087V23.6582H11.2432C11.191 23.6582 11.1511 23.6449 11.1286 23.6224C11.102 23.5958 11.0928 23.5569 11.0928 23.5016V23.1936H11.4397C11.5246 23.1936 11.6096 23.1874 11.6955 23.1741C11.7815 23.1608 11.8593 23.1414 11.9309 23.1086C11.9995 23.0728 12.0558 23.0237 12.1008 22.9643C12.1469 22.8988 12.1694 22.8169 12.1694 22.7187C12.1694 22.6204 12.1469 22.5355 12.1008 22.4761C12.0548 22.4137 11.9995 22.3646 11.9309 22.3318V22.3329ZM11.6689 22.9684C11.5901 23.0206 11.4786 23.0472 11.3384 23.0472H11.0928V22.5498C11.0928 22.4905 11.1061 22.4516 11.1316 22.4291C11.1582 22.4025 11.1971 22.3932 11.2493 22.3932H11.3373C11.4786 22.3932 11.5891 22.4199 11.6679 22.472C11.7467 22.5242 11.7856 22.6061 11.7856 22.7207C11.7856 22.8354 11.7467 22.9172 11.6679 22.9694L11.6689 22.9684Z" fill="black"/>
<path d="M13.8795 23.4402C13.8467 23.4791 13.8109 23.519 13.771 23.5517C13.728 23.5845 13.683 23.6111 13.6298 23.6305C13.5745 23.65 13.509 23.6602 13.4364 23.6602H13.1191C13.0669 23.6602 13.027 23.6469 13.0045 23.6244C12.9779 23.5978 12.9687 23.5589 12.9687 23.5036V23.0974H13.3125C13.3678 23.0974 13.4077 23.1107 13.4333 23.1362C13.4558 23.1588 13.4691 23.1956 13.4691 23.2478V23.3164H13.6165V22.7299H13.4691V22.7985C13.4691 22.8476 13.4558 22.8865 13.4333 22.9131C13.4067 22.9357 13.3647 22.949 13.3084 22.949H12.9676V22.5498C12.9676 22.4905 12.9809 22.4516 13.0137 22.4291C13.0434 22.4025 13.0853 22.3932 13.1385 22.3932H13.423C13.4947 22.3932 13.5602 22.3994 13.6165 22.4199C13.6687 22.4362 13.7147 22.4587 13.7536 22.4884C13.7925 22.5181 13.8293 22.5539 13.8621 22.5928C13.8918 22.6317 13.9214 22.6716 13.947 22.7177L14.075 22.6522L13.9174 22.2459H12.3976V22.3932H12.46C12.5122 22.3932 12.548 22.4035 12.5746 22.4291C12.6013 22.4516 12.6135 22.4915 12.6135 22.5498V23.5026C12.6135 23.5579 12.6002 23.5978 12.5746 23.6234C12.548 23.6459 12.5122 23.6592 12.46 23.6592H12.3976V23.8066H13.9296L14.0903 23.3778L13.9624 23.3123C13.9358 23.3553 13.9071 23.3972 13.8774 23.4402H13.8795Z" fill="black"/>
<path d="M14.8855 23.7841C15.0001 23.8229 15.128 23.8434 15.2652 23.8434C15.3573 23.8434 15.4453 23.8301 15.5272 23.8107C15.606 23.7881 15.6807 23.7585 15.7503 23.7226C15.8158 23.6838 15.8751 23.6408 15.9273 23.5917C15.9795 23.5395 16.0256 23.4873 16.0645 23.431L15.9529 23.3327C15.914 23.3757 15.868 23.4177 15.8189 23.4576C15.7667 23.4965 15.7145 23.5292 15.6582 23.562C15.6029 23.5917 15.5466 23.6142 15.4883 23.6336C15.4289 23.65 15.3737 23.6602 15.3184 23.6602C15.1158 23.6602 14.9643 23.608 14.8599 23.5026C14.7555 23.3941 14.7064 23.2376 14.7064 23.0278C14.7064 22.818 14.7555 22.6511 14.8568 22.5334C14.9551 22.4158 15.0861 22.3564 15.2498 22.3564C15.3286 22.3564 15.3972 22.3625 15.4566 22.383C15.5159 22.3994 15.5681 22.4219 15.6203 22.4546C15.6664 22.4874 15.7124 22.5232 15.7513 22.5693C15.7902 22.6122 15.8332 22.6614 15.8721 22.7136L15.9928 22.6481L15.8096 22.1998L15.6326 22.2551C15.6265 22.252 15.6101 22.2489 15.5865 22.2448C15.564 22.2387 15.5343 22.2346 15.5016 22.2315C15.4627 22.2254 15.4228 22.2213 15.3767 22.2182C15.3276 22.2121 15.2785 22.2121 15.2294 22.2121C15.0953 22.2121 14.9735 22.2315 14.863 22.2715C14.7514 22.3073 14.6563 22.3636 14.5785 22.4352C14.4966 22.5038 14.4342 22.5887 14.3881 22.6911C14.3421 22.7893 14.3226 22.9009 14.3226 23.0247C14.3226 23.1485 14.3452 23.257 14.3943 23.3583C14.4403 23.4566 14.5027 23.5446 14.5877 23.6172C14.6696 23.6889 14.7678 23.7452 14.8855 23.7841Z" fill="black"/>
<path d="M16.9814 22.428C17.004 22.4014 17.0439 22.3922 17.0961 22.3922H17.1943V22.2449H16.3428V22.3922H16.4411C16.4933 22.3922 16.5291 22.4025 16.5557 22.428C16.5782 22.4475 16.5915 22.4874 16.5915 22.5457V23.5057C16.5915 23.561 16.5782 23.6009 16.5557 23.6265C16.5291 23.6459 16.4933 23.6592 16.4411 23.6592H16.3428V23.8066H17.1943V23.6592H17.0961C17.0439 23.6592 17.004 23.6459 16.9814 23.6265C16.9548 23.5998 16.9456 23.561 16.9456 23.5057V22.5457C16.9456 22.4864 16.9559 22.4475 16.9814 22.428Z" fill="black"/>
<path d="M19.2698 23.4504L18.6343 22.209L18.3334 22.2643L17.7244 23.4494C17.6784 23.5343 17.6323 23.5937 17.5873 23.6193C17.5351 23.6459 17.4829 23.6582 17.4236 23.6582V23.8056H18.056V23.6582C17.9905 23.6582 17.9414 23.652 17.9025 23.6387C17.8595 23.6224 17.8401 23.6029 17.8401 23.5794C17.8401 23.5691 17.8462 23.5466 17.8626 23.5077C17.8759 23.4689 17.8954 23.4289 17.922 23.387L17.9414 23.3512H18.8154L18.8318 23.3839C18.8543 23.43 18.8748 23.4689 18.8911 23.5088C18.9044 23.5446 18.9136 23.5681 18.9136 23.5804C18.9136 23.6326 18.8451 23.6592 18.7141 23.6592V23.8066H19.5717V23.6592C19.5195 23.6592 19.4673 23.6428 19.4141 23.6162C19.3619 23.5865 19.3128 23.5313 19.2698 23.4494V23.4504ZM18.0192 23.2007L18.3794 22.5028L18.7366 23.2007H18.0192Z" fill="black"/>
<path d="M21.245 23.4402C21.2122 23.4791 21.1764 23.519 21.1365 23.5517C21.0935 23.5845 21.0485 23.6111 20.9953 23.6305C20.94 23.65 20.8745 23.6602 20.8018 23.6602H20.4877C20.4355 23.6602 20.3955 23.6469 20.373 23.6275C20.3464 23.6009 20.3341 23.562 20.3341 23.5067V22.5468C20.3341 22.4874 20.3474 22.4485 20.373 22.4291C20.3955 22.4025 20.4355 22.3932 20.4877 22.3932H20.5501V22.2459H19.7672V22.3932H19.8296C19.8818 22.3932 19.9176 22.4035 19.9442 22.4291C19.9667 22.4485 19.98 22.4884 19.98 22.5468V23.5067C19.98 23.562 19.9667 23.6019 19.9442 23.6275C19.9176 23.6469 19.8818 23.6602 19.8296 23.6602H19.7672V23.8076H21.2961L21.4568 23.3788L21.3289 23.3133C21.3023 23.3563 21.2736 23.3982 21.244 23.4412L21.245 23.4402Z" fill="black"/>
<path d="M23.0656 23.037C23.0226 23.0011 22.9776 22.9715 22.9244 22.9449C22.8722 22.9183 22.8159 22.8988 22.7637 22.8824C22.6788 22.8528 22.6 22.8272 22.5283 22.8067C22.4526 22.7801 22.381 22.7576 22.3093 22.7351C22.25 22.7156 22.1978 22.689 22.1486 22.6563C22.0995 22.6235 22.077 22.5805 22.077 22.5314C22.077 22.4792 22.1067 22.4393 22.1691 22.4065C22.2285 22.3707 22.3032 22.3544 22.3922 22.3544C22.5232 22.3544 22.6409 22.3769 22.7422 22.4229C22.8405 22.469 22.9254 22.5508 22.9909 22.6747L23.1189 22.6153L22.994 22.1896L22.8763 22.2418L22.8047 22.2715L22.7586 22.2551C22.732 22.2489 22.7033 22.2418 22.6665 22.2356C22.6276 22.2254 22.5846 22.2193 22.5355 22.2162C22.4864 22.21 22.4342 22.206 22.3779 22.206C22.3124 22.206 22.2469 22.2121 22.1783 22.2285C22.1067 22.2418 22.0443 22.2643 21.9849 22.3001C21.9255 22.3329 21.8764 22.3758 21.8406 22.4311C21.8017 22.4864 21.7812 22.556 21.7812 22.6378C21.7812 22.7003 21.7915 22.7555 21.814 22.8047C21.8334 22.8507 21.8601 22.8896 21.8989 22.9254C21.9317 22.9582 21.9747 22.9878 22.0197 23.0134C22.0657 23.0329 22.1149 23.0523 22.1671 23.0687C22.2489 23.0912 22.3308 23.1178 22.4096 23.1444C22.4854 23.171 22.5631 23.1935 22.645 23.2202C22.7044 23.2365 22.7566 23.2662 22.8088 23.3082C22.8609 23.3471 22.8876 23.3962 22.8876 23.4586C22.8876 23.4975 22.8742 23.5302 22.8548 23.563C22.8354 23.5896 22.8087 23.6152 22.776 23.6346C22.7402 23.651 22.7003 23.6643 22.6583 23.6735C22.6123 23.6838 22.5703 23.6899 22.5242 23.6899C22.3605 23.6899 22.2162 23.651 22.0985 23.5753C21.9777 23.4965 21.8887 23.3952 21.8365 23.2775L21.7024 23.346L21.8928 23.8475C21.9061 23.8342 21.9256 23.825 21.9522 23.8148C21.9716 23.8015 21.9951 23.7922 22.0146 23.782L22.0862 23.7493C22.119 23.7656 22.1579 23.782 22.207 23.7953C22.2459 23.8055 22.2991 23.8148 22.3574 23.825C22.4168 23.8311 22.4854 23.8383 22.5672 23.8383C22.6358 23.8383 22.7085 23.825 22.7832 23.8055C22.8589 23.7861 22.9275 23.7534 22.993 23.7134C23.0554 23.6705 23.1076 23.6183 23.1506 23.5599C23.1895 23.4975 23.2099 23.4259 23.2099 23.344C23.2099 23.2724 23.1966 23.213 23.171 23.1639C23.1444 23.1117 23.1086 23.0687 23.0667 23.0329L23.0656 23.037Z" fill="black"/>
<path d="M7.84648 8.63145C7.99385 8.65396 8.05321 8.6908 8.05321 8.78393C8.05321 8.83101 8.05117 8.8699 8.0481 8.90879C8.02559 9.29666 7.99386 9.92811 7.99386 10.0857C7.99386 10.3559 8.18524 10.5155 8.49226 10.5155C8.88013 10.5155 9.33964 10.2228 9.60471 9.90866C9.61494 9.89843 9.61699 9.88615 9.61699 9.87898C9.61699 9.8667 9.60982 9.85954 9.59754 9.85954C9.5873 9.85954 9.57502 9.86466 9.56069 9.87387C9.27107 10.0898 8.88013 10.2525 8.5291 10.2525C8.34284 10.2525 8.25687 10.1911 8.25687 9.99258C8.25687 9.84726 8.2886 9.31713 8.31111 8.97531C8.31828 8.87195 8.33773 8.80133 8.36536 8.75221C8.37764 8.72969 8.38787 8.71025 8.38787 8.68569C8.38787 8.60688 8.19649 8.50864 8.06344 8.50864C8.00716 8.50864 7.92836 8.5332 7.83523 8.57516C7.81578 8.58539 7.80556 8.5946 7.80556 8.60484C7.80556 8.61712 7.81987 8.62735 7.84751 8.63145H7.84648Z" fill="black"/>
<path d="M10.4889 9.4645C10.4889 9.51567 10.4869 9.56479 10.4838 9.59447C10.4736 9.69272 10.4644 9.85442 10.4644 9.93322C10.4644 10.1614 10.5452 10.3211 10.6629 10.3211C10.7192 10.3211 10.7417 10.2842 10.7417 10.1911V10.142C10.7417 9.97211 10.8154 9.7838 10.9403 9.64359C11.0242 9.55046 11.102 9.49622 11.2227 9.4471C11.2227 9.69476 11.2104 9.87898 11.1838 10.0489C11.0661 10.0263 10.975 9.96494 10.928 9.87693C10.9208 9.8626 10.9136 9.85749 10.9055 9.85749C10.8973 9.85749 10.8911 9.86465 10.8911 9.88C10.8911 9.88478 10.8918 9.89365 10.8932 9.90661C10.9177 10.0366 11.0037 10.1379 11.1511 10.1911C11.0876 10.361 10.9495 10.4961 10.7653 10.5616C10.7305 10.5739 10.7233 10.581 10.7233 10.5933C10.7233 10.6036 10.7335 10.6128 10.7479 10.6128C10.7653 10.6128 10.7847 10.6107 10.8164 10.6025C11.0846 10.536 11.2442 10.4204 11.3322 10.229C11.3445 10.231 11.3639 10.2341 11.3813 10.2341C11.6781 10.2341 11.9074 10.0253 11.9074 9.74798C11.9074 9.4952 11.7211 9.32327 11.4602 9.32327C11.4486 9.32327 11.4329 9.32395 11.4131 9.32531C11.4151 9.26903 11.4182 9.21683 11.4233 9.20046C11.4305 9.17078 11.4335 9.15133 11.4335 9.13701C11.4335 9.07355 11.3332 9.0142 11.2227 9.0142C11.1613 9.0142 11.0805 9.04388 11.0406 9.06844C11.0262 9.07867 11.016 9.09095 11.016 9.09812C11.016 9.10835 11.0262 9.11551 11.0508 9.11756C11.1808 9.12472 11.2207 9.16464 11.2227 9.26493V9.35602C11.0753 9.4123 10.9648 9.48087 10.8768 9.57503C10.7765 9.67327 10.7049 9.8012 10.6435 9.9629C10.6363 9.92094 10.6332 9.89126 10.6332 9.8626C10.6332 9.79915 10.6384 9.73263 10.6558 9.65383C10.6701 9.57298 10.6783 9.52078 10.6783 9.47166C10.6783 9.34373 10.5626 9.25777 10.4306 9.22604C10.4224 9.22468 10.4159 9.224 10.4112 9.224C10.3989 9.224 10.3917 9.22911 10.3917 9.23832C10.3917 9.24753 10.3968 9.26084 10.4112 9.27517C10.4552 9.32224 10.49 9.38774 10.49 9.4645H10.4889ZM11.4151 9.41742H11.4397C11.6014 9.41742 11.7078 9.5259 11.7078 9.70193C11.7078 9.89331 11.5799 10.0356 11.3783 10.053C11.3977 9.91787 11.41 9.74798 11.4151 9.4164V9.41742Z" fill="black"/>
<path d="M19.2954 8.63145C19.4427 8.65396 19.5021 8.6908 19.5021 8.78393C19.5021 8.83101 19.5001 8.8699 19.497 8.90879C19.4745 9.29666 19.4428 9.92811 19.4428 10.0857C19.4428 10.3559 19.6341 10.5155 19.9412 10.5155C20.329 10.5155 20.7885 10.2228 21.0536 9.90866C21.0638 9.89843 21.0659 9.88615 21.0659 9.87898C21.0659 9.8667 21.0587 9.85954 21.0464 9.85954C21.0362 9.85954 21.0239 9.86466 21.0096 9.87387C20.72 10.0898 20.329 10.2525 19.978 10.2525C19.7917 10.2525 19.7058 10.1911 19.7058 9.99258C19.7058 9.84726 19.7375 9.31713 19.76 8.97531C19.7672 8.87195 19.7866 8.80133 19.8143 8.75221C19.8265 8.72969 19.8368 8.71025 19.8368 8.68569C19.8368 8.60688 19.6454 8.50864 19.5123 8.50864C19.4561 8.50864 19.3773 8.5332 19.2841 8.57516C19.2647 8.58539 19.2545 8.5946 19.2545 8.60484C19.2545 8.61712 19.2688 8.62735 19.2964 8.63145H19.2954Z" fill="black"/>
<path d="M22.2008 10.5053C22.3902 10.5053 22.4854 10.4091 22.4976 10.2648C22.5764 10.3119 22.6798 10.3948 22.7484 10.4634C22.7975 10.5125 22.8221 10.5248 22.8589 10.5248C22.9183 10.5248 22.9551 10.4808 22.9551 10.4091C22.9551 10.2965 22.8569 10.2024 22.5007 10.0509C22.4987 9.97212 22.4987 9.93834 22.4956 9.89331C22.4935 9.82986 22.4935 9.78074 22.4935 9.72854C22.4935 9.67226 22.4935 9.62825 22.4956 9.56684C22.5693 9.61392 22.6204 9.62313 22.69 9.62313C22.7596 9.62313 22.862 9.60573 22.9336 9.58629C22.9899 9.56889 23.0073 9.54945 23.0073 9.50544C23.0073 9.46348 22.9848 9.43687 22.9285 9.40208C22.8988 9.38468 22.8691 9.3724 22.8476 9.3724C22.8354 9.3724 22.818 9.37956 22.7862 9.39491C22.7105 9.42664 22.6317 9.44608 22.5672 9.44608C22.5304 9.44608 22.5181 9.44608 22.4956 9.44404V9.36319C22.4956 9.30178 22.5007 9.24754 22.5058 9.2281C22.513 9.20353 22.5181 9.18614 22.5181 9.17181C22.5181 9.10529 22.3973 9.03467 22.2796 9.03467C22.2377 9.03467 22.1988 9.04695 22.1466 9.07151C22.1323 9.07868 22.122 9.08891 22.122 9.09812C22.122 9.10733 22.1343 9.11552 22.1589 9.12064C22.252 9.13804 22.2817 9.17181 22.2868 9.29769C22.2919 9.38877 22.294 9.48702 22.294 9.59038C22.294 9.792 22.294 9.88308 22.2889 9.98542C22.2223 9.96802 22.1609 9.96086 22.1149 9.96086C21.9286 9.96086 21.8079 10.0612 21.8079 10.1962C21.8079 10.361 21.9747 10.5053 22.2008 10.5053ZM22.076 10.1031C22.1497 10.1031 22.2213 10.1205 22.2899 10.1574V10.1962C22.2899 10.2873 22.2356 10.3313 22.1548 10.3313C22.0391 10.3313 21.9409 10.2597 21.9409 10.1891C21.9409 10.1379 21.9829 10.1031 22.076 10.1031Z" fill="black"/>
<path d="M24.0379 9.72649C24.3029 9.85954 24.61 10.1492 24.8013 10.4316C24.9016 10.579 24.9262 10.6036 24.9753 10.6036C25.0664 10.6036 25.135 10.4981 25.135 10.4193C25.135 10.3313 25.1155 10.2914 25.0122 10.1809C24.8085 9.96495 24.5772 9.79813 24.2773 9.6088C24.2037 9.56172 24.174 9.54023 24.174 9.51567C24.174 9.49111 24.2108 9.44915 24.2702 9.39286C24.4544 9.20865 24.6366 9.05104 24.8525 8.89139C24.9037 8.8525 24.9436 8.82282 24.9733 8.80338C25.0122 8.77882 25.0203 8.75425 25.0203 8.70001C25.0203 8.62121 24.8218 8.41755 24.6499 8.41755C24.6202 8.41755 24.5936 8.41755 24.5496 8.42779C24.5301 8.4329 24.523 8.44211 24.523 8.45235C24.523 8.46258 24.5332 8.47486 24.5526 8.48203C24.5946 8.49431 24.6652 8.55571 24.6652 8.59767C24.6652 8.63247 24.6581 8.65396 24.6386 8.68364C24.6069 8.73276 24.5475 8.80133 24.4718 8.88218C24.3142 9.05207 24.1576 9.21888 24.0051 9.39593C23.956 9.45529 23.9386 9.48702 23.9386 9.54126C23.9386 9.62211 23.9928 9.70296 24.0389 9.72752L24.0379 9.72649Z" fill="black"/>
<path d="M16.5066 27.4274C16.4155 27.5185 16.3643 27.6024 16.2988 27.6628C16.2047 27.7498 16.0676 27.6126 16.1545 27.5185C16.2149 27.453 16.2988 27.4018 16.3899 27.3107C16.6048 27.0958 16.6048 26.7468 16.3899 26.5309C16.175 26.316 15.826 26.316 15.6101 26.5309C15.3952 26.7458 15.3952 27.0948 15.6101 27.3107C15.7012 27.4018 15.7851 27.453 15.8455 27.5185C15.9325 27.6126 15.7953 27.7498 15.7012 27.6628C15.6357 27.6024 15.5845 27.5185 15.4934 27.4274C15.2785 27.2125 14.9295 27.2125 14.7136 27.4274C14.4987 27.6423 14.4987 27.9913 14.7136 28.2072C14.9285 28.4222 15.2775 28.4222 15.4934 28.2072C15.5845 28.1162 15.6357 28.0322 15.7012 27.9719C15.7953 27.8849 15.9325 28.022 15.8455 28.1162C15.7851 28.1817 15.7012 28.2328 15.6101 28.3239C15.3952 28.5388 15.3952 28.8878 15.6101 29.1038C15.825 29.3187 16.174 29.3187 16.3899 29.1038C16.6048 28.8888 16.6048 28.5399 16.3899 28.3239C16.2988 28.2328 16.2149 28.1817 16.1545 28.1162C16.0676 28.022 16.2047 27.8849 16.2988 27.9719C16.3643 28.0322 16.4155 28.1162 16.5066 28.2072C16.7215 28.4222 17.0705 28.4222 17.2864 28.2072C17.5013 27.9923 17.5013 27.6433 17.2864 27.4274C17.0715 27.2125 16.7225 27.2125 16.5066 27.4274Z" fill="black"/>
<path d="M15.4934 4.56952C15.5845 4.47844 15.6357 4.39452 15.7012 4.33414C15.7953 4.24715 15.9325 4.38429 15.8455 4.47844C15.7851 4.54394 15.7012 4.59511 15.6101 4.68619C15.3952 4.90111 15.3952 5.25009 15.6101 5.46603C15.825 5.68095 16.174 5.68095 16.3899 5.46603C16.6048 5.25111 16.6048 4.90213 16.3899 4.68619C16.2988 4.59511 16.2149 4.54394 16.1545 4.47844C16.0676 4.38429 16.2047 4.24715 16.2988 4.33414C16.3643 4.39452 16.4155 4.47844 16.5066 4.56952C16.7215 4.78444 17.0705 4.78444 17.2864 4.56952C17.5013 4.35461 17.5013 4.00562 17.2864 3.78968C17.0715 3.57477 16.7225 3.57477 16.5066 3.78968C16.4155 3.88077 16.3643 3.96469 16.2988 4.02507C16.2047 4.11206 16.0676 3.97492 16.1545 3.88077C16.2149 3.81527 16.2988 3.7641 16.3899 3.67301C16.6048 3.4581 16.6048 3.10912 16.3899 2.89318C16.175 2.67826 15.826 2.67826 15.6101 2.89318C15.3952 3.10809 15.3952 3.45708 15.6101 3.67301C15.7012 3.7641 15.7851 3.81527 15.8455 3.88077C15.9325 3.97492 15.7953 4.11206 15.7012 4.02507C15.6357 3.96469 15.5845 3.88077 15.4934 3.78968C15.2785 3.57477 14.9295 3.57477 14.7136 3.78968C14.4987 4.0046 14.4987 4.35358 14.7136 4.56952C14.9285 4.78444 15.2775 4.78444 15.4934 4.56952Z" fill="black"/>
</svg>
