<svg width="104" height="64" viewBox="0 0 104 64" fill="none" xmlns="http://www.w3.org/2000/svg">
<g clip-path="url(#clip0_790_143)">
<path d="M23.2461 5.39217C22.9135 6.36136 22.1989 7.14071 21.7214 7.34721C21.2867 7.5537 20.8487 7.62698 20.4437 7.62698C19.4557 7.62698 18.6292 7.12739 18.2505 6.62781C19.3537 6.04163 20.7335 4.31973 20.9969 3.77685L23.2494 5.39217H23.2461ZM25.2088 4.97918L26.75 3.21732C28.5645 3.87677 29.233 4.90591 29.233 5.81848C29.233 6.56786 28.7819 7.24396 28.143 7.58035L25.2088 4.97918ZM26.9081 1.82181L27.5469 1.02914C28.2451 1.16236 28.5052 1.52872 28.5052 1.88176C28.5052 2.26478 28.1858 2.63114 27.7643 2.63114C27.6787 2.63114 27.5601 2.60116 27.458 2.55787L26.9048 1.82181H26.9081ZM28.548 1.82181L29.1869 1.02914C29.885 1.16236 30.1452 1.52872 30.1452 1.88176C30.1452 2.26478 29.8258 2.63114 29.4043 2.63114C29.3186 2.63114 29.2001 2.60116 29.098 2.55787L28.5448 1.82181H28.548Z" fill="#4DE89B"/>
<path d="M32.7303 5.77519L32.862 4.01332C34.5185 3.8801 39.6162 3.66028 41.4472 3.66028L41.737 5.40883L32.7303 5.77519Z" fill="#6EFFAC"/>
<path d="M49.219 3.13072C47.1278 2.94088 45.6163 2.88093 45.6163 2.88093C45.6163 2.88093 45.6163 2.35137 45.6756 1.54538C47.8556 1.5587 49.759 1.53206 52.242 1.89842C51.8502 6.2015 48.5241 8.69942 46.5186 8.69942C45.8073 8.69942 45.0663 8.37635 44.6876 7.90674C45.9522 7.57036 48.972 5.64529 49.219 3.13072ZM51.9621 6.27477C52.3968 6.39134 54.0104 6.80433 54.0104 8.13988C54.0104 8.75604 53.6054 9.34554 53.0521 9.74188C51.5834 8.53622 50.6548 7.8035 50.6548 7.8035L51.9621 6.27477Z" fill="#4DE89B"/>
<path d="M63.0896 1.54205C62.4804 2.55454 60.9985 4.72939 60.4748 5.64197C60.9985 6.55454 62.4211 8.16986 63.5111 9.2423C63.3366 9.68193 63.004 9.84513 62.6253 9.84513C62.3486 9.84513 62.0588 9.77186 61.7822 9.63863C61.2454 9.40217 59.0819 7.27394 57.9029 5.24563C58.6307 4.00999 60.2575 1.21898 60.8371 0.193172L63.0896 1.54538V1.54205Z" fill="#6EFFAC"/>
<path d="M73.5617 8.1532C73.4168 7.96336 73.2126 7.77019 72.9821 7.62365C72.8965 9.32889 72.0963 10.0316 70.453 10.0316C68.9283 10.0316 67.97 9.13572 67.97 8.13655C67.97 7.21066 68.7834 6.1249 70.5123 6.03497C70.4991 5.72523 70.4694 5.41882 70.4398 5.06578L67.4332 5.09575L67.5946 3.7602C68.1478 3.79017 69.1357 3.83347 70.2389 3.90674C70.0644 2.57119 69.8767 1.01249 69.8042 0.11657L72.3762 0C72.5079 0.882598 72.6363 2.51124 72.7088 4.06994C73.3773 4.11324 73.9865 4.15654 74.4673 4.20316L74.5266 5.01249L72.7252 5.04246C72.7549 5.49875 72.7681 5.93838 72.7845 6.40799C73.4102 6.64446 73.947 6.98085 74.2532 7.40716L73.5716 8.15654L73.5617 8.1532ZM67.4628 2.52789L67.9996 1.04246C68.8855 1.04246 69.6692 1.65862 69.6692 2.46794C69.6692 2.68776 69.6099 2.92423 69.4815 3.17402L67.4628 2.52789ZM70.5123 6.94754C69.8141 7.00749 69.3926 7.34388 69.3926 7.78351C69.3926 8.04663 69.6692 8.31307 69.9458 8.31307C70.4398 8.31307 70.5123 7.53372 70.5123 7.09409V6.94754Z" fill="#4DE89B"/>
<path d="M84.1787 5.5154C81.62 7.37386 79.8614 7.87344 79.8614 7.87344C78.7945 6.94421 78.3697 5.90508 78.3697 4.92257C78.3697 3.06411 80.0492 1.09575 82.407 1.09575C84.5508 1.09575 86.6552 2.69775 86.6552 5.19234C86.6552 6.86428 85.6837 8.54621 84.4586 8.54621C84.0733 8.54621 83.7407 8.38302 83.6584 8.12989C84.5904 7.8468 85.3906 6.64779 85.3906 5.31557C85.3906 3.49709 83.991 2.51457 82.6342 2.51457C81.2775 2.51457 80.3686 3.51041 80.3686 4.56287C80.3686 5.12906 80.6353 5.69526 81.2347 6.08493C81.2347 6.08493 82.1403 5.82848 83.5399 4.65612L84.1787 5.51874V5.5154Z" fill="#4DE89B"/>
<path d="M34.8873 57.1557L34.9861 58.3314C38.0224 58.6478 39.1947 59.9067 39.2309 61.169C39.277 62.741 37.6305 63.97 36.6096 64C35.9938 64.02 35.4504 63.6403 35.3681 63.0708C36.333 62.8276 36.8698 62.3547 36.8533 61.8485C36.8303 61.0624 35.4932 60.1865 32.345 60.02C32.2462 59.4671 32.1376 58.4546 32.0882 57.3256L29.8423 57.4754L29.9575 56.4896L32.0684 56.1798C32.0618 55.3938 32.0882 54.6245 32.1639 53.9484L34.6074 53.9417L34.7589 55.8368L36.0531 55.7502L36.2375 57.0724L34.8807 57.1624L34.8873 57.1557Z" fill="#6EFFAC"/>
<path d="M47.3715 63.6636C46.4396 62.2181 45.636 60.8326 44.9346 59.5437C44.5526 59.7669 44.2496 59.94 44.0422 60.0766L43.3012 59.6236C43.3012 59.6236 43.7787 59.2973 44.411 58.8543C44.0883 58.2914 43.8281 57.7252 43.535 57.1923L45.254 56.1432L46.2222 57.652C47.0982 57.149 47.8852 56.9292 48.5801 56.9092C50.1509 56.8626 51.1652 57.8485 51.1948 58.8609C51.2278 60.0067 49.9994 60.6161 49.5779 60.6295C49.3013 60.6361 48.8962 60.5362 48.6558 60.0999C49.0543 59.8435 49.2223 59.5437 49.2124 59.2473C49.1959 58.7077 48.5834 58.1848 47.7239 58.2115C47.4012 58.2215 47.0455 58.3147 46.68 58.5046C48.1882 60.786 48.7941 62.0749 49.0181 62.5778L47.3649 63.6603L47.3715 63.6636ZM47.3254 54.9542L48.8205 55.1374C48.8402 55.234 48.8403 55.3172 48.8435 55.4138C48.8666 56.1832 48.343 56.5595 47.7107 56.5795C47.5 56.5862 47.2727 56.5595 47.0587 56.4829L47.3221 54.9509L47.3254 54.9542Z" fill="#4DE89B"/>
<path d="M58.8909 59.1207C58.9501 61.149 59.1082 62.1282 60.6461 62.0816C60.9063 62.0749 61.196 62.0316 61.5188 61.975C61.5352 62.025 61.5385 62.0883 61.5385 62.1382C61.5385 62.2348 61.5748 63.3972 59.4737 63.4604C57.2081 63.5271 56.0785 62.0216 56.0028 59.3572V59.194C55.9666 57.5587 55.9567 54.4779 55.9172 53.1357L58.8777 53.0791C58.8843 54.4047 58.8612 57.4188 58.8777 58.6145L58.8942 59.1207H58.8909Z" fill="#6EFFAC"/>
<path d="M65.3684 55.9101C67.3739 55.2939 68.7472 55.154 69.6034 55.1274C73.5024 55.0108 75.0403 56.6162 75.0897 58.3514C75.1523 60.5096 73.0513 62.2615 71.4673 62.3081C70.9009 62.3247 70.2818 62.1482 69.8932 61.602C71.5792 61.1424 72.6627 60.0133 72.6363 59.0308C72.61 58.1149 71.5661 57.3256 69.06 57.4022C68.1873 57.4288 67.1204 57.5587 65.8492 57.8251L65.3717 55.9067L65.3684 55.9101Z" fill="#4DE89B"/>
<path d="M22.6665 36.4696C19.6138 38.5046 14.9409 39.3972 11.2032 39.3938C8.25256 39.3938 6.92214 39.1041 6.84969 37.4188C6.84969 36.6295 6.82005 34.3347 6.82005 32.8293L16.1758 32.6661L22.0639 32.856C22.1792 30.5978 22.3405 24.0366 22.3471 20.8426V20.0167L6.82993 20.5695L0 20.04C0.0362243 23.2806 0.111966 34.2848 0.25357 38.771C0.434692 43.7169 3.3524 45.0425 11.5193 45.0458C20.638 45.0458 23.0057 43.0475 23.0189 38.8643C23.0189 37.9351 22.8806 37.1124 22.6665 36.4663V36.4696ZM13.0243 22.9309L17.1275 23.0508L17.0781 30.7311L12.7971 30.7943L13.021 22.9309H13.0243ZM6.10544 22.6944L10.1428 22.851L10.1329 30.8243L6.09886 30.8876L6.10544 22.6944Z" fill="#4DE89B"/>
<path d="M30.2045 28.0866L26.8719 27.7569C26.8719 27.7569 27.0266 35.5604 27.0563 37.0824L29.5294 36.8326C29.5986 36.6195 29.6019 36.1399 29.5722 34.9575L32.862 34.8576C32.862 35.4271 32.8258 36.0366 32.8225 36.6062L31.9992 36.9992C32.4208 38.5346 33.7413 39.2173 35.0289 39.2173C36.5668 39.2173 38.1047 38.2215 38.1475 36.4363L38.3286 27.8235L30.2045 28.0866ZM32.9049 33.7452L29.5393 33.8485L29.4701 32.4163L32.9081 32.5296V33.7452H32.9049ZM32.9477 31.3139L29.4405 31.2007C29.4076 30.2714 29.3713 29.6253 29.3713 29.6253L32.9542 29.3122L32.9477 31.3139Z" fill="#4DE89B"/>
<path d="M37.9565 22.6644C37.4131 21.7818 36.4482 20.8959 36.4482 20.8959L34.1332 22.8343L35.2825 23.9334C33.7545 23.9967 31.693 24.1266 29.7434 24.2764C31.8741 23.8335 33.7347 22.7544 34.232 20.8393C34.6403 19.234 34.8116 18.5079 34.8116 18.5079L27.4514 17.4055C27.188 18.8476 26.7335 21.1091 25.739 24.6328L26.615 26.6411C29.0782 26.2215 32.9081 25.8684 34.8807 25.7219L35.6151 24.2664L37.367 26.0017C38.0355 25.5187 38.3418 24.7893 38.3451 24.0633C38.3451 23.577 38.2265 23.0908 37.9565 22.6644Z" fill="#6EFFAC"/>
<path d="M34.0146 42.3847L36.6689 39.8901C36.6689 39.8901 37.8083 40.7827 38.3385 41.602C38.6217 42.0316 38.7633 42.5279 38.76 43.0641C38.7567 44.0266 38.2529 45.0258 37.3209 45.6286L34.0146 42.3847Z" fill="#4DE89B"/>
<path d="M39.6195 42.1915L42.1651 39.5537C42.1651 39.5537 43.3375 40.3764 43.8676 41.159C44.1871 41.622 44.3616 42.1582 44.3583 42.7277C44.355 43.617 43.8874 44.5795 43.0279 45.1857L39.6195 42.1915Z" fill="#6EFFAC"/>
<path d="M50.1937 21.3789C48.6822 21.7186 47.1114 22.0616 45.6624 22.3414L45.6262 23.4771C45.6262 24.0133 45.8731 24.3297 46.5021 24.3297C47.444 24.3297 48.6394 24.0833 50.9083 22.8643C51.0005 23.2107 51.0302 23.557 51.0269 23.9034C51.0203 24.9425 50.6383 25.9484 49.8512 26.388C48.7184 27.0475 46.5779 27.3872 44.7238 27.3805C42.2408 27.3739 39.9752 26.8943 39.9916 23.6803V23.5537L40.1102 18.7877L45.8073 18.8743L45.7348 20.8926C46.9632 20.6128 48.2837 20.2698 49.512 19.9301L50.1937 21.3822V21.3789Z" fill="#4DE89B"/>
<path d="M49.9797 31.4038C48.4813 31.7569 46.9467 32.1132 45.4846 32.393L45.478 33.3555C45.478 33.9251 45.7941 34.2481 46.4363 34.2481C47.1838 34.2481 48.8962 33.9684 51.5735 32.5096C51.6789 32.9026 51.7119 33.2956 51.7086 33.6853C51.702 34.791 51.2673 35.8235 50.3748 36.3231C49.0905 37.0691 46.9862 37.4588 45.0993 37.4555C41.5328 37.4521 39.9357 36.0933 39.9488 33.2356V33.0924L40.041 28.5529L45.6097 28.6028L45.5636 30.7111C46.7788 30.428 48.0268 30.1082 49.2058 29.7552L49.9797 31.4005V31.4038Z" fill="#6EFFAC"/>
<path d="M45.2145 42.3913L48.3331 38.6545C48.3331 38.6545 50.4967 40.01 51.1323 40.9359C51.5538 41.542 51.7283 42.2881 51.725 43.0708C51.7184 44.2098 51.2837 45.3822 50.5329 46.0949L45.2178 42.3913H45.2145Z" fill="#4DE89B"/>
<path d="M67.6901 26.7444C67.4365 27.0874 61.7361 34.5479 56.7207 34.5279C55.2256 34.5212 53.8162 33.5354 52.9204 32.4996C57.8371 30.0516 62.6483 26.6478 65.2268 24.0966L67.6934 26.741L67.6901 26.7444Z" fill="#6EFFAC"/>
<path d="M71.9118 23.0341C71.7702 23.9201 71.6319 24.776 71.4936 25.4155L68.4178 25.3056L68.5726 23.1341L63.7186 23.2306C63.712 23.9967 63.7383 24.6694 63.7317 25.1291L59.1378 25.5321L58.9864 24.0599L53.6284 24.1832L53.9215 20.5995C55.2059 20.5462 56.8491 20.5262 58.6241 20.4763L58.387 17.8684L63.6758 17.6286C63.735 18.1815 63.7252 19.224 63.7482 20.3564L68.734 20.2931L68.925 17.6619L72.6232 17.9617C72.5178 18.5745 72.4124 19.3672 72.3037 20.2531C74.0063 20.2331 75.6067 20.2132 76.9141 20.2198L77.1775 22.9109L71.9118 23.0341Z" fill="#4DE89B"/>
<path d="M62.4112 41.4488C59.5627 44.9858 57.3859 45.1191 56.7042 45.1157C55.387 45.1124 54.1652 44.5162 53.4901 43.607C56.095 41.9317 58.1565 40.1632 59.3486 38.801L62.4079 41.4521L62.4112 41.4488Z" fill="#6EFFAC"/>
<path d="M63.8766 45.1923L63.9524 37.4954L56.2728 37.7519L56.5396 35.3872C59.3881 35.194 61.8777 35.1241 64.1928 35.0908L64.2718 31.4638L68.734 31.567L68.7044 34.1349C72.3926 34.0283 73.3938 33.9917 74.8921 33.9983L75.3433 37.1724L68.2137 37.3888L67.9733 44.9992L63.8799 45.1923H63.8766Z" fill="#4DE89B"/>
<path d="M72.0403 38.9775C73.3674 39.7535 75.6594 41.0624 78.07 42.1649C77.6946 43.2173 76.4267 44.393 74.6484 44.3863C73.3147 44.383 72.149 43.8102 69.6561 42.2614L72.0403 38.9775Z" fill="#6EFFAC"/>
<path d="M103.997 21.1424C103.967 23.6103 102.726 26.4147 98.8265 26.4546H98.6717C98.6717 26.4546 98.8463 24.806 98.8562 23.9101L93.1261 24.393L92.3852 22.851C92.2864 23.6303 92.1876 24.4097 91.9999 25.0125C91.687 26.1082 90.6859 26.8943 89.6058 26.9076C89.3983 26.9076 89.2172 26.9109 89.0097 26.8443L89.181 24.6328C88.7891 25.1657 88.1897 25.4188 87.5673 25.4255C86.8297 25.4355 86.0657 25.0624 84.9921 24.0033C83.4213 26.8643 82.3412 27.7735 80.3851 27.7902C79.5848 27.7968 78.7912 27.597 78.2281 27.1241C80.0162 24.363 81.7715 20.8859 82.6902 18.3747L86.7045 20.2431C86.5827 20.6295 86.4016 21.1224 86.1908 21.6153C87.0372 22.398 88.0646 23.254 89.2205 23.9667L89.4609 21.0158L92.4971 21.3689L92.4247 22.3614C92.9121 22.2814 93.4291 22.1982 93.9461 22.0816L93.5246 18.7777L99.0472 18.4413C99.0472 18.4413 98.9385 19.8235 98.8265 21.3689L104.007 20.6728L104 21.1457L103.997 21.1424Z" fill="#6EFFAC"/>
<path d="M88.4828 39.3605L86.1612 41.189L86.5662 41.7186L84.0174 42.0017C84.0536 41.1724 84.0668 39.8968 84.1063 38.5845L88.6969 38.5945L88.9867 30.3813L86.6189 30.2781L87.0833 28.1166L83.4839 27.7635L83.4905 30.1482L80.5793 29.8118L80.5497 42.4646L79.1798 42.7011L79.7857 45.1424L86.5761 43.6636L86.9153 42.2481L88.5783 44.5562C89.4181 44.0566 89.754 43.1241 89.7638 42.2481C89.7737 41.2023 89.2468 40.2764 88.4828 39.3572V39.3605ZM83.6222 31.7036L86.5761 31.8102L86.609 34.4546C85.6112 34.3447 84.4718 34.2281 83.4806 34.1882C83.5201 33.1557 83.586 32.2898 83.6189 31.7036H83.6222ZM83.4444 35.5004L86.5992 35.8135L86.6156 37.1357L83.4015 37.0924C83.4345 36.5762 83.4411 36.02 83.4476 35.5037L83.4444 35.5004Z" fill="#6EFFAC"/>
<path d="M103.977 37.5587C101.063 37.5887 97.18 37.6853 94.5323 37.8418L94.552 35.95L102.551 36.0799L102.577 33.8251C102.607 31.3239 102.607 28.403 102.548 26.7644L94.7529 27.4904L90.8407 27.1241C90.7221 31.4005 90.6069 35.8201 90.5575 40.6894C90.541 42.1649 90.5575 43.597 90.5476 44.9159L103.891 45.1157C103.944 43.8468 104.007 38.7943 103.98 37.5654L103.977 37.5587ZM93.9626 29.3022L97.2722 29.3289L97.2228 33.7086L93.877 33.9717L93.9593 29.3022H93.9626ZM98.0823 42.9342L94.4763 42.7877L94.5125 39.4105L98.1218 39.3672L98.0823 42.9342Z" fill="#4DE89B"/>
<path d="M32.5492 42.1649C32.5426 44.3397 30.7676 46.1016 28.5909 46.1016C26.4141 46.1016 24.649 44.3397 24.6523 42.1615C24.6556 39.9833 26.4339 38.2215 28.6172 38.2215C30.7972 38.2215 32.5591 39.99 32.5492 42.1649Z" fill="#6EFFAC"/>
<path d="M78.8768 32.8793C78.8768 32.8793 66.6494 34.1682 67.6934 26.7444C67.6934 26.7444 69.7285 29.5254 78.8768 32.8793Z" fill="#4DE89B"/>
<path d="M78.8768 32.8793C69.7285 29.5254 67.6934 26.7444 67.6934 26.7444C67.6934 26.7444 73.7395 24.4696 78.8768 32.8793Z" fill="#6EFFAC"/>
</g>
<defs>
<clipPath id="clip0_790_143">
<rect width="104" height="64" fill="white"/>
</clipPath>
</defs>
</svg>
