<svg width="32" height="32" viewBox="0 0 32 32" fill="none" xmlns="http://www.w3.org/2000/svg">
<path d="M12.3933 19.4219C12.3933 19.6839 12.4352 19.818 12.5202 19.8261C12.6665 19.8026 12.9593 19.6532 13.3973 19.3758C13.8282 19.0913 14.0554 18.7566 14.0779 18.3718V15.0815C14.1015 14.974 14.1629 14.8778 14.2621 14.7928C14.3543 14.7007 14.4003 14.5923 14.4003 14.4694C14.3696 14.3159 14.212 14.2074 13.9275 14.146C13.6501 14.0693 13.4311 14.0304 13.2694 14.0304C13.0923 14.0304 13.0043 14.0918 13.0043 14.2146V18.0013C12.9654 18.2019 12.8845 18.336 12.7617 18.4056C12.6461 18.4517 12.5038 18.4905 12.3349 18.5212C12.1968 18.5212 12.1159 18.5755 12.0924 18.683C12.0924 18.7444 12.1425 18.8211 12.2428 18.9143C12.3431 18.991 12.3933 19.1609 12.3933 19.4219Z" fill="black"/>
<path d="M11.8396 14.6311C11.6165 14.5237 11.3739 14.3927 11.1119 14.2392C10.9962 14.2392 10.9389 14.2893 10.9389 14.3896V18.1293C10.9625 18.3063 11.0546 18.4066 11.2163 18.4291C11.378 18.4056 11.5438 18.3411 11.7127 18.2326C11.8744 18.117 11.9747 17.9983 12.0125 17.8744V15.4622C12.0125 15.3772 12.0432 15.2892 12.1047 15.1971C12.1507 15.105 12.1742 15.0047 12.1742 14.8972C12.1354 14.7898 12.0238 14.7007 11.8396 14.6322V14.6311Z" fill="black"/>
<path d="M15.1065 13.7418C15.1065 13.6343 14.9683 13.4644 14.691 13.2341C14.429 13.0192 14.256 12.9107 14.1711 12.9107C14.0707 12.9107 13.9367 12.9957 13.7668 13.1645C13.6204 13.3344 13.5017 13.4337 13.4086 13.4644H11.5735C12.0044 13.0571 12.2623 12.834 12.3472 12.7951C12.4322 12.749 12.4741 12.6876 12.4741 12.6109C12.4741 12.5259 12.339 12.4297 12.0699 12.3223C11.7771 12.2148 11.5581 12.1493 11.4118 12.1258C11.3115 12.1258 11.2388 12.1718 11.1927 12.2639C10.9921 12.6487 10.7659 13.0489 10.5121 13.4644H8.55012L8.57366 13.4532C8.58901 13.4378 8.60027 13.4265 8.60846 13.4184C8.81622 13.2341 8.93188 13.0448 8.95439 12.8524C8.93085 12.6211 8.72309 12.4481 8.3311 12.3325C7.9391 12.2322 7.64639 12.182 7.45398 12.182C7.32297 12.182 7.25747 12.2475 7.25747 12.3785C7.38847 12.5249 7.49185 12.6866 7.56861 12.8637C7.63001 13.0479 7.66072 13.226 7.66072 13.3948C7.66072 13.4255 7.66481 13.4491 7.67198 13.4644H4.82057C4.75098 13.4644 4.71618 13.4951 4.71618 13.5565C4.73972 13.6875 4.81239 13.7991 4.9352 13.8912H14.8977C15.0359 13.8758 15.1055 13.8257 15.1055 13.7407L15.1065 13.7418Z" fill="black"/>
<path d="M6.93303 18.9951V17.4139H8.95337V18.1416C8.95337 18.3033 8.8807 18.3841 8.73435 18.3841H8.12231C8.0609 18.3841 8.03019 18.4107 8.03019 18.465C8.03019 18.5417 8.07625 18.6574 8.16836 18.8109C8.26048 18.9644 8.30653 19.1384 8.30653 19.3308C8.30653 19.5079 8.34133 19.6081 8.41093 19.6307C8.48052 19.6307 8.75686 19.5426 9.24199 19.3656C9.72712 19.165 9.98094 18.946 10.0035 18.7075V15.4294C10.0035 15.3527 10.069 15.2606 10.2 15.1521C10.331 15.0364 10.3965 14.9484 10.3965 14.887C10.3965 14.7795 10.2737 14.6444 10.027 14.4827C9.78034 14.3057 9.57257 14.2177 9.4037 14.2177C9.3341 14.2177 9.2338 14.2791 9.10382 14.4019C8.981 14.5094 8.8848 14.5708 8.8152 14.5861H7.06096C6.79179 14.4398 6.47246 14.2862 6.10299 14.1245C5.93412 14.1245 5.84917 14.1788 5.84917 14.2862V19.3195C5.84917 19.4352 5.91467 19.4925 6.04567 19.4925C6.1992 19.4853 6.38445 19.427 6.59938 19.3195C6.79895 19.1967 6.91051 19.0882 6.93405 18.9961L6.93303 18.9951ZM6.93303 15.0119H8.73435C8.8807 15.0119 8.95337 15.0733 8.95337 15.1961V15.7968H6.93303V15.0119ZM6.93303 16.2236H8.95337V16.9851H6.93303V16.2236Z" fill="black"/>
<path d="M26.6841 17.9092C26.2071 17.855 25.634 17.7097 24.9636 17.4702C24.5092 17.3013 24.1551 17.1509 23.9012 17.0199H26.9143C27.0679 17.0045 27.1457 16.9544 27.1457 16.8694C27.1457 16.7466 26.988 16.5583 26.6728 16.3035C26.3801 16.0568 26.1836 15.934 26.0843 15.934C25.9687 15.934 25.8192 16.0302 25.634 16.2226C25.4416 16.4457 25.3065 16.5655 25.2297 16.5808H22.8859C22.9095 16.5194 22.9474 16.4611 23.0016 16.4078C23.1173 16.3157 23.1746 16.2267 23.1746 16.1428C23.1746 16.0271 22.9207 15.9586 22.4131 15.935C22.4663 15.9043 22.5554 15.8429 22.6782 15.7508C22.9402 15.5277 23.0702 15.324 23.0702 15.1388C23.0702 15.0467 22.8972 14.9423 22.5502 14.8276C22.6884 14.8041 22.8348 14.7928 22.9893 14.7928C24.0128 14.7161 24.7129 14.6731 25.0905 14.6659C25.0752 14.6813 25.0557 14.7059 25.0332 14.7407C25.0097 14.7754 24.9759 14.8256 24.9288 14.8911C24.8827 14.9566 24.8398 15.016 24.8019 15.0702C24.6402 15.2544 24.4672 15.4284 24.282 15.5901C24.0435 15.759 23.8818 15.8716 23.7968 15.9248C23.6658 15.9944 23.5932 16.0629 23.5778 16.1325C23.5778 16.2553 23.6433 16.3168 23.7743 16.3168C24.0588 16.2932 24.4897 16.1898 25.067 16.0056C25.6678 15.805 26.0055 15.6904 26.0833 15.6597C26.2296 15.6137 26.3023 15.5522 26.3023 15.4755C26.3023 15.3905 26.1795 15.2565 25.9328 15.0712C25.7486 14.9177 25.5869 14.7785 25.4477 14.6557H25.4938C25.6626 14.6322 25.7517 14.5513 25.7588 14.4132C25.7588 14.2903 25.6125 14.1358 25.3198 13.9516C25.1581 13.8441 25.0465 13.7745 24.9851 13.7438C25.1386 13.6589 25.2195 13.5903 25.2277 13.5361V13.3518H26.9594C27.159 13.3283 27.2787 13.2822 27.3176 13.2137C27.3176 13.0602 27.206 12.879 26.9829 12.6713C26.7598 12.4246 26.5715 12.3018 26.4169 12.3018C26.332 12.3018 26.2051 12.4021 26.0362 12.6017C25.8591 12.7859 25.7281 12.8944 25.6442 12.9251H25.2287V12.486C25.2051 12.3171 24.8367 12.1974 24.1203 12.1278C23.9667 12.1278 23.889 12.1892 23.889 12.312V12.924H20.6456V12.4737C20.622 12.3049 20.2566 12.1851 19.5494 12.1155C19.3877 12.1155 19.3069 12.1769 19.3069 12.2997V12.923H17.2292C17.1678 12.923 17.1371 12.9537 17.1371 13.0151C17.1442 13.1461 17.2067 13.2577 17.3213 13.3498H19.3069V13.9731C19.3069 14.0959 19.4338 14.1573 19.6876 14.1573C19.795 14.1573 19.9834 14.0959 20.2536 13.9731C20.5002 13.8574 20.6302 13.7612 20.6456 13.6845V13.3498H23.889V13.7889L23.6464 13.8349C23.0149 13.9731 22.0764 14.1471 20.8298 14.3548C20.4992 14.4091 20.1369 14.4684 19.7449 14.5339C19.3529 14.5994 19.0295 14.6537 18.7757 14.6956C18.5218 14.7376 18.3212 14.7703 18.1749 14.7939C18.0592 14.8246 18.0019 14.8901 18.0019 14.9904C18.0019 15.0907 18.0787 15.1408 18.2332 15.1408L18.6836 15.106C18.7992 15.2217 18.8913 15.4141 18.9609 15.6832C19.0223 15.9452 19.0612 16.1407 19.0766 16.2717C19.0766 16.3567 19.1185 16.4181 19.2035 16.4559C19.4348 16.4324 19.6886 16.3137 19.9649 16.0977C20.227 15.8746 20.3569 15.6751 20.3569 15.497C20.3569 15.3588 20.1379 15.2196 19.6988 15.0815C19.66 15.0579 19.618 15.0426 19.5719 15.0354C20.2413 14.9893 20.8769 14.9433 21.4766 14.8972C21.5616 15.0047 21.6342 15.1664 21.6956 15.3824L21.799 15.9135H21.7182C21.6025 15.9135 21.5452 15.9872 21.5452 16.1325V16.5828H17.4585C17.3817 16.5828 17.3428 16.6136 17.3428 16.675C17.3663 16.8131 17.4431 16.9288 17.5741 17.0209H20.576C20.3989 17.2133 20.1799 17.4129 19.9179 17.6216C19.4327 17.9758 18.9752 18.2715 18.5444 18.51C18.0828 18.7413 17.7133 18.902 17.4359 18.9951C17.1668 19.0719 17.0204 19.1456 16.9969 19.2141C16.9969 19.3451 17.0583 19.4106 17.1811 19.4106C18.2128 19.2264 19.3048 18.8334 20.4593 18.2337C20.8134 18.0341 21.1747 17.8263 21.5442 17.6104V19.2377C21.5442 19.4536 21.6639 19.5611 21.9024 19.5611C22.0866 19.5611 22.2985 19.5079 22.5369 19.3994C22.7519 19.2766 22.8604 19.165 22.8604 19.0647V17.0219H23.1838C23.3455 17.3914 23.6106 17.7608 23.98 18.1303C24.372 18.5069 24.7804 18.8037 25.2041 19.0186C25.5889 19.2192 25.8735 19.3298 26.0587 19.3533C26.1662 19.3533 26.2777 19.2377 26.3934 19.0074C26.5162 18.7689 26.7168 18.5765 26.9932 18.4302C27.2705 18.2685 27.4087 18.1456 27.4087 18.0607C27.4087 18.03 27.1661 17.9799 26.681 17.9103L26.6841 17.9092Z" fill="black"/>
<path d="M30.0257 10.4801C29.9152 10.3368 29.8446 10.1659 29.821 9.98676C29.5467 7.88461 28.6798 6.05162 27.3145 4.68737C25.9492 3.3221 24.1162 2.45524 22.015 2.18096C21.8359 2.15742 21.6649 2.0868 21.5217 1.97627C19.8401 0.682637 17.9313 0 16 0C14.0687 0 12.1599 0.682637 10.4794 1.97525C10.3361 2.08578 10.1652 2.15639 9.98606 2.17993C7.88384 2.45422 6.05079 3.32107 4.6865 4.68635C3.32118 6.05162 2.4543 7.88461 2.18 9.98574C2.15646 10.1648 2.08584 10.3358 1.97531 10.479C0.682658 12.1606 0 14.0693 0 15.9995C0 17.9297 0.682658 19.8394 1.97531 21.5199C2.08584 21.6632 2.15646 21.8341 2.18 22.0132C2.4543 24.1154 3.32118 25.9484 4.6865 27.3137C6.05181 28.6789 7.88486 29.5458 9.98606 29.8201C10.1652 29.8436 10.3361 29.9142 10.4794 30.0248C12.1599 31.3163 14.0687 32 16 32C17.9313 32 19.8401 31.3174 21.5206 30.0248C21.6639 29.9142 21.8348 29.8436 22.0139 29.8201C24.1162 29.5458 25.9492 28.6789 27.3135 27.3137C28.6778 25.9484 29.5457 24.1154 29.82 22.0132C29.8435 21.8341 29.9142 21.6632 30.0247 21.5199C31.3163 19.8394 32 17.9307 32 15.9995C32 14.0683 31.3173 12.1595 30.0247 10.479L30.0257 10.4801ZM29.7821 21.3327C29.6388 21.5189 29.5467 21.741 29.517 21.9733C29.2509 24.0079 28.4148 25.7785 27.0976 27.0957C25.7803 28.4128 24.0087 29.249 21.9751 29.5151C21.7417 29.5458 21.5206 29.6379 21.3344 29.7802C19.7081 31.0308 17.8637 31.6919 16.001 31.6919C14.1383 31.6919 12.294 31.0308 10.6677 29.7802C10.4814 29.6369 10.2593 29.5448 10.027 29.5151C7.99232 29.249 6.22069 28.4128 4.9045 27.0957C3.58831 25.7785 2.7511 24.0069 2.485 21.9733C2.4543 21.74 2.36321 21.5189 2.21992 21.3327C0.969232 19.7064 0.308066 17.8622 0.308066 15.9995C0.308066 14.1368 0.969232 12.2926 2.21992 10.6663C2.36321 10.4801 2.45532 10.258 2.485 10.0256C2.7511 7.99104 3.58728 6.22049 4.9045 4.90332C6.22171 3.58614 7.99335 2.74999 10.027 2.4839C10.2603 2.45319 10.4814 2.36211 10.6677 2.21882C12.294 0.968177 14.1383 0.307033 16.001 0.307033C17.8637 0.307033 19.7081 0.968177 21.3344 2.21882C21.5206 2.36211 21.7427 2.45422 21.9751 2.4839C24.0097 2.74999 25.7803 3.58614 27.0976 4.90332C28.4148 6.22049 29.2509 7.99104 29.517 10.0256C29.5478 10.259 29.6388 10.4801 29.7821 10.6663C31.0328 12.2926 31.694 14.1368 31.694 15.9995C31.694 17.8622 31.0328 19.7064 29.7821 21.3327Z" fill="black"/>
<path d="M29.3267 10.7983C29.2059 10.6407 29.1281 10.4524 29.1015 10.2559C28.8405 8.27556 28.0228 6.55004 26.7373 5.26459C25.4518 3.97915 23.7262 3.16142 21.7458 2.90044C21.5483 2.87485 21.361 2.79707 21.2023 2.67528C19.617 1.46045 17.8187 0.81773 16.001 0.81773C14.1833 0.81773 12.3841 1.46045 10.7997 2.67528C10.6421 2.79605 10.4538 2.87383 10.2563 2.90044C8.27583 3.16142 6.55024 3.97915 5.26476 5.26459C3.97927 6.55004 3.16152 8.27658 2.90053 10.2559C2.87494 10.4534 2.79716 10.6407 2.67537 10.7983C1.4605 12.3837 0.817756 14.1819 0.817756 16.0005C0.817756 17.8192 1.4605 19.6174 2.67537 21.2016C2.79614 21.3593 2.87392 21.5476 2.90053 21.7441C3.16152 23.7244 3.97927 25.45 5.26476 26.7354C6.55024 28.0208 8.27583 28.8386 10.2563 29.0996C10.4538 29.1251 10.6411 29.2029 10.7997 29.3247C12.3851 30.5395 14.1833 31.1823 16.001 31.1823C17.8187 31.1823 19.618 30.5395 21.2023 29.3247C21.3599 29.204 21.5483 29.1262 21.7458 29.0996C23.7262 28.8386 25.4518 28.0208 26.7373 26.7354C28.0228 25.45 28.8405 23.7234 29.1015 21.7441C29.1271 21.5465 29.2049 21.3593 29.3267 21.2016C30.5415 19.6163 31.1843 17.8181 31.1843 16.0005C31.1843 14.1829 30.5415 12.3837 29.3267 10.7983ZM29.2448 21.1392C29.1128 21.3112 29.0278 21.5158 28.9992 21.7308C28.7402 23.6886 27.9327 25.3937 26.6636 26.6638C25.3945 27.9328 23.6884 28.7403 21.7315 28.9993C21.5165 29.0279 21.3118 29.1129 21.1399 29.2449C19.573 30.4464 17.7962 31.0809 16 31.0809C14.2038 31.0809 12.427 30.4464 10.8601 29.2449C10.6882 29.1129 10.4835 29.0279 10.2685 28.9993C8.31062 28.7403 6.60551 27.9328 5.3364 26.6638C4.06729 25.3947 3.25977 23.6886 3.00083 21.7308C2.97217 21.5158 2.88722 21.3112 2.7552 21.1392C1.55364 19.5723 0.91908 17.7956 0.91908 16.0005C0.91908 14.2054 1.55364 12.4277 2.7552 10.8608C2.88722 10.6888 2.97217 10.4842 3.00083 10.2692C3.25977 8.31138 4.06729 6.60632 5.3364 5.33623C6.60551 4.06716 8.31165 3.25967 10.2685 3.00073C10.4835 2.97208 10.6882 2.88713 10.8601 2.75511C12.427 1.55359 14.2038 0.919051 16 0.919051C17.7962 0.919051 19.5719 1.55359 21.1399 2.75511C21.3118 2.88713 21.5165 2.97208 21.7315 3.00073C23.6894 3.25967 25.3945 4.06716 26.6636 5.33623C27.9327 6.6053 28.7402 8.31138 28.9992 10.2692C29.0278 10.4842 29.1128 10.6888 29.2448 10.8608C30.4464 12.4277 31.0809 14.2044 31.0809 16.0005C31.0809 17.7967 30.4464 19.5723 29.2448 21.1392Z" fill="black"/>
<path d="M8.56138 23.4522L7.9258 22.2108L7.62489 22.266L7.01593 23.4512C6.96987 23.5361 6.92381 23.5955 6.87878 23.6211C6.82658 23.6477 6.77439 23.66 6.71502 23.66V23.8073H7.34753V23.66C7.28203 23.66 7.2329 23.6538 7.19401 23.6405C7.15103 23.6241 7.13158 23.6047 7.13158 23.5812C7.13158 23.5709 7.13772 23.5484 7.1541 23.5095C7.1674 23.4706 7.18685 23.4307 7.21346 23.3887L7.2329 23.3529H8.10695L8.12333 23.3857C8.14584 23.4317 8.16631 23.4706 8.18269 23.5105C8.19599 23.5464 8.20521 23.5699 8.20521 23.5822C8.20521 23.6344 8.13663 23.661 8.00563 23.661V23.8084H8.8633V23.661C8.8111 23.661 8.75891 23.6446 8.70568 23.618C8.65349 23.5883 8.60436 23.5331 8.56138 23.4512V23.4522ZM7.30966 23.2025L7.66993 22.5045L8.02712 23.2025H7.30966Z" fill="black"/>
<path d="M10.4476 22.3346C10.376 22.2988 10.2972 22.2752 10.2122 22.266C10.1273 22.2527 10.0423 22.2466 9.95637 22.2466H9.04241V22.394H9.10177C9.15397 22.394 9.18979 22.4042 9.2164 22.4298C9.24301 22.4523 9.25529 22.4922 9.25529 22.5505V23.5034C9.25529 23.5586 9.24199 23.5986 9.2164 23.6241C9.18979 23.6467 9.15397 23.66 9.10177 23.66H9.04241V23.8073H9.82537V23.66H9.75986C9.70767 23.66 9.66775 23.6467 9.64524 23.6241C9.61862 23.5975 9.60941 23.5586 9.60941 23.5034V23.1953H9.95637C10.0413 23.1953 10.1263 23.1892 10.2122 23.1759C10.2982 23.1626 10.376 23.1431 10.4476 23.1104C10.5162 23.0745 10.5725 23.0254 10.6175 22.9661C10.6636 22.9006 10.6861 22.8187 10.6861 22.7204C10.6861 22.6222 10.6636 22.5372 10.6175 22.4779C10.5715 22.4155 10.5162 22.3663 10.4476 22.3336V22.3346ZM10.1856 22.9702C10.1068 23.0224 9.99526 23.049 9.85505 23.049H9.60941V22.5516C9.60941 22.4922 9.62272 22.4533 9.64831 22.4308C9.67492 22.4042 9.71381 22.395 9.76601 22.395H9.85402C9.99526 22.395 10.1058 22.4216 10.1846 22.4738C10.2634 22.526 10.3023 22.6079 10.3023 22.7225C10.3023 22.8371 10.2634 22.919 10.1846 22.9712L10.1856 22.9702Z" fill="black"/>
<path d="M12.3206 22.3346C12.249 22.2988 12.1702 22.2752 12.0852 22.266C12.0003 22.2527 11.9153 22.2466 11.8293 22.2466H10.9154V22.394H10.9747C11.0269 22.394 11.0628 22.4042 11.0894 22.4298C11.116 22.4523 11.1283 22.4922 11.1283 22.5505V23.5034C11.1283 23.5586 11.115 23.5986 11.0894 23.6241C11.0628 23.6467 11.0269 23.66 10.9747 23.66H10.9154V23.8073H11.6983V23.66H11.6328C11.5806 23.66 11.5407 23.6467 11.5182 23.6241C11.4916 23.5975 11.4824 23.5586 11.4824 23.5034V23.1953H11.8293C11.9143 23.1953 11.9992 23.1892 12.0852 23.1759C12.1712 23.1626 12.249 23.1431 12.3206 23.1104C12.3892 23.0745 12.4455 23.0254 12.4905 22.9661C12.5366 22.9006 12.5591 22.8187 12.5591 22.7204C12.5591 22.6222 12.5366 22.5372 12.4905 22.4779C12.4444 22.4155 12.3892 22.3663 12.3206 22.3336V22.3346ZM12.0586 22.9702C11.9798 23.0224 11.8682 23.049 11.728 23.049H11.4824V22.5516C11.4824 22.4922 11.4957 22.4533 11.5213 22.4308C11.5479 22.4042 11.5868 22.395 11.639 22.395H11.727C11.8682 22.395 11.9788 22.4216 12.0576 22.4738C12.1364 22.526 12.1753 22.6079 12.1753 22.7225C12.1753 22.8371 12.1364 22.919 12.0576 22.9712L12.0586 22.9702Z" fill="black"/>
<path d="M14.2693 23.442C14.2366 23.4809 14.2007 23.5208 14.1608 23.5535C14.1178 23.5863 14.0728 23.6129 14.0196 23.6323C13.9643 23.6518 13.8988 23.662 13.8261 23.662H13.5089C13.4567 23.662 13.4167 23.6487 13.3942 23.6262C13.3676 23.5996 13.3584 23.5607 13.3584 23.5054V23.0991H13.7023C13.7576 23.0991 13.7975 23.1124 13.8231 23.138C13.8456 23.1605 13.8589 23.1974 13.8589 23.2496V23.3181H14.0063V22.7317H13.8589V22.8003C13.8589 22.8494 13.8456 22.8883 13.8231 22.9149C13.7965 22.9374 13.7545 22.9507 13.6982 22.9507H13.3574V22.5516C13.3574 22.4922 13.3707 22.4533 13.4034 22.4308C13.4331 22.4042 13.4751 22.395 13.5283 22.395H13.8128C13.8845 22.395 13.95 22.4011 14.0063 22.4216C14.0585 22.438 14.1045 22.4605 14.1434 22.4902C14.1823 22.5198 14.2192 22.5557 14.2519 22.5946C14.2816 22.6334 14.3113 22.6734 14.3369 22.7194L14.4648 22.6539L14.3072 22.2476H12.7873V22.395H12.8497C12.9019 22.395 12.9378 22.4052 12.9644 22.4308C12.991 22.4533 13.0033 22.4932 13.0033 22.5516V23.5044C13.0033 23.5597 12.99 23.5996 12.9644 23.6252C12.9378 23.6477 12.9019 23.661 12.8497 23.661H12.7873V23.8084H14.3195L14.4801 23.3795L14.3522 23.314C14.3256 23.357 14.2969 23.399 14.2673 23.442H14.2693Z" fill="black"/>
<path d="M15.8516 22.44C15.871 22.4073 15.9069 22.394 15.9632 22.394C16.0154 22.394 16.0645 22.4042 16.1136 22.4298C16.1597 22.4492 16.2057 22.4789 16.2508 22.5147C16.2937 22.5475 16.3357 22.5833 16.3756 22.6263C16.4155 22.6693 16.4514 22.7112 16.4902 22.7511L16.5854 22.6989L16.4544 22.2466H14.8435L14.7125 22.6989L14.8076 22.7511C14.8404 22.7123 14.8793 22.6693 14.9223 22.6263C14.9612 22.5833 15.0011 22.5475 15.0471 22.5147C15.0932 22.4789 15.1393 22.4492 15.1843 22.4298C15.2303 22.4032 15.2825 22.394 15.3347 22.394C15.3869 22.394 15.4269 22.4073 15.4463 22.44C15.4627 22.4697 15.4729 22.5055 15.4729 22.5516V23.5044C15.4729 23.5597 15.4596 23.5996 15.4371 23.6252C15.4105 23.6477 15.3747 23.661 15.3225 23.661H15.2242V23.8084H16.0757V23.661H15.9775C15.9253 23.661 15.8854 23.6477 15.8629 23.6252C15.8362 23.5986 15.827 23.5597 15.827 23.5044V22.5516C15.827 22.5055 15.8332 22.4697 15.8536 22.44H15.8516Z" fill="black"/>
<path d="M16.8638 22.394H16.9621C17.0143 22.394 17.0501 22.4042 17.0767 22.4298C17.0992 22.4492 17.1125 22.4891 17.1125 22.5475V23.5075C17.1125 23.5627 17.0992 23.6026 17.0767 23.6282C17.0501 23.6477 17.0143 23.661 16.9621 23.661H16.8638V23.8084H17.7153V23.661H17.6171C17.5649 23.661 17.525 23.6477 17.5025 23.6282C17.4759 23.6016 17.4666 23.5627 17.4666 23.5075V22.5475C17.4666 22.4881 17.4769 22.4492 17.5025 22.4298C17.525 22.4032 17.5649 22.394 17.6171 22.394H17.7153V22.2466H16.8638V22.394Z" fill="black"/>
<path d="M19.3396 23.442C19.3068 23.4809 19.271 23.5208 19.2311 23.5535C19.1912 23.5863 19.1462 23.6129 19.094 23.6323C19.0387 23.6518 18.9732 23.662 18.9005 23.662H18.4645L19.4829 22.3786V22.2476H18.1759L18.0183 22.6539L18.1462 22.7194C18.1728 22.6734 18.2015 22.6345 18.2342 22.5946C18.267 22.5557 18.3028 22.5188 18.3489 22.4902C18.3919 22.4605 18.441 22.438 18.4963 22.4216C18.5515 22.4021 18.617 22.395 18.6897 22.395H19.0172L17.9927 23.6855V23.8104H19.3938L19.5545 23.3816L19.4235 23.3161C19.3969 23.3591 19.3683 23.401 19.3386 23.444L19.3396 23.442Z" fill="black"/>
<path d="M21.2648 23.442C21.232 23.4809 21.1962 23.5208 21.1563 23.5535C21.1133 23.5863 21.0683 23.6129 21.015 23.6323C20.9598 23.6518 20.8943 23.662 20.8216 23.662H20.5043C20.4521 23.662 20.4122 23.6487 20.3897 23.6262C20.3631 23.5996 20.3539 23.5607 20.3539 23.5054V23.0991H20.6978C20.753 23.0991 20.7929 23.1124 20.8185 23.138C20.841 23.1605 20.8543 23.1974 20.8543 23.2496V23.3181H21.0017V22.7317H20.8543V22.8003C20.8543 22.8494 20.841 22.8883 20.8185 22.9149C20.7919 22.9374 20.75 22.9507 20.6937 22.9507H20.3528V22.5516C20.3528 22.4922 20.3661 22.4533 20.3989 22.4308C20.4286 22.4042 20.4705 22.395 20.5238 22.395H20.8083C20.8799 22.395 20.9454 22.4011 21.0017 22.4216C21.0539 22.438 21.1 22.4605 21.1389 22.4902C21.1778 22.5198 21.2146 22.5557 21.2474 22.5946C21.277 22.6334 21.3067 22.6734 21.3323 22.7194L21.4602 22.6539L21.3026 22.2476H19.7828V22.395H19.8452C19.8974 22.395 19.9332 22.4052 19.9598 22.4308C19.9864 22.4533 19.9987 22.4932 19.9987 22.5516V23.5044C19.9987 23.5597 19.9854 23.5996 19.9598 23.6252C19.9332 23.6477 19.8974 23.661 19.8452 23.661H19.7828V23.8084H21.3149L21.4756 23.3795L21.3477 23.314C21.3211 23.357 21.2924 23.399 21.2627 23.442H21.2648Z" fill="black"/>
<path d="M23.1674 23.5136L22.8235 23.0879C22.889 23.0776 22.9515 23.0653 23.0098 23.0449C23.0692 23.0254 23.1244 22.9988 23.1735 22.9661C23.2196 22.9302 23.2554 22.8873 23.2851 22.8412C23.3117 22.789 23.324 22.7327 23.324 22.6672C23.324 22.572 23.2943 22.4973 23.2421 22.441C23.1868 22.3817 23.1173 22.3397 23.0395 22.3131C22.9576 22.2834 22.8726 22.264 22.7805 22.2578C22.6853 22.2476 22.6004 22.2445 22.5247 22.2445H21.7059V22.3919H21.7683C21.8205 22.3919 21.8563 22.4021 21.8829 22.4277C21.9055 22.4502 21.9188 22.4902 21.9188 22.5485V23.5013C21.9188 23.5566 21.9055 23.5965 21.8829 23.6221C21.8563 23.6446 21.8205 23.6579 21.7683 23.6579H21.7059V23.8053H22.4888V23.6579H22.4264C22.3742 23.6579 22.3343 23.6446 22.3087 23.6221C22.2821 23.5955 22.2729 23.5566 22.2729 23.5013V23.095H22.3773L22.9474 23.8053H23.5011V23.6548C23.4356 23.6548 23.3762 23.6446 23.3179 23.6252C23.2585 23.6026 23.2094 23.5627 23.1674 23.5105V23.5136ZM22.5584 22.9507H22.2739V22.5516C22.2739 22.4922 22.2872 22.4533 22.3169 22.4308C22.3435 22.4042 22.3824 22.395 22.4346 22.395H22.4735C22.539 22.395 22.5984 22.3981 22.6567 22.4052C22.7161 22.4114 22.7652 22.4277 22.8071 22.4482C22.846 22.4676 22.8788 22.4943 22.9054 22.5301C22.9279 22.5628 22.9412 22.6058 22.9412 22.6611C22.9412 22.7163 22.9279 22.7624 22.9085 22.8023C22.8859 22.8381 22.8563 22.8678 22.8235 22.8903C22.7877 22.9098 22.7478 22.9261 22.7027 22.9364C22.6536 22.9466 22.6045 22.9528 22.5584 22.9528V22.9507Z" fill="black"/>
<path d="M25.0936 23.0387C25.0506 23.0029 25.0056 22.9732 24.9523 22.9466C24.9001 22.92 24.8439 22.9006 24.7917 22.8842C24.7067 22.8545 24.6279 22.8289 24.5563 22.8085C24.4805 22.7818 24.4089 22.7593 24.3372 22.7368C24.2779 22.7174 24.2257 22.6908 24.1765 22.658C24.1274 22.6253 24.1049 22.5823 24.1049 22.5331C24.1049 22.4809 24.1346 22.441 24.197 22.4083C24.2564 22.3725 24.3311 22.3561 24.4201 22.3561C24.5511 22.3561 24.6688 22.3786 24.7702 22.4247C24.8684 22.4707 24.9534 22.5526 25.0189 22.6764L25.1468 22.6171L25.0219 22.1913L24.9042 22.2435L24.8326 22.2732L24.7865 22.2568C24.7599 22.2507 24.7313 22.2435 24.6944 22.2374C24.6555 22.2271 24.6125 22.221 24.5634 22.2179C24.5143 22.2118 24.4621 22.2077 24.4058 22.2077C24.3403 22.2077 24.2748 22.2138 24.2062 22.2302C24.1346 22.2435 24.0722 22.266 24.0128 22.3018C23.9534 22.3346 23.9043 22.3776 23.8685 22.4328C23.8296 22.4881 23.8091 22.5577 23.8091 22.6396C23.8091 22.702 23.8194 22.7573 23.8419 22.8064C23.8613 22.8525 23.8879 22.8913 23.9268 22.9272C23.9596 22.9599 24.0026 22.9896 24.0476 23.0152C24.0936 23.0346 24.1428 23.0541 24.195 23.0705C24.2768 23.093 24.3587 23.1196 24.4375 23.1462C24.5133 23.1728 24.5911 23.1953 24.6729 23.2219C24.7323 23.2383 24.7845 23.268 24.8367 23.3099C24.8889 23.3488 24.9155 23.398 24.9155 23.4604C24.9155 23.4993 24.9022 23.532 24.8827 23.5648C24.8633 23.5914 24.8367 23.617 24.8039 23.6364C24.7681 23.6528 24.7282 23.6661 24.6862 23.6753C24.6402 23.6855 24.5982 23.6917 24.5522 23.6917C24.3884 23.6917 24.2441 23.6528 24.1264 23.5771C24.0056 23.4983 23.9166 23.3969 23.8644 23.2792L23.7303 23.3478L23.9207 23.8493C23.934 23.836 23.9534 23.8268 23.98 23.8165C23.9995 23.8032 24.023 23.794 24.0425 23.7838L24.1141 23.751C24.1469 23.7674 24.1858 23.7838 24.2349 23.7971C24.2738 23.8073 24.327 23.8165 24.3853 23.8268C24.4447 23.8329 24.5133 23.8401 24.5951 23.8401C24.6637 23.8401 24.7364 23.8268 24.8111 23.8073C24.8868 23.7879 24.9554 23.7551 25.0209 23.7152C25.0833 23.6722 25.1355 23.62 25.1785 23.5617C25.2174 23.4993 25.2379 23.4276 25.2379 23.3458C25.2379 23.2741 25.2246 23.2148 25.199 23.1656C25.1724 23.1134 25.1366 23.0705 25.0946 23.0346L25.0936 23.0387Z" fill="black"/>
<path d="M9.22357 8.43829C9.31159 8.48741 9.39551 8.57338 9.45487 8.66652C9.47944 8.70541 9.504 8.72281 9.53573 8.72281C9.5869 8.72281 9.61658 8.68801 9.61658 8.63172C9.61658 8.51914 9.47432 8.40861 9.25529 8.39326H9.25018C9.21845 8.39326 9.20617 8.40349 9.20617 8.41577C9.20617 8.42294 9.21129 8.4301 9.22357 8.43829Z" fill="black"/>
<path d="M7.44476 9.72578C7.47649 9.72578 7.5205 9.70633 7.5901 9.66949C7.61978 9.65209 7.68835 9.62753 7.76921 9.60092C7.77944 9.76774 7.78149 9.90283 7.78865 10.0502C7.79889 10.2365 7.90942 10.3644 8.09774 10.3961C8.23489 10.4186 8.34338 10.4258 8.4928 10.4258C8.69443 10.4258 8.90834 10.4156 9.03832 10.3961C9.14681 10.3787 9.21743 10.345 9.21743 10.2754C9.21743 10.2314 9.18774 10.1914 9.13862 10.1669C9.08949 10.1403 9.00557 10.1157 8.97179 10.1157C8.94211 10.1157 8.92266 10.1208 8.87558 10.13C8.69648 10.1648 8.48052 10.1843 8.34235 10.1843C8.25843 10.1843 8.17553 10.1792 8.10695 10.1618C8.01382 10.1321 7.98925 10.0932 7.98618 9.93865C7.98414 9.75443 7.98414 9.61934 7.98414 9.52109C8.18576 9.4648 8.38739 9.41056 8.58799 9.36348C8.58799 9.42284 8.58594 9.47913 8.58082 9.54974C8.57571 9.62036 8.54603 9.64799 8.47029 9.64799C8.414 9.64799 8.29834 9.61115 8.17041 9.55486C8.16529 9.55281 8.16017 9.55281 8.15608 9.55281C8.14585 9.55281 8.14175 9.55793 8.14175 9.56714C8.14175 9.57226 8.1438 9.58147 8.15199 9.58966C8.24001 9.68791 8.3925 9.79639 8.49588 9.84961C8.5276 9.86701 8.55728 9.87418 8.59208 9.87418C8.72002 9.87418 8.82032 9.77592 8.82339 9.66335C8.82543 9.57021 8.82543 9.43205 8.8285 9.32459C9.00045 9.28979 9.16727 9.27034 9.35662 9.26113C9.43543 9.25397 9.47227 9.22634 9.47227 9.17516C9.47227 9.14344 9.45999 9.11887 9.41086 9.08715C9.31466 9.02779 9.27781 9.00834 9.24915 9.00834C9.22254 9.00834 9.20003 9.01346 9.15806 9.03086C9.1161 9.04826 9.06697 9.06258 9.02808 9.07487C8.96872 9.09226 8.90322 9.10455 8.82953 9.12399C8.83157 9.0063 8.83976 8.92033 8.84693 8.85585C8.85204 8.82412 8.86433 8.79956 8.87149 8.7924C8.88582 8.775 8.89094 8.76067 8.89094 8.74839C8.89094 8.6747 8.73127 8.56621 8.61869 8.56621C8.55728 8.56621 8.48155 8.58361 8.38329 8.62557C8.36589 8.63274 8.35668 8.64297 8.35668 8.65014C8.35668 8.66037 8.36896 8.66754 8.39148 8.67265C8.53886 8.69722 8.58082 8.72894 8.5931 8.82208C8.59822 8.8538 8.60027 8.89576 8.60027 8.95205C8.60027 9.00834 8.59822 9.08203 8.59822 9.18028C8.3966 9.23145 8.19088 9.2857 7.98925 9.34198C7.99437 9.12604 8.0087 9.07691 8.02405 9.0544C8.0435 9.02472 8.04862 9.00527 8.04862 8.97866C8.04862 8.94694 8.03122 8.9193 7.97493 8.87529C7.9084 8.82412 7.79786 8.78421 7.75181 8.78421C7.71292 8.78421 7.65355 8.80161 7.5727 8.84357C7.55837 8.85073 7.55018 8.86097 7.55018 8.86813C7.55018 8.87837 7.56246 8.88758 7.57986 8.89065C7.71496 8.91521 7.73953 8.94182 7.74976 9.03598C7.76409 9.20587 7.76716 9.32356 7.76921 9.39213C7.66072 9.42386 7.52869 9.45149 7.48673 9.45149C7.39564 9.45149 7.36186 9.42488 7.34651 9.34096C7.34446 9.31845 7.33218 9.30923 7.3199 9.30923C7.30967 9.30923 7.29738 9.31947 7.29329 9.34096C7.28613 9.37269 7.27384 9.42181 7.27384 9.4781C7.27384 9.62343 7.39666 9.72578 7.45091 9.72578H7.44476Z" fill="black"/>
<path d="M8.96975 8.61023C9.05367 8.66652 9.12941 8.75965 9.1683 8.85074C9.19082 8.90498 9.21538 8.92238 9.26451 8.92238C9.31363 8.92238 9.3556 8.87837 9.3556 8.81696C9.3556 8.71155 9.20822 8.58874 8.98919 8.55906H8.97486C8.95542 8.55906 8.94518 8.56622 8.94518 8.57646C8.94518 8.58669 8.95235 8.59897 8.96975 8.61125V8.61023Z" fill="black"/>
<path d="M10.375 10.5261C10.4712 10.5261 10.505 10.4872 10.5889 10.2979C10.7097 10.0226 10.9696 9.74727 11.115 9.74727C11.2275 9.74727 11.2695 9.84757 11.3186 10.1229C11.3677 10.3982 11.5008 10.5087 11.6748 10.5087C12.1732 10.5087 12.4291 10.0001 12.4291 9.55077C12.4291 9.53337 12.4291 9.51392 12.427 9.49141C12.425 9.4648 12.4148 9.45252 12.4045 9.45252C12.3943 9.45252 12.3851 9.4648 12.38 9.48731C12.3114 9.8752 12.0187 10.2365 11.7536 10.2365C11.6257 10.2365 11.5888 10.1771 11.5346 9.9274C11.4906 9.72373 11.3851 9.57635 11.1958 9.57635C11.0607 9.57635 10.9184 9.67461 10.7414 9.87315C10.943 9.50676 11.2275 9.07487 11.3944 8.86097C11.4189 8.83129 11.4435 8.80468 11.4629 8.78523C11.4854 8.76067 11.4998 8.74327 11.4998 8.71359C11.4998 8.68187 11.4752 8.63786 11.4363 8.60101C11.3432 8.51709 11.2224 8.4782 11.1242 8.4782C11.0484 8.4782 11.0136 8.48843 10.9625 8.52016C10.9502 8.52733 10.943 8.53756 10.943 8.54472C10.943 8.55496 10.9553 8.56417 10.9778 8.56724C11.0494 8.57747 11.1324 8.61637 11.1324 8.67777C11.1324 8.69005 11.1272 8.71973 11.1129 8.75351C11.0566 8.8886 11.0075 8.97969 10.9144 9.14651C10.7967 9.35734 10.6636 9.58147 10.5336 9.80254C10.4743 9.90079 10.421 9.9888 10.374 10.0533C10.3473 10.0922 10.3248 10.1198 10.2931 10.1618C10.2665 10.1966 10.2563 10.2334 10.2563 10.3143C10.2563 10.4268 10.3156 10.5282 10.377 10.5282L10.375 10.5261Z" fill="black"/>
<path d="M20.2403 9.34506C20.272 9.34506 20.3119 9.33483 20.3488 9.32254C20.3958 9.30822 20.4542 9.2857 20.5279 9.26626C20.6067 9.24374 20.7049 9.21201 20.8052 9.17824C20.884 9.3205 20.9598 9.45866 21.0857 9.62753C20.9065 9.5958 20.8277 9.59273 20.7121 9.59273C20.3928 9.59273 20.0468 9.76263 20.0468 10.0543C20.0468 10.2119 20.1553 10.3194 20.3191 10.391C20.5279 10.4821 20.8277 10.5138 21.1225 10.5138C21.3047 10.5138 21.3999 10.479 21.3999 10.3961C21.3999 10.3593 21.3876 10.3204 21.3405 10.2784C21.2965 10.2395 21.2494 10.2119 21.1982 10.2119C21.1737 10.2119 21.1389 10.217 21.0877 10.2242C21.0406 10.2314 21.0089 10.2344 20.9772 10.2344C20.6558 10.2344 20.4439 10.1955 20.3211 10.1413C20.23 10.1024 20.1881 10.0482 20.1881 9.98369C20.1881 9.8312 20.3825 9.70838 20.5882 9.70838C20.794 9.70838 21.0161 9.78412 21.1921 9.89772C21.2341 9.92433 21.2678 9.93456 21.3006 9.93456C21.3794 9.93456 21.4377 9.83427 21.4377 9.76467C21.4377 9.70838 21.4234 9.68382 21.3538 9.61525C21.2535 9.517 21.1307 9.3205 21.0222 9.1066C21.1962 9.05031 21.3906 8.97867 21.5401 8.91214C21.5841 8.8927 21.6035 8.87018 21.6035 8.82617C21.6035 8.74532 21.5227 8.68596 21.449 8.68596C21.4193 8.68596 21.3825 8.69108 21.3405 8.71257C21.2156 8.77603 21.0683 8.8405 20.928 8.88963C20.9137 8.8579 20.9014 8.83027 20.8891 8.79342C20.8625 8.71462 20.8523 8.67573 20.8523 8.63172C20.8523 8.6092 20.8595 8.58771 20.8595 8.5652C20.8595 8.51095 20.7858 8.45671 20.6384 8.45671C20.5667 8.45671 20.5033 8.47923 20.4071 8.53756C20.3948 8.54473 20.3897 8.55496 20.3897 8.56213C20.3897 8.57441 20.402 8.58464 20.4245 8.58464C20.5084 8.58464 20.5473 8.61637 20.5913 8.68801C20.6302 8.75658 20.6456 8.79138 20.709 8.96332C20.6056 8.99811 20.5268 9.02268 20.4705 9.03905C20.3375 9.07794 20.2689 9.09534 20.1901 9.09534C20.1307 9.09534 20.0775 9.05338 20.0304 8.94285C20.0253 8.92852 20.0161 8.92033 20.0059 8.92033C19.9936 8.92033 19.9834 8.93057 19.9834 8.95001C19.9834 9.0585 19.9956 9.12195 20.0274 9.17824C20.0939 9.29389 20.1645 9.34301 20.2362 9.34301L20.2403 9.34506Z" fill="black"/>
<path d="M22.5298 9.27342C22.5298 9.50472 22.5421 9.69815 22.5646 9.82403C22.6014 10.0277 22.7468 10.3746 23.019 10.3746C23.1193 10.3746 23.1561 10.3276 23.1592 10.2324C23.1613 10.1413 23.1694 10.0431 23.1858 9.93559C23.2053 9.82301 23.2646 9.68485 23.3721 9.4863C23.5 9.25091 23.6546 9.0544 23.7702 9.0544C23.9401 9.0544 24.1264 9.28058 24.1264 9.53133C24.1264 9.64391 24.0947 9.66131 23.9964 9.68382C23.9002 9.70634 23.7856 9.73295 23.6576 9.75956C23.6402 9.7616 23.631 9.77388 23.631 9.78412C23.631 9.79435 23.6433 9.80356 23.6658 9.80356C23.8255 9.80356 23.9166 9.80868 24.0118 9.82813C24.0957 9.84553 24.1643 9.87521 24.2134 9.92433C24.2482 9.95913 24.2676 9.96322 24.3045 9.96322C24.3976 9.96322 24.4785 9.84246 24.4785 9.72271C24.4785 9.64391 24.4519 9.54566 24.3557 9.38088C24.2134 9.14037 24.0015 8.9756 23.8081 8.9756C23.6147 8.9756 23.5011 9.12809 23.3148 9.40749C23.1377 9.67563 23.064 9.78617 23.0323 9.83529C22.9975 9.88646 22.9709 9.92126 22.9269 9.92126C22.888 9.92126 22.8511 9.88953 22.8184 9.80049C22.7867 9.71657 22.7468 9.46685 22.7468 9.26523C22.7468 9.09329 22.7345 9.02677 22.6925 8.94797C22.6628 8.89168 22.584 8.80571 22.4735 8.7269C22.4612 8.71974 22.451 8.71462 22.4438 8.71462C22.4336 8.71462 22.4264 8.72179 22.4264 8.73202C22.4264 8.73918 22.4285 8.74942 22.4336 8.75863C22.497 8.87121 22.5267 9.03087 22.5298 9.27444V9.27342Z" fill="black"/>
<path d="M16.5076 27.4293C16.4166 27.5204 16.3654 27.6043 16.2999 27.6647C16.2057 27.7517 16.0686 27.6145 16.1556 27.5204C16.216 27.4549 16.2999 27.4037 16.391 27.3126C16.6059 27.0977 16.6059 26.7487 16.391 26.5328C16.176 26.3178 15.827 26.3178 15.6111 26.5328C15.3961 26.7477 15.3961 27.0967 15.6111 27.3126C15.7022 27.4037 15.7861 27.4549 15.8465 27.5204C15.9335 27.6145 15.7963 27.7517 15.7022 27.6647C15.6367 27.6043 15.5855 27.5204 15.4944 27.4293C15.2795 27.2144 14.9305 27.2144 14.7145 27.4293C14.4996 27.6442 14.4996 27.9932 14.7145 28.2092C14.9294 28.4241 15.2784 28.4241 15.4944 28.2092C15.5855 28.1181 15.6367 28.0342 15.7022 27.9738C15.7963 27.8868 15.9335 28.0239 15.8465 28.1181C15.7861 28.1836 15.7022 28.2348 15.6111 28.3258C15.3961 28.5408 15.3961 28.8898 15.6111 29.1057C15.826 29.3206 16.175 29.3206 16.391 29.1057C16.6059 28.8908 16.6059 28.5418 16.391 28.3258C16.2999 28.2348 16.216 28.1836 16.1556 28.1181C16.0686 28.0239 16.2057 27.8868 16.2999 27.9738C16.3654 28.0342 16.4166 28.1181 16.5076 28.2092C16.7226 28.4241 17.0716 28.4241 17.2875 28.2092C17.5025 27.9942 17.5025 27.6453 17.2875 27.4293C17.0726 27.2144 16.7236 27.2144 16.5076 27.4293Z" fill="black"/>
<path d="M15.4934 4.57069C15.5845 4.47961 15.6356 4.39568 15.7011 4.3353C15.7953 4.24831 15.9325 4.38545 15.8455 4.47961C15.7851 4.54511 15.7011 4.59628 15.6101 4.68737C15.3951 4.90229 15.3951 5.25128 15.6101 5.46723C15.825 5.68215 16.174 5.68215 16.3899 5.46723C16.6049 5.25231 16.6049 4.90331 16.3899 4.68737C16.2989 4.59628 16.2149 4.54511 16.1545 4.47961C16.0675 4.38545 16.2047 4.24831 16.2989 4.3353C16.3644 4.39568 16.4155 4.47961 16.5066 4.57069C16.7216 4.78562 17.0706 4.78562 17.2865 4.57069C17.5014 4.35577 17.5014 4.00678 17.2865 3.79083C17.0716 3.57591 16.7226 3.57591 16.5066 3.79083C16.4155 3.88192 16.3644 3.96584 16.2989 4.02622C16.2047 4.11321 16.0675 3.97607 16.1545 3.88192C16.2149 3.81642 16.2989 3.76524 16.3899 3.67416C16.6049 3.45923 16.6049 3.11024 16.3899 2.89429C16.175 2.67937 15.826 2.67937 15.6101 2.89429C15.3951 3.10922 15.3951 3.45821 15.6101 3.67416C15.7011 3.76524 15.7851 3.81642 15.8455 3.88192C15.9325 3.97607 15.7953 4.11321 15.7011 4.02622C15.6356 3.96584 15.5845 3.88192 15.4934 3.79083C15.2784 3.57591 14.9294 3.57591 14.7135 3.79083C14.4986 4.00575 14.4986 4.35475 14.7135 4.57069C14.9284 4.78562 15.2774 4.78562 15.4934 4.57069Z" fill="black"/>
</svg>
