<svg width="32" height="32" viewBox="0 0 32 32" fill="none" xmlns="http://www.w3.org/2000/svg">
<path d="M7.65969 17.0547C7.45909 16.9083 7.27487 16.7896 7.10599 16.6965C7.14489 16.4652 7.17149 16.1888 7.18685 15.8654V15.1152C7.30966 15.0763 7.52869 14.9812 7.84494 14.8266C8.24512 14.6271 8.47233 14.5114 8.52658 14.4807C8.62688 14.4346 8.68419 14.3804 8.69955 14.319C8.69955 14.2576 8.59924 14.1501 8.39966 13.9956C8.16836 13.8032 8.00767 13.6609 7.91454 13.5688C7.82959 13.5688 7.77227 13.5995 7.74157 13.6609C7.71086 13.707 7.65253 13.8298 7.5686 14.0304C7.4683 14.1993 7.35675 14.3579 7.23393 14.5032C7.21858 14.5114 7.20322 14.5298 7.18787 14.5605V13.2679C7.20322 13.1062 7.24212 12.9834 7.30352 12.8985C7.38028 12.7756 7.42327 12.6753 7.43043 12.5986C7.43043 12.4758 7.25337 12.3673 6.89925 12.2752C6.55331 12.1677 6.2954 12.1135 6.1255 12.1135C6.03339 12.1135 5.98733 12.1595 5.98733 12.2516C5.98733 12.313 6.01087 12.4359 6.05693 12.6211C6.11117 12.8053 6.14188 12.9517 6.14904 13.0602V15.9923C6.11015 16.808 5.90239 17.4896 5.52575 18.0351C5.14092 18.5734 4.86356 18.8928 4.69468 18.9931C4.51762 19.1087 4.4296 19.2162 4.4296 19.3165C4.4296 19.4014 4.50636 19.4434 4.66091 19.4434C5.36915 19.0893 5.96584 18.6471 6.44994 18.116C6.627 17.9164 6.77746 17.6738 6.90027 17.3883L6.98113 17.6309C7.08143 17.9696 7.13465 18.2582 7.14284 18.4967C7.14284 18.6195 7.20015 18.6809 7.3158 18.6809C7.55427 18.6574 7.7733 18.5346 7.9739 18.3114C8.18166 18.0801 8.28503 17.8847 8.28503 17.723C8.27685 17.5766 8.06908 17.3535 7.66174 17.0536L7.65969 17.0547Z" fill="black"/>
<path d="M9.89906 17.331V16.939H10.7762V18.8088C10.7762 19.2244 11.0259 19.4321 11.5264 19.4321H14.6552C14.9632 19.4168 15.1167 19.2745 15.1167 19.0053C14.9479 18.4363 14.8128 17.8857 14.7125 17.3545C14.6889 17.2317 14.6429 17.1703 14.5743 17.1703C14.4975 17.1703 14.4474 17.2245 14.4238 17.332C14.3082 17.9553 14.1659 18.3135 13.9971 18.4056H12.2193C12.0422 18.4056 11.9542 18.3207 11.9542 18.1518V16.94H12.947V17.5633C12.9705 17.7475 13.0667 17.8519 13.2356 17.8755C13.4198 17.8519 13.5938 17.7833 13.7555 17.6677C13.9326 17.552 14.04 17.4251 14.0789 17.287V15.4857C14.0789 15.409 14.1137 15.3128 14.1833 15.1971C14.2376 15.0743 14.2642 14.9658 14.2642 14.8737C14.2335 14.7662 14.1096 14.67 13.8947 14.5851C13.6409 14.4694 13.3871 14.3354 13.1332 14.1808C13.0104 14.1808 12.949 14.2351 12.949 14.3425V16.5133H11.9562V13.8584L12.1875 13.8349C13.2724 13.7346 13.9766 13.666 14.3 13.6271C14.4228 13.6036 14.4924 13.5391 14.5078 13.4306C14.5078 13.3303 14.3727 13.1881 14.1035 13.0039C13.8415 12.8196 13.6685 12.7153 13.5836 12.6927C13.5222 12.6927 13.4485 12.7193 13.3645 12.7736C13.2489 12.8196 13.0411 12.8892 12.7413 12.9814C12.5642 13.0356 12.3022 13.0929 11.9562 13.1543C11.9562 13.0929 11.9951 12.9967 12.0719 12.8657C12.1487 12.7122 12.1875 12.6078 12.1875 12.5546C12.1875 12.3857 12.0494 12.2854 11.772 12.2547C11.4721 12.1933 11.1866 12.1237 10.9174 12.0469C10.8253 12.0469 10.7792 12.1165 10.7792 12.2547V13.3508C10.7404 13.3508 10.7056 13.3549 10.6749 13.3621C9.58997 13.5309 8.95848 13.6241 8.78142 13.6394C8.61153 13.6476 8.5276 13.7008 8.5276 13.8011C8.5276 13.9168 8.5972 13.9853 8.73537 14.0089C9.42826 13.9935 10.1089 13.97 10.7782 13.9393V16.5133H9.90111V15.5553C9.90111 15.4786 9.9359 15.3823 10.0055 15.2667C10.0516 15.1664 10.0751 15.0589 10.0751 14.9433C10.0444 14.8276 9.92465 14.7314 9.71688 14.6547C9.46306 14.539 9.20924 14.405 8.95542 14.2504C8.8326 14.2504 8.77118 14.3047 8.77118 14.4121V17.6094C8.79472 17.7936 8.89093 17.898 9.05981 17.9215C9.23687 17.898 9.40574 17.8294 9.56745 17.7138C9.75987 17.5981 9.87143 17.4712 9.90213 17.333L9.89906 17.331Z" fill="black"/>
<path d="M4.95874 16.5583C5.15115 16.5583 5.34766 16.4007 5.54724 16.0855C5.71611 15.7702 5.81232 15.4663 5.83586 15.1736C5.83586 14.9965 5.74375 14.7928 5.5585 14.5615C5.33538 14.3149 5.12352 14.1389 4.92394 14.0304C4.80829 14.0539 4.75097 14.1071 4.75097 14.1921C4.81238 14.3998 4.84308 14.6885 4.84308 15.0579C4.84308 15.3353 4.79703 15.5655 4.70492 15.7508C4.60462 15.9432 4.55447 16.0855 4.55447 16.1776C4.55447 16.4314 4.68956 16.5583 4.95874 16.5583Z" fill="black"/>
<path d="M20.2065 12.2864V12.6324H17.3551C17.2783 12.6324 17.2394 12.6631 17.2394 12.7245C17.263 12.8473 17.3356 12.9588 17.4584 13.0591H20.2055V13.4859C20.2055 13.5934 20.3129 13.6476 20.5289 13.6476C20.621 13.6476 20.7868 13.5975 21.0253 13.4972C21.2484 13.3815 21.364 13.2966 21.3712 13.2434V13.0591H23.4263V13.4747C23.4263 13.5821 23.5379 13.6364 23.761 13.6364C23.8378 13.6364 24.0036 13.5862 24.2574 13.4859C24.4723 13.3703 24.5849 13.2863 24.5921 13.2321V13.0591H27.1088C27.2316 13.0591 27.293 13.0018 27.293 12.8862C27.293 12.7941 27.2275 12.6395 27.0965 12.4246C26.9584 12.2168 26.8468 12.1135 26.7618 12.1135C26.6851 12.1135 26.5776 12.1984 26.4384 12.3673C26.3003 12.5443 26.2112 12.6324 26.1734 12.6324H24.5921V12.4133C24.5685 12.2598 24.2492 12.1554 23.6341 12.1012C23.4959 12.1012 23.4263 12.1554 23.4263 12.2629V12.6324H21.3712V12.4359C21.3477 12.2823 21.0283 12.178 20.4132 12.1237C20.2751 12.1237 20.2055 12.178 20.2055 12.2854L20.2065 12.2864Z" fill="black"/>
<path d="M26.9829 16.154C26.5827 16.0773 26.1058 15.8808 25.5511 15.5655L25.9779 15.4386L26.901 15.1275C27.0239 15.0815 27.0894 15.0313 27.0975 14.9771C27.0975 14.9157 26.9932 14.8082 26.7854 14.6537C26.5776 14.4848 26.4159 14.3343 26.3003 14.2033C26.2153 14.2033 26.1539 14.234 26.116 14.2955C26.1078 14.3108 26.07 14.3569 26.0004 14.4336C25.9308 14.5104 25.8694 14.5841 25.8162 14.6526C25.6698 14.799 25.4968 14.9412 25.2962 15.0794C25.2573 15.0948 25.2092 15.1214 25.1519 15.1603C25.0946 15.1992 25.0578 15.2217 25.0424 15.2299C24.7272 15.0221 24.5194 14.8532 24.4191 14.7222L24.4079 14.6987C24.7691 14.5759 25.0045 14.4981 25.112 14.4674C25.374 14.3906 25.6002 14.3446 25.7936 14.3292C25.9553 14.3139 26.0434 14.2371 26.0587 14.0979C26.0352 13.9905 25.8929 13.8175 25.6319 13.578C25.3781 13.3242 25.197 13.1932 25.0895 13.186C24.9585 13.2096 24.7548 13.3242 24.4775 13.532C24.4621 13.5401 24.4253 13.5627 24.3679 13.6016C24.3106 13.6404 24.2615 13.6671 24.2236 13.6824H18.1861C18.1247 13.6824 18.0858 13.709 18.0705 13.7633C18.094 13.8789 18.178 13.9976 18.3243 14.1215H23.7272C23.5584 14.2289 23.4499 14.2944 23.4038 14.318C23.3649 14.3333 23.2841 14.3753 23.1613 14.4449C23.0384 14.5145 22.9422 14.5677 22.8726 14.6066C22.8266 14.5912 22.7805 14.583 22.7345 14.583C22.6802 14.5759 22.4878 14.5441 22.1572 14.4909C22.0723 14.4909 22.0303 14.5216 22.0303 14.583V16.0609C22.015 16.1376 21.9566 16.1837 21.8574 16.1991L21.3262 16.2687C21.2648 16.2687 21.2341 16.3034 21.2341 16.373C21.2576 16.4119 21.3067 16.5266 21.3845 16.719C21.4306 16.896 21.4654 17.0536 21.4889 17.1918V17.2266H18.4062C18.3366 17.2266 18.3018 17.2573 18.3018 17.3187C18.3253 17.4651 18.3898 17.5766 18.4983 17.6534C18.4522 17.6534 18.4287 17.6769 18.4287 17.723C18.4522 17.8304 18.4635 17.9389 18.4635 18.0464C18.4246 18.1538 18.3284 18.3544 18.1749 18.6471C17.9825 18.9705 17.8402 19.1701 17.7481 19.2479C17.6631 19.3328 17.6212 19.4014 17.6212 19.4557C17.6212 19.6245 17.7716 19.7095 18.0715 19.7095C18.2793 19.602 18.5679 19.4209 18.9374 19.167C19.2608 18.9132 19.4225 18.7474 19.4225 18.6707C19.4225 18.5397 19.3109 18.3514 19.0878 18.1047C18.8801 17.8969 18.7183 17.7465 18.6027 17.6544H20.6578C20.6814 17.7926 20.6926 17.9737 20.6926 18.1968C20.6926 18.3892 20.6384 18.5734 20.5309 18.7505C20.4153 18.9122 20.3467 19.0279 20.3232 19.0964C20.3232 19.2806 20.4235 19.3738 20.623 19.3738C20.838 19.3738 21.0652 19.2428 21.3047 18.9818C21.5431 18.7351 21.6782 18.5049 21.7089 18.2889C21.7089 18.1886 21.6199 18.0576 21.4439 17.8969C21.3282 17.8048 21.2126 17.724 21.0979 17.6544H23.0262C23.018 17.6626 23.0149 17.681 23.0149 17.7117C23.0845 17.8581 23.1183 18.0505 23.1183 18.2889C23.1183 18.4424 23.0722 18.6001 22.9801 18.7618C22.888 18.9081 22.8337 19.0043 22.8184 19.0504C22.8184 19.2346 22.9187 19.3277 23.1183 19.3277C23.3178 19.3277 23.5297 19.2162 23.7528 18.9931C23.9759 18.7699 24.0957 18.5734 24.1336 18.381C24.1336 18.2736 24.0374 18.1344 23.8449 17.9655C23.6986 17.8499 23.5369 17.7465 23.3598 17.6534H24.8602C24.8674 17.6841 24.9329 17.7649 25.0567 17.8959C25.1724 17.9962 25.3494 18.2193 25.5879 18.5653C25.7875 18.8733 25.8991 19.1619 25.9226 19.4311C25.9226 19.5693 25.9953 19.6388 26.1416 19.6388C26.3954 19.6153 26.638 19.4771 26.8693 19.2233C27.1078 18.946 27.2275 18.7229 27.2275 18.554C27.2122 18.4076 26.9041 18.2081 26.3044 17.9532C25.9738 17.7997 25.7343 17.6994 25.5889 17.6534H25.7507C25.8735 17.6298 25.9472 17.5838 25.9697 17.5152C25.9697 17.4149 25.9001 17.2962 25.7619 17.157C25.6156 17.0035 25.4968 16.9257 25.4037 16.9257C25.3576 16.9257 25.2768 16.9718 25.1611 17.0639C25.0844 17.1253 24.9994 17.1795 24.9073 17.2256H22.2524C22.3681 17.1713 22.4837 17.1028 22.5983 17.0178C22.9289 16.764 23.106 16.502 23.1295 16.2328V15.1019C23.3301 15.0477 23.5563 14.9791 23.8112 14.8942C23.8265 14.887 23.8572 14.8768 23.9033 14.8655C23.9493 14.8543 23.98 14.844 23.9954 14.8369C24.1264 15.2288 24.3495 15.63 24.6647 16.0374C24.9882 16.4682 25.3382 16.8111 25.7148 17.0649C26.0608 17.3034 26.3115 17.4344 26.465 17.4569C26.55 17.4569 26.6462 17.3607 26.7537 17.1683C26.8458 16.9758 27.0187 16.8101 27.2736 16.6719C27.5049 16.5337 27.6195 16.4334 27.6195 16.372C27.6195 16.3106 27.4077 16.2379 26.985 16.153L26.9829 16.154Z" fill="black"/>
<path d="M18.879 16.0957C18.3867 16.5194 17.8443 16.8735 17.2517 17.158C17.1054 17.2041 17.0327 17.2931 17.0327 17.4231C17.0562 17.5152 17.1524 17.5613 17.3213 17.5613C18.2752 17.2614 19.1062 16.853 19.8145 16.3372C20.5227 15.8214 20.9536 15.5328 21.1071 15.4714C21.2453 15.41 21.361 15.3445 21.4531 15.2749C21.5227 15.2217 21.5605 15.148 21.5687 15.0559C21.5452 14.9556 21.4029 14.7867 21.1419 14.5482C20.8953 14.3016 20.7111 14.1716 20.5882 14.1563C20.4501 14.1563 20.3037 14.2678 20.1492 14.4909C20.0724 14.583 20.011 14.6526 19.9649 14.6987H17.6672C17.6212 14.6987 17.5823 14.7253 17.5516 14.7795C17.5751 14.8952 17.6591 15.0139 17.8054 15.1377H19.7562C19.5484 15.4458 19.2557 15.7651 18.879 16.0957Z" fill="black"/>
<path d="M30.0247 10.479C29.9142 10.3358 29.8435 10.1648 29.82 9.98574C29.5457 7.88358 28.6788 6.05162 27.3135 4.68635C25.9482 3.32107 24.1151 2.45422 22.0139 2.17993C21.8348 2.15639 21.6639 2.08578 21.5206 1.97525C19.8401 0.68366 17.9313 0 16 0C14.0687 0 12.1599 0.682637 10.4794 1.97525C10.3361 2.08578 10.1652 2.15639 9.98605 2.17993C7.88383 2.45422 6.05079 3.32107 4.68649 4.68635C3.32118 6.05162 2.45429 7.88461 2.18 9.98574C2.15646 10.1648 2.08584 10.3358 1.97531 10.479C0.683681 12.1595 0 14.0683 0 15.9995C0 17.9307 0.682657 19.8394 1.97531 21.5199C2.08584 21.6632 2.15646 21.8341 2.18 22.0132C2.45429 24.1154 3.32118 25.9484 4.68649 27.3137C6.05181 28.6789 7.88485 29.5458 9.98605 29.8201C10.1652 29.8436 10.3361 29.9142 10.4794 30.0248C12.1599 31.3163 14.0687 32 16 32C17.9313 32 19.8401 31.3174 21.5206 30.0248C21.6639 29.9142 21.8348 29.8436 22.0139 29.8201C24.1162 29.5458 25.9492 28.6789 27.3135 27.3137C28.6788 25.9484 29.5457 24.1154 29.82 22.0132C29.8435 21.8341 29.9142 21.6632 30.0247 21.5199C31.3163 19.8394 32 17.9307 32 15.9995C32 14.0683 31.3173 12.1595 30.0247 10.479ZM29.7821 21.3316C29.6388 21.5179 29.5467 21.74 29.517 21.9723C29.2509 24.0069 28.4148 25.7775 27.0975 27.0946C25.7803 28.4118 24.0097 29.248 21.9751 29.5141C21.7417 29.5448 21.5206 29.6369 21.3344 29.7791C19.708 31.0298 17.8637 31.6909 16.001 31.6909C14.1383 31.6909 12.294 31.0298 10.6677 29.7791C10.4814 29.6358 10.2593 29.5437 10.027 29.5141C7.99232 29.248 6.22069 28.4118 4.9045 27.0946C3.58831 25.7775 2.7511 24.0059 2.485 21.9723C2.45429 21.739 2.36321 21.5179 2.21992 21.3316C0.969232 19.7054 0.308061 17.8611 0.308061 15.9985C0.308061 14.1358 0.969232 12.2916 2.21992 10.6653C2.36321 10.479 2.45532 10.2569 2.485 10.0246C2.7511 7.99002 3.58728 6.21946 4.9045 4.90229C6.22171 3.58512 7.99334 2.74897 10.027 2.48287C10.2603 2.45217 10.4814 2.36108 10.6677 2.2178C12.294 0.967154 14.1383 0.30601 16.001 0.30601C17.8637 0.30601 19.708 0.967154 21.3344 2.2178C21.5206 2.36108 21.7427 2.45319 21.9751 2.48287C24.0097 2.74897 25.7803 3.58512 27.0975 4.90229C28.4148 6.21946 29.2509 7.99104 29.517 10.0246C29.5477 10.258 29.6399 10.479 29.7821 10.6653C31.0328 12.2916 31.694 14.1358 31.694 15.9985C31.694 17.8611 31.0328 19.7054 29.7821 21.3316Z" fill="black"/>
<path d="M29.3257 10.7973C29.2049 10.6397 29.1271 10.4514 29.1005 10.2549C28.8385 8.27454 28.0207 6.54901 26.7352 5.26357C25.4498 3.97812 23.7231 3.16039 21.7437 2.89941C21.5462 2.87383 21.3589 2.79604 21.2013 2.67426C19.6159 1.45943 17.8177 0.816706 16 0.816706C14.1823 0.816706 12.383 1.45943 10.7987 2.67426C10.6411 2.79502 10.4528 2.8728 10.2552 2.89941C8.2748 3.16039 6.54922 3.97812 5.26374 5.26357C3.97825 6.54901 3.16049 8.27556 2.8995 10.2549C2.87392 10.4524 2.79613 10.6397 2.67434 10.7973C1.45947 12.3826 0.816732 14.1808 0.816732 15.9995C0.816732 17.8181 1.45947 19.6163 2.67434 21.2006C2.79511 21.3582 2.87289 21.5465 2.8995 21.7431C3.16151 23.7234 3.97825 25.4489 5.26374 26.7344C6.54922 28.0198 8.27582 28.8376 10.2552 29.0985C10.4528 29.1241 10.6401 29.2019 10.7987 29.3237C12.3841 30.5385 14.1823 31.1812 16 31.1812C17.8177 31.1812 19.617 30.5385 21.2013 29.3237C21.3589 29.2029 21.5472 29.1251 21.7448 29.0985C23.7252 28.8376 25.4508 28.0198 26.7363 26.7344C28.0217 25.4489 28.8395 23.7234 29.1015 21.7431C29.1271 21.5455 29.2049 21.3582 29.3267 21.2006C30.5415 19.6153 31.1843 17.8171 31.1843 15.9995C31.1843 14.1819 30.5415 12.3826 29.3267 10.7973H29.3257ZM29.2448 21.1382C29.1128 21.3101 29.0278 21.5148 28.9992 21.7297C28.7402 23.6866 27.9327 25.3926 26.6636 26.6627C25.3945 27.9328 23.6883 28.7393 21.7304 28.9982C21.5155 29.0269 21.3108 29.1118 21.1389 29.2439C19.5719 30.4454 17.7952 31.0799 16 31.0799C14.2048 31.0799 12.4281 30.4454 10.8601 29.2439C10.6882 29.1118 10.4835 29.0269 10.2685 28.9982C8.31062 28.7393 6.60551 27.9318 5.33537 26.6627C4.06524 25.3937 3.25875 23.6876 2.99981 21.7297C2.97115 21.5148 2.8862 21.3101 2.75417 21.1382C1.55261 19.5713 0.918055 17.7946 0.918055 15.9995C0.918055 14.2044 1.55261 12.4266 2.75417 10.8598C2.8862 10.6878 2.97115 10.4831 2.99981 10.2682C3.25875 8.31036 4.06626 6.6053 5.33537 5.33521C6.60449 4.06614 8.31062 3.25864 10.2685 2.99971C10.4835 2.97105 10.6882 2.88611 10.8601 2.75408C12.427 1.55256 14.2038 0.918027 16 0.918027C17.7962 0.918027 19.573 1.55256 21.1399 2.75408C21.3118 2.88611 21.5165 2.97105 21.7315 2.99971C23.6894 3.25864 25.3945 4.06614 26.6646 5.33521C27.9337 6.60428 28.7413 8.31036 29.0002 10.2682C29.0288 10.4831 29.1138 10.6878 29.2458 10.8598C30.4474 12.4266 31.0819 14.2033 31.0819 15.9995C31.0819 17.7956 30.4474 19.5713 29.2458 21.1382H29.2448Z" fill="black"/>
<path d="M9.36481 23.0377C9.32182 23.0019 9.27679 22.9722 9.22357 22.9456C9.17137 22.919 9.11508 22.8995 9.06288 22.8832C8.97793 22.8535 8.89912 22.8279 8.82748 22.8074C8.75174 22.7808 8.6801 22.7583 8.60846 22.7358C8.54909 22.7163 8.4969 22.6897 8.44777 22.657C8.39864 22.6242 8.37612 22.5812 8.37612 22.5321C8.37612 22.4799 8.40581 22.44 8.46824 22.4073C8.5276 22.3714 8.60231 22.3551 8.69136 22.3551C8.82236 22.3551 8.94006 22.3776 9.04138 22.4236C9.13964 22.4697 9.22459 22.5516 9.29009 22.6754L9.41802 22.616L9.29316 22.1903L9.17546 22.2425L9.10381 22.2722L9.05776 22.2558C9.03115 22.2497 9.00249 22.2425 8.96565 22.2363C8.92676 22.2261 8.88377 22.22 8.83464 22.2169C8.78551 22.2108 8.73332 22.2067 8.67703 22.2067C8.61152 22.2067 8.54602 22.2128 8.47745 22.2292C8.4058 22.2425 8.34338 22.265 8.28402 22.3008C8.22465 22.3336 8.17552 22.3766 8.1397 22.4318C8.10081 22.4871 8.08034 22.5567 8.08034 22.6386C8.08034 22.701 8.09057 22.7563 8.11309 22.8054C8.13254 22.8514 8.15915 22.8903 8.19804 22.9261C8.23079 22.9589 8.27378 22.9886 8.31881 23.0142C8.36487 23.0336 8.41399 23.0531 8.46619 23.0694C8.54807 23.0919 8.62995 23.1186 8.70875 23.1452C8.78449 23.1718 8.86227 23.1943 8.94415 23.2209C9.00351 23.2373 9.05572 23.267 9.10791 23.3089C9.16011 23.3478 9.18672 23.3969 9.18672 23.4594C9.18672 23.4983 9.17342 23.531 9.15397 23.5638C9.13452 23.5904 9.10791 23.6159 9.07516 23.6354C9.03934 23.6518 8.99942 23.6651 8.95746 23.6743C8.9114 23.6845 8.86944 23.6907 8.82338 23.6907C8.65963 23.6907 8.51532 23.6518 8.39762 23.576C8.27685 23.4972 8.18781 23.3959 8.13561 23.2782L8.00154 23.3468L8.1919 23.8483C8.20521 23.835 8.22465 23.8258 8.25126 23.8155C8.27071 23.8022 8.29425 23.793 8.31369 23.7828L8.38534 23.75C8.41809 23.7664 8.45698 23.7828 8.50611 23.7961C8.545 23.8063 8.59822 23.8155 8.65656 23.8258C8.71592 23.8319 8.78449 23.8391 8.86637 23.8391C8.93494 23.8391 9.00761 23.8258 9.08233 23.8063C9.15806 23.7869 9.22663 23.7541 9.29214 23.7142C9.35457 23.6712 9.40676 23.619 9.44975 23.5607C9.48864 23.4983 9.50911 23.4266 9.50911 23.3447C9.50911 23.2731 9.49581 23.2137 9.47022 23.1646C9.44361 23.1124 9.40779 23.0694 9.36582 23.0336L9.36481 23.0377Z" fill="black"/>
<path d="M9.86835 22.2456L9.73735 22.6979L9.83253 22.7501C9.86528 22.7112 9.90418 22.6682 9.94716 22.6253C9.98606 22.5823 10.026 22.5465 10.072 22.5137C10.1181 22.4779 10.1641 22.4482 10.2092 22.4288C10.2552 22.4021 10.3074 22.3929 10.3596 22.3929C10.4118 22.3929 10.4517 22.4062 10.4712 22.439C10.4876 22.4687 10.4978 22.5045 10.4978 22.5505V23.5034C10.4978 23.5586 10.4845 23.5986 10.462 23.6241C10.4354 23.6467 10.3995 23.66 10.3473 23.66H10.2491V23.8073H11.1006V23.66H11.0024C10.9502 23.66 10.9102 23.6467 10.8877 23.6241C10.8611 23.5975 10.8519 23.5586 10.8519 23.5034V22.5505C10.8519 22.5045 10.8581 22.4687 10.8785 22.439C10.898 22.4062 10.9338 22.3929 10.9901 22.3929C11.0423 22.3929 11.0914 22.4032 11.1405 22.4288C11.1866 22.4482 11.2326 22.4779 11.2777 22.5137C11.3207 22.5465 11.3626 22.5823 11.4025 22.6253C11.4425 22.6682 11.4783 22.7102 11.5172 22.7501L11.6124 22.6979L11.4814 22.2456H9.86835Z" fill="black"/>
<path d="M13.3205 23.4409C13.2878 23.4798 13.252 23.5197 13.212 23.5525C13.1691 23.5852 13.124 23.6119 13.0708 23.6313C13.0155 23.6507 12.95 23.661 12.8774 23.661H12.5601C12.5079 23.661 12.468 23.6477 12.4455 23.6252C12.4189 23.5986 12.4096 23.5597 12.4096 23.5044V23.0981H12.7535C12.8088 23.0981 12.8487 23.1114 12.8743 23.137C12.8968 23.1595 12.9101 23.1963 12.9101 23.2485V23.3171H13.0575V22.7307H12.9101V22.7992C12.9101 22.8484 12.8968 22.8873 12.8743 22.9139C12.8477 22.9364 12.8057 22.9497 12.7494 22.9497H12.4086V22.5505C12.4086 22.4912 12.4219 22.4523 12.4547 22.4298C12.4844 22.4032 12.5263 22.394 12.5795 22.394H12.8641C12.9357 22.394 13.0012 22.4001 13.0575 22.4206C13.1097 22.4369 13.1558 22.4595 13.1947 22.4891C13.2335 22.5188 13.2704 22.5546 13.3031 22.5935C13.3328 22.6324 13.3625 22.6723 13.3881 22.7184L13.516 22.6529L13.3584 22.2466H11.8385V22.394H11.901C11.9532 22.394 11.989 22.4042 12.0156 22.4298C12.0422 22.4523 12.0545 22.4922 12.0545 22.5505V23.5034C12.0545 23.5586 12.0412 23.5986 12.0156 23.6241C11.989 23.6467 11.9532 23.66 11.901 23.66H11.8385V23.8073H13.3707L13.5314 23.3785L13.4034 23.313C13.3768 23.356 13.3482 23.398 13.3185 23.4409H13.3205Z" fill="black"/>
<path d="M14.1301 23.5822C14.1301 23.5719 14.1362 23.5494 14.1526 23.5105C14.1659 23.4716 14.1854 23.4317 14.212 23.3898L14.2314 23.354H15.1055L15.1219 23.3867C15.1444 23.4328 15.1648 23.4717 15.1812 23.5116C15.1945 23.5474 15.2037 23.5709 15.2037 23.5832C15.2037 23.6354 15.1352 23.662 15.0042 23.662V23.8094H15.8618V23.662C15.8096 23.662 15.7574 23.6456 15.7042 23.619C15.652 23.5893 15.6029 23.5341 15.5599 23.4522L14.9243 22.2108L14.6234 22.266L14.0145 23.4512C13.9684 23.5361 13.9223 23.5955 13.8773 23.6211C13.8251 23.6477 13.7729 23.66 13.7136 23.66V23.8073H14.3461V23.66C14.2806 23.66 14.2314 23.6538 14.1925 23.6405C14.1496 23.6241 14.1301 23.6047 14.1301 23.5812V23.5822ZM14.6695 22.5045L15.0267 23.2025H14.3092L14.6695 22.5045Z" fill="black"/>
<path d="M17.2312 23.3652L16.5895 22.2456H16.043V22.3929H16.1023C16.1545 22.3929 16.1904 22.4032 16.217 22.4288C16.2436 22.4482 16.2559 22.4881 16.2559 22.5465V23.5064C16.2559 23.5617 16.2426 23.6016 16.217 23.6272C16.1904 23.6467 16.1545 23.66 16.1023 23.66H16.043V23.8073H16.6223V23.66H16.5568C16.5046 23.66 16.4647 23.6467 16.4421 23.6272C16.4155 23.6006 16.4063 23.5617 16.4063 23.5064V22.6355L17.0777 23.8084H17.1862L17.746 22.6263V23.5075C17.746 23.5627 17.7327 23.6026 17.7102 23.6282C17.6836 23.6477 17.6478 23.661 17.5956 23.661H17.5301V23.8084H18.3161V23.661H18.2537C18.2015 23.661 18.1616 23.6477 18.136 23.6282C18.1094 23.6016 18.1002 23.5627 18.1002 23.5075V22.5475C18.1002 22.4881 18.1104 22.4492 18.136 22.4298C18.1626 22.4032 18.2015 22.394 18.2537 22.394H18.3161V22.2466H17.7594L17.2323 23.3662L17.2312 23.3652Z" fill="black"/>
<path d="M20.0253 23.4409C19.9926 23.4798 19.9568 23.5197 19.9168 23.5525C19.8739 23.5852 19.8288 23.6119 19.7756 23.6313C19.7203 23.6507 19.6548 23.661 19.5822 23.661H19.2649C19.2127 23.661 19.1728 23.6477 19.1503 23.6252C19.1236 23.5986 19.1144 23.5597 19.1144 23.5044V23.0981H19.4583C19.5136 23.0981 19.5535 23.1114 19.5791 23.137C19.6016 23.1595 19.6149 23.1963 19.6149 23.2485V23.3171H19.7623V22.7307H19.6149V22.7992C19.6149 22.8484 19.6016 22.8873 19.5791 22.9139C19.5525 22.9364 19.5105 22.9497 19.4542 22.9497H19.1134V22.5505C19.1134 22.4912 19.1267 22.4523 19.1595 22.4298C19.1891 22.4032 19.2311 22.394 19.2843 22.394H19.5689C19.6405 22.394 19.706 22.4001 19.7623 22.4206C19.8145 22.4369 19.8606 22.4595 19.8994 22.4891C19.9383 22.5188 19.9752 22.5546 20.0079 22.5935C20.0376 22.6324 20.0673 22.6723 20.0929 22.7184L20.2208 22.6529L20.0632 22.2466H18.5433V22.394H18.6058C18.658 22.394 18.6938 22.4042 18.7204 22.4298C18.747 22.4523 18.7593 22.4922 18.7593 22.5505V23.5034C18.7593 23.5586 18.746 23.5986 18.7204 23.6241C18.6938 23.6467 18.658 23.66 18.6058 23.66H18.5433V23.8073H20.0755L20.2362 23.3785L20.1082 23.313C20.0816 23.356 20.053 23.398 20.0233 23.4409H20.0253Z" fill="black"/>
<path d="M21.928 23.5126L21.5841 23.0868C21.6496 23.0766 21.712 23.0643 21.7704 23.0438C21.8297 23.0244 21.885 22.9978 21.9341 22.965C21.9802 22.9292 22.016 22.8862 22.0457 22.8402C22.0723 22.788 22.0846 22.7317 22.0846 22.6662C22.0846 22.571 22.0549 22.4963 22.0027 22.44C21.9474 22.3807 21.8778 22.3387 21.8 22.3121C21.7182 22.2824 21.6332 22.263 21.5411 22.2568C21.4459 22.2466 21.361 22.2435 21.2852 22.2435H20.4664V22.3909H20.5289C20.5811 22.3909 20.6169 22.4011 20.6435 22.4267C20.666 22.4492 20.6793 22.4891 20.6793 22.5475V23.5003C20.6793 23.5556 20.666 23.5955 20.6435 23.6211C20.6169 23.6436 20.5811 23.6569 20.5289 23.6569H20.4664V23.8043H21.2494V23.6569H21.187C21.1348 23.6569 21.0949 23.6436 21.0693 23.6211C21.0427 23.5945 21.0335 23.5556 21.0335 23.5003V23.094H21.1378L21.7079 23.8043H22.2616V23.6538C22.1961 23.6538 22.1368 23.6436 22.0784 23.6241C22.0191 23.6016 21.9699 23.5617 21.928 23.5095V23.5126ZM21.318 22.9497H21.0335V22.5505C21.0335 22.4912 21.0468 22.4523 21.0764 22.4298C21.1031 22.4032 21.1419 22.394 21.1941 22.394H21.233C21.2985 22.394 21.3579 22.397 21.4162 22.4042C21.4756 22.4103 21.5247 22.4267 21.5667 22.4472C21.6056 22.4666 21.6383 22.4932 21.6649 22.5291C21.6875 22.5618 21.7008 22.6048 21.7008 22.6601C21.7008 22.7153 21.6875 22.7614 21.668 22.8013C21.6455 22.8371 21.6158 22.8668 21.5831 22.8893C21.5472 22.9088 21.5073 22.9251 21.4623 22.9354C21.4132 22.9456 21.364 22.9517 21.318 22.9517V22.9497Z" fill="black"/>
<path d="M23.8531 23.0377C23.8101 23.0019 23.7651 22.9722 23.7119 22.9456C23.6597 22.919 23.6034 22.8995 23.5512 22.8832C23.4663 22.8535 23.3875 22.8279 23.3158 22.8074C23.2401 22.7808 23.1684 22.7583 23.0968 22.7358C23.0374 22.7163 22.9852 22.6897 22.9361 22.657C22.887 22.6242 22.8645 22.5812 22.8645 22.5321C22.8645 22.4799 22.8941 22.44 22.9566 22.4073C23.0159 22.3714 23.0906 22.3551 23.1797 22.3551C23.3107 22.3551 23.4284 22.3776 23.5297 22.4236C23.628 22.4697 23.7129 22.5516 23.7784 22.6754L23.9063 22.616L23.7815 22.1903L23.6638 22.2425L23.5921 22.2722L23.5461 22.2558C23.5195 22.2497 23.4908 22.2425 23.454 22.2363C23.4151 22.2261 23.3721 22.22 23.323 22.2169C23.2738 22.2108 23.2216 22.2067 23.1654 22.2067C23.0999 22.2067 23.0343 22.2128 22.9658 22.2292C22.8941 22.2425 22.8317 22.265 22.7723 22.3008C22.713 22.3336 22.6639 22.3766 22.628 22.4318C22.5891 22.4871 22.5687 22.5567 22.5687 22.6386C22.5687 22.701 22.5789 22.7563 22.6014 22.8054C22.6209 22.8514 22.6475 22.8903 22.6864 22.9261C22.7191 22.9589 22.7621 22.9886 22.8071 23.0142C22.8532 23.0336 22.9023 23.0531 22.9545 23.0694C23.0364 23.0919 23.1183 23.1186 23.1971 23.1452C23.2728 23.1718 23.3506 23.1943 23.4325 23.2209C23.4918 23.2373 23.544 23.267 23.5962 23.3089C23.6484 23.3478 23.675 23.3969 23.675 23.4594C23.675 23.4983 23.6617 23.531 23.6423 23.5638C23.6229 23.5904 23.5962 23.6159 23.5635 23.6354C23.5277 23.6518 23.4877 23.6651 23.4458 23.6743C23.3997 23.6845 23.3578 23.6907 23.3117 23.6907C23.148 23.6907 23.0036 23.6518 22.8859 23.576C22.7652 23.4972 22.6761 23.3959 22.6239 23.2782L22.4899 23.3468L22.6802 23.8483C22.6935 23.835 22.713 23.8258 22.7396 23.8155C22.759 23.8022 22.7826 23.793 22.802 23.7828L22.8737 23.75C22.9064 23.7664 22.9453 23.7828 22.9944 23.7961C23.0333 23.8063 23.0865 23.8155 23.1449 23.8258C23.2042 23.8319 23.2728 23.8391 23.3547 23.8391C23.4233 23.8391 23.4959 23.8258 23.5707 23.8063C23.6464 23.7869 23.715 23.7541 23.7805 23.7142C23.8429 23.6712 23.8951 23.619 23.9381 23.5607C23.977 23.4983 23.9974 23.4266 23.9974 23.3447C23.9974 23.2731 23.9841 23.2137 23.9585 23.1646C23.9319 23.1124 23.8961 23.0694 23.8542 23.0336L23.8531 23.0377Z" fill="black"/>
<path d="M8.39966 10.5108C8.6105 10.5108 8.93495 10.4934 9.1028 10.4514C9.22561 10.4217 9.27474 10.3828 9.27474 10.3235C9.27474 10.215 9.14476 10.127 8.99738 10.127C8.96769 10.127 8.94313 10.1321 8.87967 10.1515C8.68317 10.2109 8.43242 10.2549 8.19395 10.2549C8.02201 10.2549 7.78353 10.2129 7.78353 10.0533C7.78353 9.91819 7.95036 9.81789 8.06089 9.76877C8.20623 9.70532 8.52965 9.61116 8.90833 9.52314C9.04343 9.49142 9.10996 9.43001 9.10996 9.33381C9.10996 9.20076 8.98509 9.08818 8.86637 9.03905C8.85613 9.03394 8.85204 9.03394 8.84385 9.03394C8.82953 9.03394 8.81724 9.0411 8.81724 9.05645C8.81724 9.06362 8.81929 9.06873 8.82236 9.0759C8.83464 9.11479 8.83976 9.13014 8.83976 9.15163C8.83976 9.21509 8.80803 9.23556 8.74151 9.26421C8.66065 9.29901 8.53477 9.34813 8.41707 9.39214C8.39046 9.21304 8.38227 9.11172 8.38227 8.9623C8.38227 8.85176 8.3966 8.74123 8.42423 8.69211C8.45186 8.64298 8.45596 8.62354 8.45596 8.60102C8.45596 8.51301 8.23488 8.42192 7.98413 8.42192C7.95752 8.42192 7.94729 8.43215 7.94729 8.44136C7.94729 8.45364 7.95445 8.46593 7.97185 8.47616C8.08034 8.54473 8.1049 8.63377 8.10695 8.7484C8.11207 9.0237 8.12947 9.25909 8.16836 9.49039C7.7733 9.69201 7.59112 9.90591 7.59112 10.1024C7.59112 10.4361 8.03838 10.5097 8.39966 10.5097V10.5108Z" fill="black"/>
<path d="M10.1856 10.5251C10.2818 10.5251 10.3156 10.4862 10.3995 10.2969C10.5203 10.0216 10.7803 9.74625 10.9256 9.74625C11.0382 9.74625 11.0802 9.84654 11.1293 10.1219C11.1784 10.3972 11.3115 10.5077 11.4854 10.5077C11.9839 10.5077 12.2397 9.99904 12.2397 9.54974C12.2397 9.53235 12.2397 9.5129 12.2377 9.49039C12.2357 9.46378 12.2254 9.45149 12.2152 9.45149C12.2049 9.45149 12.1957 9.46378 12.1906 9.48629C12.122 9.87418 11.8293 10.2355 11.5643 10.2355C11.4363 10.2355 11.3995 10.1761 11.3452 9.92637C11.3012 9.72271 11.1958 9.57533 11.0065 9.57533C10.8714 9.57533 10.7291 9.67358 10.552 9.87213C10.7537 9.50574 11.0382 9.07384 11.205 8.85994C11.2296 8.83026 11.2541 8.80365 11.2736 8.78421C11.2961 8.75965 11.3104 8.74225 11.3104 8.71257C11.3104 8.68084 11.2859 8.63683 11.247 8.59999C11.1538 8.51607 11.0331 8.47718 10.9348 8.47718C10.8591 8.47718 10.8243 8.48741 10.7731 8.51914C10.7608 8.5263 10.7537 8.53654 10.7537 8.5437C10.7537 8.55393 10.7659 8.56315 10.7885 8.56622C10.8601 8.57645 10.943 8.61534 10.943 8.67675C10.943 8.68903 10.9379 8.71871 10.9236 8.75248C10.8673 8.88758 10.8181 8.97866 10.725 9.14549C10.6073 9.35631 10.4742 9.58045 10.3443 9.80151C10.2849 9.89976 10.2317 9.98778 10.1846 10.0523C10.158 10.0911 10.1355 10.1188 10.1038 10.1607C10.0771 10.1955 10.0669 10.2324 10.0669 10.3132C10.0669 10.4258 10.1263 10.5271 10.1877 10.5271L10.1856 10.5251Z" fill="black"/>
<path d="M20.2679 9.04213C20.2853 9.10558 20.317 9.13014 20.3661 9.13014C20.4255 9.13014 20.4624 9.08613 20.4624 9.02473C20.4624 8.90908 20.3273 8.7791 20.1164 8.73202C20.1096 8.73066 20.1048 8.72998 20.1021 8.72998C20.0878 8.72998 20.0796 8.74021 20.0796 8.75249C20.0796 8.76273 20.0847 8.77194 20.0939 8.7791C20.1696 8.84051 20.2413 8.94899 20.2679 9.04213Z" fill="black"/>
<path d="M19.1943 8.63683C19.3468 8.65935 19.401 8.69824 19.401 8.78933C19.401 8.8364 19.399 8.8753 19.3959 8.91419C19.3764 9.35631 19.357 9.8578 19.357 10.0983C19.357 10.3828 19.5095 10.5282 19.8431 10.5282C20.2607 10.5282 20.7622 10.2262 20.9608 9.81072C20.9659 9.80049 20.968 9.79332 20.968 9.78616C20.968 9.77183 20.9577 9.75955 20.9434 9.75955C20.9362 9.75955 20.9239 9.76671 20.9117 9.78207C20.7223 10.04 20.2556 10.2662 19.8698 10.2662C19.6927 10.2662 19.619 10.1945 19.619 10.0553C19.619 9.85678 19.6364 9.32049 19.6579 8.98173C19.6651 8.8886 19.6825 8.82208 19.7121 8.77295C19.7244 8.75351 19.7347 8.73099 19.7347 8.70643C19.7347 8.62762 19.5433 8.51504 19.4102 8.51504C19.3539 8.51504 19.2772 8.53756 19.182 8.58157C19.1646 8.58873 19.1574 8.60101 19.1574 8.61125C19.1574 8.62353 19.1697 8.63376 19.1943 8.63786V8.63683Z" fill="black"/>
<path d="M20.5749 8.89474C20.5944 8.94182 20.6189 8.96127 20.6609 8.96127C20.708 8.96127 20.7448 8.92238 20.7448 8.86097C20.7448 8.7576 20.6149 8.64195 20.3989 8.5959H20.3866C20.3723 8.5959 20.3621 8.60306 20.3621 8.61534C20.3621 8.62251 20.3672 8.63274 20.3764 8.63991C20.4624 8.70643 20.536 8.80161 20.5749 8.89577V8.89474Z" fill="black"/>
<path d="M22.103 10.5056C22.2923 10.5056 22.3875 10.4094 22.3998 10.2651C22.4786 10.3122 22.582 10.3951 22.6505 10.4637C22.6997 10.5128 22.7242 10.5251 22.7611 10.5251C22.8204 10.5251 22.8573 10.4811 22.8573 10.4094C22.8573 10.2969 22.759 10.2027 22.4029 10.0512C22.4008 9.97243 22.4008 9.93866 22.3977 9.89363C22.3957 9.83018 22.3957 9.78105 22.3957 9.72885C22.3957 9.67257 22.3957 9.62856 22.3977 9.56715C22.4714 9.61423 22.5226 9.62344 22.5922 9.62344C22.6618 9.62344 22.7642 9.60604 22.8358 9.5866C22.8921 9.5692 22.9095 9.54975 22.9095 9.50574C22.9095 9.46378 22.887 9.43717 22.8307 9.40238C22.801 9.38498 22.7713 9.3727 22.7498 9.3727C22.7375 9.3727 22.7201 9.37986 22.6884 9.39521C22.6127 9.42694 22.5339 9.44638 22.4694 9.44638C22.4325 9.44638 22.4203 9.44638 22.3977 9.44434V9.36349C22.3977 9.30208 22.4029 9.24784 22.408 9.22839C22.4151 9.20383 22.4203 9.18643 22.4203 9.1721C22.4203 9.10558 22.2995 9.03496 22.1818 9.03496C22.1398 9.03496 22.1009 9.04724 22.0487 9.0718C22.0344 9.07897 22.0242 9.0892 22.0242 9.09841C22.0242 9.10762 22.0365 9.11581 22.061 9.12093C22.1542 9.13833 22.1838 9.1721 22.189 9.29799C22.1941 9.38907 22.1961 9.48732 22.1961 9.59069C22.1961 9.79231 22.1961 9.88339 22.191 9.98574C22.1245 9.96834 22.0631 9.96118 22.017 9.96118C21.8307 9.96118 21.71 10.0615 21.71 10.1966C21.71 10.3613 21.8768 10.5056 22.103 10.5056ZM21.9771 10.1034C22.0508 10.1034 22.1224 10.1208 22.191 10.1577V10.1966C22.191 10.2877 22.1368 10.3317 22.0559 10.3317C21.9403 10.3317 21.842 10.26 21.842 10.1894C21.842 10.1382 21.884 10.1034 21.9771 10.1034Z" fill="black"/>
<path d="M24.0107 9.70736C24.0701 9.70736 24.0988 9.66847 24.1264 9.61423C24.2124 9.44024 24.4355 9.33687 24.6156 9.33687C24.7732 9.33687 24.9032 9.44229 24.9032 9.65107C24.9032 9.82096 24.8275 10.0052 24.719 10.1474C24.5716 10.3388 24.3014 10.4893 23.9504 10.5456C23.936 10.5476 23.9278 10.5578 23.9278 10.5681C23.9278 10.5804 23.9381 10.5906 23.9575 10.5906C24.3751 10.5906 24.6678 10.5026 24.9104 10.3102C25.0946 10.1648 25.2246 9.94889 25.2246 9.6961C25.2246 9.36655 25.0056 9.18745 24.6842 9.18745C24.502 9.18745 24.3475 9.23453 24.1806 9.31743C24.1684 9.32459 24.1561 9.32766 24.1458 9.32766C24.1264 9.32766 24.1192 9.3031 24.1192 9.27137C24.1192 9.1854 24.1561 9.10967 24.2226 9.04007C24.3577 8.90498 24.5911 8.82617 24.7681 8.81901C24.8684 8.81389 24.9227 8.80673 24.9544 8.77705C24.9841 8.75044 24.9933 8.72997 24.9933 8.6962C24.9933 8.64912 24.9616 8.59078 24.9145 8.5437C24.8705 8.50174 24.8019 8.47718 24.674 8.47718H24.5982C24.4826 8.47718 24.3915 8.45978 24.3301 8.42806C24.3055 8.41577 24.2635 8.37688 24.2564 8.34209C24.2543 8.32469 24.2461 8.31548 24.239 8.31548C24.2287 8.31548 24.2195 8.32264 24.2093 8.34004C24.1919 8.36665 24.1796 8.3994 24.1796 8.41884C24.1796 8.49253 24.2093 8.55189 24.2431 8.59283C24.2922 8.65219 24.3485 8.68392 24.5276 8.74225C24.2594 8.85483 24.0343 9.0544 23.9084 9.27547C23.8644 9.3512 23.8398 9.42079 23.8398 9.50165C23.8398 9.60706 23.9237 9.70838 24.0097 9.70838L24.0107 9.70736Z" fill="black"/>
<path d="M16.5066 27.4283C16.4155 27.5194 16.3644 27.6033 16.2989 27.6637C16.2047 27.7507 16.0675 27.6135 16.1545 27.5194C16.2149 27.4539 16.2988 27.4027 16.3899 27.3116C16.6049 27.0967 16.6049 26.7477 16.3899 26.5317C16.175 26.3168 15.826 26.3168 15.6101 26.5317C15.3951 26.7467 15.3951 27.0957 15.6101 27.3116C15.7011 27.4027 15.7851 27.4539 15.8454 27.5194C15.9324 27.6135 15.7953 27.7507 15.7011 27.6637C15.6356 27.6033 15.5845 27.5194 15.4934 27.4283C15.2784 27.2134 14.9294 27.2134 14.7135 27.4283C14.4986 27.6432 14.4986 27.9922 14.7135 28.2081C14.9284 28.4231 15.2774 28.4231 15.4934 28.2081C15.5845 28.1171 15.6356 28.0331 15.7011 27.9728C15.7953 27.8858 15.9324 28.0229 15.8454 28.1171C15.7851 28.1826 15.7011 28.2337 15.6101 28.3248C15.3951 28.5397 15.3951 28.8887 15.6101 29.1047C15.825 29.3196 16.174 29.3196 16.3899 29.1047C16.6049 28.8898 16.6049 28.5408 16.3899 28.3248C16.2988 28.2337 16.2149 28.1826 16.1545 28.1171C16.0675 28.0229 16.2047 27.8858 16.2989 27.9728C16.3644 28.0331 16.4155 28.1171 16.5066 28.2081C16.7215 28.4231 17.0706 28.4231 17.2865 28.2081C17.5014 27.9932 17.5014 27.6442 17.2865 27.4283C17.0716 27.2134 16.7226 27.2134 16.5066 27.4283Z" fill="black"/>
<path d="M15.4934 4.56967C15.5845 4.47858 15.6356 4.39466 15.7011 4.33428C15.7953 4.24728 15.9324 4.38443 15.8454 4.47858C15.7851 4.54408 15.7011 4.59525 15.6101 4.68634C15.3951 4.90126 15.3951 5.25026 15.6101 5.4662C15.825 5.68113 16.174 5.68113 16.3899 5.4662C16.6049 5.25128 16.6049 4.90229 16.3899 4.68634C16.2988 4.59525 16.2149 4.54408 16.1545 4.47858C16.0675 4.38443 16.2047 4.24728 16.2989 4.33428C16.3644 4.39466 16.4155 4.47858 16.5066 4.56967C16.7215 4.78459 17.0706 4.78459 17.2865 4.56967C17.5014 4.35475 17.5014 4.00575 17.2865 3.7898C17.0716 3.57488 16.7226 3.57488 16.5066 3.7898C16.4155 3.88089 16.3644 3.96481 16.2989 4.0252C16.2047 4.11219 16.0675 3.97505 16.1545 3.88089C16.2149 3.81539 16.2988 3.76422 16.3899 3.67313C16.6049 3.45821 16.6049 3.10922 16.3899 2.89327C16.175 2.67835 15.826 2.67835 15.6101 2.89327C15.3951 3.10819 15.3951 3.45719 15.6101 3.67313C15.7011 3.76422 15.7851 3.81539 15.8454 3.88089C15.9324 3.97505 15.7953 4.11219 15.7011 4.0252C15.6356 3.96481 15.5845 3.88089 15.4934 3.7898C15.2784 3.57488 14.9294 3.57488 14.7135 3.7898C14.4986 4.00473 14.4986 4.35372 14.7135 4.56967C14.9284 4.78459 15.2774 4.78459 15.4934 4.56967Z" fill="black"/>
</svg>
