<svg width="312" height="193" viewBox="0 0 312 193" fill="none" xmlns="http://www.w3.org/2000/svg">
<g clip-path="url(#clip0_780_6)">
<path d="M68.155 110.35C58.985 116.5 44.955 119.2 33.735 119.2C24.885 119.2 20.895 118.34 20.675 113.27C20.675 110.89 20.575 103.99 20.575 99.46L48.625 98.92L66.315 99.46C66.645 92.66 67.075 72.91 67.075 63.31V60.83L20.575 62.66L0.175018 61.15C0.285018 70.86 0.505018 103.88 0.935018 117.37C1.47502 132.26 10.215 136.25 34.705 136.25C62.115 136.25 69.235 130.21 69.235 117.58C69.235 114.78 68.805 112.3 68.155 110.35ZM39.125 69.68L51.425 70L51.325 93.09L38.485 93.31L39.125 69.68ZM18.415 69.03L30.495 69.46V93.41L18.415 93.63V69.03Z" fill="#4DE89B"/>
<path d="M88.775 84.03L78.745 83.06C78.745 83.06 79.285 106.58 79.385 111.16L86.835 110.4C87.035 109.76 87.055 108.31 86.945 104.75L96.865 104.43C96.865 106.15 96.765 107.99 96.765 109.71L94.285 110.9C95.575 115.54 99.565 117.59 103.455 117.59C108.095 117.59 112.735 114.57 112.835 109.17L113.265 83.17L88.775 84.03ZM96.975 101.08L86.835 101.41L86.615 97.09L96.975 97.41V101.08ZM97.085 93.74L86.515 93.42C86.405 90.62 86.295 88.67 86.295 88.67L97.085 87.7V93.74Z" fill="#4DE89B"/>
<path d="M100.425 127.18L108.405 119.63C108.405 119.63 111.855 122.33 113.475 124.81C114.335 126.1 114.765 127.62 114.765 129.23C114.765 132.14 113.255 135.16 110.445 137L100.415 127.18H100.425Z" fill="#4DE89B"/>
<path d="M149.035 63.63C144.475 64.68 139.715 65.72 135.345 66.58L135.245 70C135.245 71.62 136.005 72.57 137.905 72.57C140.755 72.57 144.365 71.81 151.215 68.1C151.505 69.15 151.595 70.19 151.595 71.24C151.595 74.38 150.455 77.42 148.075 78.75C144.655 80.75 138.185 81.79 132.585 81.79C125.075 81.79 118.235 80.36 118.235 70.67V70.29L118.525 55.94L135.725 56.13L135.535 62.21C139.245 61.35 143.235 60.31 146.945 59.26L149.035 63.63Z" fill="#4DE89B"/>
<path d="M134.305 127.18L143.695 115.85C143.695 115.85 150.275 119.95 152.215 122.76C153.505 124.59 154.045 126.86 154.045 129.23C154.045 132.68 152.755 136.24 150.485 138.4L134.305 127.18Z" fill="#4DE89B"/>
<path d="M213.925 68.38C213.525 71.06 213.125 73.65 212.725 75.6L203.365 75.32L203.765 68.75L190.015 69.12C190.015 71.43 190.115 73.47 190.115 74.86L175.175 76.16L174.675 71.72L158.435 72.18L159.235 61.35C163.125 61.16 168.105 61.07 173.485 60.89L172.685 53.02L189.725 52.19C189.925 53.86 189.925 57 190.025 60.43L204.175 60.15L204.675 52.19L215.935 53.02C215.635 54.87 215.335 57.28 215.035 59.96C220.215 59.87 225.095 59.77 229.085 59.77L229.985 67.91L213.945 68.37L213.925 68.38Z" fill="#4DE89B"/>
<path d="M191.165 135.67V113.31L167.825 114.18L168.565 107.02C177.215 106.4 181.785 106.15 188.825 106.03L188.945 96.02L202.535 96.27V103.06C213.775 102.69 219.825 102.57 224.395 102.57L225.875 112.2L204.135 112.94L203.645 135.05L191.165 135.67Z" fill="#4DE89B"/>
<path d="M311.585 112.03C302.615 112.13 290.695 112.43 282.565 112.91V107.28L307.145 107.63V100.91C307.145 93.46 307.035 84.77 306.795 79.89L282.895 82.11L270.895 81.05C270.675 93.76 270.455 106.9 270.455 121.4C270.455 125.79 270.555 130.06 270.555 133.99L294.215 133.92L311.585 135.58C311.705 131.79 311.825 127.98 311.825 124.3C311.825 119.89 311.705 115.71 311.585 112.04V112.03ZM280.535 87.51L290.685 87.57V100.6L280.425 101.4L280.525 87.51H280.535ZM293.645 128.09L282.555 127.66V117.59L293.645 117.45V128.09Z" fill="#4DE89B"/>
<path d="M68.765 16.19C67.755 19.1 65.585 21.44 64.135 22.06C62.815 22.68 61.485 22.9 60.255 22.9C57.255 22.9 54.745 21.4 53.595 19.9C56.945 18.14 61.135 12.97 61.935 11.34L68.775 16.19H68.765ZM74.725 14.95L79.405 9.66002C84.915 11.64 86.945 14.73 86.945 17.47C86.945 19.72 85.575 21.75 83.635 22.76L74.725 14.95ZM79.885 5.47002L81.825 3.09002C83.945 3.49002 84.735 4.59002 84.735 5.65002C84.735 6.80002 83.765 7.90002 82.485 7.90002C82.225 7.90002 81.865 7.81002 81.555 7.68002L79.875 5.47002H79.885ZM84.865 5.47002L86.805 3.09002C88.925 3.49002 89.715 4.59002 89.715 5.65002C89.715 6.80002 88.745 7.90002 87.465 7.90002C87.205 7.90002 86.845 7.81002 86.535 7.68002L84.855 5.47002H84.865Z" fill="#4DE89B"/>
<path d="M147.635 9.40001C141.285 8.83002 136.695 8.65001 136.695 8.65001C136.695 8.65001 136.695 7.06002 136.875 4.64002C143.495 4.68002 149.275 4.60002 156.815 5.70002C155.625 18.62 145.525 26.12 139.435 26.12C137.275 26.12 135.025 25.15 133.875 23.74C137.715 22.73 146.885 16.95 147.635 9.40001ZM155.975 18.84C157.295 19.19 162.195 20.43 162.195 24.44C162.195 26.29 160.965 28.06 159.285 29.25C154.825 25.63 152.005 23.43 152.005 23.43L155.975 18.84Z" fill="#4DE89B"/>
<path d="M221.555 24.48C221.115 23.91 220.495 23.33 219.795 22.89C219.535 28.01 217.105 30.12 212.115 30.12C207.485 30.12 204.575 27.43 204.575 24.43C204.575 21.65 207.045 18.39 212.295 18.12C212.255 17.19 212.165 16.27 212.075 15.21L202.945 15.3L203.435 11.29C205.115 11.38 208.115 11.51 211.465 11.73C210.935 7.72001 210.365 3.04002 210.145 0.350015L217.955 1.52588e-05C218.355 2.65002 218.745 7.54002 218.965 12.22C220.995 12.35 222.845 12.48 224.305 12.62L224.485 15.05L219.015 15.14C219.105 16.51 219.145 17.83 219.195 19.24C221.095 19.95 222.725 20.96 223.655 22.24L221.585 24.49L221.555 24.48ZM203.025 7.59002L204.655 3.13002C207.345 3.13002 209.725 4.98001 209.725 7.41002C209.725 8.07001 209.545 8.78001 209.155 9.53001L203.025 7.59002ZM212.285 20.87C210.165 21.05 208.885 22.06 208.885 23.38C208.885 24.17 209.725 24.97 210.565 24.97C212.065 24.97 212.285 22.63 212.285 21.31V20.87Z" fill="#4DE89B"/>
<path d="M141.025 191.15C138.195 186.81 135.755 182.65 133.625 178.78C132.465 179.45 131.545 179.97 130.915 180.38L128.665 179.02C128.665 179.02 130.115 178.04 132.035 176.71C131.055 175.02 130.265 173.32 129.375 171.72L134.595 168.57L137.535 173.1C140.195 171.59 142.585 170.93 144.695 170.87C149.465 170.73 152.545 173.69 152.635 176.73C152.735 180.17 149.005 182 147.725 182.04C146.885 182.06 145.655 181.76 144.925 180.45C146.135 179.68 146.645 178.78 146.615 177.89C146.565 176.27 144.705 174.7 142.095 174.78C141.115 174.81 140.035 175.09 138.925 175.66C143.505 182.51 145.345 186.38 146.025 187.89L141.005 191.14L141.025 191.15ZM140.885 165L145.425 165.55C145.485 165.84 145.485 166.09 145.495 166.38C145.565 168.69 143.975 169.82 142.055 169.88C141.415 169.9 140.725 169.82 140.075 169.59L140.875 164.99L140.885 165Z" fill="#4DE89B"/>
<path d="M195.675 167.87C201.765 166.02 205.935 165.6 208.535 165.52C220.375 165.17 225.045 169.99 225.195 175.2C225.385 181.68 219.005 186.94 214.195 187.08C212.475 187.13 210.595 186.6 209.415 184.96C214.535 183.58 217.825 180.19 217.745 177.24C217.665 174.49 214.495 172.12 206.885 172.35C204.235 172.43 200.995 172.82 197.135 173.62L195.685 167.86L195.675 167.87Z" fill="#4DE89B"/>
<path d="M112.075 66.63C110.425 63.98 107.505 61.32 107.505 61.32L100.555 67.17L104.035 70.46C99.435 70.67 93.225 71.08 87.355 71.55C93.765 70.19 99.365 66.93 100.825 61.16C102.035 56.33 102.545 54.14 102.545 54.14L80.385 50.92C79.605 55.26 78.265 62.06 75.305 72.67L77.955 78.71C85.365 77.43 96.895 76.33 102.835 75.87L105.035 71.48L110.345 76.69C112.355 75.23 113.275 73.03 113.275 70.84C113.275 69.38 112.905 67.91 112.085 66.63H112.075Z" fill="#6EFFAC"/>
<path d="M117.365 126.58L125.025 118.6C125.025 118.6 128.585 121.08 130.205 123.46C131.175 124.86 131.715 126.48 131.715 128.21C131.715 130.91 130.315 133.82 127.725 135.65L117.365 126.59V126.58Z" fill="#6EFFAC"/>
<path d="M148.555 93.91C144.025 94.99 139.385 96.07 134.965 96.93V99.84C134.965 101.57 135.935 102.54 137.875 102.54C140.145 102.54 145.315 101.68 153.415 97.25C153.735 98.44 153.845 99.62 153.845 100.81C153.845 104.15 152.555 107.28 149.855 108.79C145.975 111.06 139.605 112.24 133.885 112.24C123.095 112.24 118.235 108.14 118.235 99.51V99.08L118.455 85.38L135.285 85.49L135.175 91.86C138.845 91 142.615 90.03 146.175 88.95L148.545 93.91H148.555Z" fill="#6EFFAC"/>
<path d="M205.495 76.85C204.735 77.89 186.585 100.69 171.355 100.69C166.815 100.69 162.275 98.89 159.535 95.77C174.385 88.3 186.865 78.46 194.625 70.71L205.505 76.86L205.495 76.85Z" fill="#6EFFAC"/>
<path d="M186.585 124.32C178.025 135.09 171.395 135.5 169.325 135.5C165.325 135.5 161.595 133.7 159.525 130.94C167.395 125.83 173.605 120.45 177.195 116.3L186.585 124.31V124.32Z" fill="#6EFFAC"/>
<path d="M215.845 116.7C219.925 119.05 226.965 123 234.375 126.33C233.265 129.54 229.435 133.12 223.995 133.12C219.915 133.12 216.335 131.39 208.675 126.7L215.835 116.7H215.845Z" fill="#6EFFAC"/>
<path d="M311.045 63.17C311.045 70.5 307.335 78.85 295.355 79.01H294.875C294.875 79.01 295.355 74.11 295.355 71.45L277.805 72.94L275.485 68.37C275.205 70.68 274.925 72.99 274.375 74.78C273.455 78.04 270.405 80.38 267.105 80.42C266.465 80.42 265.915 80.43 265.275 80.23L265.735 73.67C264.545 75.25 262.735 76.01 260.825 76.04C258.565 76.08 256.225 74.98 252.905 71.84C248.185 80.34 244.915 83.04 238.935 83.11C236.495 83.14 234.065 82.55 232.325 81.15C237.705 72.95 242.965 62.64 245.695 55.19L258.015 60.68C257.655 61.83 257.115 63.29 256.485 64.75C259.095 67.06 262.265 69.58 265.815 71.69L266.455 62.93L275.755 63.94L275.565 66.88C277.055 66.64 278.635 66.39 280.215 66.04L278.815 56.25L295.725 55.19C295.725 55.19 295.435 59.3 295.155 63.88L311.035 61.76V63.16L311.045 63.17Z" fill="#6EFFAC"/>
<path d="M264.065 117.45L257.005 122.9L258.265 124.48L250.465 125.33C250.555 122.87 250.555 119.06 250.635 115.16H264.695L265.325 90.74L258.075 90.45L259.435 84.03L248.425 83.01L248.515 90.08L239.615 89.1L239.875 126.7L235.685 127.4L237.605 134.67L258.355 130.26L259.355 126.05L264.525 132.93C267.085 131.44 268.085 128.66 268.085 126.05C268.085 122.93 266.435 120.18 264.065 117.44V117.45ZM248.955 94.71L257.995 95.01L258.175 102.87C255.115 102.55 251.625 102.21 248.595 102.09C248.685 99.02 248.865 96.45 248.945 94.71H248.955ZM248.515 105.99L258.175 106.9L258.265 110.83L248.425 110.71C248.515 109.17 248.515 107.53 248.515 105.98V105.99Z" fill="#6EFFAC"/>
<path d="M97.565 17.34L97.965 12.05C102.995 11.65 118.475 10.99 124.035 10.99L124.915 16.24L97.565 17.34Z" fill="#6EFFAC"/>
<path d="M189.755 4.63C187.905 7.67 183.405 14.2 181.815 16.94C183.405 19.68 187.725 24.53 191.035 27.75C190.505 29.07 189.495 29.56 188.345 29.56C187.505 29.56 186.625 29.34 185.785 28.94C184.155 28.23 177.585 21.84 174.005 15.75C176.215 12.04 181.155 3.66 182.915 0.580002L189.755 4.64V4.63Z" fill="#6EFFAC"/>
<path d="M253.795 16.56C246.025 22.14 240.685 23.64 240.685 23.64C237.445 20.85 236.155 17.73 236.155 14.78C236.155 9.2 241.255 3.29 248.415 3.29C254.925 3.29 261.315 8.1 261.315 15.59C261.315 20.61 258.365 25.66 254.645 25.66C253.475 25.66 252.465 25.17 252.215 24.41C255.045 23.56 257.475 19.96 257.475 15.96C257.475 10.5 253.225 7.55 249.105 7.55C244.985 7.55 242.225 10.54 242.225 13.7C242.225 15.4 243.035 17.1 244.855 18.27C244.855 18.27 247.605 17.5 251.855 13.98L253.795 16.57V16.56Z" fill="#6EFFAC"/>
<path d="M103.115 171.61L103.415 175.14C112.635 176.09 116.195 179.87 116.305 183.66C116.445 188.38 111.445 192.07 108.345 192.16C106.475 192.22 104.825 191.08 104.575 189.37C107.505 188.64 109.135 187.22 109.085 185.7C109.015 183.34 104.955 180.71 95.395 180.21C95.095 178.55 94.765 175.51 94.615 172.12L87.795 172.57L88.145 169.61L94.555 168.68C94.535 166.32 94.615 164.01 94.845 161.98L102.265 161.96L102.725 167.65L106.655 167.39L107.215 171.36L103.095 171.63L103.115 171.61Z" fill="#6EFFAC"/>
<path d="M176.005 177.51C176.185 183.6 176.665 186.54 181.335 186.4C182.125 186.38 183.005 186.25 183.985 186.08C184.035 186.23 184.045 186.42 184.045 186.57C184.045 186.86 184.155 190.35 177.775 190.54C170.895 190.74 167.465 186.22 167.235 178.22V177.73C167.125 172.82 167.095 163.57 166.975 159.54L175.965 159.37C175.985 163.35 175.915 172.4 175.965 175.99L176.015 177.51H176.005Z" fill="#6EFFAC"/>
<path d="M220.345 83.12C220.345 83.12 220.345 83.13 220.355 83.14C221.395 85.12 220.635 87.57 218.655 88.61C216.675 89.65 214.225 88.89 213.185 86.91C212.245 85.13 212.785 82.98 214.335 81.8C207.785 81.73 203.335 86.05 203.335 86.05C205.095 109.22 234.005 96.63 234.005 96.63C229.265 88.94 224.575 84.96 220.345 83.13V83.12Z" fill="#6EFFAC"/>
<path d="M84.105 138.41C90.6772 138.41 96.005 133.082 96.005 126.51C96.005 119.938 90.6772 114.61 84.105 114.61C77.5328 114.61 72.205 119.938 72.205 126.51C72.205 133.082 77.5328 138.41 84.105 138.41Z" fill="#6EFFAC"/>
</g>
<defs>
<clipPath id="clip0_780_6">
<rect width="311.65" height="192.16" fill="white" transform="translate(0.175003)"/>
</clipPath>
</defs>
</svg>
