<svg width="32" height="32" viewBox="0 0 32 32" fill="none" xmlns="http://www.w3.org/2000/svg">
<path d="M18.8201 16L25.4001 9.42C26.1801 8.64 26.1801 7.38 25.4001 6.6C24.6201 5.82 23.3601 5.82 22.5801 6.6L16.0001 13.18L9.42012 6.58C8.64012 5.8 7.36012 5.8 6.58012 6.58C5.80012 7.36 5.80012 8.64 6.58012 9.42L13.1601 16L6.58012 22.58C5.80012 23.36 5.80012 24.62 6.58012 25.4C7.36012 26.18 8.62012 26.18 9.40012 25.4L15.9801 18.82L22.5601 25.4C23.3401 26.18 24.6001 26.18 25.3801 25.4C26.1601 24.62 26.1601 23.36 25.3801 22.58L18.8001 16H18.8201Z" fill="#1D1F21"/>
</svg>
