<svg width="16" height="16" viewBox="0 0 16 16" fill="none" xmlns="http://www.w3.org/2000/svg">
<path d="M8.32397 6.89354H9.25997V8.27954H8.32397V6.89354Z" fill="black"/>
<path d="M9.80897 6.89354H10.754V8.27054H9.80897V6.89354Z" fill="black"/>
<path fill-rule="evenodd" clip-rule="evenodd" d="M5.04997 0.719161C5.64872 0.242912 5.86622 0.105412 6.10747 0.0516615C6.29372 0.00916153 6.61372 0.0404115 7.24372 0.162912C7.67997 0.246661 7.85872 0.272912 8.01872 0.271662C8.14872 0.271662 8.22372 0.260412 8.88122 0.139162C9.38747 0.0466615 9.44997 0.0391615 9.68122 0.0391615C9.86747 0.0391615 9.88872 0.0416615 9.98122 0.0729115C10.1812 0.141662 10.4237 0.301661 10.8562 0.645411C11.1575 0.885411 11.3687 1.04416 11.46 1.09916C11.595 1.18041 11.7425 1.23666 12.225 1.38666C13.055 1.64541 13.2137 1.71666 13.4012 1.91666C13.5475 2.07041 13.6537 2.26791 13.95 2.93166C14.0838 3.23178 14.1529 3.38811 14.2467 3.52777C14.3518 3.68419 14.488 3.81971 14.7812 4.11291C15.3262 4.65791 15.4762 4.84416 15.545 5.06166C15.605 5.25291 15.6125 5.59291 15.5687 6.18791C15.5437 6.52166 15.5437 6.90791 15.5687 7.05166C15.5937 7.19416 15.6275 7.31166 15.765 7.73791C15.9525 8.32166 16.01 8.58041 15.9962 8.78041C15.9775 9.05416 15.9062 9.20791 15.4612 9.93916C15.0875 10.5542 15.0775 10.5792 14.95 11.2942C14.8037 12.1129 14.75 12.2892 14.5737 12.5092C14.4462 12.6704 14.2737 12.7929 13.6562 13.1629C13.4637 13.2779 13.2612 13.4042 13.2062 13.4429C13.005 13.5842 12.9137 13.6854 12.4525 14.2767C12.025 14.8254 11.855 14.9817 11.5975 15.0604C11.4412 15.1079 11.2162 15.1667 11.1312 15.1804C11.05 15.1942 10.5025 15.2379 10.25 15.2504C9.88497 15.2679 9.72872 15.3142 9.20497 15.5567C8.68372 15.7979 8.38497 15.9154 8.19372 15.9504C8.06372 15.9754 7.88122 15.9704 7.74997 15.9392C7.54497 15.8904 7.22872 15.7642 6.83747 15.5754C6.30497 15.3179 6.05247 15.2542 5.48122 15.2317C5.32247 15.2254 5.16747 15.2167 5.13747 15.2129C4.97622 15.1904 4.43247 15.0754 4.36372 15.0492C4.23622 15.0017 4.13997 14.9354 4.00122 14.8004C3.83997 14.6442 3.76497 14.5554 3.45622 14.1567C3.22076 13.8538 3.10918 13.7058 2.97417 13.5837C2.82893 13.4524 2.65657 13.3511 2.27372 13.1192C1.75747 12.8079 1.65247 12.7342 1.49247 12.5754C1.38372 12.4667 1.35997 12.4342 1.30872 12.3317C1.21747 12.1454 1.15122 11.8767 1.04872 11.2879C0.962469 10.7867 0.917469 10.6179 0.821219 10.4254C0.794969 10.3704 0.644969 10.1142 0.489969 9.85666C0.102469 9.21416 0.018719 9.03166 0.00371897 8.80291C-0.010031 8.58791 0.049969 8.31666 0.238719 7.73166C0.469969 7.01666 0.484969 6.91916 0.443719 6.35666C0.433719 6.21541 0.418719 5.99041 0.412469 5.85666C0.404969 5.72291 0.397469 5.60666 0.394969 5.59916C0.386219 5.57416 0.413719 5.26166 0.432469 5.16291C0.488719 4.88291 0.564969 4.78041 1.20622 4.13166C1.50023 3.83385 1.64009 3.69468 1.74922 3.53457C1.85584 3.37815 1.93314 3.20174 2.09622 2.83791C2.30747 2.36541 2.37872 2.22291 2.47872 2.07166C2.61122 1.87041 2.71872 1.78041 2.96872 1.66541C3.15122 1.58166 3.18372 1.57041 3.73372 1.40041C4.26372 1.23666 4.35622 1.20291 4.50247 1.11791C4.63997 1.03916 4.72872 0.974161 5.04997 0.719161ZM5.45798 5.15085C5.45933 5.16882 5.4606 5.18573 5.46197 5.20154C5.47097 5.30954 5.50697 5.39954 5.65997 5.39954C5.92097 5.39954 6.11897 5.14754 6.11897 4.93154C6.11897 4.65254 5.74097 4.29254 5.26397 3.96854C5.17397 3.90554 5.10197 3.86054 5.03897 3.90554C4.96697 3.95954 4.97597 4.02254 5.04797 4.11254C5.41372 4.56142 5.44166 4.93352 5.45798 5.15085ZM12.266 10.9885C12.266 10.9255 12.23 10.8805 12.104 10.8265C11.429 10.5295 10.628 9.95354 10.106 8.53154H10.754V8.77454C10.754 8.88254 10.772 8.94554 10.925 8.94554C11.15 8.94554 11.33 8.74754 11.33 8.60354C11.3286 8.54873 11.3273 8.4955 11.326 8.44345C11.3185 8.14511 11.312 7.8854 11.312 7.58654V7.07354C11.465 7.04654 11.591 6.97454 11.591 6.86654C11.591 6.72254 11.204 6.45254 10.907 6.32654C10.835 6.40754 10.754 6.53354 10.7 6.63254H9.80897V5.56154H11.618C11.798 5.56154 11.888 5.48954 11.888 5.38154C11.888 5.16554 11.33 4.85954 10.997 4.69754C10.817 4.89554 10.682 5.11154 10.574 5.30054H9.80897V4.47254C10.061 4.45454 10.196 4.37354 10.196 4.26554C10.196 4.12154 9.92597 3.98654 9.25097 3.94154V5.30054C8.57597 5.30054 7.86497 5.25554 7.22597 5.16554C7.36997 5.50754 7.72997 5.56154 8.10797 5.56154H9.25097L9.25997 6.63254H8.36897C8.19797 6.49754 7.97297 6.35354 7.78397 6.27254V7.48754C7.78397 7.8044 7.77846 8.11575 7.77175 8.49486C7.76989 8.60032 7.76793 8.71102 7.76597 8.82854C7.76597 8.93654 7.78397 8.99954 7.92797 8.99954C8.18897 8.99954 8.32397 8.81054 8.32397 8.70254V8.53154H8.87297C8.46797 9.58454 7.30697 10.6915 6.21797 11.2675C6.09197 11.3305 6.07397 11.4025 6.10097 11.4655C6.12797 11.5285 6.20897 11.5465 6.31697 11.5015C7.43297 11.0245 8.71097 10.0615 9.25997 9.10754C9.25912 9.20013 9.25827 9.294 9.25741 9.38871C9.24919 10.2975 9.24027 11.2832 9.22397 11.9515C9.22397 12.0775 9.24197 12.1585 9.39497 12.1585C9.67397 12.1585 9.83597 11.9425 9.83597 11.8075C9.81797 10.8895 9.80897 9.57554 9.80897 8.57654V8.53154H9.86297C10.259 9.81854 10.808 10.7815 11.447 11.3845C11.501 11.2945 11.789 11.1595 12.086 11.1055C12.23 11.0785 12.266 11.0515 12.266 10.9885ZM4.57097 5.80454H7.21697C7.36097 5.80454 7.45997 5.75954 7.45997 5.64254C7.45997 5.47154 7.01897 5.17454 6.73997 5.04854C6.58697 5.21954 6.48797 5.37254 6.38897 5.54354H5.62397C4.92197 5.54354 4.37297 5.50754 3.86897 5.42654C3.96797 5.72354 4.29197 5.80454 4.57097 5.80454ZM5.97497 9.56654H7.27097C7.41497 9.56654 7.50497 9.52154 7.50497 9.42254C7.50497 9.26954 7.16297 8.99954 6.84797 8.86454C6.73097 8.99954 6.60497 9.17954 6.53297 9.30554H6.01997C6.08297 8.89154 6.11897 8.45054 6.13697 7.97354H7.36097C7.50497 7.97354 7.59497 7.92854 7.59497 7.82954C7.59497 7.67654 7.25297 7.40654 6.93797 7.27154C6.82097 7.40654 6.69497 7.58654 6.62297 7.71254H5.88497C6.19997 7.43354 6.56897 6.96554 6.78497 6.56954C7.00997 6.59654 7.12697 6.56054 7.12697 6.46154C7.12697 6.29054 6.73097 6.04754 6.28097 5.91254C6.27197 6.46154 5.97497 7.23554 5.61497 7.71254H5.53397C4.74197 7.71254 4.22897 7.65854 3.73397 7.57754C3.84197 7.88354 4.15697 7.97354 4.43597 7.97354H5.50697C5.51597 8.44154 5.49797 8.88254 5.45297 9.30554C4.78697 9.30554 4.30097 9.25154 3.82397 9.17054C3.93197 9.47654 4.24697 9.56654 4.52597 9.56654H5.40797C5.24597 10.5475 4.83197 11.3755 3.89597 11.9245C3.78797 11.9875 3.76997 12.0685 3.79697 12.1225C3.82397 12.1855 3.91397 12.1945 4.03097 12.1405C5.20997 11.6005 5.74997 10.7275 5.97497 9.56654ZM4.71497 6.02954C4.64297 5.97554 4.55297 5.93054 4.48997 5.98454C4.42697 6.03854 4.43597 6.10154 4.50797 6.17354C4.8282 6.5338 4.86358 6.87981 4.88649 7.1039C4.88933 7.13173 4.89199 7.15768 4.89497 7.18154C4.90397 7.28954 4.93997 7.37954 5.09297 7.37954C5.31797 7.37954 5.50697 7.17254 5.50697 6.97454C5.50697 6.66854 5.11097 6.31754 4.71497 6.02954Z" fill="black"/>
</svg>
