<svg width="16" height="16" viewBox="0 0 16 16" fill="none" xmlns="http://www.w3.org/2000/svg">
<path fill-rule="evenodd" clip-rule="evenodd" d="M5.04997 0.719161C5.64872 0.242912 5.86622 0.105412 6.10747 0.0516615C6.29372 0.00916153 6.61372 0.0404115 7.24372 0.162912C7.67997 0.246661 7.85872 0.272912 8.01872 0.271662C8.14872 0.271662 8.22372 0.260412 8.88122 0.139162C9.38747 0.0466615 9.44997 0.0391615 9.68122 0.0391615C9.86747 0.0391615 9.88872 0.0416615 9.98122 0.0729115C10.1812 0.141662 10.4237 0.301661 10.8562 0.645411C11.1575 0.885411 11.3687 1.04416 11.46 1.09916C11.595 1.18041 11.7425 1.23666 12.225 1.38666C13.055 1.64541 13.2137 1.71666 13.4012 1.91666C13.5475 2.07041 13.6537 2.26791 13.95 2.93166C14.0838 3.23178 14.1529 3.38811 14.2467 3.52777C14.3518 3.68419 14.488 3.81971 14.7812 4.11291C15.3262 4.65791 15.4762 4.84416 15.545 5.06166C15.605 5.25291 15.6125 5.59291 15.5687 6.18791C15.5437 6.52166 15.5437 6.90791 15.5687 7.05166C15.5937 7.19416 15.6275 7.31166 15.765 7.73791C15.9525 8.32166 16.01 8.58041 15.9962 8.78041C15.9775 9.05416 15.9062 9.20791 15.4612 9.93916C15.0875 10.5542 15.0775 10.5792 14.95 11.2942C14.8037 12.1129 14.75 12.2892 14.5737 12.5092C14.4462 12.6704 14.2737 12.7929 13.6562 13.1629C13.4637 13.2779 13.2612 13.4042 13.2062 13.4429C13.005 13.5842 12.9137 13.6854 12.4525 14.2767C12.025 14.8254 11.855 14.9817 11.5975 15.0604C11.4412 15.1079 11.2162 15.1667 11.1312 15.1804C11.05 15.1942 10.5025 15.2379 10.25 15.2504C9.88497 15.2679 9.72872 15.3142 9.20497 15.5567C8.68372 15.7979 8.38497 15.9154 8.19372 15.9504C8.06372 15.9754 7.88122 15.9704 7.74997 15.9392C7.54497 15.8904 7.22872 15.7642 6.83747 15.5754C6.30497 15.3179 6.05247 15.2542 5.48122 15.2317C5.32247 15.2254 5.16747 15.2167 5.13747 15.2129C4.97622 15.1904 4.43247 15.0754 4.36372 15.0492C4.23622 15.0017 4.13997 14.9354 4.00122 14.8004C3.83997 14.6442 3.76497 14.5554 3.45622 14.1567C3.22076 13.8538 3.10918 13.7058 2.97417 13.5837C2.82893 13.4524 2.65657 13.3511 2.27372 13.1192C1.75747 12.8079 1.65247 12.7342 1.49247 12.5754C1.38372 12.4667 1.35997 12.4342 1.30872 12.3317C1.21747 12.1454 1.15122 11.8767 1.04872 11.2879C0.962469 10.7867 0.917469 10.6179 0.821219 10.4254C0.794969 10.3704 0.644969 10.1142 0.489969 9.85666C0.102469 9.21416 0.018719 9.03166 0.00371897 8.80291C-0.010031 8.58791 0.049969 8.31666 0.238719 7.73166C0.469969 7.01666 0.484969 6.91916 0.443719 6.35666C0.433719 6.21541 0.418719 5.99041 0.412469 5.85666C0.404969 5.72291 0.397469 5.60666 0.394969 5.59916C0.386219 5.57416 0.413719 5.26166 0.432469 5.16291C0.488719 4.88291 0.564969 4.78041 1.20622 4.13166C1.50023 3.83385 1.64009 3.69468 1.74922 3.53457C1.85584 3.37815 1.93314 3.20174 2.09622 2.83791C2.30747 2.36541 2.37872 2.22291 2.47872 2.07166C2.61122 1.87041 2.71872 1.78041 2.96872 1.66541C3.15122 1.58166 3.18372 1.57041 3.73372 1.40041C4.26372 1.23666 4.35622 1.20291 4.50247 1.11791C4.63997 1.03916 4.72872 0.974161 5.04997 0.719161ZM12.096 6.759C12.096 6.57 11.547 6.219 11.142 6.039C10.971 6.237 10.827 6.453 10.692 6.687H8.46896V5.931H10.647C10.845 5.931 10.926 5.859 10.926 5.742C10.926 5.571 10.413 5.265 10.08 5.112C9.92696 5.292 9.79196 5.481 9.68396 5.67H8.46896V4.923H11.241C11.448 4.923 11.538 4.86 11.538 4.734C11.538 4.554 10.944 4.203 10.611 4.059C10.449 4.248 10.305 4.455 10.188 4.662H8.46896V4.149C8.66696 4.131 8.84696 4.068 8.84696 3.942C8.84696 3.771 8.41496 3.654 7.84796 3.6V4.662C6.81296 4.662 5.72396 4.617 4.68896 4.491C4.77896 4.851 5.16596 4.923 5.46296 4.923H7.84796V5.67C6.90296 5.67 6.07496 5.634 5.24696 5.526C5.33696 5.859 5.66996 5.931 6.01196 5.931H7.84796V6.687C6.63296 6.687 5.35496 6.66 4.20296 6.507C4.30196 6.858 4.72496 6.948 5.05796 6.948H7.49696C7.39796 7.353 7.16396 7.794 6.94796 8.037C6.53396 8.037 6.06596 7.902 5.77796 7.749C5.87696 8.496 6.20996 8.802 6.42596 8.802C6.56096 8.802 6.59696 8.64 6.58796 8.496C7.36196 8.406 8.03696 8.28 8.54096 8.1C7.99196 8.64 7.23596 9.036 6.74996 9.243C5.98496 9.234 5.24696 9.09 4.67996 8.856C4.82396 9.693 5.24696 10.062 5.46296 10.062C5.58896 10.062 5.65196 9.891 5.64296 9.738C6.43496 9.72 7.19096 9.666 7.86596 9.585V9.846C7.86596 10.3558 7.85229 10.8519 7.83686 11.4118C7.83459 11.4944 7.83227 11.5784 7.82996 11.664C7.82996 11.79 7.87496 11.871 8.04596 11.871C8.35196 11.871 8.51396 11.628 8.51396 11.52C8.49596 10.989 8.48696 10.422 8.48696 9.846V9.504C9.18896 9.405 9.79196 9.27 10.269 9.126C10.521 9.369 10.665 9.576 10.746 9.72C10.7516 9.72959 10.7572 9.7394 10.7628 9.74931C10.8208 9.85092 10.8848 9.963 11.016 9.963C11.25 9.963 11.43 9.729 11.43 9.504C11.43 9.099 10.629 8.667 9.52196 8.316C9.40496 8.28 9.31496 8.28 9.27896 8.361C9.23977 8.45505 9.30296 8.48767 9.38532 8.53019C9.39753 8.5365 9.41017 8.54303 9.42296 8.55C9.67496 8.676 9.88196 8.811 10.053 8.946C9.41396 9.081 8.45996 9.216 7.24496 9.234C8.02796 8.955 8.92796 8.478 9.58496 7.911C9.83696 7.965 10.008 7.92 10.008 7.803C10.008 7.641 9.56696 7.344 9.13496 7.218C9.05396 7.452 8.91896 7.668 8.74796 7.866C8.41496 7.947 7.87496 8.01 7.28096 8.028C7.51496 7.893 7.80296 7.704 8.00096 7.461C8.21696 7.488 8.38796 7.443 8.38796 7.326C8.38796 7.209 8.18096 7.065 7.91096 6.948H11.808C11.988 6.948 12.096 6.885 12.096 6.759ZM11.808 11.142C11.808 10.944 11.691 10.728 11.295 10.548C10.845 10.341 10.044 10.116 9.19796 9.945C9.08096 9.918 8.96396 9.918 8.93696 10.017C8.91039 10.1233 8.9884 10.1511 9.11096 10.1949L9.11696 10.197C10.395 10.665 10.908 11.106 11.187 11.349C11.2041 11.3644 11.2205 11.3804 11.2368 11.3963C11.3063 11.464 11.3729 11.529 11.475 11.529C11.646 11.529 11.808 11.331 11.808 11.142ZM7.49696 10.548C7.49696 10.404 7.18196 10.107 6.72296 9.936C6.20096 10.746 4.67996 11.151 4.11296 11.286C3.99596 11.313 3.88796 11.34 3.90596 11.457C3.92396 11.574 4.03196 11.574 4.17596 11.556C4.66196 11.484 6.16496 11.196 7.02896 10.647C7.34396 10.746 7.49696 10.656 7.49696 10.548Z" fill="black"/>
</svg>
