<svg width="32" height="32" viewBox="0 0 32 32" fill="none" xmlns="http://www.w3.org/2000/svg">
<path d="M1 16C1 17.6569 2.34315 19 4 19C5.65685 19 7 17.6569 7 16C7 14.3431 5.65685 13 4 13C2.34315 13 1 14.3431 1 16Z" fill="#1D1F21"/>
<path d="M13 16C13 17.6569 14.3431 19 16 19C17.6569 19 19 17.6569 19 16C19 14.3431 17.6569 13 16 13C14.3431 13 13 14.3431 13 16Z" fill="#1D1F21"/>
<path d="M28 19C26.3431 19 25 17.6569 25 16C25 14.3431 26.3431 13 28 13C29.6569 13 31 14.3431 31 16C31 17.6569 29.6569 19 28 19Z" fill="#1D1F21"/>
</svg>
